%TF.GenerationSoftware,KiCad,Pcbnew,(6.0.7-1)-1*%
%TF.CreationDate,2022-10-27T13:07:23+02:00*%
%TF.ProjectId,Beerator,42656572-6174-46f7-922e-6b696361645f,rev?*%
%TF.SameCoordinates,Original*%
%TF.FileFunction,Soldermask,Top*%
%TF.FilePolarity,Negative*%
%FSLAX46Y46*%
G04 Gerber Fmt 4.6, Leading zero omitted, Abs format (unit mm)*
G04 Created by KiCad (PCBNEW (6.0.7-1)-1) date 2022-10-27 13:07:23*
%MOMM*%
%LPD*%
G01*
G04 APERTURE LIST*
G04 Aperture macros list*
%AMRoundRect*
0 Rectangle with rounded corners*
0 $1 Rounding radius*
0 $2 $3 $4 $5 $6 $7 $8 $9 X,Y pos of 4 corners*
0 Add a 4 corners polygon primitive as box body*
4,1,4,$2,$3,$4,$5,$6,$7,$8,$9,$2,$3,0*
0 Add four circle primitives for the rounded corners*
1,1,$1+$1,$2,$3*
1,1,$1+$1,$4,$5*
1,1,$1+$1,$6,$7*
1,1,$1+$1,$8,$9*
0 Add four rect primitives between the rounded corners*
20,1,$1+$1,$2,$3,$4,$5,0*
20,1,$1+$1,$4,$5,$6,$7,0*
20,1,$1+$1,$6,$7,$8,$9,0*
20,1,$1+$1,$8,$9,$2,$3,0*%
G04 Aperture macros list end*
%ADD10R,1.500000X2.000000*%
%ADD11R,3.800000X2.000000*%
%ADD12R,1.000000X1.300000*%
%ADD13R,1.000000X1.500000*%
%ADD14R,1.500000X1.000000*%
%ADD15R,2.400000X0.740000*%
%ADD16RoundRect,0.150000X-0.150000X0.825000X-0.150000X-0.825000X0.150000X-0.825000X0.150000X0.825000X0*%
%ADD17RoundRect,0.237500X0.237500X-0.250000X0.237500X0.250000X-0.237500X0.250000X-0.237500X-0.250000X0*%
%ADD18C,1.200000*%
%ADD19RoundRect,0.250000X-0.725000X0.600000X-0.725000X-0.600000X0.725000X-0.600000X0.725000X0.600000X0*%
%ADD20O,1.950000X1.700000*%
%ADD21RoundRect,0.250000X0.600000X0.725000X-0.600000X0.725000X-0.600000X-0.725000X0.600000X-0.725000X0*%
%ADD22O,1.700000X1.950000*%
%ADD23R,1.600000X1.600000*%
%ADD24C,1.600000*%
%ADD25RoundRect,0.237500X-0.300000X-0.237500X0.300000X-0.237500X0.300000X0.237500X-0.300000X0.237500X0*%
%ADD26RoundRect,0.237500X0.237500X-0.300000X0.237500X0.300000X-0.237500X0.300000X-0.237500X-0.300000X0*%
%ADD27RoundRect,0.237500X-0.237500X0.300000X-0.237500X-0.300000X0.237500X-0.300000X0.237500X0.300000X0*%
%ADD28RoundRect,0.237500X-0.237500X0.250000X-0.237500X-0.250000X0.237500X-0.250000X0.237500X0.250000X0*%
%ADD29RoundRect,0.237500X0.237500X-0.287500X0.237500X0.287500X-0.237500X0.287500X-0.237500X-0.287500X0*%
%ADD30RoundRect,0.237500X-0.237500X0.287500X-0.237500X-0.287500X0.237500X-0.287500X0.237500X0.287500X0*%
%ADD31RoundRect,0.237500X-0.250000X-0.237500X0.250000X-0.237500X0.250000X0.237500X-0.250000X0.237500X0*%
%ADD32RoundRect,0.250000X-0.600000X-0.725000X0.600000X-0.725000X0.600000X0.725000X-0.600000X0.725000X0*%
%ADD33C,0.800000*%
%ADD34C,6.400000*%
%ADD35RoundRect,0.150000X0.150000X-0.512500X0.150000X0.512500X-0.150000X0.512500X-0.150000X-0.512500X0*%
%ADD36RoundRect,0.150000X-0.825000X-0.150000X0.825000X-0.150000X0.825000X0.150000X-0.825000X0.150000X0*%
%ADD37RoundRect,0.075000X-0.700000X-0.075000X0.700000X-0.075000X0.700000X0.075000X-0.700000X0.075000X0*%
%ADD38RoundRect,0.075000X-0.075000X-0.700000X0.075000X-0.700000X0.075000X0.700000X-0.075000X0.700000X0*%
%ADD39RoundRect,0.250000X-0.600000X-0.750000X0.600000X-0.750000X0.600000X0.750000X-0.600000X0.750000X0*%
%ADD40O,1.700000X2.000000*%
G04 APERTURE END LIST*
D10*
%TO.C,U201*%
X118900000Y-84650000D03*
X116600000Y-84650000D03*
X114300000Y-84650000D03*
D11*
X116600000Y-90950000D03*
%TD*%
D12*
%TO.C,Y301*%
X84900000Y-73900000D03*
X84900000Y-71700000D03*
X83100000Y-71700000D03*
X83100000Y-73900000D03*
%TD*%
D13*
%TO.C,JP504*%
X137750000Y-78400000D03*
X139050000Y-78400000D03*
%TD*%
D14*
%TO.C,JP503*%
X141000000Y-70950000D03*
X141000000Y-72250000D03*
%TD*%
D13*
%TO.C,JP502*%
X64350000Y-78400000D03*
X65650000Y-78400000D03*
%TD*%
D14*
%TO.C,JP501*%
X59000000Y-70250000D03*
X59000000Y-68950000D03*
%TD*%
D13*
%TO.C,JP302*%
X109150000Y-59200000D03*
X110450000Y-59200000D03*
%TD*%
D14*
%TO.C,JP301*%
X116800000Y-62850000D03*
X116800000Y-61550000D03*
%TD*%
D15*
%TO.C,JSTLINK301*%
X112950000Y-69210000D03*
X109050000Y-69210000D03*
X112950000Y-67940000D03*
X109050000Y-67940000D03*
X112950000Y-66670000D03*
X109050000Y-66670000D03*
X112950000Y-65400000D03*
X109050000Y-65400000D03*
X112950000Y-64130000D03*
X109050000Y-64130000D03*
X112950000Y-62860000D03*
X109050000Y-62860000D03*
X112950000Y-61590000D03*
X109050000Y-61590000D03*
%TD*%
D16*
%TO.C,UDRIVER502*%
X138800000Y-70850000D03*
X137530000Y-70850000D03*
X136260000Y-70850000D03*
X134990000Y-70850000D03*
X134990000Y-75800000D03*
X136260000Y-75800000D03*
X137530000Y-75800000D03*
X138800000Y-75800000D03*
%TD*%
D17*
%TO.C,R202*%
X118600000Y-77912500D03*
X118600000Y-76087500D03*
%TD*%
D18*
%TO.C,JMCC0_501*%
X51800000Y-64700000D03*
D19*
X53800000Y-66300000D03*
D20*
X53800000Y-68800000D03*
X53800000Y-71300000D03*
X53800000Y-73800000D03*
X53800000Y-76300000D03*
X53800000Y-78800000D03*
%TD*%
D18*
%TO.C,JSERVO501*%
X103400000Y-47600000D03*
D21*
X101800000Y-49600000D03*
D22*
X99300000Y-49600000D03*
X96800000Y-49600000D03*
%TD*%
D23*
%TO.C,C503*%
X63644888Y-64800000D03*
D24*
X65644888Y-64800000D03*
%TD*%
D25*
%TO.C,C303*%
X85537500Y-76000000D03*
X87262500Y-76000000D03*
%TD*%
D26*
%TO.C,C501*%
X59200000Y-74862500D03*
X59200000Y-73137500D03*
%TD*%
D27*
%TO.C,C508*%
X59200000Y-76737500D03*
X59200000Y-78462500D03*
%TD*%
D28*
%TO.C,R402*%
X132200000Y-52687500D03*
X132200000Y-54512500D03*
%TD*%
D29*
%TO.C,D202*%
X117000000Y-77875000D03*
X117000000Y-76125000D03*
%TD*%
D27*
%TO.C,C510*%
X58800000Y-65337500D03*
X58800000Y-67062500D03*
%TD*%
D18*
%TO.C,JTOF0_401*%
X141400000Y-46800000D03*
D21*
X139800000Y-48800000D03*
D22*
X137300000Y-48800000D03*
X134800000Y-48800000D03*
X132300000Y-48800000D03*
X129800000Y-48800000D03*
X127300000Y-48800000D03*
%TD*%
D25*
%TO.C,C506*%
X137537500Y-80600000D03*
X139262500Y-80600000D03*
%TD*%
D30*
%TO.C,D201*%
X110600000Y-77925000D03*
X110600000Y-79675000D03*
%TD*%
D31*
%TO.C,R301*%
X87487500Y-73800000D03*
X89312500Y-73800000D03*
%TD*%
D18*
%TO.C,JCOLOR_404*%
X108200000Y-50875000D03*
D32*
X109800000Y-48875000D03*
D22*
X112300000Y-48875000D03*
X114800000Y-48875000D03*
X117300000Y-48875000D03*
X119800000Y-48875000D03*
%TD*%
D26*
%TO.C,C202*%
X116200000Y-81462500D03*
X116200000Y-79737500D03*
%TD*%
D33*
%TO.C,H102*%
X150000000Y-52400000D03*
X150000000Y-47600000D03*
D34*
X150000000Y-50000000D03*
D33*
X151697056Y-51697056D03*
X148302944Y-48302944D03*
X152400000Y-50000000D03*
X147600000Y-50000000D03*
X151697056Y-48302944D03*
X148302944Y-51697056D03*
%TD*%
D23*
%TO.C,C301*%
X83800000Y-65844888D03*
D24*
X83800000Y-67844888D03*
%TD*%
D26*
%TO.C,C203*%
X118800000Y-81462500D03*
X118800000Y-79737500D03*
%TD*%
D35*
%TO.C,REG3-201*%
X121050000Y-80937500D03*
X122000000Y-80937500D03*
X122950000Y-80937500D03*
X122950000Y-78662500D03*
X121050000Y-78662500D03*
%TD*%
D33*
%TO.C,H101*%
X50000000Y-47600000D03*
X51697056Y-51697056D03*
X48302944Y-51697056D03*
X47600000Y-50000000D03*
X51697056Y-48302944D03*
X50000000Y-52400000D03*
X52400000Y-50000000D03*
D34*
X50000000Y-50000000D03*
D33*
X48302944Y-48302944D03*
%TD*%
D26*
%TO.C,C302*%
X87400000Y-71262500D03*
X87400000Y-69537500D03*
%TD*%
D25*
%TO.C,C204*%
X121137500Y-76800000D03*
X122862500Y-76800000D03*
%TD*%
D26*
%TO.C,C201*%
X114000000Y-81462500D03*
X114000000Y-79737500D03*
%TD*%
%TO.C,C509*%
X143200000Y-72137500D03*
X143200000Y-73862500D03*
%TD*%
D27*
%TO.C,C502*%
X136095000Y-66200000D03*
X136095000Y-67925000D03*
%TD*%
D28*
%TO.C,R403*%
X63150000Y-53212500D03*
X63150000Y-55037500D03*
%TD*%
D17*
%TO.C,R401*%
X65550000Y-55037500D03*
X65550000Y-53212500D03*
%TD*%
D18*
%TO.C,JDistance0_401*%
X73300000Y-90475000D03*
D32*
X74900000Y-88475000D03*
D22*
X77400000Y-88475000D03*
X79900000Y-88475000D03*
%TD*%
D17*
%TO.C,R404*%
X134800000Y-54512500D03*
X134800000Y-52687500D03*
%TD*%
D18*
%TO.C,JCOLOR_401*%
X75600000Y-50275000D03*
D32*
X77200000Y-48275000D03*
D22*
X79700000Y-48275000D03*
X82200000Y-48275000D03*
X84700000Y-48275000D03*
X87200000Y-48275000D03*
%TD*%
D34*
%TO.C,H104*%
X150000000Y-90000000D03*
D33*
X147600000Y-90000000D03*
X151697056Y-91697056D03*
X148302944Y-88302944D03*
X152400000Y-90000000D03*
X151697056Y-88302944D03*
X150000000Y-92400000D03*
X148302944Y-91697056D03*
X150000000Y-87600000D03*
%TD*%
D31*
%TO.C,R501*%
X103287500Y-54000000D03*
X105112500Y-54000000D03*
%TD*%
D36*
%TO.C,UDRIVER501*%
X61525000Y-70495000D03*
X61525000Y-71765000D03*
X61525000Y-73035000D03*
X61525000Y-74305000D03*
X66475000Y-74305000D03*
X66475000Y-73035000D03*
X66475000Y-71765000D03*
X66475000Y-70495000D03*
%TD*%
D37*
%TO.C,USTM301*%
X91925000Y-66650000D03*
X91925000Y-67150000D03*
X91925000Y-67650000D03*
X91925000Y-68150000D03*
X91925000Y-68650000D03*
X91925000Y-69150000D03*
X91925000Y-69650000D03*
X91925000Y-70150000D03*
X91925000Y-70650000D03*
X91925000Y-71150000D03*
X91925000Y-71650000D03*
X91925000Y-72150000D03*
X91925000Y-72650000D03*
X91925000Y-73150000D03*
X91925000Y-73650000D03*
X91925000Y-74150000D03*
D38*
X93850000Y-76075000D03*
X94350000Y-76075000D03*
X94850000Y-76075000D03*
X95350000Y-76075000D03*
X95850000Y-76075000D03*
X96350000Y-76075000D03*
X96850000Y-76075000D03*
X97350000Y-76075000D03*
X97850000Y-76075000D03*
X98350000Y-76075000D03*
X98850000Y-76075000D03*
X99350000Y-76075000D03*
X99850000Y-76075000D03*
X100350000Y-76075000D03*
X100850000Y-76075000D03*
X101350000Y-76075000D03*
D37*
X103275000Y-74150000D03*
X103275000Y-73650000D03*
X103275000Y-73150000D03*
X103275000Y-72650000D03*
X103275000Y-72150000D03*
X103275000Y-71650000D03*
X103275000Y-71150000D03*
X103275000Y-70650000D03*
X103275000Y-70150000D03*
X103275000Y-69650000D03*
X103275000Y-69150000D03*
X103275000Y-68650000D03*
X103275000Y-68150000D03*
X103275000Y-67650000D03*
X103275000Y-67150000D03*
X103275000Y-66650000D03*
D38*
X101350000Y-64725000D03*
X100850000Y-64725000D03*
X100350000Y-64725000D03*
X99850000Y-64725000D03*
X99350000Y-64725000D03*
X98850000Y-64725000D03*
X98350000Y-64725000D03*
X97850000Y-64725000D03*
X97350000Y-64725000D03*
X96850000Y-64725000D03*
X96350000Y-64725000D03*
X95850000Y-64725000D03*
X95350000Y-64725000D03*
X94850000Y-64725000D03*
X94350000Y-64725000D03*
X93850000Y-64725000D03*
%TD*%
D17*
%TO.C,R201*%
X112400000Y-81512500D03*
X112400000Y-79687500D03*
%TD*%
D27*
%TO.C,C304*%
X88800000Y-66137500D03*
X88800000Y-67862500D03*
%TD*%
D23*
%TO.C,C505*%
X92400000Y-56200000D03*
D24*
X92400000Y-54200000D03*
%TD*%
D23*
%TO.C,C504*%
X139539888Y-66525000D03*
D24*
X141539888Y-66525000D03*
%TD*%
D33*
%TO.C,H103*%
X48302944Y-88302944D03*
X48302944Y-91697056D03*
X50000000Y-92400000D03*
X52400000Y-90000000D03*
X50000000Y-87600000D03*
D34*
X50000000Y-90000000D03*
D33*
X47600000Y-90000000D03*
X51697056Y-88302944D03*
X51697056Y-91697056D03*
%TD*%
D18*
%TO.C,JBat201*%
X97950000Y-90275000D03*
D39*
X99550000Y-88275000D03*
D40*
X102050000Y-88275000D03*
%TD*%
D18*
%TO.C,JTOF1_401*%
X56500000Y-50000000D03*
D32*
X58100000Y-48000000D03*
D22*
X60600000Y-48000000D03*
X63100000Y-48000000D03*
X65600000Y-48000000D03*
X68100000Y-48000000D03*
X70600000Y-48000000D03*
%TD*%
D18*
%TO.C,JDistance0_402*%
X85100000Y-90475000D03*
D32*
X86700000Y-88475000D03*
D22*
X89200000Y-88475000D03*
X91700000Y-88475000D03*
%TD*%
D27*
%TO.C,C507*%
X97000000Y-54337500D03*
X97000000Y-56062500D03*
%TD*%
D18*
%TO.C,JMCC1_501*%
X147220000Y-63875000D03*
D19*
X149220000Y-65475000D03*
D20*
X149220000Y-67975000D03*
X149220000Y-70475000D03*
X149220000Y-72975000D03*
X149220000Y-75475000D03*
X149220000Y-77975000D03*
%TD*%
M02*
