%TF.GenerationSoftware,KiCad,Pcbnew,(6.0.7-1)-1*%
%TF.CreationDate,2022-10-27T13:07:23+02:00*%
%TF.ProjectId,Beerator,42656572-6174-46f7-922e-6b696361645f,rev?*%
%TF.SameCoordinates,Original*%
%TF.FileFunction,Paste,Top*%
%TF.FilePolarity,Positive*%
%FSLAX46Y46*%
G04 Gerber Fmt 4.6, Leading zero omitted, Abs format (unit mm)*
G04 Created by KiCad (PCBNEW (6.0.7-1)-1) date 2022-10-27 13:07:23*
%MOMM*%
%LPD*%
G01*
G04 APERTURE LIST*
G04 Aperture macros list*
%AMRoundRect*
0 Rectangle with rounded corners*
0 $1 Rounding radius*
0 $2 $3 $4 $5 $6 $7 $8 $9 X,Y pos of 4 corners*
0 Add a 4 corners polygon primitive as box body*
4,1,4,$2,$3,$4,$5,$6,$7,$8,$9,$2,$3,0*
0 Add four circle primitives for the rounded corners*
1,1,$1+$1,$2,$3*
1,1,$1+$1,$4,$5*
1,1,$1+$1,$6,$7*
1,1,$1+$1,$8,$9*
0 Add four rect primitives between the rounded corners*
20,1,$1+$1,$2,$3,$4,$5,0*
20,1,$1+$1,$4,$5,$6,$7,0*
20,1,$1+$1,$6,$7,$8,$9,0*
20,1,$1+$1,$8,$9,$2,$3,0*%
G04 Aperture macros list end*
%ADD10R,1.500000X2.000000*%
%ADD11R,3.800000X2.000000*%
%ADD12R,1.000000X1.300000*%
%ADD13R,2.400000X0.740000*%
%ADD14RoundRect,0.150000X-0.150000X0.825000X-0.150000X-0.825000X0.150000X-0.825000X0.150000X0.825000X0*%
%ADD15R,0.650000X1.525000*%
%ADD16RoundRect,0.237500X0.237500X-0.250000X0.237500X0.250000X-0.237500X0.250000X-0.237500X-0.250000X0*%
%ADD17RoundRect,0.237500X-0.300000X-0.237500X0.300000X-0.237500X0.300000X0.237500X-0.300000X0.237500X0*%
%ADD18RoundRect,0.237500X0.237500X-0.300000X0.237500X0.300000X-0.237500X0.300000X-0.237500X-0.300000X0*%
%ADD19RoundRect,0.237500X-0.237500X0.300000X-0.237500X-0.300000X0.237500X-0.300000X0.237500X0.300000X0*%
%ADD20RoundRect,0.237500X-0.237500X0.250000X-0.237500X-0.250000X0.237500X-0.250000X0.237500X0.250000X0*%
%ADD21RoundRect,0.237500X0.237500X-0.287500X0.237500X0.287500X-0.237500X0.287500X-0.237500X-0.287500X0*%
%ADD22RoundRect,0.237500X-0.237500X0.287500X-0.237500X-0.287500X0.237500X-0.287500X0.237500X0.287500X0*%
%ADD23RoundRect,0.237500X-0.250000X-0.237500X0.250000X-0.237500X0.250000X0.237500X-0.250000X0.237500X0*%
%ADD24RoundRect,0.150000X0.150000X-0.512500X0.150000X0.512500X-0.150000X0.512500X-0.150000X-0.512500X0*%
%ADD25RoundRect,0.150000X-0.825000X-0.150000X0.825000X-0.150000X0.825000X0.150000X-0.825000X0.150000X0*%
%ADD26RoundRect,0.075000X-0.700000X-0.075000X0.700000X-0.075000X0.700000X0.075000X-0.700000X0.075000X0*%
%ADD27RoundRect,0.075000X-0.075000X-0.700000X0.075000X-0.700000X0.075000X0.700000X-0.075000X0.700000X0*%
G04 APERTURE END LIST*
D10*
%TO.C,U201*%
X118900000Y-84650000D03*
X116600000Y-84650000D03*
X114300000Y-84650000D03*
D11*
X116600000Y-90950000D03*
%TD*%
D12*
%TO.C,Y301*%
X84900000Y-73900000D03*
X84900000Y-71700000D03*
X83100000Y-71700000D03*
X83100000Y-73900000D03*
%TD*%
D13*
%TO.C,JSTLINK301*%
X112950000Y-69210000D03*
X109050000Y-69210000D03*
X112950000Y-67940000D03*
X109050000Y-67940000D03*
X112950000Y-66670000D03*
X109050000Y-66670000D03*
X112950000Y-65400000D03*
X109050000Y-65400000D03*
X112950000Y-64130000D03*
X109050000Y-64130000D03*
X112950000Y-62860000D03*
X109050000Y-62860000D03*
X112950000Y-61590000D03*
X109050000Y-61590000D03*
%TD*%
D14*
%TO.C,UDRIVER502*%
X138800000Y-70850000D03*
X137530000Y-70850000D03*
X136260000Y-70850000D03*
X134990000Y-70850000D03*
X134990000Y-75800000D03*
X136260000Y-75800000D03*
X137530000Y-75800000D03*
X138800000Y-75800000D03*
%TD*%
D15*
%TO.C,SW201*%
X110305000Y-85488000D03*
X109035000Y-85488000D03*
X107765000Y-85488000D03*
X106495000Y-85488000D03*
X106495000Y-90912000D03*
X107765000Y-90912000D03*
X109035000Y-90912000D03*
X110305000Y-90912000D03*
%TD*%
D16*
%TO.C,R202*%
X118600000Y-77912500D03*
X118600000Y-76087500D03*
%TD*%
D17*
%TO.C,C303*%
X85537500Y-76000000D03*
X87262500Y-76000000D03*
%TD*%
D18*
%TO.C,C501*%
X59200000Y-74862500D03*
X59200000Y-73137500D03*
%TD*%
D19*
%TO.C,C508*%
X59200000Y-76737500D03*
X59200000Y-78462500D03*
%TD*%
D20*
%TO.C,R402*%
X132200000Y-52687500D03*
X132200000Y-54512500D03*
%TD*%
D21*
%TO.C,D202*%
X117000000Y-77875000D03*
X117000000Y-76125000D03*
%TD*%
D19*
%TO.C,C510*%
X58800000Y-65337500D03*
X58800000Y-67062500D03*
%TD*%
D17*
%TO.C,C506*%
X137537500Y-80600000D03*
X139262500Y-80600000D03*
%TD*%
D22*
%TO.C,D201*%
X110600000Y-77925000D03*
X110600000Y-79675000D03*
%TD*%
D23*
%TO.C,R301*%
X87487500Y-73800000D03*
X89312500Y-73800000D03*
%TD*%
D18*
%TO.C,C202*%
X116200000Y-81462500D03*
X116200000Y-79737500D03*
%TD*%
%TO.C,C203*%
X118800000Y-81462500D03*
X118800000Y-79737500D03*
%TD*%
D24*
%TO.C,REG3-201*%
X121050000Y-80937500D03*
X122000000Y-80937500D03*
X122950000Y-80937500D03*
X122950000Y-78662500D03*
X121050000Y-78662500D03*
%TD*%
D18*
%TO.C,C302*%
X87400000Y-71262500D03*
X87400000Y-69537500D03*
%TD*%
D17*
%TO.C,C204*%
X121137500Y-76800000D03*
X122862500Y-76800000D03*
%TD*%
D18*
%TO.C,C201*%
X114000000Y-81462500D03*
X114000000Y-79737500D03*
%TD*%
%TO.C,C509*%
X143200000Y-72137500D03*
X143200000Y-73862500D03*
%TD*%
D19*
%TO.C,C502*%
X136095000Y-66200000D03*
X136095000Y-67925000D03*
%TD*%
D20*
%TO.C,R403*%
X63150000Y-53212500D03*
X63150000Y-55037500D03*
%TD*%
D16*
%TO.C,R401*%
X65550000Y-55037500D03*
X65550000Y-53212500D03*
%TD*%
%TO.C,R404*%
X134800000Y-54512500D03*
X134800000Y-52687500D03*
%TD*%
D23*
%TO.C,R501*%
X103287500Y-54000000D03*
X105112500Y-54000000D03*
%TD*%
D25*
%TO.C,UDRIVER501*%
X61525000Y-70495000D03*
X61525000Y-71765000D03*
X61525000Y-73035000D03*
X61525000Y-74305000D03*
X66475000Y-74305000D03*
X66475000Y-73035000D03*
X66475000Y-71765000D03*
X66475000Y-70495000D03*
%TD*%
D26*
%TO.C,USTM301*%
X91925000Y-66650000D03*
X91925000Y-67150000D03*
X91925000Y-67650000D03*
X91925000Y-68150000D03*
X91925000Y-68650000D03*
X91925000Y-69150000D03*
X91925000Y-69650000D03*
X91925000Y-70150000D03*
X91925000Y-70650000D03*
X91925000Y-71150000D03*
X91925000Y-71650000D03*
X91925000Y-72150000D03*
X91925000Y-72650000D03*
X91925000Y-73150000D03*
X91925000Y-73650000D03*
X91925000Y-74150000D03*
D27*
X93850000Y-76075000D03*
X94350000Y-76075000D03*
X94850000Y-76075000D03*
X95350000Y-76075000D03*
X95850000Y-76075000D03*
X96350000Y-76075000D03*
X96850000Y-76075000D03*
X97350000Y-76075000D03*
X97850000Y-76075000D03*
X98350000Y-76075000D03*
X98850000Y-76075000D03*
X99350000Y-76075000D03*
X99850000Y-76075000D03*
X100350000Y-76075000D03*
X100850000Y-76075000D03*
X101350000Y-76075000D03*
D26*
X103275000Y-74150000D03*
X103275000Y-73650000D03*
X103275000Y-73150000D03*
X103275000Y-72650000D03*
X103275000Y-72150000D03*
X103275000Y-71650000D03*
X103275000Y-71150000D03*
X103275000Y-70650000D03*
X103275000Y-70150000D03*
X103275000Y-69650000D03*
X103275000Y-69150000D03*
X103275000Y-68650000D03*
X103275000Y-68150000D03*
X103275000Y-67650000D03*
X103275000Y-67150000D03*
X103275000Y-66650000D03*
D27*
X101350000Y-64725000D03*
X100850000Y-64725000D03*
X100350000Y-64725000D03*
X99850000Y-64725000D03*
X99350000Y-64725000D03*
X98850000Y-64725000D03*
X98350000Y-64725000D03*
X97850000Y-64725000D03*
X97350000Y-64725000D03*
X96850000Y-64725000D03*
X96350000Y-64725000D03*
X95850000Y-64725000D03*
X95350000Y-64725000D03*
X94850000Y-64725000D03*
X94350000Y-64725000D03*
X93850000Y-64725000D03*
%TD*%
D16*
%TO.C,R201*%
X112400000Y-81512500D03*
X112400000Y-79687500D03*
%TD*%
D19*
%TO.C,C304*%
X88800000Y-66137500D03*
X88800000Y-67862500D03*
%TD*%
%TO.C,C507*%
X97000000Y-54337500D03*
X97000000Y-56062500D03*
%TD*%
M02*
