%TF.GenerationSoftware,KiCad,Pcbnew,(6.0.7-1)-1*%
%TF.CreationDate,2022-10-27T13:07:23+02:00*%
%TF.ProjectId,Beerator,42656572-6174-46f7-922e-6b696361645f,rev?*%
%TF.SameCoordinates,Original*%
%TF.FileFunction,Legend,Top*%
%TF.FilePolarity,Positive*%
%FSLAX46Y46*%
G04 Gerber Fmt 4.6, Leading zero omitted, Abs format (unit mm)*
G04 Created by KiCad (PCBNEW (6.0.7-1)-1) date 2022-10-27 13:07:23*
%MOMM*%
%LPD*%
G01*
G04 APERTURE LIST*
%ADD10C,0.150000*%
%ADD11C,0.100000*%
%ADD12C,0.120000*%
%ADD13C,0.200000*%
G04 APERTURE END LIST*
D10*
%TO.C,U201*%
X120552380Y-89514285D02*
X121361904Y-89514285D01*
X121457142Y-89466666D01*
X121504761Y-89419047D01*
X121552380Y-89323809D01*
X121552380Y-89133333D01*
X121504761Y-89038095D01*
X121457142Y-88990476D01*
X121361904Y-88942857D01*
X120552380Y-88942857D01*
X120647619Y-88514285D02*
X120600000Y-88466666D01*
X120552380Y-88371428D01*
X120552380Y-88133333D01*
X120600000Y-88038095D01*
X120647619Y-87990476D01*
X120742857Y-87942857D01*
X120838095Y-87942857D01*
X120980952Y-87990476D01*
X121552380Y-88561904D01*
X121552380Y-87942857D01*
X120552380Y-87323809D02*
X120552380Y-87228571D01*
X120600000Y-87133333D01*
X120647619Y-87085714D01*
X120742857Y-87038095D01*
X120933333Y-86990476D01*
X121171428Y-86990476D01*
X121361904Y-87038095D01*
X121457142Y-87085714D01*
X121504761Y-87133333D01*
X121552380Y-87228571D01*
X121552380Y-87323809D01*
X121504761Y-87419047D01*
X121457142Y-87466666D01*
X121361904Y-87514285D01*
X121171428Y-87561904D01*
X120933333Y-87561904D01*
X120742857Y-87514285D01*
X120647619Y-87466666D01*
X120600000Y-87419047D01*
X120552380Y-87323809D01*
X121552380Y-86038095D02*
X121552380Y-86609523D01*
X121552380Y-86323809D02*
X120552380Y-86323809D01*
X120695238Y-86419047D01*
X120790476Y-86514285D01*
X120838095Y-86609523D01*
%TO.C,Y301*%
X78776190Y-74628571D02*
X79252380Y-74628571D01*
X78252380Y-74961904D02*
X78776190Y-74628571D01*
X78252380Y-74295238D01*
X78252380Y-74057142D02*
X78252380Y-73438095D01*
X78633333Y-73771428D01*
X78633333Y-73628571D01*
X78680952Y-73533333D01*
X78728571Y-73485714D01*
X78823809Y-73438095D01*
X79061904Y-73438095D01*
X79157142Y-73485714D01*
X79204761Y-73533333D01*
X79252380Y-73628571D01*
X79252380Y-73914285D01*
X79204761Y-74009523D01*
X79157142Y-74057142D01*
X78252380Y-72819047D02*
X78252380Y-72723809D01*
X78300000Y-72628571D01*
X78347619Y-72580952D01*
X78442857Y-72533333D01*
X78633333Y-72485714D01*
X78871428Y-72485714D01*
X79061904Y-72533333D01*
X79157142Y-72580952D01*
X79204761Y-72628571D01*
X79252380Y-72723809D01*
X79252380Y-72819047D01*
X79204761Y-72914285D01*
X79157142Y-72961904D01*
X79061904Y-73009523D01*
X78871428Y-73057142D01*
X78633333Y-73057142D01*
X78442857Y-73009523D01*
X78347619Y-72961904D01*
X78300000Y-72914285D01*
X78252380Y-72819047D01*
X79252380Y-71533333D02*
X79252380Y-72104761D01*
X79252380Y-71819047D02*
X78252380Y-71819047D01*
X78395238Y-71914285D01*
X78490476Y-72009523D01*
X78538095Y-72104761D01*
%TO.C,JP504*%
X137214285Y-81652380D02*
X137214285Y-82366666D01*
X137166666Y-82509523D01*
X137071428Y-82604761D01*
X136928571Y-82652380D01*
X136833333Y-82652380D01*
X137690476Y-82652380D02*
X137690476Y-81652380D01*
X138071428Y-81652380D01*
X138166666Y-81700000D01*
X138214285Y-81747619D01*
X138261904Y-81842857D01*
X138261904Y-81985714D01*
X138214285Y-82080952D01*
X138166666Y-82128571D01*
X138071428Y-82176190D01*
X137690476Y-82176190D01*
X139166666Y-81652380D02*
X138690476Y-81652380D01*
X138642857Y-82128571D01*
X138690476Y-82080952D01*
X138785714Y-82033333D01*
X139023809Y-82033333D01*
X139119047Y-82080952D01*
X139166666Y-82128571D01*
X139214285Y-82223809D01*
X139214285Y-82461904D01*
X139166666Y-82557142D01*
X139119047Y-82604761D01*
X139023809Y-82652380D01*
X138785714Y-82652380D01*
X138690476Y-82604761D01*
X138642857Y-82557142D01*
X139833333Y-81652380D02*
X139928571Y-81652380D01*
X140023809Y-81700000D01*
X140071428Y-81747619D01*
X140119047Y-81842857D01*
X140166666Y-82033333D01*
X140166666Y-82271428D01*
X140119047Y-82461904D01*
X140071428Y-82557142D01*
X140023809Y-82604761D01*
X139928571Y-82652380D01*
X139833333Y-82652380D01*
X139738095Y-82604761D01*
X139690476Y-82557142D01*
X139642857Y-82461904D01*
X139595238Y-82271428D01*
X139595238Y-82033333D01*
X139642857Y-81842857D01*
X139690476Y-81747619D01*
X139738095Y-81700000D01*
X139833333Y-81652380D01*
X141023809Y-81985714D02*
X141023809Y-82652380D01*
X140785714Y-81604761D02*
X140547619Y-82319047D01*
X141166666Y-82319047D01*
%TO.C,JP503*%
X140252380Y-77385714D02*
X140966666Y-77385714D01*
X141109523Y-77433333D01*
X141204761Y-77528571D01*
X141252380Y-77671428D01*
X141252380Y-77766666D01*
X141252380Y-76909523D02*
X140252380Y-76909523D01*
X140252380Y-76528571D01*
X140300000Y-76433333D01*
X140347619Y-76385714D01*
X140442857Y-76338095D01*
X140585714Y-76338095D01*
X140680952Y-76385714D01*
X140728571Y-76433333D01*
X140776190Y-76528571D01*
X140776190Y-76909523D01*
X140252380Y-75433333D02*
X140252380Y-75909523D01*
X140728571Y-75957142D01*
X140680952Y-75909523D01*
X140633333Y-75814285D01*
X140633333Y-75576190D01*
X140680952Y-75480952D01*
X140728571Y-75433333D01*
X140823809Y-75385714D01*
X141061904Y-75385714D01*
X141157142Y-75433333D01*
X141204761Y-75480952D01*
X141252380Y-75576190D01*
X141252380Y-75814285D01*
X141204761Y-75909523D01*
X141157142Y-75957142D01*
X140252380Y-74766666D02*
X140252380Y-74671428D01*
X140300000Y-74576190D01*
X140347619Y-74528571D01*
X140442857Y-74480952D01*
X140633333Y-74433333D01*
X140871428Y-74433333D01*
X141061904Y-74480952D01*
X141157142Y-74528571D01*
X141204761Y-74576190D01*
X141252380Y-74671428D01*
X141252380Y-74766666D01*
X141204761Y-74861904D01*
X141157142Y-74909523D01*
X141061904Y-74957142D01*
X140871428Y-75004761D01*
X140633333Y-75004761D01*
X140442857Y-74957142D01*
X140347619Y-74909523D01*
X140300000Y-74861904D01*
X140252380Y-74766666D01*
X140252380Y-74100000D02*
X140252380Y-73480952D01*
X140633333Y-73814285D01*
X140633333Y-73671428D01*
X140680952Y-73576190D01*
X140728571Y-73528571D01*
X140823809Y-73480952D01*
X141061904Y-73480952D01*
X141157142Y-73528571D01*
X141204761Y-73576190D01*
X141252380Y-73671428D01*
X141252380Y-73957142D01*
X141204761Y-74052380D01*
X141157142Y-74100000D01*
%TO.C,JP502*%
X63214285Y-79852380D02*
X63214285Y-80566666D01*
X63166666Y-80709523D01*
X63071428Y-80804761D01*
X62928571Y-80852380D01*
X62833333Y-80852380D01*
X63690476Y-80852380D02*
X63690476Y-79852380D01*
X64071428Y-79852380D01*
X64166666Y-79900000D01*
X64214285Y-79947619D01*
X64261904Y-80042857D01*
X64261904Y-80185714D01*
X64214285Y-80280952D01*
X64166666Y-80328571D01*
X64071428Y-80376190D01*
X63690476Y-80376190D01*
X65166666Y-79852380D02*
X64690476Y-79852380D01*
X64642857Y-80328571D01*
X64690476Y-80280952D01*
X64785714Y-80233333D01*
X65023809Y-80233333D01*
X65119047Y-80280952D01*
X65166666Y-80328571D01*
X65214285Y-80423809D01*
X65214285Y-80661904D01*
X65166666Y-80757142D01*
X65119047Y-80804761D01*
X65023809Y-80852380D01*
X64785714Y-80852380D01*
X64690476Y-80804761D01*
X64642857Y-80757142D01*
X65833333Y-79852380D02*
X65928571Y-79852380D01*
X66023809Y-79900000D01*
X66071428Y-79947619D01*
X66119047Y-80042857D01*
X66166666Y-80233333D01*
X66166666Y-80471428D01*
X66119047Y-80661904D01*
X66071428Y-80757142D01*
X66023809Y-80804761D01*
X65928571Y-80852380D01*
X65833333Y-80852380D01*
X65738095Y-80804761D01*
X65690476Y-80757142D01*
X65642857Y-80661904D01*
X65595238Y-80471428D01*
X65595238Y-80233333D01*
X65642857Y-80042857D01*
X65690476Y-79947619D01*
X65738095Y-79900000D01*
X65833333Y-79852380D01*
X66547619Y-79947619D02*
X66595238Y-79900000D01*
X66690476Y-79852380D01*
X66928571Y-79852380D01*
X67023809Y-79900000D01*
X67071428Y-79947619D01*
X67119047Y-80042857D01*
X67119047Y-80138095D01*
X67071428Y-80280952D01*
X66500000Y-80852380D01*
X67119047Y-80852380D01*
%TO.C,JP501*%
X60852380Y-69185714D02*
X61566666Y-69185714D01*
X61709523Y-69233333D01*
X61804761Y-69328571D01*
X61852380Y-69471428D01*
X61852380Y-69566666D01*
X61852380Y-68709523D02*
X60852380Y-68709523D01*
X60852380Y-68328571D01*
X60900000Y-68233333D01*
X60947619Y-68185714D01*
X61042857Y-68138095D01*
X61185714Y-68138095D01*
X61280952Y-68185714D01*
X61328571Y-68233333D01*
X61376190Y-68328571D01*
X61376190Y-68709523D01*
X60852380Y-67233333D02*
X60852380Y-67709523D01*
X61328571Y-67757142D01*
X61280952Y-67709523D01*
X61233333Y-67614285D01*
X61233333Y-67376190D01*
X61280952Y-67280952D01*
X61328571Y-67233333D01*
X61423809Y-67185714D01*
X61661904Y-67185714D01*
X61757142Y-67233333D01*
X61804761Y-67280952D01*
X61852380Y-67376190D01*
X61852380Y-67614285D01*
X61804761Y-67709523D01*
X61757142Y-67757142D01*
X60852380Y-66566666D02*
X60852380Y-66471428D01*
X60900000Y-66376190D01*
X60947619Y-66328571D01*
X61042857Y-66280952D01*
X61233333Y-66233333D01*
X61471428Y-66233333D01*
X61661904Y-66280952D01*
X61757142Y-66328571D01*
X61804761Y-66376190D01*
X61852380Y-66471428D01*
X61852380Y-66566666D01*
X61804761Y-66661904D01*
X61757142Y-66709523D01*
X61661904Y-66757142D01*
X61471428Y-66804761D01*
X61233333Y-66804761D01*
X61042857Y-66757142D01*
X60947619Y-66709523D01*
X60900000Y-66661904D01*
X60852380Y-66566666D01*
X61852380Y-65280952D02*
X61852380Y-65852380D01*
X61852380Y-65566666D02*
X60852380Y-65566666D01*
X60995238Y-65661904D01*
X61090476Y-65757142D01*
X61138095Y-65852380D01*
%TO.C,JP302*%
X108014285Y-56852380D02*
X108014285Y-57566666D01*
X107966666Y-57709523D01*
X107871428Y-57804761D01*
X107728571Y-57852380D01*
X107633333Y-57852380D01*
X108490476Y-57852380D02*
X108490476Y-56852380D01*
X108871428Y-56852380D01*
X108966666Y-56900000D01*
X109014285Y-56947619D01*
X109061904Y-57042857D01*
X109061904Y-57185714D01*
X109014285Y-57280952D01*
X108966666Y-57328571D01*
X108871428Y-57376190D01*
X108490476Y-57376190D01*
X109395238Y-56852380D02*
X110014285Y-56852380D01*
X109680952Y-57233333D01*
X109823809Y-57233333D01*
X109919047Y-57280952D01*
X109966666Y-57328571D01*
X110014285Y-57423809D01*
X110014285Y-57661904D01*
X109966666Y-57757142D01*
X109919047Y-57804761D01*
X109823809Y-57852380D01*
X109538095Y-57852380D01*
X109442857Y-57804761D01*
X109395238Y-57757142D01*
X110633333Y-56852380D02*
X110728571Y-56852380D01*
X110823809Y-56900000D01*
X110871428Y-56947619D01*
X110919047Y-57042857D01*
X110966666Y-57233333D01*
X110966666Y-57471428D01*
X110919047Y-57661904D01*
X110871428Y-57757142D01*
X110823809Y-57804761D01*
X110728571Y-57852380D01*
X110633333Y-57852380D01*
X110538095Y-57804761D01*
X110490476Y-57757142D01*
X110442857Y-57661904D01*
X110395238Y-57471428D01*
X110395238Y-57233333D01*
X110442857Y-57042857D01*
X110490476Y-56947619D01*
X110538095Y-56900000D01*
X110633333Y-56852380D01*
X111347619Y-56947619D02*
X111395238Y-56900000D01*
X111490476Y-56852380D01*
X111728571Y-56852380D01*
X111823809Y-56900000D01*
X111871428Y-56947619D01*
X111919047Y-57042857D01*
X111919047Y-57138095D01*
X111871428Y-57280952D01*
X111300000Y-57852380D01*
X111919047Y-57852380D01*
%TO.C,JP301*%
X114414285Y-58652380D02*
X114414285Y-59366666D01*
X114366666Y-59509523D01*
X114271428Y-59604761D01*
X114128571Y-59652380D01*
X114033333Y-59652380D01*
X114890476Y-59652380D02*
X114890476Y-58652380D01*
X115271428Y-58652380D01*
X115366666Y-58700000D01*
X115414285Y-58747619D01*
X115461904Y-58842857D01*
X115461904Y-58985714D01*
X115414285Y-59080952D01*
X115366666Y-59128571D01*
X115271428Y-59176190D01*
X114890476Y-59176190D01*
X115795238Y-58652380D02*
X116414285Y-58652380D01*
X116080952Y-59033333D01*
X116223809Y-59033333D01*
X116319047Y-59080952D01*
X116366666Y-59128571D01*
X116414285Y-59223809D01*
X116414285Y-59461904D01*
X116366666Y-59557142D01*
X116319047Y-59604761D01*
X116223809Y-59652380D01*
X115938095Y-59652380D01*
X115842857Y-59604761D01*
X115795238Y-59557142D01*
X117033333Y-58652380D02*
X117128571Y-58652380D01*
X117223809Y-58700000D01*
X117271428Y-58747619D01*
X117319047Y-58842857D01*
X117366666Y-59033333D01*
X117366666Y-59271428D01*
X117319047Y-59461904D01*
X117271428Y-59557142D01*
X117223809Y-59604761D01*
X117128571Y-59652380D01*
X117033333Y-59652380D01*
X116938095Y-59604761D01*
X116890476Y-59557142D01*
X116842857Y-59461904D01*
X116795238Y-59271428D01*
X116795238Y-59033333D01*
X116842857Y-58842857D01*
X116890476Y-58747619D01*
X116938095Y-58700000D01*
X117033333Y-58652380D01*
X118319047Y-59652380D02*
X117747619Y-59652380D01*
X118033333Y-59652380D02*
X118033333Y-58652380D01*
X117938095Y-58795238D01*
X117842857Y-58890476D01*
X117747619Y-58938095D01*
%TO.C,JSTLINK301*%
X110452380Y-69209523D02*
X111166666Y-69209523D01*
X111309523Y-69257142D01*
X111404761Y-69352380D01*
X111452380Y-69495238D01*
X111452380Y-69590476D01*
X111404761Y-68780952D02*
X111452380Y-68638095D01*
X111452380Y-68400000D01*
X111404761Y-68304761D01*
X111357142Y-68257142D01*
X111261904Y-68209523D01*
X111166666Y-68209523D01*
X111071428Y-68257142D01*
X111023809Y-68304761D01*
X110976190Y-68400000D01*
X110928571Y-68590476D01*
X110880952Y-68685714D01*
X110833333Y-68733333D01*
X110738095Y-68780952D01*
X110642857Y-68780952D01*
X110547619Y-68733333D01*
X110500000Y-68685714D01*
X110452380Y-68590476D01*
X110452380Y-68352380D01*
X110500000Y-68209523D01*
X110452380Y-67923809D02*
X110452380Y-67352380D01*
X111452380Y-67638095D02*
X110452380Y-67638095D01*
X111452380Y-66542857D02*
X111452380Y-67019047D01*
X110452380Y-67019047D01*
X111452380Y-66209523D02*
X110452380Y-66209523D01*
X111452380Y-65733333D02*
X110452380Y-65733333D01*
X111452380Y-65161904D01*
X110452380Y-65161904D01*
X111452380Y-64685714D02*
X110452380Y-64685714D01*
X111452380Y-64114285D02*
X110880952Y-64542857D01*
X110452380Y-64114285D02*
X111023809Y-64685714D01*
X110452380Y-63780952D02*
X110452380Y-63161904D01*
X110833333Y-63495238D01*
X110833333Y-63352380D01*
X110880952Y-63257142D01*
X110928571Y-63209523D01*
X111023809Y-63161904D01*
X111261904Y-63161904D01*
X111357142Y-63209523D01*
X111404761Y-63257142D01*
X111452380Y-63352380D01*
X111452380Y-63638095D01*
X111404761Y-63733333D01*
X111357142Y-63780952D01*
X110452380Y-62542857D02*
X110452380Y-62447619D01*
X110500000Y-62352380D01*
X110547619Y-62304761D01*
X110642857Y-62257142D01*
X110833333Y-62209523D01*
X111071428Y-62209523D01*
X111261904Y-62257142D01*
X111357142Y-62304761D01*
X111404761Y-62352380D01*
X111452380Y-62447619D01*
X111452380Y-62542857D01*
X111404761Y-62638095D01*
X111357142Y-62685714D01*
X111261904Y-62733333D01*
X111071428Y-62780952D01*
X110833333Y-62780952D01*
X110642857Y-62733333D01*
X110547619Y-62685714D01*
X110500000Y-62638095D01*
X110452380Y-62542857D01*
X111452380Y-61257142D02*
X111452380Y-61828571D01*
X111452380Y-61542857D02*
X110452380Y-61542857D01*
X110595238Y-61638095D01*
X110690476Y-61733333D01*
X110738095Y-61828571D01*
%TO.C,UDRIVER502*%
X124666666Y-68852380D02*
X124666666Y-69661904D01*
X124714285Y-69757142D01*
X124761904Y-69804761D01*
X124857142Y-69852380D01*
X125047619Y-69852380D01*
X125142857Y-69804761D01*
X125190476Y-69757142D01*
X125238095Y-69661904D01*
X125238095Y-68852380D01*
X125714285Y-69852380D02*
X125714285Y-68852380D01*
X125952380Y-68852380D01*
X126095238Y-68900000D01*
X126190476Y-68995238D01*
X126238095Y-69090476D01*
X126285714Y-69280952D01*
X126285714Y-69423809D01*
X126238095Y-69614285D01*
X126190476Y-69709523D01*
X126095238Y-69804761D01*
X125952380Y-69852380D01*
X125714285Y-69852380D01*
X127285714Y-69852380D02*
X126952380Y-69376190D01*
X126714285Y-69852380D02*
X126714285Y-68852380D01*
X127095238Y-68852380D01*
X127190476Y-68900000D01*
X127238095Y-68947619D01*
X127285714Y-69042857D01*
X127285714Y-69185714D01*
X127238095Y-69280952D01*
X127190476Y-69328571D01*
X127095238Y-69376190D01*
X126714285Y-69376190D01*
X127714285Y-69852380D02*
X127714285Y-68852380D01*
X128047619Y-68852380D02*
X128380952Y-69852380D01*
X128714285Y-68852380D01*
X129047619Y-69328571D02*
X129380952Y-69328571D01*
X129523809Y-69852380D02*
X129047619Y-69852380D01*
X129047619Y-68852380D01*
X129523809Y-68852380D01*
X130523809Y-69852380D02*
X130190476Y-69376190D01*
X129952380Y-69852380D02*
X129952380Y-68852380D01*
X130333333Y-68852380D01*
X130428571Y-68900000D01*
X130476190Y-68947619D01*
X130523809Y-69042857D01*
X130523809Y-69185714D01*
X130476190Y-69280952D01*
X130428571Y-69328571D01*
X130333333Y-69376190D01*
X129952380Y-69376190D01*
X131428571Y-68852380D02*
X130952380Y-68852380D01*
X130904761Y-69328571D01*
X130952380Y-69280952D01*
X131047619Y-69233333D01*
X131285714Y-69233333D01*
X131380952Y-69280952D01*
X131428571Y-69328571D01*
X131476190Y-69423809D01*
X131476190Y-69661904D01*
X131428571Y-69757142D01*
X131380952Y-69804761D01*
X131285714Y-69852380D01*
X131047619Y-69852380D01*
X130952380Y-69804761D01*
X130904761Y-69757142D01*
X132095238Y-68852380D02*
X132190476Y-68852380D01*
X132285714Y-68900000D01*
X132333333Y-68947619D01*
X132380952Y-69042857D01*
X132428571Y-69233333D01*
X132428571Y-69471428D01*
X132380952Y-69661904D01*
X132333333Y-69757142D01*
X132285714Y-69804761D01*
X132190476Y-69852380D01*
X132095238Y-69852380D01*
X132000000Y-69804761D01*
X131952380Y-69757142D01*
X131904761Y-69661904D01*
X131857142Y-69471428D01*
X131857142Y-69233333D01*
X131904761Y-69042857D01*
X131952380Y-68947619D01*
X132000000Y-68900000D01*
X132095238Y-68852380D01*
X132809523Y-68947619D02*
X132857142Y-68900000D01*
X132952380Y-68852380D01*
X133190476Y-68852380D01*
X133285714Y-68900000D01*
X133333333Y-68947619D01*
X133380952Y-69042857D01*
X133380952Y-69138095D01*
X133333333Y-69280952D01*
X132761904Y-69852380D01*
X133380952Y-69852380D01*
D11*
%TO.C,SW201*%
X106542857Y-88764285D02*
X106671428Y-88807142D01*
X106885714Y-88807142D01*
X106971428Y-88764285D01*
X107014285Y-88721428D01*
X107057142Y-88635714D01*
X107057142Y-88550000D01*
X107014285Y-88464285D01*
X106971428Y-88421428D01*
X106885714Y-88378571D01*
X106714285Y-88335714D01*
X106628571Y-88292857D01*
X106585714Y-88250000D01*
X106542857Y-88164285D01*
X106542857Y-88078571D01*
X106585714Y-87992857D01*
X106628571Y-87950000D01*
X106714285Y-87907142D01*
X106928571Y-87907142D01*
X107057142Y-87950000D01*
X107357142Y-87907142D02*
X107571428Y-88807142D01*
X107742857Y-88164285D01*
X107914285Y-88807142D01*
X108128571Y-87907142D01*
X108428571Y-87992857D02*
X108471428Y-87950000D01*
X108557142Y-87907142D01*
X108771428Y-87907142D01*
X108857142Y-87950000D01*
X108900000Y-87992857D01*
X108942857Y-88078571D01*
X108942857Y-88164285D01*
X108900000Y-88292857D01*
X108385714Y-88807142D01*
X108942857Y-88807142D01*
X109500000Y-87907142D02*
X109585714Y-87907142D01*
X109671428Y-87950000D01*
X109714285Y-87992857D01*
X109757142Y-88078571D01*
X109800000Y-88250000D01*
X109800000Y-88464285D01*
X109757142Y-88635714D01*
X109714285Y-88721428D01*
X109671428Y-88764285D01*
X109585714Y-88807142D01*
X109500000Y-88807142D01*
X109414285Y-88764285D01*
X109371428Y-88721428D01*
X109328571Y-88635714D01*
X109285714Y-88464285D01*
X109285714Y-88250000D01*
X109328571Y-88078571D01*
X109371428Y-87992857D01*
X109414285Y-87950000D01*
X109500000Y-87907142D01*
X110657142Y-88807142D02*
X110142857Y-88807142D01*
X110400000Y-88807142D02*
X110400000Y-87907142D01*
X110314285Y-88035714D01*
X110228571Y-88121428D01*
X110142857Y-88164285D01*
D10*
%TO.C,R202*%
X115652380Y-78119047D02*
X115176190Y-78452380D01*
X115652380Y-78690476D02*
X114652380Y-78690476D01*
X114652380Y-78309523D01*
X114700000Y-78214285D01*
X114747619Y-78166666D01*
X114842857Y-78119047D01*
X114985714Y-78119047D01*
X115080952Y-78166666D01*
X115128571Y-78214285D01*
X115176190Y-78309523D01*
X115176190Y-78690476D01*
X114747619Y-77738095D02*
X114700000Y-77690476D01*
X114652380Y-77595238D01*
X114652380Y-77357142D01*
X114700000Y-77261904D01*
X114747619Y-77214285D01*
X114842857Y-77166666D01*
X114938095Y-77166666D01*
X115080952Y-77214285D01*
X115652380Y-77785714D01*
X115652380Y-77166666D01*
X114652380Y-76547619D02*
X114652380Y-76452380D01*
X114700000Y-76357142D01*
X114747619Y-76309523D01*
X114842857Y-76261904D01*
X115033333Y-76214285D01*
X115271428Y-76214285D01*
X115461904Y-76261904D01*
X115557142Y-76309523D01*
X115604761Y-76357142D01*
X115652380Y-76452380D01*
X115652380Y-76547619D01*
X115604761Y-76642857D01*
X115557142Y-76690476D01*
X115461904Y-76738095D01*
X115271428Y-76785714D01*
X115033333Y-76785714D01*
X114842857Y-76738095D01*
X114747619Y-76690476D01*
X114700000Y-76642857D01*
X114652380Y-76547619D01*
X114747619Y-75833333D02*
X114700000Y-75785714D01*
X114652380Y-75690476D01*
X114652380Y-75452380D01*
X114700000Y-75357142D01*
X114747619Y-75309523D01*
X114842857Y-75261904D01*
X114938095Y-75261904D01*
X115080952Y-75309523D01*
X115652380Y-75880952D01*
X115652380Y-75261904D01*
%TO.C,JMCC0_501*%
X49885714Y-61852380D02*
X49885714Y-62566666D01*
X49838095Y-62709523D01*
X49742857Y-62804761D01*
X49600000Y-62852380D01*
X49504761Y-62852380D01*
X50361904Y-62852380D02*
X50361904Y-61852380D01*
X50695238Y-62566666D01*
X51028571Y-61852380D01*
X51028571Y-62852380D01*
X52076190Y-62757142D02*
X52028571Y-62804761D01*
X51885714Y-62852380D01*
X51790476Y-62852380D01*
X51647619Y-62804761D01*
X51552380Y-62709523D01*
X51504761Y-62614285D01*
X51457142Y-62423809D01*
X51457142Y-62280952D01*
X51504761Y-62090476D01*
X51552380Y-61995238D01*
X51647619Y-61900000D01*
X51790476Y-61852380D01*
X51885714Y-61852380D01*
X52028571Y-61900000D01*
X52076190Y-61947619D01*
X53076190Y-62757142D02*
X53028571Y-62804761D01*
X52885714Y-62852380D01*
X52790476Y-62852380D01*
X52647619Y-62804761D01*
X52552380Y-62709523D01*
X52504761Y-62614285D01*
X52457142Y-62423809D01*
X52457142Y-62280952D01*
X52504761Y-62090476D01*
X52552380Y-61995238D01*
X52647619Y-61900000D01*
X52790476Y-61852380D01*
X52885714Y-61852380D01*
X53028571Y-61900000D01*
X53076190Y-61947619D01*
X53695238Y-61852380D02*
X53790476Y-61852380D01*
X53885714Y-61900000D01*
X53933333Y-61947619D01*
X53980952Y-62042857D01*
X54028571Y-62233333D01*
X54028571Y-62471428D01*
X53980952Y-62661904D01*
X53933333Y-62757142D01*
X53885714Y-62804761D01*
X53790476Y-62852380D01*
X53695238Y-62852380D01*
X53600000Y-62804761D01*
X53552380Y-62757142D01*
X53504761Y-62661904D01*
X53457142Y-62471428D01*
X53457142Y-62233333D01*
X53504761Y-62042857D01*
X53552380Y-61947619D01*
X53600000Y-61900000D01*
X53695238Y-61852380D01*
X54219047Y-62947619D02*
X54980952Y-62947619D01*
X55695238Y-61852380D02*
X55219047Y-61852380D01*
X55171428Y-62328571D01*
X55219047Y-62280952D01*
X55314285Y-62233333D01*
X55552380Y-62233333D01*
X55647619Y-62280952D01*
X55695238Y-62328571D01*
X55742857Y-62423809D01*
X55742857Y-62661904D01*
X55695238Y-62757142D01*
X55647619Y-62804761D01*
X55552380Y-62852380D01*
X55314285Y-62852380D01*
X55219047Y-62804761D01*
X55171428Y-62757142D01*
X56361904Y-61852380D02*
X56457142Y-61852380D01*
X56552380Y-61900000D01*
X56600000Y-61947619D01*
X56647619Y-62042857D01*
X56695238Y-62233333D01*
X56695238Y-62471428D01*
X56647619Y-62661904D01*
X56600000Y-62757142D01*
X56552380Y-62804761D01*
X56457142Y-62852380D01*
X56361904Y-62852380D01*
X56266666Y-62804761D01*
X56219047Y-62757142D01*
X56171428Y-62661904D01*
X56123809Y-62471428D01*
X56123809Y-62233333D01*
X56171428Y-62042857D01*
X56219047Y-61947619D01*
X56266666Y-61900000D01*
X56361904Y-61852380D01*
X57647619Y-62852380D02*
X57076190Y-62852380D01*
X57361904Y-62852380D02*
X57361904Y-61852380D01*
X57266666Y-61995238D01*
X57171428Y-62090476D01*
X57076190Y-62138095D01*
%TO.C,JSERVO501*%
X95633333Y-44452380D02*
X95633333Y-45166666D01*
X95585714Y-45309523D01*
X95490476Y-45404761D01*
X95347619Y-45452380D01*
X95252380Y-45452380D01*
X96061904Y-45404761D02*
X96204761Y-45452380D01*
X96442857Y-45452380D01*
X96538095Y-45404761D01*
X96585714Y-45357142D01*
X96633333Y-45261904D01*
X96633333Y-45166666D01*
X96585714Y-45071428D01*
X96538095Y-45023809D01*
X96442857Y-44976190D01*
X96252380Y-44928571D01*
X96157142Y-44880952D01*
X96109523Y-44833333D01*
X96061904Y-44738095D01*
X96061904Y-44642857D01*
X96109523Y-44547619D01*
X96157142Y-44500000D01*
X96252380Y-44452380D01*
X96490476Y-44452380D01*
X96633333Y-44500000D01*
X97061904Y-44928571D02*
X97395238Y-44928571D01*
X97538095Y-45452380D02*
X97061904Y-45452380D01*
X97061904Y-44452380D01*
X97538095Y-44452380D01*
X98538095Y-45452380D02*
X98204761Y-44976190D01*
X97966666Y-45452380D02*
X97966666Y-44452380D01*
X98347619Y-44452380D01*
X98442857Y-44500000D01*
X98490476Y-44547619D01*
X98538095Y-44642857D01*
X98538095Y-44785714D01*
X98490476Y-44880952D01*
X98442857Y-44928571D01*
X98347619Y-44976190D01*
X97966666Y-44976190D01*
X98823809Y-44452380D02*
X99157142Y-45452380D01*
X99490476Y-44452380D01*
X100014285Y-44452380D02*
X100204761Y-44452380D01*
X100300000Y-44500000D01*
X100395238Y-44595238D01*
X100442857Y-44785714D01*
X100442857Y-45119047D01*
X100395238Y-45309523D01*
X100300000Y-45404761D01*
X100204761Y-45452380D01*
X100014285Y-45452380D01*
X99919047Y-45404761D01*
X99823809Y-45309523D01*
X99776190Y-45119047D01*
X99776190Y-44785714D01*
X99823809Y-44595238D01*
X99919047Y-44500000D01*
X100014285Y-44452380D01*
X101347619Y-44452380D02*
X100871428Y-44452380D01*
X100823809Y-44928571D01*
X100871428Y-44880952D01*
X100966666Y-44833333D01*
X101204761Y-44833333D01*
X101300000Y-44880952D01*
X101347619Y-44928571D01*
X101395238Y-45023809D01*
X101395238Y-45261904D01*
X101347619Y-45357142D01*
X101300000Y-45404761D01*
X101204761Y-45452380D01*
X100966666Y-45452380D01*
X100871428Y-45404761D01*
X100823809Y-45357142D01*
X102014285Y-44452380D02*
X102109523Y-44452380D01*
X102204761Y-44500000D01*
X102252380Y-44547619D01*
X102300000Y-44642857D01*
X102347619Y-44833333D01*
X102347619Y-45071428D01*
X102300000Y-45261904D01*
X102252380Y-45357142D01*
X102204761Y-45404761D01*
X102109523Y-45452380D01*
X102014285Y-45452380D01*
X101919047Y-45404761D01*
X101871428Y-45357142D01*
X101823809Y-45261904D01*
X101776190Y-45071428D01*
X101776190Y-44833333D01*
X101823809Y-44642857D01*
X101871428Y-44547619D01*
X101919047Y-44500000D01*
X102014285Y-44452380D01*
X103300000Y-45452380D02*
X102728571Y-45452380D01*
X103014285Y-45452380D02*
X103014285Y-44452380D01*
X102919047Y-44595238D01*
X102823809Y-44690476D01*
X102728571Y-44738095D01*
%TO.C,C503*%
X68557142Y-65919047D02*
X68604761Y-65966666D01*
X68652380Y-66109523D01*
X68652380Y-66204761D01*
X68604761Y-66347619D01*
X68509523Y-66442857D01*
X68414285Y-66490476D01*
X68223809Y-66538095D01*
X68080952Y-66538095D01*
X67890476Y-66490476D01*
X67795238Y-66442857D01*
X67700000Y-66347619D01*
X67652380Y-66204761D01*
X67652380Y-66109523D01*
X67700000Y-65966666D01*
X67747619Y-65919047D01*
X67652380Y-65014285D02*
X67652380Y-65490476D01*
X68128571Y-65538095D01*
X68080952Y-65490476D01*
X68033333Y-65395238D01*
X68033333Y-65157142D01*
X68080952Y-65061904D01*
X68128571Y-65014285D01*
X68223809Y-64966666D01*
X68461904Y-64966666D01*
X68557142Y-65014285D01*
X68604761Y-65061904D01*
X68652380Y-65157142D01*
X68652380Y-65395238D01*
X68604761Y-65490476D01*
X68557142Y-65538095D01*
X67652380Y-64347619D02*
X67652380Y-64252380D01*
X67700000Y-64157142D01*
X67747619Y-64109523D01*
X67842857Y-64061904D01*
X68033333Y-64014285D01*
X68271428Y-64014285D01*
X68461904Y-64061904D01*
X68557142Y-64109523D01*
X68604761Y-64157142D01*
X68652380Y-64252380D01*
X68652380Y-64347619D01*
X68604761Y-64442857D01*
X68557142Y-64490476D01*
X68461904Y-64538095D01*
X68271428Y-64585714D01*
X68033333Y-64585714D01*
X67842857Y-64538095D01*
X67747619Y-64490476D01*
X67700000Y-64442857D01*
X67652380Y-64347619D01*
X67652380Y-63680952D02*
X67652380Y-63061904D01*
X68033333Y-63395238D01*
X68033333Y-63252380D01*
X68080952Y-63157142D01*
X68128571Y-63109523D01*
X68223809Y-63061904D01*
X68461904Y-63061904D01*
X68557142Y-63109523D01*
X68604761Y-63157142D01*
X68652380Y-63252380D01*
X68652380Y-63538095D01*
X68604761Y-63633333D01*
X68557142Y-63680952D01*
%TO.C,C303*%
X83680952Y-77957142D02*
X83633333Y-78004761D01*
X83490476Y-78052380D01*
X83395238Y-78052380D01*
X83252380Y-78004761D01*
X83157142Y-77909523D01*
X83109523Y-77814285D01*
X83061904Y-77623809D01*
X83061904Y-77480952D01*
X83109523Y-77290476D01*
X83157142Y-77195238D01*
X83252380Y-77100000D01*
X83395238Y-77052380D01*
X83490476Y-77052380D01*
X83633333Y-77100000D01*
X83680952Y-77147619D01*
X84014285Y-77052380D02*
X84633333Y-77052380D01*
X84300000Y-77433333D01*
X84442857Y-77433333D01*
X84538095Y-77480952D01*
X84585714Y-77528571D01*
X84633333Y-77623809D01*
X84633333Y-77861904D01*
X84585714Y-77957142D01*
X84538095Y-78004761D01*
X84442857Y-78052380D01*
X84157142Y-78052380D01*
X84061904Y-78004761D01*
X84014285Y-77957142D01*
X85252380Y-77052380D02*
X85347619Y-77052380D01*
X85442857Y-77100000D01*
X85490476Y-77147619D01*
X85538095Y-77242857D01*
X85585714Y-77433333D01*
X85585714Y-77671428D01*
X85538095Y-77861904D01*
X85490476Y-77957142D01*
X85442857Y-78004761D01*
X85347619Y-78052380D01*
X85252380Y-78052380D01*
X85157142Y-78004761D01*
X85109523Y-77957142D01*
X85061904Y-77861904D01*
X85014285Y-77671428D01*
X85014285Y-77433333D01*
X85061904Y-77242857D01*
X85109523Y-77147619D01*
X85157142Y-77100000D01*
X85252380Y-77052380D01*
X85919047Y-77052380D02*
X86538095Y-77052380D01*
X86204761Y-77433333D01*
X86347619Y-77433333D01*
X86442857Y-77480952D01*
X86490476Y-77528571D01*
X86538095Y-77623809D01*
X86538095Y-77861904D01*
X86490476Y-77957142D01*
X86442857Y-78004761D01*
X86347619Y-78052380D01*
X86061904Y-78052380D01*
X85966666Y-78004761D01*
X85919047Y-77957142D01*
%TO.C,C501*%
X57957142Y-75119047D02*
X58004761Y-75166666D01*
X58052380Y-75309523D01*
X58052380Y-75404761D01*
X58004761Y-75547619D01*
X57909523Y-75642857D01*
X57814285Y-75690476D01*
X57623809Y-75738095D01*
X57480952Y-75738095D01*
X57290476Y-75690476D01*
X57195238Y-75642857D01*
X57100000Y-75547619D01*
X57052380Y-75404761D01*
X57052380Y-75309523D01*
X57100000Y-75166666D01*
X57147619Y-75119047D01*
X57052380Y-74214285D02*
X57052380Y-74690476D01*
X57528571Y-74738095D01*
X57480952Y-74690476D01*
X57433333Y-74595238D01*
X57433333Y-74357142D01*
X57480952Y-74261904D01*
X57528571Y-74214285D01*
X57623809Y-74166666D01*
X57861904Y-74166666D01*
X57957142Y-74214285D01*
X58004761Y-74261904D01*
X58052380Y-74357142D01*
X58052380Y-74595238D01*
X58004761Y-74690476D01*
X57957142Y-74738095D01*
X57052380Y-73547619D02*
X57052380Y-73452380D01*
X57100000Y-73357142D01*
X57147619Y-73309523D01*
X57242857Y-73261904D01*
X57433333Y-73214285D01*
X57671428Y-73214285D01*
X57861904Y-73261904D01*
X57957142Y-73309523D01*
X58004761Y-73357142D01*
X58052380Y-73452380D01*
X58052380Y-73547619D01*
X58004761Y-73642857D01*
X57957142Y-73690476D01*
X57861904Y-73738095D01*
X57671428Y-73785714D01*
X57433333Y-73785714D01*
X57242857Y-73738095D01*
X57147619Y-73690476D01*
X57100000Y-73642857D01*
X57052380Y-73547619D01*
X58052380Y-72261904D02*
X58052380Y-72833333D01*
X58052380Y-72547619D02*
X57052380Y-72547619D01*
X57195238Y-72642857D01*
X57290476Y-72738095D01*
X57338095Y-72833333D01*
%TO.C,C508*%
X59557142Y-82519047D02*
X59604761Y-82566666D01*
X59652380Y-82709523D01*
X59652380Y-82804761D01*
X59604761Y-82947619D01*
X59509523Y-83042857D01*
X59414285Y-83090476D01*
X59223809Y-83138095D01*
X59080952Y-83138095D01*
X58890476Y-83090476D01*
X58795238Y-83042857D01*
X58700000Y-82947619D01*
X58652380Y-82804761D01*
X58652380Y-82709523D01*
X58700000Y-82566666D01*
X58747619Y-82519047D01*
X58652380Y-81614285D02*
X58652380Y-82090476D01*
X59128571Y-82138095D01*
X59080952Y-82090476D01*
X59033333Y-81995238D01*
X59033333Y-81757142D01*
X59080952Y-81661904D01*
X59128571Y-81614285D01*
X59223809Y-81566666D01*
X59461904Y-81566666D01*
X59557142Y-81614285D01*
X59604761Y-81661904D01*
X59652380Y-81757142D01*
X59652380Y-81995238D01*
X59604761Y-82090476D01*
X59557142Y-82138095D01*
X58652380Y-80947619D02*
X58652380Y-80852380D01*
X58700000Y-80757142D01*
X58747619Y-80709523D01*
X58842857Y-80661904D01*
X59033333Y-80614285D01*
X59271428Y-80614285D01*
X59461904Y-80661904D01*
X59557142Y-80709523D01*
X59604761Y-80757142D01*
X59652380Y-80852380D01*
X59652380Y-80947619D01*
X59604761Y-81042857D01*
X59557142Y-81090476D01*
X59461904Y-81138095D01*
X59271428Y-81185714D01*
X59033333Y-81185714D01*
X58842857Y-81138095D01*
X58747619Y-81090476D01*
X58700000Y-81042857D01*
X58652380Y-80947619D01*
X59080952Y-80042857D02*
X59033333Y-80138095D01*
X58985714Y-80185714D01*
X58890476Y-80233333D01*
X58842857Y-80233333D01*
X58747619Y-80185714D01*
X58700000Y-80138095D01*
X58652380Y-80042857D01*
X58652380Y-79852380D01*
X58700000Y-79757142D01*
X58747619Y-79709523D01*
X58842857Y-79661904D01*
X58890476Y-79661904D01*
X58985714Y-79709523D01*
X59033333Y-79757142D01*
X59080952Y-79852380D01*
X59080952Y-80042857D01*
X59128571Y-80138095D01*
X59176190Y-80185714D01*
X59271428Y-80233333D01*
X59461904Y-80233333D01*
X59557142Y-80185714D01*
X59604761Y-80138095D01*
X59652380Y-80042857D01*
X59652380Y-79852380D01*
X59604761Y-79757142D01*
X59557142Y-79709523D01*
X59461904Y-79661904D01*
X59271428Y-79661904D01*
X59176190Y-79709523D01*
X59128571Y-79757142D01*
X59080952Y-79852380D01*
%TO.C,R402*%
X137252380Y-54719047D02*
X136776190Y-55052380D01*
X137252380Y-55290476D02*
X136252380Y-55290476D01*
X136252380Y-54909523D01*
X136300000Y-54814285D01*
X136347619Y-54766666D01*
X136442857Y-54719047D01*
X136585714Y-54719047D01*
X136680952Y-54766666D01*
X136728571Y-54814285D01*
X136776190Y-54909523D01*
X136776190Y-55290476D01*
X136585714Y-53861904D02*
X137252380Y-53861904D01*
X136204761Y-54100000D02*
X136919047Y-54338095D01*
X136919047Y-53719047D01*
X136252380Y-53147619D02*
X136252380Y-53052380D01*
X136300000Y-52957142D01*
X136347619Y-52909523D01*
X136442857Y-52861904D01*
X136633333Y-52814285D01*
X136871428Y-52814285D01*
X137061904Y-52861904D01*
X137157142Y-52909523D01*
X137204761Y-52957142D01*
X137252380Y-53052380D01*
X137252380Y-53147619D01*
X137204761Y-53242857D01*
X137157142Y-53290476D01*
X137061904Y-53338095D01*
X136871428Y-53385714D01*
X136633333Y-53385714D01*
X136442857Y-53338095D01*
X136347619Y-53290476D01*
X136300000Y-53242857D01*
X136252380Y-53147619D01*
X136347619Y-52433333D02*
X136300000Y-52385714D01*
X136252380Y-52290476D01*
X136252380Y-52052380D01*
X136300000Y-51957142D01*
X136347619Y-51909523D01*
X136442857Y-51861904D01*
X136538095Y-51861904D01*
X136680952Y-51909523D01*
X137252380Y-52480952D01*
X137252380Y-51861904D01*
%TO.C,D202*%
X114252380Y-78690476D02*
X113252380Y-78690476D01*
X113252380Y-78452380D01*
X113300000Y-78309523D01*
X113395238Y-78214285D01*
X113490476Y-78166666D01*
X113680952Y-78119047D01*
X113823809Y-78119047D01*
X114014285Y-78166666D01*
X114109523Y-78214285D01*
X114204761Y-78309523D01*
X114252380Y-78452380D01*
X114252380Y-78690476D01*
X113347619Y-77738095D02*
X113300000Y-77690476D01*
X113252380Y-77595238D01*
X113252380Y-77357142D01*
X113300000Y-77261904D01*
X113347619Y-77214285D01*
X113442857Y-77166666D01*
X113538095Y-77166666D01*
X113680952Y-77214285D01*
X114252380Y-77785714D01*
X114252380Y-77166666D01*
X113252380Y-76547619D02*
X113252380Y-76452380D01*
X113300000Y-76357142D01*
X113347619Y-76309523D01*
X113442857Y-76261904D01*
X113633333Y-76214285D01*
X113871428Y-76214285D01*
X114061904Y-76261904D01*
X114157142Y-76309523D01*
X114204761Y-76357142D01*
X114252380Y-76452380D01*
X114252380Y-76547619D01*
X114204761Y-76642857D01*
X114157142Y-76690476D01*
X114061904Y-76738095D01*
X113871428Y-76785714D01*
X113633333Y-76785714D01*
X113442857Y-76738095D01*
X113347619Y-76690476D01*
X113300000Y-76642857D01*
X113252380Y-76547619D01*
X113347619Y-75833333D02*
X113300000Y-75785714D01*
X113252380Y-75690476D01*
X113252380Y-75452380D01*
X113300000Y-75357142D01*
X113347619Y-75309523D01*
X113442857Y-75261904D01*
X113538095Y-75261904D01*
X113680952Y-75309523D01*
X114252380Y-75880952D01*
X114252380Y-75261904D01*
%TO.C,C510*%
X60557142Y-65119047D02*
X60604761Y-65166666D01*
X60652380Y-65309523D01*
X60652380Y-65404761D01*
X60604761Y-65547619D01*
X60509523Y-65642857D01*
X60414285Y-65690476D01*
X60223809Y-65738095D01*
X60080952Y-65738095D01*
X59890476Y-65690476D01*
X59795238Y-65642857D01*
X59700000Y-65547619D01*
X59652380Y-65404761D01*
X59652380Y-65309523D01*
X59700000Y-65166666D01*
X59747619Y-65119047D01*
X59652380Y-64214285D02*
X59652380Y-64690476D01*
X60128571Y-64738095D01*
X60080952Y-64690476D01*
X60033333Y-64595238D01*
X60033333Y-64357142D01*
X60080952Y-64261904D01*
X60128571Y-64214285D01*
X60223809Y-64166666D01*
X60461904Y-64166666D01*
X60557142Y-64214285D01*
X60604761Y-64261904D01*
X60652380Y-64357142D01*
X60652380Y-64595238D01*
X60604761Y-64690476D01*
X60557142Y-64738095D01*
X60652380Y-63214285D02*
X60652380Y-63785714D01*
X60652380Y-63500000D02*
X59652380Y-63500000D01*
X59795238Y-63595238D01*
X59890476Y-63690476D01*
X59938095Y-63785714D01*
X59652380Y-62595238D02*
X59652380Y-62500000D01*
X59700000Y-62404761D01*
X59747619Y-62357142D01*
X59842857Y-62309523D01*
X60033333Y-62261904D01*
X60271428Y-62261904D01*
X60461904Y-62309523D01*
X60557142Y-62357142D01*
X60604761Y-62404761D01*
X60652380Y-62500000D01*
X60652380Y-62595238D01*
X60604761Y-62690476D01*
X60557142Y-62738095D01*
X60461904Y-62785714D01*
X60271428Y-62833333D01*
X60033333Y-62833333D01*
X59842857Y-62785714D01*
X59747619Y-62738095D01*
X59700000Y-62690476D01*
X59652380Y-62595238D01*
%TO.C,JTOF0_401*%
X130723809Y-46252380D02*
X130723809Y-46966666D01*
X130676190Y-47109523D01*
X130580952Y-47204761D01*
X130438095Y-47252380D01*
X130342857Y-47252380D01*
X131057142Y-46252380D02*
X131628571Y-46252380D01*
X131342857Y-47252380D02*
X131342857Y-46252380D01*
X132152380Y-46252380D02*
X132342857Y-46252380D01*
X132438095Y-46300000D01*
X132533333Y-46395238D01*
X132580952Y-46585714D01*
X132580952Y-46919047D01*
X132533333Y-47109523D01*
X132438095Y-47204761D01*
X132342857Y-47252380D01*
X132152380Y-47252380D01*
X132057142Y-47204761D01*
X131961904Y-47109523D01*
X131914285Y-46919047D01*
X131914285Y-46585714D01*
X131961904Y-46395238D01*
X132057142Y-46300000D01*
X132152380Y-46252380D01*
X133342857Y-46728571D02*
X133009523Y-46728571D01*
X133009523Y-47252380D02*
X133009523Y-46252380D01*
X133485714Y-46252380D01*
X134057142Y-46252380D02*
X134152380Y-46252380D01*
X134247619Y-46300000D01*
X134295238Y-46347619D01*
X134342857Y-46442857D01*
X134390476Y-46633333D01*
X134390476Y-46871428D01*
X134342857Y-47061904D01*
X134295238Y-47157142D01*
X134247619Y-47204761D01*
X134152380Y-47252380D01*
X134057142Y-47252380D01*
X133961904Y-47204761D01*
X133914285Y-47157142D01*
X133866666Y-47061904D01*
X133819047Y-46871428D01*
X133819047Y-46633333D01*
X133866666Y-46442857D01*
X133914285Y-46347619D01*
X133961904Y-46300000D01*
X134057142Y-46252380D01*
X134580952Y-47347619D02*
X135342857Y-47347619D01*
X136009523Y-46585714D02*
X136009523Y-47252380D01*
X135771428Y-46204761D02*
X135533333Y-46919047D01*
X136152380Y-46919047D01*
X136723809Y-46252380D02*
X136819047Y-46252380D01*
X136914285Y-46300000D01*
X136961904Y-46347619D01*
X137009523Y-46442857D01*
X137057142Y-46633333D01*
X137057142Y-46871428D01*
X137009523Y-47061904D01*
X136961904Y-47157142D01*
X136914285Y-47204761D01*
X136819047Y-47252380D01*
X136723809Y-47252380D01*
X136628571Y-47204761D01*
X136580952Y-47157142D01*
X136533333Y-47061904D01*
X136485714Y-46871428D01*
X136485714Y-46633333D01*
X136533333Y-46442857D01*
X136580952Y-46347619D01*
X136628571Y-46300000D01*
X136723809Y-46252380D01*
X138009523Y-47252380D02*
X137438095Y-47252380D01*
X137723809Y-47252380D02*
X137723809Y-46252380D01*
X137628571Y-46395238D01*
X137533333Y-46490476D01*
X137438095Y-46538095D01*
%TO.C,C506*%
X137880952Y-83957142D02*
X137833333Y-84004761D01*
X137690476Y-84052380D01*
X137595238Y-84052380D01*
X137452380Y-84004761D01*
X137357142Y-83909523D01*
X137309523Y-83814285D01*
X137261904Y-83623809D01*
X137261904Y-83480952D01*
X137309523Y-83290476D01*
X137357142Y-83195238D01*
X137452380Y-83100000D01*
X137595238Y-83052380D01*
X137690476Y-83052380D01*
X137833333Y-83100000D01*
X137880952Y-83147619D01*
X138785714Y-83052380D02*
X138309523Y-83052380D01*
X138261904Y-83528571D01*
X138309523Y-83480952D01*
X138404761Y-83433333D01*
X138642857Y-83433333D01*
X138738095Y-83480952D01*
X138785714Y-83528571D01*
X138833333Y-83623809D01*
X138833333Y-83861904D01*
X138785714Y-83957142D01*
X138738095Y-84004761D01*
X138642857Y-84052380D01*
X138404761Y-84052380D01*
X138309523Y-84004761D01*
X138261904Y-83957142D01*
X139452380Y-83052380D02*
X139547619Y-83052380D01*
X139642857Y-83100000D01*
X139690476Y-83147619D01*
X139738095Y-83242857D01*
X139785714Y-83433333D01*
X139785714Y-83671428D01*
X139738095Y-83861904D01*
X139690476Y-83957142D01*
X139642857Y-84004761D01*
X139547619Y-84052380D01*
X139452380Y-84052380D01*
X139357142Y-84004761D01*
X139309523Y-83957142D01*
X139261904Y-83861904D01*
X139214285Y-83671428D01*
X139214285Y-83433333D01*
X139261904Y-83242857D01*
X139309523Y-83147619D01*
X139357142Y-83100000D01*
X139452380Y-83052380D01*
X140642857Y-83052380D02*
X140452380Y-83052380D01*
X140357142Y-83100000D01*
X140309523Y-83147619D01*
X140214285Y-83290476D01*
X140166666Y-83480952D01*
X140166666Y-83861904D01*
X140214285Y-83957142D01*
X140261904Y-84004761D01*
X140357142Y-84052380D01*
X140547619Y-84052380D01*
X140642857Y-84004761D01*
X140690476Y-83957142D01*
X140738095Y-83861904D01*
X140738095Y-83623809D01*
X140690476Y-83528571D01*
X140642857Y-83480952D01*
X140547619Y-83433333D01*
X140357142Y-83433333D01*
X140261904Y-83480952D01*
X140214285Y-83528571D01*
X140166666Y-83623809D01*
%TO.C,D201*%
X104052380Y-80490476D02*
X103052380Y-80490476D01*
X103052380Y-80252380D01*
X103100000Y-80109523D01*
X103195238Y-80014285D01*
X103290476Y-79966666D01*
X103480952Y-79919047D01*
X103623809Y-79919047D01*
X103814285Y-79966666D01*
X103909523Y-80014285D01*
X104004761Y-80109523D01*
X104052380Y-80252380D01*
X104052380Y-80490476D01*
X103147619Y-79538095D02*
X103100000Y-79490476D01*
X103052380Y-79395238D01*
X103052380Y-79157142D01*
X103100000Y-79061904D01*
X103147619Y-79014285D01*
X103242857Y-78966666D01*
X103338095Y-78966666D01*
X103480952Y-79014285D01*
X104052380Y-79585714D01*
X104052380Y-78966666D01*
X103052380Y-78347619D02*
X103052380Y-78252380D01*
X103100000Y-78157142D01*
X103147619Y-78109523D01*
X103242857Y-78061904D01*
X103433333Y-78014285D01*
X103671428Y-78014285D01*
X103861904Y-78061904D01*
X103957142Y-78109523D01*
X104004761Y-78157142D01*
X104052380Y-78252380D01*
X104052380Y-78347619D01*
X104004761Y-78442857D01*
X103957142Y-78490476D01*
X103861904Y-78538095D01*
X103671428Y-78585714D01*
X103433333Y-78585714D01*
X103242857Y-78538095D01*
X103147619Y-78490476D01*
X103100000Y-78442857D01*
X103052380Y-78347619D01*
X104052380Y-77061904D02*
X104052380Y-77633333D01*
X104052380Y-77347619D02*
X103052380Y-77347619D01*
X103195238Y-77442857D01*
X103290476Y-77538095D01*
X103338095Y-77633333D01*
%TO.C,R301*%
X89080952Y-75852380D02*
X88747619Y-75376190D01*
X88509523Y-75852380D02*
X88509523Y-74852380D01*
X88890476Y-74852380D01*
X88985714Y-74900000D01*
X89033333Y-74947619D01*
X89080952Y-75042857D01*
X89080952Y-75185714D01*
X89033333Y-75280952D01*
X88985714Y-75328571D01*
X88890476Y-75376190D01*
X88509523Y-75376190D01*
X89414285Y-74852380D02*
X90033333Y-74852380D01*
X89700000Y-75233333D01*
X89842857Y-75233333D01*
X89938095Y-75280952D01*
X89985714Y-75328571D01*
X90033333Y-75423809D01*
X90033333Y-75661904D01*
X89985714Y-75757142D01*
X89938095Y-75804761D01*
X89842857Y-75852380D01*
X89557142Y-75852380D01*
X89461904Y-75804761D01*
X89414285Y-75757142D01*
X90652380Y-74852380D02*
X90747619Y-74852380D01*
X90842857Y-74900000D01*
X90890476Y-74947619D01*
X90938095Y-75042857D01*
X90985714Y-75233333D01*
X90985714Y-75471428D01*
X90938095Y-75661904D01*
X90890476Y-75757142D01*
X90842857Y-75804761D01*
X90747619Y-75852380D01*
X90652380Y-75852380D01*
X90557142Y-75804761D01*
X90509523Y-75757142D01*
X90461904Y-75661904D01*
X90414285Y-75471428D01*
X90414285Y-75233333D01*
X90461904Y-75042857D01*
X90509523Y-74947619D01*
X90557142Y-74900000D01*
X90652380Y-74852380D01*
X91938095Y-75852380D02*
X91366666Y-75852380D01*
X91652380Y-75852380D02*
X91652380Y-74852380D01*
X91557142Y-74995238D01*
X91461904Y-75090476D01*
X91366666Y-75138095D01*
%TO.C,JCOLOR_404*%
X111080952Y-50252380D02*
X111080952Y-50966666D01*
X111033333Y-51109523D01*
X110938095Y-51204761D01*
X110795238Y-51252380D01*
X110700000Y-51252380D01*
X112128571Y-51157142D02*
X112080952Y-51204761D01*
X111938095Y-51252380D01*
X111842857Y-51252380D01*
X111700000Y-51204761D01*
X111604761Y-51109523D01*
X111557142Y-51014285D01*
X111509523Y-50823809D01*
X111509523Y-50680952D01*
X111557142Y-50490476D01*
X111604761Y-50395238D01*
X111700000Y-50300000D01*
X111842857Y-50252380D01*
X111938095Y-50252380D01*
X112080952Y-50300000D01*
X112128571Y-50347619D01*
X112747619Y-50252380D02*
X112938095Y-50252380D01*
X113033333Y-50300000D01*
X113128571Y-50395238D01*
X113176190Y-50585714D01*
X113176190Y-50919047D01*
X113128571Y-51109523D01*
X113033333Y-51204761D01*
X112938095Y-51252380D01*
X112747619Y-51252380D01*
X112652380Y-51204761D01*
X112557142Y-51109523D01*
X112509523Y-50919047D01*
X112509523Y-50585714D01*
X112557142Y-50395238D01*
X112652380Y-50300000D01*
X112747619Y-50252380D01*
X114080952Y-51252380D02*
X113604761Y-51252380D01*
X113604761Y-50252380D01*
X114604761Y-50252380D02*
X114795238Y-50252380D01*
X114890476Y-50300000D01*
X114985714Y-50395238D01*
X115033333Y-50585714D01*
X115033333Y-50919047D01*
X114985714Y-51109523D01*
X114890476Y-51204761D01*
X114795238Y-51252380D01*
X114604761Y-51252380D01*
X114509523Y-51204761D01*
X114414285Y-51109523D01*
X114366666Y-50919047D01*
X114366666Y-50585714D01*
X114414285Y-50395238D01*
X114509523Y-50300000D01*
X114604761Y-50252380D01*
X116033333Y-51252380D02*
X115700000Y-50776190D01*
X115461904Y-51252380D02*
X115461904Y-50252380D01*
X115842857Y-50252380D01*
X115938095Y-50300000D01*
X115985714Y-50347619D01*
X116033333Y-50442857D01*
X116033333Y-50585714D01*
X115985714Y-50680952D01*
X115938095Y-50728571D01*
X115842857Y-50776190D01*
X115461904Y-50776190D01*
X116223809Y-51347619D02*
X116985714Y-51347619D01*
X117652380Y-50585714D02*
X117652380Y-51252380D01*
X117414285Y-50204761D02*
X117176190Y-50919047D01*
X117795238Y-50919047D01*
X118366666Y-50252380D02*
X118461904Y-50252380D01*
X118557142Y-50300000D01*
X118604761Y-50347619D01*
X118652380Y-50442857D01*
X118700000Y-50633333D01*
X118700000Y-50871428D01*
X118652380Y-51061904D01*
X118604761Y-51157142D01*
X118557142Y-51204761D01*
X118461904Y-51252380D01*
X118366666Y-51252380D01*
X118271428Y-51204761D01*
X118223809Y-51157142D01*
X118176190Y-51061904D01*
X118128571Y-50871428D01*
X118128571Y-50633333D01*
X118176190Y-50442857D01*
X118223809Y-50347619D01*
X118271428Y-50300000D01*
X118366666Y-50252380D01*
X119557142Y-50585714D02*
X119557142Y-51252380D01*
X119319047Y-50204761D02*
X119080952Y-50919047D01*
X119700000Y-50919047D01*
%TO.C,C202*%
X108157142Y-81719047D02*
X108204761Y-81766666D01*
X108252380Y-81909523D01*
X108252380Y-82004761D01*
X108204761Y-82147619D01*
X108109523Y-82242857D01*
X108014285Y-82290476D01*
X107823809Y-82338095D01*
X107680952Y-82338095D01*
X107490476Y-82290476D01*
X107395238Y-82242857D01*
X107300000Y-82147619D01*
X107252380Y-82004761D01*
X107252380Y-81909523D01*
X107300000Y-81766666D01*
X107347619Y-81719047D01*
X107347619Y-81338095D02*
X107300000Y-81290476D01*
X107252380Y-81195238D01*
X107252380Y-80957142D01*
X107300000Y-80861904D01*
X107347619Y-80814285D01*
X107442857Y-80766666D01*
X107538095Y-80766666D01*
X107680952Y-80814285D01*
X108252380Y-81385714D01*
X108252380Y-80766666D01*
X107252380Y-80147619D02*
X107252380Y-80052380D01*
X107300000Y-79957142D01*
X107347619Y-79909523D01*
X107442857Y-79861904D01*
X107633333Y-79814285D01*
X107871428Y-79814285D01*
X108061904Y-79861904D01*
X108157142Y-79909523D01*
X108204761Y-79957142D01*
X108252380Y-80052380D01*
X108252380Y-80147619D01*
X108204761Y-80242857D01*
X108157142Y-80290476D01*
X108061904Y-80338095D01*
X107871428Y-80385714D01*
X107633333Y-80385714D01*
X107442857Y-80338095D01*
X107347619Y-80290476D01*
X107300000Y-80242857D01*
X107252380Y-80147619D01*
X107347619Y-79433333D02*
X107300000Y-79385714D01*
X107252380Y-79290476D01*
X107252380Y-79052380D01*
X107300000Y-78957142D01*
X107347619Y-78909523D01*
X107442857Y-78861904D01*
X107538095Y-78861904D01*
X107680952Y-78909523D01*
X108252380Y-79480952D01*
X108252380Y-78861904D01*
%TO.C,H102*%
X148285714Y-46252380D02*
X148285714Y-45252380D01*
X148285714Y-45728571D02*
X148857142Y-45728571D01*
X148857142Y-46252380D02*
X148857142Y-45252380D01*
X149857142Y-46252380D02*
X149285714Y-46252380D01*
X149571428Y-46252380D02*
X149571428Y-45252380D01*
X149476190Y-45395238D01*
X149380952Y-45490476D01*
X149285714Y-45538095D01*
X150476190Y-45252380D02*
X150571428Y-45252380D01*
X150666666Y-45300000D01*
X150714285Y-45347619D01*
X150761904Y-45442857D01*
X150809523Y-45633333D01*
X150809523Y-45871428D01*
X150761904Y-46061904D01*
X150714285Y-46157142D01*
X150666666Y-46204761D01*
X150571428Y-46252380D01*
X150476190Y-46252380D01*
X150380952Y-46204761D01*
X150333333Y-46157142D01*
X150285714Y-46061904D01*
X150238095Y-45871428D01*
X150238095Y-45633333D01*
X150285714Y-45442857D01*
X150333333Y-45347619D01*
X150380952Y-45300000D01*
X150476190Y-45252380D01*
X151190476Y-45347619D02*
X151238095Y-45300000D01*
X151333333Y-45252380D01*
X151571428Y-45252380D01*
X151666666Y-45300000D01*
X151714285Y-45347619D01*
X151761904Y-45442857D01*
X151761904Y-45538095D01*
X151714285Y-45680952D01*
X151142857Y-46252380D01*
X151761904Y-46252380D01*
%TO.C,C301*%
X83680952Y-63557142D02*
X83633333Y-63604761D01*
X83490476Y-63652380D01*
X83395238Y-63652380D01*
X83252380Y-63604761D01*
X83157142Y-63509523D01*
X83109523Y-63414285D01*
X83061904Y-63223809D01*
X83061904Y-63080952D01*
X83109523Y-62890476D01*
X83157142Y-62795238D01*
X83252380Y-62700000D01*
X83395238Y-62652380D01*
X83490476Y-62652380D01*
X83633333Y-62700000D01*
X83680952Y-62747619D01*
X84014285Y-62652380D02*
X84633333Y-62652380D01*
X84300000Y-63033333D01*
X84442857Y-63033333D01*
X84538095Y-63080952D01*
X84585714Y-63128571D01*
X84633333Y-63223809D01*
X84633333Y-63461904D01*
X84585714Y-63557142D01*
X84538095Y-63604761D01*
X84442857Y-63652380D01*
X84157142Y-63652380D01*
X84061904Y-63604761D01*
X84014285Y-63557142D01*
X85252380Y-62652380D02*
X85347619Y-62652380D01*
X85442857Y-62700000D01*
X85490476Y-62747619D01*
X85538095Y-62842857D01*
X85585714Y-63033333D01*
X85585714Y-63271428D01*
X85538095Y-63461904D01*
X85490476Y-63557142D01*
X85442857Y-63604761D01*
X85347619Y-63652380D01*
X85252380Y-63652380D01*
X85157142Y-63604761D01*
X85109523Y-63557142D01*
X85061904Y-63461904D01*
X85014285Y-63271428D01*
X85014285Y-63033333D01*
X85061904Y-62842857D01*
X85109523Y-62747619D01*
X85157142Y-62700000D01*
X85252380Y-62652380D01*
X86538095Y-63652380D02*
X85966666Y-63652380D01*
X86252380Y-63652380D02*
X86252380Y-62652380D01*
X86157142Y-62795238D01*
X86061904Y-62890476D01*
X85966666Y-62938095D01*
%TO.C,C203*%
X109557142Y-81719047D02*
X109604761Y-81766666D01*
X109652380Y-81909523D01*
X109652380Y-82004761D01*
X109604761Y-82147619D01*
X109509523Y-82242857D01*
X109414285Y-82290476D01*
X109223809Y-82338095D01*
X109080952Y-82338095D01*
X108890476Y-82290476D01*
X108795238Y-82242857D01*
X108700000Y-82147619D01*
X108652380Y-82004761D01*
X108652380Y-81909523D01*
X108700000Y-81766666D01*
X108747619Y-81719047D01*
X108747619Y-81338095D02*
X108700000Y-81290476D01*
X108652380Y-81195238D01*
X108652380Y-80957142D01*
X108700000Y-80861904D01*
X108747619Y-80814285D01*
X108842857Y-80766666D01*
X108938095Y-80766666D01*
X109080952Y-80814285D01*
X109652380Y-81385714D01*
X109652380Y-80766666D01*
X108652380Y-80147619D02*
X108652380Y-80052380D01*
X108700000Y-79957142D01*
X108747619Y-79909523D01*
X108842857Y-79861904D01*
X109033333Y-79814285D01*
X109271428Y-79814285D01*
X109461904Y-79861904D01*
X109557142Y-79909523D01*
X109604761Y-79957142D01*
X109652380Y-80052380D01*
X109652380Y-80147619D01*
X109604761Y-80242857D01*
X109557142Y-80290476D01*
X109461904Y-80338095D01*
X109271428Y-80385714D01*
X109033333Y-80385714D01*
X108842857Y-80338095D01*
X108747619Y-80290476D01*
X108700000Y-80242857D01*
X108652380Y-80147619D01*
X108652380Y-79480952D02*
X108652380Y-78861904D01*
X109033333Y-79195238D01*
X109033333Y-79052380D01*
X109080952Y-78957142D01*
X109128571Y-78909523D01*
X109223809Y-78861904D01*
X109461904Y-78861904D01*
X109557142Y-78909523D01*
X109604761Y-78957142D01*
X109652380Y-79052380D01*
X109652380Y-79338095D01*
X109604761Y-79433333D01*
X109557142Y-79480952D01*
%TO.C,REG3-201*%
X124633333Y-81652380D02*
X124300000Y-81176190D01*
X124061904Y-81652380D02*
X124061904Y-80652380D01*
X124442857Y-80652380D01*
X124538095Y-80700000D01*
X124585714Y-80747619D01*
X124633333Y-80842857D01*
X124633333Y-80985714D01*
X124585714Y-81080952D01*
X124538095Y-81128571D01*
X124442857Y-81176190D01*
X124061904Y-81176190D01*
X125061904Y-81128571D02*
X125395238Y-81128571D01*
X125538095Y-81652380D02*
X125061904Y-81652380D01*
X125061904Y-80652380D01*
X125538095Y-80652380D01*
X126490476Y-80700000D02*
X126395238Y-80652380D01*
X126252380Y-80652380D01*
X126109523Y-80700000D01*
X126014285Y-80795238D01*
X125966666Y-80890476D01*
X125919047Y-81080952D01*
X125919047Y-81223809D01*
X125966666Y-81414285D01*
X126014285Y-81509523D01*
X126109523Y-81604761D01*
X126252380Y-81652380D01*
X126347619Y-81652380D01*
X126490476Y-81604761D01*
X126538095Y-81557142D01*
X126538095Y-81223809D01*
X126347619Y-81223809D01*
X126871428Y-80652380D02*
X127490476Y-80652380D01*
X127157142Y-81033333D01*
X127300000Y-81033333D01*
X127395238Y-81080952D01*
X127442857Y-81128571D01*
X127490476Y-81223809D01*
X127490476Y-81461904D01*
X127442857Y-81557142D01*
X127395238Y-81604761D01*
X127300000Y-81652380D01*
X127014285Y-81652380D01*
X126919047Y-81604761D01*
X126871428Y-81557142D01*
X127919047Y-81271428D02*
X128680952Y-81271428D01*
X129109523Y-80747619D02*
X129157142Y-80700000D01*
X129252380Y-80652380D01*
X129490476Y-80652380D01*
X129585714Y-80700000D01*
X129633333Y-80747619D01*
X129680952Y-80842857D01*
X129680952Y-80938095D01*
X129633333Y-81080952D01*
X129061904Y-81652380D01*
X129680952Y-81652380D01*
X130300000Y-80652380D02*
X130395238Y-80652380D01*
X130490476Y-80700000D01*
X130538095Y-80747619D01*
X130585714Y-80842857D01*
X130633333Y-81033333D01*
X130633333Y-81271428D01*
X130585714Y-81461904D01*
X130538095Y-81557142D01*
X130490476Y-81604761D01*
X130395238Y-81652380D01*
X130300000Y-81652380D01*
X130204761Y-81604761D01*
X130157142Y-81557142D01*
X130109523Y-81461904D01*
X130061904Y-81271428D01*
X130061904Y-81033333D01*
X130109523Y-80842857D01*
X130157142Y-80747619D01*
X130204761Y-80700000D01*
X130300000Y-80652380D01*
X131585714Y-81652380D02*
X131014285Y-81652380D01*
X131300000Y-81652380D02*
X131300000Y-80652380D01*
X131204761Y-80795238D01*
X131109523Y-80890476D01*
X131014285Y-80938095D01*
%TO.C,H101*%
X48285714Y-46252380D02*
X48285714Y-45252380D01*
X48285714Y-45728571D02*
X48857142Y-45728571D01*
X48857142Y-46252380D02*
X48857142Y-45252380D01*
X49857142Y-46252380D02*
X49285714Y-46252380D01*
X49571428Y-46252380D02*
X49571428Y-45252380D01*
X49476190Y-45395238D01*
X49380952Y-45490476D01*
X49285714Y-45538095D01*
X50476190Y-45252380D02*
X50571428Y-45252380D01*
X50666666Y-45300000D01*
X50714285Y-45347619D01*
X50761904Y-45442857D01*
X50809523Y-45633333D01*
X50809523Y-45871428D01*
X50761904Y-46061904D01*
X50714285Y-46157142D01*
X50666666Y-46204761D01*
X50571428Y-46252380D01*
X50476190Y-46252380D01*
X50380952Y-46204761D01*
X50333333Y-46157142D01*
X50285714Y-46061904D01*
X50238095Y-45871428D01*
X50238095Y-45633333D01*
X50285714Y-45442857D01*
X50333333Y-45347619D01*
X50380952Y-45300000D01*
X50476190Y-45252380D01*
X51761904Y-46252380D02*
X51190476Y-46252380D01*
X51476190Y-46252380D02*
X51476190Y-45252380D01*
X51380952Y-45395238D01*
X51285714Y-45490476D01*
X51190476Y-45538095D01*
%TO.C,C302*%
X80757142Y-71519047D02*
X80804761Y-71566666D01*
X80852380Y-71709523D01*
X80852380Y-71804761D01*
X80804761Y-71947619D01*
X80709523Y-72042857D01*
X80614285Y-72090476D01*
X80423809Y-72138095D01*
X80280952Y-72138095D01*
X80090476Y-72090476D01*
X79995238Y-72042857D01*
X79900000Y-71947619D01*
X79852380Y-71804761D01*
X79852380Y-71709523D01*
X79900000Y-71566666D01*
X79947619Y-71519047D01*
X79852380Y-71185714D02*
X79852380Y-70566666D01*
X80233333Y-70900000D01*
X80233333Y-70757142D01*
X80280952Y-70661904D01*
X80328571Y-70614285D01*
X80423809Y-70566666D01*
X80661904Y-70566666D01*
X80757142Y-70614285D01*
X80804761Y-70661904D01*
X80852380Y-70757142D01*
X80852380Y-71042857D01*
X80804761Y-71138095D01*
X80757142Y-71185714D01*
X79852380Y-69947619D02*
X79852380Y-69852380D01*
X79900000Y-69757142D01*
X79947619Y-69709523D01*
X80042857Y-69661904D01*
X80233333Y-69614285D01*
X80471428Y-69614285D01*
X80661904Y-69661904D01*
X80757142Y-69709523D01*
X80804761Y-69757142D01*
X80852380Y-69852380D01*
X80852380Y-69947619D01*
X80804761Y-70042857D01*
X80757142Y-70090476D01*
X80661904Y-70138095D01*
X80471428Y-70185714D01*
X80233333Y-70185714D01*
X80042857Y-70138095D01*
X79947619Y-70090476D01*
X79900000Y-70042857D01*
X79852380Y-69947619D01*
X79947619Y-69233333D02*
X79900000Y-69185714D01*
X79852380Y-69090476D01*
X79852380Y-68852380D01*
X79900000Y-68757142D01*
X79947619Y-68709523D01*
X80042857Y-68661904D01*
X80138095Y-68661904D01*
X80280952Y-68709523D01*
X80852380Y-69280952D01*
X80852380Y-68661904D01*
%TO.C,C204*%
X125880952Y-77157142D02*
X125833333Y-77204761D01*
X125690476Y-77252380D01*
X125595238Y-77252380D01*
X125452380Y-77204761D01*
X125357142Y-77109523D01*
X125309523Y-77014285D01*
X125261904Y-76823809D01*
X125261904Y-76680952D01*
X125309523Y-76490476D01*
X125357142Y-76395238D01*
X125452380Y-76300000D01*
X125595238Y-76252380D01*
X125690476Y-76252380D01*
X125833333Y-76300000D01*
X125880952Y-76347619D01*
X126261904Y-76347619D02*
X126309523Y-76300000D01*
X126404761Y-76252380D01*
X126642857Y-76252380D01*
X126738095Y-76300000D01*
X126785714Y-76347619D01*
X126833333Y-76442857D01*
X126833333Y-76538095D01*
X126785714Y-76680952D01*
X126214285Y-77252380D01*
X126833333Y-77252380D01*
X127452380Y-76252380D02*
X127547619Y-76252380D01*
X127642857Y-76300000D01*
X127690476Y-76347619D01*
X127738095Y-76442857D01*
X127785714Y-76633333D01*
X127785714Y-76871428D01*
X127738095Y-77061904D01*
X127690476Y-77157142D01*
X127642857Y-77204761D01*
X127547619Y-77252380D01*
X127452380Y-77252380D01*
X127357142Y-77204761D01*
X127309523Y-77157142D01*
X127261904Y-77061904D01*
X127214285Y-76871428D01*
X127214285Y-76633333D01*
X127261904Y-76442857D01*
X127309523Y-76347619D01*
X127357142Y-76300000D01*
X127452380Y-76252380D01*
X128642857Y-76585714D02*
X128642857Y-77252380D01*
X128404761Y-76204761D02*
X128166666Y-76919047D01*
X128785714Y-76919047D01*
%TO.C,C201*%
X106757142Y-81719047D02*
X106804761Y-81766666D01*
X106852380Y-81909523D01*
X106852380Y-82004761D01*
X106804761Y-82147619D01*
X106709523Y-82242857D01*
X106614285Y-82290476D01*
X106423809Y-82338095D01*
X106280952Y-82338095D01*
X106090476Y-82290476D01*
X105995238Y-82242857D01*
X105900000Y-82147619D01*
X105852380Y-82004761D01*
X105852380Y-81909523D01*
X105900000Y-81766666D01*
X105947619Y-81719047D01*
X105947619Y-81338095D02*
X105900000Y-81290476D01*
X105852380Y-81195238D01*
X105852380Y-80957142D01*
X105900000Y-80861904D01*
X105947619Y-80814285D01*
X106042857Y-80766666D01*
X106138095Y-80766666D01*
X106280952Y-80814285D01*
X106852380Y-81385714D01*
X106852380Y-80766666D01*
X105852380Y-80147619D02*
X105852380Y-80052380D01*
X105900000Y-79957142D01*
X105947619Y-79909523D01*
X106042857Y-79861904D01*
X106233333Y-79814285D01*
X106471428Y-79814285D01*
X106661904Y-79861904D01*
X106757142Y-79909523D01*
X106804761Y-79957142D01*
X106852380Y-80052380D01*
X106852380Y-80147619D01*
X106804761Y-80242857D01*
X106757142Y-80290476D01*
X106661904Y-80338095D01*
X106471428Y-80385714D01*
X106233333Y-80385714D01*
X106042857Y-80338095D01*
X105947619Y-80290476D01*
X105900000Y-80242857D01*
X105852380Y-80147619D01*
X106852380Y-78861904D02*
X106852380Y-79433333D01*
X106852380Y-79147619D02*
X105852380Y-79147619D01*
X105995238Y-79242857D01*
X106090476Y-79338095D01*
X106138095Y-79433333D01*
%TO.C,C509*%
X145157142Y-73719047D02*
X145204761Y-73766666D01*
X145252380Y-73909523D01*
X145252380Y-74004761D01*
X145204761Y-74147619D01*
X145109523Y-74242857D01*
X145014285Y-74290476D01*
X144823809Y-74338095D01*
X144680952Y-74338095D01*
X144490476Y-74290476D01*
X144395238Y-74242857D01*
X144300000Y-74147619D01*
X144252380Y-74004761D01*
X144252380Y-73909523D01*
X144300000Y-73766666D01*
X144347619Y-73719047D01*
X144252380Y-72814285D02*
X144252380Y-73290476D01*
X144728571Y-73338095D01*
X144680952Y-73290476D01*
X144633333Y-73195238D01*
X144633333Y-72957142D01*
X144680952Y-72861904D01*
X144728571Y-72814285D01*
X144823809Y-72766666D01*
X145061904Y-72766666D01*
X145157142Y-72814285D01*
X145204761Y-72861904D01*
X145252380Y-72957142D01*
X145252380Y-73195238D01*
X145204761Y-73290476D01*
X145157142Y-73338095D01*
X144252380Y-72147619D02*
X144252380Y-72052380D01*
X144300000Y-71957142D01*
X144347619Y-71909523D01*
X144442857Y-71861904D01*
X144633333Y-71814285D01*
X144871428Y-71814285D01*
X145061904Y-71861904D01*
X145157142Y-71909523D01*
X145204761Y-71957142D01*
X145252380Y-72052380D01*
X145252380Y-72147619D01*
X145204761Y-72242857D01*
X145157142Y-72290476D01*
X145061904Y-72338095D01*
X144871428Y-72385714D01*
X144633333Y-72385714D01*
X144442857Y-72338095D01*
X144347619Y-72290476D01*
X144300000Y-72242857D01*
X144252380Y-72147619D01*
X145252380Y-71338095D02*
X145252380Y-71147619D01*
X145204761Y-71052380D01*
X145157142Y-71004761D01*
X145014285Y-70909523D01*
X144823809Y-70861904D01*
X144442857Y-70861904D01*
X144347619Y-70909523D01*
X144300000Y-70957142D01*
X144252380Y-71052380D01*
X144252380Y-71242857D01*
X144300000Y-71338095D01*
X144347619Y-71385714D01*
X144442857Y-71433333D01*
X144680952Y-71433333D01*
X144776190Y-71385714D01*
X144823809Y-71338095D01*
X144871428Y-71242857D01*
X144871428Y-71052380D01*
X144823809Y-70957142D01*
X144776190Y-70909523D01*
X144680952Y-70861904D01*
%TO.C,C502*%
X133357142Y-67719047D02*
X133404761Y-67766666D01*
X133452380Y-67909523D01*
X133452380Y-68004761D01*
X133404761Y-68147619D01*
X133309523Y-68242857D01*
X133214285Y-68290476D01*
X133023809Y-68338095D01*
X132880952Y-68338095D01*
X132690476Y-68290476D01*
X132595238Y-68242857D01*
X132500000Y-68147619D01*
X132452380Y-68004761D01*
X132452380Y-67909523D01*
X132500000Y-67766666D01*
X132547619Y-67719047D01*
X132452380Y-66814285D02*
X132452380Y-67290476D01*
X132928571Y-67338095D01*
X132880952Y-67290476D01*
X132833333Y-67195238D01*
X132833333Y-66957142D01*
X132880952Y-66861904D01*
X132928571Y-66814285D01*
X133023809Y-66766666D01*
X133261904Y-66766666D01*
X133357142Y-66814285D01*
X133404761Y-66861904D01*
X133452380Y-66957142D01*
X133452380Y-67195238D01*
X133404761Y-67290476D01*
X133357142Y-67338095D01*
X132452380Y-66147619D02*
X132452380Y-66052380D01*
X132500000Y-65957142D01*
X132547619Y-65909523D01*
X132642857Y-65861904D01*
X132833333Y-65814285D01*
X133071428Y-65814285D01*
X133261904Y-65861904D01*
X133357142Y-65909523D01*
X133404761Y-65957142D01*
X133452380Y-66052380D01*
X133452380Y-66147619D01*
X133404761Y-66242857D01*
X133357142Y-66290476D01*
X133261904Y-66338095D01*
X133071428Y-66385714D01*
X132833333Y-66385714D01*
X132642857Y-66338095D01*
X132547619Y-66290476D01*
X132500000Y-66242857D01*
X132452380Y-66147619D01*
X132547619Y-65433333D02*
X132500000Y-65385714D01*
X132452380Y-65290476D01*
X132452380Y-65052380D01*
X132500000Y-64957142D01*
X132547619Y-64909523D01*
X132642857Y-64861904D01*
X132738095Y-64861904D01*
X132880952Y-64909523D01*
X133452380Y-65480952D01*
X133452380Y-64861904D01*
%TO.C,R403*%
X60052380Y-55244047D02*
X59576190Y-55577380D01*
X60052380Y-55815476D02*
X59052380Y-55815476D01*
X59052380Y-55434523D01*
X59100000Y-55339285D01*
X59147619Y-55291666D01*
X59242857Y-55244047D01*
X59385714Y-55244047D01*
X59480952Y-55291666D01*
X59528571Y-55339285D01*
X59576190Y-55434523D01*
X59576190Y-55815476D01*
X59385714Y-54386904D02*
X60052380Y-54386904D01*
X59004761Y-54625000D02*
X59719047Y-54863095D01*
X59719047Y-54244047D01*
X59052380Y-53672619D02*
X59052380Y-53577380D01*
X59100000Y-53482142D01*
X59147619Y-53434523D01*
X59242857Y-53386904D01*
X59433333Y-53339285D01*
X59671428Y-53339285D01*
X59861904Y-53386904D01*
X59957142Y-53434523D01*
X60004761Y-53482142D01*
X60052380Y-53577380D01*
X60052380Y-53672619D01*
X60004761Y-53767857D01*
X59957142Y-53815476D01*
X59861904Y-53863095D01*
X59671428Y-53910714D01*
X59433333Y-53910714D01*
X59242857Y-53863095D01*
X59147619Y-53815476D01*
X59100000Y-53767857D01*
X59052380Y-53672619D01*
X59052380Y-53005952D02*
X59052380Y-52386904D01*
X59433333Y-52720238D01*
X59433333Y-52577380D01*
X59480952Y-52482142D01*
X59528571Y-52434523D01*
X59623809Y-52386904D01*
X59861904Y-52386904D01*
X59957142Y-52434523D01*
X60004761Y-52482142D01*
X60052380Y-52577380D01*
X60052380Y-52863095D01*
X60004761Y-52958333D01*
X59957142Y-53005952D01*
%TO.C,R401*%
X61652380Y-55244047D02*
X61176190Y-55577380D01*
X61652380Y-55815476D02*
X60652380Y-55815476D01*
X60652380Y-55434523D01*
X60700000Y-55339285D01*
X60747619Y-55291666D01*
X60842857Y-55244047D01*
X60985714Y-55244047D01*
X61080952Y-55291666D01*
X61128571Y-55339285D01*
X61176190Y-55434523D01*
X61176190Y-55815476D01*
X60985714Y-54386904D02*
X61652380Y-54386904D01*
X60604761Y-54625000D02*
X61319047Y-54863095D01*
X61319047Y-54244047D01*
X60652380Y-53672619D02*
X60652380Y-53577380D01*
X60700000Y-53482142D01*
X60747619Y-53434523D01*
X60842857Y-53386904D01*
X61033333Y-53339285D01*
X61271428Y-53339285D01*
X61461904Y-53386904D01*
X61557142Y-53434523D01*
X61604761Y-53482142D01*
X61652380Y-53577380D01*
X61652380Y-53672619D01*
X61604761Y-53767857D01*
X61557142Y-53815476D01*
X61461904Y-53863095D01*
X61271428Y-53910714D01*
X61033333Y-53910714D01*
X60842857Y-53863095D01*
X60747619Y-53815476D01*
X60700000Y-53767857D01*
X60652380Y-53672619D01*
X61652380Y-52386904D02*
X61652380Y-52958333D01*
X61652380Y-52672619D02*
X60652380Y-52672619D01*
X60795238Y-52767857D01*
X60890476Y-52863095D01*
X60938095Y-52958333D01*
%TO.C,JDistance0_401*%
X71866666Y-83652380D02*
X71866666Y-84366666D01*
X71819047Y-84509523D01*
X71723809Y-84604761D01*
X71580952Y-84652380D01*
X71485714Y-84652380D01*
X72342857Y-84652380D02*
X72342857Y-83652380D01*
X72580952Y-83652380D01*
X72723809Y-83700000D01*
X72819047Y-83795238D01*
X72866666Y-83890476D01*
X72914285Y-84080952D01*
X72914285Y-84223809D01*
X72866666Y-84414285D01*
X72819047Y-84509523D01*
X72723809Y-84604761D01*
X72580952Y-84652380D01*
X72342857Y-84652380D01*
X73342857Y-84652380D02*
X73342857Y-83985714D01*
X73342857Y-83652380D02*
X73295238Y-83700000D01*
X73342857Y-83747619D01*
X73390476Y-83700000D01*
X73342857Y-83652380D01*
X73342857Y-83747619D01*
X73771428Y-84604761D02*
X73866666Y-84652380D01*
X74057142Y-84652380D01*
X74152380Y-84604761D01*
X74200000Y-84509523D01*
X74200000Y-84461904D01*
X74152380Y-84366666D01*
X74057142Y-84319047D01*
X73914285Y-84319047D01*
X73819047Y-84271428D01*
X73771428Y-84176190D01*
X73771428Y-84128571D01*
X73819047Y-84033333D01*
X73914285Y-83985714D01*
X74057142Y-83985714D01*
X74152380Y-84033333D01*
X74485714Y-83985714D02*
X74866666Y-83985714D01*
X74628571Y-83652380D02*
X74628571Y-84509523D01*
X74676190Y-84604761D01*
X74771428Y-84652380D01*
X74866666Y-84652380D01*
X75628571Y-84652380D02*
X75628571Y-84128571D01*
X75580952Y-84033333D01*
X75485714Y-83985714D01*
X75295238Y-83985714D01*
X75200000Y-84033333D01*
X75628571Y-84604761D02*
X75533333Y-84652380D01*
X75295238Y-84652380D01*
X75200000Y-84604761D01*
X75152380Y-84509523D01*
X75152380Y-84414285D01*
X75200000Y-84319047D01*
X75295238Y-84271428D01*
X75533333Y-84271428D01*
X75628571Y-84223809D01*
X76104761Y-83985714D02*
X76104761Y-84652380D01*
X76104761Y-84080952D02*
X76152380Y-84033333D01*
X76247619Y-83985714D01*
X76390476Y-83985714D01*
X76485714Y-84033333D01*
X76533333Y-84128571D01*
X76533333Y-84652380D01*
X77438095Y-84604761D02*
X77342857Y-84652380D01*
X77152380Y-84652380D01*
X77057142Y-84604761D01*
X77009523Y-84557142D01*
X76961904Y-84461904D01*
X76961904Y-84176190D01*
X77009523Y-84080952D01*
X77057142Y-84033333D01*
X77152380Y-83985714D01*
X77342857Y-83985714D01*
X77438095Y-84033333D01*
X78247619Y-84604761D02*
X78152380Y-84652380D01*
X77961904Y-84652380D01*
X77866666Y-84604761D01*
X77819047Y-84509523D01*
X77819047Y-84128571D01*
X77866666Y-84033333D01*
X77961904Y-83985714D01*
X78152380Y-83985714D01*
X78247619Y-84033333D01*
X78295238Y-84128571D01*
X78295238Y-84223809D01*
X77819047Y-84319047D01*
X78914285Y-83652380D02*
X79009523Y-83652380D01*
X79104761Y-83700000D01*
X79152380Y-83747619D01*
X79200000Y-83842857D01*
X79247619Y-84033333D01*
X79247619Y-84271428D01*
X79200000Y-84461904D01*
X79152380Y-84557142D01*
X79104761Y-84604761D01*
X79009523Y-84652380D01*
X78914285Y-84652380D01*
X78819047Y-84604761D01*
X78771428Y-84557142D01*
X78723809Y-84461904D01*
X78676190Y-84271428D01*
X78676190Y-84033333D01*
X78723809Y-83842857D01*
X78771428Y-83747619D01*
X78819047Y-83700000D01*
X78914285Y-83652380D01*
X79438095Y-84747619D02*
X80200000Y-84747619D01*
X80866666Y-83985714D02*
X80866666Y-84652380D01*
X80628571Y-83604761D02*
X80390476Y-84319047D01*
X81009523Y-84319047D01*
X81580952Y-83652380D02*
X81676190Y-83652380D01*
X81771428Y-83700000D01*
X81819047Y-83747619D01*
X81866666Y-83842857D01*
X81914285Y-84033333D01*
X81914285Y-84271428D01*
X81866666Y-84461904D01*
X81819047Y-84557142D01*
X81771428Y-84604761D01*
X81676190Y-84652380D01*
X81580952Y-84652380D01*
X81485714Y-84604761D01*
X81438095Y-84557142D01*
X81390476Y-84461904D01*
X81342857Y-84271428D01*
X81342857Y-84033333D01*
X81390476Y-83842857D01*
X81438095Y-83747619D01*
X81485714Y-83700000D01*
X81580952Y-83652380D01*
X82866666Y-84652380D02*
X82295238Y-84652380D01*
X82580952Y-84652380D02*
X82580952Y-83652380D01*
X82485714Y-83795238D01*
X82390476Y-83890476D01*
X82295238Y-83938095D01*
%TO.C,R404*%
X139252380Y-54719047D02*
X138776190Y-55052380D01*
X139252380Y-55290476D02*
X138252380Y-55290476D01*
X138252380Y-54909523D01*
X138300000Y-54814285D01*
X138347619Y-54766666D01*
X138442857Y-54719047D01*
X138585714Y-54719047D01*
X138680952Y-54766666D01*
X138728571Y-54814285D01*
X138776190Y-54909523D01*
X138776190Y-55290476D01*
X138585714Y-53861904D02*
X139252380Y-53861904D01*
X138204761Y-54100000D02*
X138919047Y-54338095D01*
X138919047Y-53719047D01*
X138252380Y-53147619D02*
X138252380Y-53052380D01*
X138300000Y-52957142D01*
X138347619Y-52909523D01*
X138442857Y-52861904D01*
X138633333Y-52814285D01*
X138871428Y-52814285D01*
X139061904Y-52861904D01*
X139157142Y-52909523D01*
X139204761Y-52957142D01*
X139252380Y-53052380D01*
X139252380Y-53147619D01*
X139204761Y-53242857D01*
X139157142Y-53290476D01*
X139061904Y-53338095D01*
X138871428Y-53385714D01*
X138633333Y-53385714D01*
X138442857Y-53338095D01*
X138347619Y-53290476D01*
X138300000Y-53242857D01*
X138252380Y-53147619D01*
X138585714Y-51957142D02*
X139252380Y-51957142D01*
X138204761Y-52195238D02*
X138919047Y-52433333D01*
X138919047Y-51814285D01*
%TO.C,JCOLOR_401*%
X78480952Y-49652380D02*
X78480952Y-50366666D01*
X78433333Y-50509523D01*
X78338095Y-50604761D01*
X78195238Y-50652380D01*
X78100000Y-50652380D01*
X79528571Y-50557142D02*
X79480952Y-50604761D01*
X79338095Y-50652380D01*
X79242857Y-50652380D01*
X79100000Y-50604761D01*
X79004761Y-50509523D01*
X78957142Y-50414285D01*
X78909523Y-50223809D01*
X78909523Y-50080952D01*
X78957142Y-49890476D01*
X79004761Y-49795238D01*
X79100000Y-49700000D01*
X79242857Y-49652380D01*
X79338095Y-49652380D01*
X79480952Y-49700000D01*
X79528571Y-49747619D01*
X80147619Y-49652380D02*
X80338095Y-49652380D01*
X80433333Y-49700000D01*
X80528571Y-49795238D01*
X80576190Y-49985714D01*
X80576190Y-50319047D01*
X80528571Y-50509523D01*
X80433333Y-50604761D01*
X80338095Y-50652380D01*
X80147619Y-50652380D01*
X80052380Y-50604761D01*
X79957142Y-50509523D01*
X79909523Y-50319047D01*
X79909523Y-49985714D01*
X79957142Y-49795238D01*
X80052380Y-49700000D01*
X80147619Y-49652380D01*
X81480952Y-50652380D02*
X81004761Y-50652380D01*
X81004761Y-49652380D01*
X82004761Y-49652380D02*
X82195238Y-49652380D01*
X82290476Y-49700000D01*
X82385714Y-49795238D01*
X82433333Y-49985714D01*
X82433333Y-50319047D01*
X82385714Y-50509523D01*
X82290476Y-50604761D01*
X82195238Y-50652380D01*
X82004761Y-50652380D01*
X81909523Y-50604761D01*
X81814285Y-50509523D01*
X81766666Y-50319047D01*
X81766666Y-49985714D01*
X81814285Y-49795238D01*
X81909523Y-49700000D01*
X82004761Y-49652380D01*
X83433333Y-50652380D02*
X83100000Y-50176190D01*
X82861904Y-50652380D02*
X82861904Y-49652380D01*
X83242857Y-49652380D01*
X83338095Y-49700000D01*
X83385714Y-49747619D01*
X83433333Y-49842857D01*
X83433333Y-49985714D01*
X83385714Y-50080952D01*
X83338095Y-50128571D01*
X83242857Y-50176190D01*
X82861904Y-50176190D01*
X83623809Y-50747619D02*
X84385714Y-50747619D01*
X85052380Y-49985714D02*
X85052380Y-50652380D01*
X84814285Y-49604761D02*
X84576190Y-50319047D01*
X85195238Y-50319047D01*
X85766666Y-49652380D02*
X85861904Y-49652380D01*
X85957142Y-49700000D01*
X86004761Y-49747619D01*
X86052380Y-49842857D01*
X86100000Y-50033333D01*
X86100000Y-50271428D01*
X86052380Y-50461904D01*
X86004761Y-50557142D01*
X85957142Y-50604761D01*
X85861904Y-50652380D01*
X85766666Y-50652380D01*
X85671428Y-50604761D01*
X85623809Y-50557142D01*
X85576190Y-50461904D01*
X85528571Y-50271428D01*
X85528571Y-50033333D01*
X85576190Y-49842857D01*
X85623809Y-49747619D01*
X85671428Y-49700000D01*
X85766666Y-49652380D01*
X87052380Y-50652380D02*
X86480952Y-50652380D01*
X86766666Y-50652380D02*
X86766666Y-49652380D01*
X86671428Y-49795238D01*
X86576190Y-49890476D01*
X86480952Y-49938095D01*
%TO.C,H104*%
X151485714Y-86452380D02*
X151485714Y-85452380D01*
X151485714Y-85928571D02*
X152057142Y-85928571D01*
X152057142Y-86452380D02*
X152057142Y-85452380D01*
X153057142Y-86452380D02*
X152485714Y-86452380D01*
X152771428Y-86452380D02*
X152771428Y-85452380D01*
X152676190Y-85595238D01*
X152580952Y-85690476D01*
X152485714Y-85738095D01*
X153676190Y-85452380D02*
X153771428Y-85452380D01*
X153866666Y-85500000D01*
X153914285Y-85547619D01*
X153961904Y-85642857D01*
X154009523Y-85833333D01*
X154009523Y-86071428D01*
X153961904Y-86261904D01*
X153914285Y-86357142D01*
X153866666Y-86404761D01*
X153771428Y-86452380D01*
X153676190Y-86452380D01*
X153580952Y-86404761D01*
X153533333Y-86357142D01*
X153485714Y-86261904D01*
X153438095Y-86071428D01*
X153438095Y-85833333D01*
X153485714Y-85642857D01*
X153533333Y-85547619D01*
X153580952Y-85500000D01*
X153676190Y-85452380D01*
X154866666Y-85785714D02*
X154866666Y-86452380D01*
X154628571Y-85404761D02*
X154390476Y-86119047D01*
X155009523Y-86119047D01*
%TO.C,R501*%
X103280952Y-56052380D02*
X102947619Y-55576190D01*
X102709523Y-56052380D02*
X102709523Y-55052380D01*
X103090476Y-55052380D01*
X103185714Y-55100000D01*
X103233333Y-55147619D01*
X103280952Y-55242857D01*
X103280952Y-55385714D01*
X103233333Y-55480952D01*
X103185714Y-55528571D01*
X103090476Y-55576190D01*
X102709523Y-55576190D01*
X104185714Y-55052380D02*
X103709523Y-55052380D01*
X103661904Y-55528571D01*
X103709523Y-55480952D01*
X103804761Y-55433333D01*
X104042857Y-55433333D01*
X104138095Y-55480952D01*
X104185714Y-55528571D01*
X104233333Y-55623809D01*
X104233333Y-55861904D01*
X104185714Y-55957142D01*
X104138095Y-56004761D01*
X104042857Y-56052380D01*
X103804761Y-56052380D01*
X103709523Y-56004761D01*
X103661904Y-55957142D01*
X104852380Y-55052380D02*
X104947619Y-55052380D01*
X105042857Y-55100000D01*
X105090476Y-55147619D01*
X105138095Y-55242857D01*
X105185714Y-55433333D01*
X105185714Y-55671428D01*
X105138095Y-55861904D01*
X105090476Y-55957142D01*
X105042857Y-56004761D01*
X104947619Y-56052380D01*
X104852380Y-56052380D01*
X104757142Y-56004761D01*
X104709523Y-55957142D01*
X104661904Y-55861904D01*
X104614285Y-55671428D01*
X104614285Y-55433333D01*
X104661904Y-55242857D01*
X104709523Y-55147619D01*
X104757142Y-55100000D01*
X104852380Y-55052380D01*
X106138095Y-56052380D02*
X105566666Y-56052380D01*
X105852380Y-56052380D02*
X105852380Y-55052380D01*
X105757142Y-55195238D01*
X105661904Y-55290476D01*
X105566666Y-55338095D01*
%TO.C,UDRIVER501*%
X60266666Y-75452380D02*
X60266666Y-76261904D01*
X60314285Y-76357142D01*
X60361904Y-76404761D01*
X60457142Y-76452380D01*
X60647619Y-76452380D01*
X60742857Y-76404761D01*
X60790476Y-76357142D01*
X60838095Y-76261904D01*
X60838095Y-75452380D01*
X61314285Y-76452380D02*
X61314285Y-75452380D01*
X61552380Y-75452380D01*
X61695238Y-75500000D01*
X61790476Y-75595238D01*
X61838095Y-75690476D01*
X61885714Y-75880952D01*
X61885714Y-76023809D01*
X61838095Y-76214285D01*
X61790476Y-76309523D01*
X61695238Y-76404761D01*
X61552380Y-76452380D01*
X61314285Y-76452380D01*
X62885714Y-76452380D02*
X62552380Y-75976190D01*
X62314285Y-76452380D02*
X62314285Y-75452380D01*
X62695238Y-75452380D01*
X62790476Y-75500000D01*
X62838095Y-75547619D01*
X62885714Y-75642857D01*
X62885714Y-75785714D01*
X62838095Y-75880952D01*
X62790476Y-75928571D01*
X62695238Y-75976190D01*
X62314285Y-75976190D01*
X63314285Y-76452380D02*
X63314285Y-75452380D01*
X63647619Y-75452380D02*
X63980952Y-76452380D01*
X64314285Y-75452380D01*
X64647619Y-75928571D02*
X64980952Y-75928571D01*
X65123809Y-76452380D02*
X64647619Y-76452380D01*
X64647619Y-75452380D01*
X65123809Y-75452380D01*
X66123809Y-76452380D02*
X65790476Y-75976190D01*
X65552380Y-76452380D02*
X65552380Y-75452380D01*
X65933333Y-75452380D01*
X66028571Y-75500000D01*
X66076190Y-75547619D01*
X66123809Y-75642857D01*
X66123809Y-75785714D01*
X66076190Y-75880952D01*
X66028571Y-75928571D01*
X65933333Y-75976190D01*
X65552380Y-75976190D01*
X67028571Y-75452380D02*
X66552380Y-75452380D01*
X66504761Y-75928571D01*
X66552380Y-75880952D01*
X66647619Y-75833333D01*
X66885714Y-75833333D01*
X66980952Y-75880952D01*
X67028571Y-75928571D01*
X67076190Y-76023809D01*
X67076190Y-76261904D01*
X67028571Y-76357142D01*
X66980952Y-76404761D01*
X66885714Y-76452380D01*
X66647619Y-76452380D01*
X66552380Y-76404761D01*
X66504761Y-76357142D01*
X67695238Y-75452380D02*
X67790476Y-75452380D01*
X67885714Y-75500000D01*
X67933333Y-75547619D01*
X67980952Y-75642857D01*
X68028571Y-75833333D01*
X68028571Y-76071428D01*
X67980952Y-76261904D01*
X67933333Y-76357142D01*
X67885714Y-76404761D01*
X67790476Y-76452380D01*
X67695238Y-76452380D01*
X67600000Y-76404761D01*
X67552380Y-76357142D01*
X67504761Y-76261904D01*
X67457142Y-76071428D01*
X67457142Y-75833333D01*
X67504761Y-75642857D01*
X67552380Y-75547619D01*
X67600000Y-75500000D01*
X67695238Y-75452380D01*
X68980952Y-76452380D02*
X68409523Y-76452380D01*
X68695238Y-76452380D02*
X68695238Y-75452380D01*
X68600000Y-75595238D01*
X68504761Y-75690476D01*
X68409523Y-75738095D01*
%TO.C,USTM301*%
X94657142Y-72852380D02*
X94657142Y-73661904D01*
X94704761Y-73757142D01*
X94752380Y-73804761D01*
X94847619Y-73852380D01*
X95038095Y-73852380D01*
X95133333Y-73804761D01*
X95180952Y-73757142D01*
X95228571Y-73661904D01*
X95228571Y-72852380D01*
X95657142Y-73804761D02*
X95800000Y-73852380D01*
X96038095Y-73852380D01*
X96133333Y-73804761D01*
X96180952Y-73757142D01*
X96228571Y-73661904D01*
X96228571Y-73566666D01*
X96180952Y-73471428D01*
X96133333Y-73423809D01*
X96038095Y-73376190D01*
X95847619Y-73328571D01*
X95752380Y-73280952D01*
X95704761Y-73233333D01*
X95657142Y-73138095D01*
X95657142Y-73042857D01*
X95704761Y-72947619D01*
X95752380Y-72900000D01*
X95847619Y-72852380D01*
X96085714Y-72852380D01*
X96228571Y-72900000D01*
X96514285Y-72852380D02*
X97085714Y-72852380D01*
X96800000Y-73852380D02*
X96800000Y-72852380D01*
X97419047Y-73852380D02*
X97419047Y-72852380D01*
X97752380Y-73566666D01*
X98085714Y-72852380D01*
X98085714Y-73852380D01*
X98466666Y-72852380D02*
X99085714Y-72852380D01*
X98752380Y-73233333D01*
X98895238Y-73233333D01*
X98990476Y-73280952D01*
X99038095Y-73328571D01*
X99085714Y-73423809D01*
X99085714Y-73661904D01*
X99038095Y-73757142D01*
X98990476Y-73804761D01*
X98895238Y-73852380D01*
X98609523Y-73852380D01*
X98514285Y-73804761D01*
X98466666Y-73757142D01*
X99704761Y-72852380D02*
X99799999Y-72852380D01*
X99895238Y-72900000D01*
X99942857Y-72947619D01*
X99990476Y-73042857D01*
X100038095Y-73233333D01*
X100038095Y-73471428D01*
X99990476Y-73661904D01*
X99942857Y-73757142D01*
X99895238Y-73804761D01*
X99799999Y-73852380D01*
X99704761Y-73852380D01*
X99609523Y-73804761D01*
X99561904Y-73757142D01*
X99514285Y-73661904D01*
X99466666Y-73471428D01*
X99466666Y-73233333D01*
X99514285Y-73042857D01*
X99561904Y-72947619D01*
X99609523Y-72900000D01*
X99704761Y-72852380D01*
X100990476Y-73852380D02*
X100419047Y-73852380D01*
X100704761Y-73852380D02*
X100704761Y-72852380D01*
X100609523Y-72995238D01*
X100514285Y-73090476D01*
X100419047Y-73138095D01*
%TO.C,R201*%
X105452380Y-81719047D02*
X104976190Y-82052380D01*
X105452380Y-82290476D02*
X104452380Y-82290476D01*
X104452380Y-81909523D01*
X104500000Y-81814285D01*
X104547619Y-81766666D01*
X104642857Y-81719047D01*
X104785714Y-81719047D01*
X104880952Y-81766666D01*
X104928571Y-81814285D01*
X104976190Y-81909523D01*
X104976190Y-82290476D01*
X104547619Y-81338095D02*
X104500000Y-81290476D01*
X104452380Y-81195238D01*
X104452380Y-80957142D01*
X104500000Y-80861904D01*
X104547619Y-80814285D01*
X104642857Y-80766666D01*
X104738095Y-80766666D01*
X104880952Y-80814285D01*
X105452380Y-81385714D01*
X105452380Y-80766666D01*
X104452380Y-80147619D02*
X104452380Y-80052380D01*
X104500000Y-79957142D01*
X104547619Y-79909523D01*
X104642857Y-79861904D01*
X104833333Y-79814285D01*
X105071428Y-79814285D01*
X105261904Y-79861904D01*
X105357142Y-79909523D01*
X105404761Y-79957142D01*
X105452380Y-80052380D01*
X105452380Y-80147619D01*
X105404761Y-80242857D01*
X105357142Y-80290476D01*
X105261904Y-80338095D01*
X105071428Y-80385714D01*
X104833333Y-80385714D01*
X104642857Y-80338095D01*
X104547619Y-80290476D01*
X104500000Y-80242857D01*
X104452380Y-80147619D01*
X105452380Y-78861904D02*
X105452380Y-79433333D01*
X105452380Y-79147619D02*
X104452380Y-79147619D01*
X104595238Y-79242857D01*
X104690476Y-79338095D01*
X104738095Y-79433333D01*
%TO.C,C304*%
X87680952Y-64957142D02*
X87633333Y-65004761D01*
X87490476Y-65052380D01*
X87395238Y-65052380D01*
X87252380Y-65004761D01*
X87157142Y-64909523D01*
X87109523Y-64814285D01*
X87061904Y-64623809D01*
X87061904Y-64480952D01*
X87109523Y-64290476D01*
X87157142Y-64195238D01*
X87252380Y-64100000D01*
X87395238Y-64052380D01*
X87490476Y-64052380D01*
X87633333Y-64100000D01*
X87680952Y-64147619D01*
X88014285Y-64052380D02*
X88633333Y-64052380D01*
X88300000Y-64433333D01*
X88442857Y-64433333D01*
X88538095Y-64480952D01*
X88585714Y-64528571D01*
X88633333Y-64623809D01*
X88633333Y-64861904D01*
X88585714Y-64957142D01*
X88538095Y-65004761D01*
X88442857Y-65052380D01*
X88157142Y-65052380D01*
X88061904Y-65004761D01*
X88014285Y-64957142D01*
X89252380Y-64052380D02*
X89347619Y-64052380D01*
X89442857Y-64100000D01*
X89490476Y-64147619D01*
X89538095Y-64242857D01*
X89585714Y-64433333D01*
X89585714Y-64671428D01*
X89538095Y-64861904D01*
X89490476Y-64957142D01*
X89442857Y-65004761D01*
X89347619Y-65052380D01*
X89252380Y-65052380D01*
X89157142Y-65004761D01*
X89109523Y-64957142D01*
X89061904Y-64861904D01*
X89014285Y-64671428D01*
X89014285Y-64433333D01*
X89061904Y-64242857D01*
X89109523Y-64147619D01*
X89157142Y-64100000D01*
X89252380Y-64052380D01*
X90442857Y-64385714D02*
X90442857Y-65052380D01*
X90204761Y-64004761D02*
X89966666Y-64719047D01*
X90585714Y-64719047D01*
%TO.C,C505*%
X86680952Y-53757142D02*
X86633333Y-53804761D01*
X86490476Y-53852380D01*
X86395238Y-53852380D01*
X86252380Y-53804761D01*
X86157142Y-53709523D01*
X86109523Y-53614285D01*
X86061904Y-53423809D01*
X86061904Y-53280952D01*
X86109523Y-53090476D01*
X86157142Y-52995238D01*
X86252380Y-52900000D01*
X86395238Y-52852380D01*
X86490476Y-52852380D01*
X86633333Y-52900000D01*
X86680952Y-52947619D01*
X87585714Y-52852380D02*
X87109523Y-52852380D01*
X87061904Y-53328571D01*
X87109523Y-53280952D01*
X87204761Y-53233333D01*
X87442857Y-53233333D01*
X87538095Y-53280952D01*
X87585714Y-53328571D01*
X87633333Y-53423809D01*
X87633333Y-53661904D01*
X87585714Y-53757142D01*
X87538095Y-53804761D01*
X87442857Y-53852380D01*
X87204761Y-53852380D01*
X87109523Y-53804761D01*
X87061904Y-53757142D01*
X88252380Y-52852380D02*
X88347619Y-52852380D01*
X88442857Y-52900000D01*
X88490476Y-52947619D01*
X88538095Y-53042857D01*
X88585714Y-53233333D01*
X88585714Y-53471428D01*
X88538095Y-53661904D01*
X88490476Y-53757142D01*
X88442857Y-53804761D01*
X88347619Y-53852380D01*
X88252380Y-53852380D01*
X88157142Y-53804761D01*
X88109523Y-53757142D01*
X88061904Y-53661904D01*
X88014285Y-53471428D01*
X88014285Y-53233333D01*
X88061904Y-53042857D01*
X88109523Y-52947619D01*
X88157142Y-52900000D01*
X88252380Y-52852380D01*
X89490476Y-52852380D02*
X89014285Y-52852380D01*
X88966666Y-53328571D01*
X89014285Y-53280952D01*
X89109523Y-53233333D01*
X89347619Y-53233333D01*
X89442857Y-53280952D01*
X89490476Y-53328571D01*
X89538095Y-53423809D01*
X89538095Y-53661904D01*
X89490476Y-53757142D01*
X89442857Y-53804761D01*
X89347619Y-53852380D01*
X89109523Y-53852380D01*
X89014285Y-53804761D01*
X88966666Y-53757142D01*
%TO.C,C504*%
X144697030Y-67519047D02*
X144744649Y-67566666D01*
X144792268Y-67709523D01*
X144792268Y-67804761D01*
X144744649Y-67947619D01*
X144649411Y-68042857D01*
X144554173Y-68090476D01*
X144363697Y-68138095D01*
X144220840Y-68138095D01*
X144030364Y-68090476D01*
X143935126Y-68042857D01*
X143839888Y-67947619D01*
X143792268Y-67804761D01*
X143792268Y-67709523D01*
X143839888Y-67566666D01*
X143887507Y-67519047D01*
X143792268Y-66614285D02*
X143792268Y-67090476D01*
X144268459Y-67138095D01*
X144220840Y-67090476D01*
X144173221Y-66995238D01*
X144173221Y-66757142D01*
X144220840Y-66661904D01*
X144268459Y-66614285D01*
X144363697Y-66566666D01*
X144601792Y-66566666D01*
X144697030Y-66614285D01*
X144744649Y-66661904D01*
X144792268Y-66757142D01*
X144792268Y-66995238D01*
X144744649Y-67090476D01*
X144697030Y-67138095D01*
X143792268Y-65947619D02*
X143792268Y-65852380D01*
X143839888Y-65757142D01*
X143887507Y-65709523D01*
X143982745Y-65661904D01*
X144173221Y-65614285D01*
X144411316Y-65614285D01*
X144601792Y-65661904D01*
X144697030Y-65709523D01*
X144744649Y-65757142D01*
X144792268Y-65852380D01*
X144792268Y-65947619D01*
X144744649Y-66042857D01*
X144697030Y-66090476D01*
X144601792Y-66138095D01*
X144411316Y-66185714D01*
X144173221Y-66185714D01*
X143982745Y-66138095D01*
X143887507Y-66090476D01*
X143839888Y-66042857D01*
X143792268Y-65947619D01*
X144125602Y-64757142D02*
X144792268Y-64757142D01*
X143744649Y-64995238D02*
X144458935Y-65233333D01*
X144458935Y-64614285D01*
%TO.C,H103*%
X48285714Y-86252380D02*
X48285714Y-85252380D01*
X48285714Y-85728571D02*
X48857142Y-85728571D01*
X48857142Y-86252380D02*
X48857142Y-85252380D01*
X49857142Y-86252380D02*
X49285714Y-86252380D01*
X49571428Y-86252380D02*
X49571428Y-85252380D01*
X49476190Y-85395238D01*
X49380952Y-85490476D01*
X49285714Y-85538095D01*
X50476190Y-85252380D02*
X50571428Y-85252380D01*
X50666666Y-85300000D01*
X50714285Y-85347619D01*
X50761904Y-85442857D01*
X50809523Y-85633333D01*
X50809523Y-85871428D01*
X50761904Y-86061904D01*
X50714285Y-86157142D01*
X50666666Y-86204761D01*
X50571428Y-86252380D01*
X50476190Y-86252380D01*
X50380952Y-86204761D01*
X50333333Y-86157142D01*
X50285714Y-86061904D01*
X50238095Y-85871428D01*
X50238095Y-85633333D01*
X50285714Y-85442857D01*
X50333333Y-85347619D01*
X50380952Y-85300000D01*
X50476190Y-85252380D01*
X51142857Y-85252380D02*
X51761904Y-85252380D01*
X51428571Y-85633333D01*
X51571428Y-85633333D01*
X51666666Y-85680952D01*
X51714285Y-85728571D01*
X51761904Y-85823809D01*
X51761904Y-86061904D01*
X51714285Y-86157142D01*
X51666666Y-86204761D01*
X51571428Y-86252380D01*
X51285714Y-86252380D01*
X51190476Y-86204761D01*
X51142857Y-86157142D01*
%TO.C,JBat201*%
X97076190Y-83852380D02*
X97076190Y-84566666D01*
X97028571Y-84709523D01*
X96933333Y-84804761D01*
X96790476Y-84852380D01*
X96695238Y-84852380D01*
X97885714Y-84328571D02*
X98028571Y-84376190D01*
X98076190Y-84423809D01*
X98123809Y-84519047D01*
X98123809Y-84661904D01*
X98076190Y-84757142D01*
X98028571Y-84804761D01*
X97933333Y-84852380D01*
X97552380Y-84852380D01*
X97552380Y-83852380D01*
X97885714Y-83852380D01*
X97980952Y-83900000D01*
X98028571Y-83947619D01*
X98076190Y-84042857D01*
X98076190Y-84138095D01*
X98028571Y-84233333D01*
X97980952Y-84280952D01*
X97885714Y-84328571D01*
X97552380Y-84328571D01*
X98980952Y-84852380D02*
X98980952Y-84328571D01*
X98933333Y-84233333D01*
X98838095Y-84185714D01*
X98647619Y-84185714D01*
X98552380Y-84233333D01*
X98980952Y-84804761D02*
X98885714Y-84852380D01*
X98647619Y-84852380D01*
X98552380Y-84804761D01*
X98504761Y-84709523D01*
X98504761Y-84614285D01*
X98552380Y-84519047D01*
X98647619Y-84471428D01*
X98885714Y-84471428D01*
X98980952Y-84423809D01*
X99314285Y-84185714D02*
X99695238Y-84185714D01*
X99457142Y-83852380D02*
X99457142Y-84709523D01*
X99504761Y-84804761D01*
X99600000Y-84852380D01*
X99695238Y-84852380D01*
X99980952Y-83947619D02*
X100028571Y-83900000D01*
X100123809Y-83852380D01*
X100361904Y-83852380D01*
X100457142Y-83900000D01*
X100504761Y-83947619D01*
X100552380Y-84042857D01*
X100552380Y-84138095D01*
X100504761Y-84280952D01*
X99933333Y-84852380D01*
X100552380Y-84852380D01*
X101171428Y-83852380D02*
X101266666Y-83852380D01*
X101361904Y-83900000D01*
X101409523Y-83947619D01*
X101457142Y-84042857D01*
X101504761Y-84233333D01*
X101504761Y-84471428D01*
X101457142Y-84661904D01*
X101409523Y-84757142D01*
X101361904Y-84804761D01*
X101266666Y-84852380D01*
X101171428Y-84852380D01*
X101076190Y-84804761D01*
X101028571Y-84757142D01*
X100980952Y-84661904D01*
X100933333Y-84471428D01*
X100933333Y-84233333D01*
X100980952Y-84042857D01*
X101028571Y-83947619D01*
X101076190Y-83900000D01*
X101171428Y-83852380D01*
X102457142Y-84852380D02*
X101885714Y-84852380D01*
X102171428Y-84852380D02*
X102171428Y-83852380D01*
X102076190Y-83995238D01*
X101980952Y-84090476D01*
X101885714Y-84138095D01*
%TO.C,JTOF1_401*%
X68523809Y-52652380D02*
X68523809Y-53366666D01*
X68476190Y-53509523D01*
X68380952Y-53604761D01*
X68238095Y-53652380D01*
X68142857Y-53652380D01*
X68857142Y-52652380D02*
X69428571Y-52652380D01*
X69142857Y-53652380D02*
X69142857Y-52652380D01*
X69952380Y-52652380D02*
X70142857Y-52652380D01*
X70238095Y-52700000D01*
X70333333Y-52795238D01*
X70380952Y-52985714D01*
X70380952Y-53319047D01*
X70333333Y-53509523D01*
X70238095Y-53604761D01*
X70142857Y-53652380D01*
X69952380Y-53652380D01*
X69857142Y-53604761D01*
X69761904Y-53509523D01*
X69714285Y-53319047D01*
X69714285Y-52985714D01*
X69761904Y-52795238D01*
X69857142Y-52700000D01*
X69952380Y-52652380D01*
X71142857Y-53128571D02*
X70809523Y-53128571D01*
X70809523Y-53652380D02*
X70809523Y-52652380D01*
X71285714Y-52652380D01*
X72190476Y-53652380D02*
X71619047Y-53652380D01*
X71904761Y-53652380D02*
X71904761Y-52652380D01*
X71809523Y-52795238D01*
X71714285Y-52890476D01*
X71619047Y-52938095D01*
X72380952Y-53747619D02*
X73142857Y-53747619D01*
X73809523Y-52985714D02*
X73809523Y-53652380D01*
X73571428Y-52604761D02*
X73333333Y-53319047D01*
X73952380Y-53319047D01*
X74523809Y-52652380D02*
X74619047Y-52652380D01*
X74714285Y-52700000D01*
X74761904Y-52747619D01*
X74809523Y-52842857D01*
X74857142Y-53033333D01*
X74857142Y-53271428D01*
X74809523Y-53461904D01*
X74761904Y-53557142D01*
X74714285Y-53604761D01*
X74619047Y-53652380D01*
X74523809Y-53652380D01*
X74428571Y-53604761D01*
X74380952Y-53557142D01*
X74333333Y-53461904D01*
X74285714Y-53271428D01*
X74285714Y-53033333D01*
X74333333Y-52842857D01*
X74380952Y-52747619D01*
X74428571Y-52700000D01*
X74523809Y-52652380D01*
X75809523Y-53652380D02*
X75238095Y-53652380D01*
X75523809Y-53652380D02*
X75523809Y-52652380D01*
X75428571Y-52795238D01*
X75333333Y-52890476D01*
X75238095Y-52938095D01*
%TO.C,JDistance0_402*%
X84066666Y-83852380D02*
X84066666Y-84566666D01*
X84019047Y-84709523D01*
X83923809Y-84804761D01*
X83780952Y-84852380D01*
X83685714Y-84852380D01*
X84542857Y-84852380D02*
X84542857Y-83852380D01*
X84780952Y-83852380D01*
X84923809Y-83900000D01*
X85019047Y-83995238D01*
X85066666Y-84090476D01*
X85114285Y-84280952D01*
X85114285Y-84423809D01*
X85066666Y-84614285D01*
X85019047Y-84709523D01*
X84923809Y-84804761D01*
X84780952Y-84852380D01*
X84542857Y-84852380D01*
X85542857Y-84852380D02*
X85542857Y-84185714D01*
X85542857Y-83852380D02*
X85495238Y-83900000D01*
X85542857Y-83947619D01*
X85590476Y-83900000D01*
X85542857Y-83852380D01*
X85542857Y-83947619D01*
X85971428Y-84804761D02*
X86066666Y-84852380D01*
X86257142Y-84852380D01*
X86352380Y-84804761D01*
X86400000Y-84709523D01*
X86400000Y-84661904D01*
X86352380Y-84566666D01*
X86257142Y-84519047D01*
X86114285Y-84519047D01*
X86019047Y-84471428D01*
X85971428Y-84376190D01*
X85971428Y-84328571D01*
X86019047Y-84233333D01*
X86114285Y-84185714D01*
X86257142Y-84185714D01*
X86352380Y-84233333D01*
X86685714Y-84185714D02*
X87066666Y-84185714D01*
X86828571Y-83852380D02*
X86828571Y-84709523D01*
X86876190Y-84804761D01*
X86971428Y-84852380D01*
X87066666Y-84852380D01*
X87828571Y-84852380D02*
X87828571Y-84328571D01*
X87780952Y-84233333D01*
X87685714Y-84185714D01*
X87495238Y-84185714D01*
X87400000Y-84233333D01*
X87828571Y-84804761D02*
X87733333Y-84852380D01*
X87495238Y-84852380D01*
X87400000Y-84804761D01*
X87352380Y-84709523D01*
X87352380Y-84614285D01*
X87400000Y-84519047D01*
X87495238Y-84471428D01*
X87733333Y-84471428D01*
X87828571Y-84423809D01*
X88304761Y-84185714D02*
X88304761Y-84852380D01*
X88304761Y-84280952D02*
X88352380Y-84233333D01*
X88447619Y-84185714D01*
X88590476Y-84185714D01*
X88685714Y-84233333D01*
X88733333Y-84328571D01*
X88733333Y-84852380D01*
X89638095Y-84804761D02*
X89542857Y-84852380D01*
X89352380Y-84852380D01*
X89257142Y-84804761D01*
X89209523Y-84757142D01*
X89161904Y-84661904D01*
X89161904Y-84376190D01*
X89209523Y-84280952D01*
X89257142Y-84233333D01*
X89352380Y-84185714D01*
X89542857Y-84185714D01*
X89638095Y-84233333D01*
X90447619Y-84804761D02*
X90352380Y-84852380D01*
X90161904Y-84852380D01*
X90066666Y-84804761D01*
X90019047Y-84709523D01*
X90019047Y-84328571D01*
X90066666Y-84233333D01*
X90161904Y-84185714D01*
X90352380Y-84185714D01*
X90447619Y-84233333D01*
X90495238Y-84328571D01*
X90495238Y-84423809D01*
X90019047Y-84519047D01*
X91114285Y-83852380D02*
X91209523Y-83852380D01*
X91304761Y-83900000D01*
X91352380Y-83947619D01*
X91400000Y-84042857D01*
X91447619Y-84233333D01*
X91447619Y-84471428D01*
X91400000Y-84661904D01*
X91352380Y-84757142D01*
X91304761Y-84804761D01*
X91209523Y-84852380D01*
X91114285Y-84852380D01*
X91019047Y-84804761D01*
X90971428Y-84757142D01*
X90923809Y-84661904D01*
X90876190Y-84471428D01*
X90876190Y-84233333D01*
X90923809Y-84042857D01*
X90971428Y-83947619D01*
X91019047Y-83900000D01*
X91114285Y-83852380D01*
X91638095Y-84947619D02*
X92400000Y-84947619D01*
X93066666Y-84185714D02*
X93066666Y-84852380D01*
X92828571Y-83804761D02*
X92590476Y-84519047D01*
X93209523Y-84519047D01*
X93780952Y-83852380D02*
X93876190Y-83852380D01*
X93971428Y-83900000D01*
X94019047Y-83947619D01*
X94066666Y-84042857D01*
X94114285Y-84233333D01*
X94114285Y-84471428D01*
X94066666Y-84661904D01*
X94019047Y-84757142D01*
X93971428Y-84804761D01*
X93876190Y-84852380D01*
X93780952Y-84852380D01*
X93685714Y-84804761D01*
X93638095Y-84757142D01*
X93590476Y-84661904D01*
X93542857Y-84471428D01*
X93542857Y-84233333D01*
X93590476Y-84042857D01*
X93638095Y-83947619D01*
X93685714Y-83900000D01*
X93780952Y-83852380D01*
X94495238Y-83947619D02*
X94542857Y-83900000D01*
X94638095Y-83852380D01*
X94876190Y-83852380D01*
X94971428Y-83900000D01*
X95019047Y-83947619D01*
X95066666Y-84042857D01*
X95066666Y-84138095D01*
X95019047Y-84280952D01*
X94447619Y-84852380D01*
X95066666Y-84852380D01*
%TO.C,C507*%
X98880952Y-57557142D02*
X98833333Y-57604761D01*
X98690476Y-57652380D01*
X98595238Y-57652380D01*
X98452380Y-57604761D01*
X98357142Y-57509523D01*
X98309523Y-57414285D01*
X98261904Y-57223809D01*
X98261904Y-57080952D01*
X98309523Y-56890476D01*
X98357142Y-56795238D01*
X98452380Y-56700000D01*
X98595238Y-56652380D01*
X98690476Y-56652380D01*
X98833333Y-56700000D01*
X98880952Y-56747619D01*
X99785714Y-56652380D02*
X99309523Y-56652380D01*
X99261904Y-57128571D01*
X99309523Y-57080952D01*
X99404761Y-57033333D01*
X99642857Y-57033333D01*
X99738095Y-57080952D01*
X99785714Y-57128571D01*
X99833333Y-57223809D01*
X99833333Y-57461904D01*
X99785714Y-57557142D01*
X99738095Y-57604761D01*
X99642857Y-57652380D01*
X99404761Y-57652380D01*
X99309523Y-57604761D01*
X99261904Y-57557142D01*
X100452380Y-56652380D02*
X100547619Y-56652380D01*
X100642857Y-56700000D01*
X100690476Y-56747619D01*
X100738095Y-56842857D01*
X100785714Y-57033333D01*
X100785714Y-57271428D01*
X100738095Y-57461904D01*
X100690476Y-57557142D01*
X100642857Y-57604761D01*
X100547619Y-57652380D01*
X100452380Y-57652380D01*
X100357142Y-57604761D01*
X100309523Y-57557142D01*
X100261904Y-57461904D01*
X100214285Y-57271428D01*
X100214285Y-57033333D01*
X100261904Y-56842857D01*
X100309523Y-56747619D01*
X100357142Y-56700000D01*
X100452380Y-56652380D01*
X101119047Y-56652380D02*
X101785714Y-56652380D01*
X101357142Y-57652380D01*
%TO.C,JMCC1_501*%
X154252380Y-74114285D02*
X154966666Y-74114285D01*
X155109523Y-74161904D01*
X155204761Y-74257142D01*
X155252380Y-74400000D01*
X155252380Y-74495238D01*
X155252380Y-73638095D02*
X154252380Y-73638095D01*
X154966666Y-73304761D01*
X154252380Y-72971428D01*
X155252380Y-72971428D01*
X155157142Y-71923809D02*
X155204761Y-71971428D01*
X155252380Y-72114285D01*
X155252380Y-72209523D01*
X155204761Y-72352380D01*
X155109523Y-72447619D01*
X155014285Y-72495238D01*
X154823809Y-72542857D01*
X154680952Y-72542857D01*
X154490476Y-72495238D01*
X154395238Y-72447619D01*
X154300000Y-72352380D01*
X154252380Y-72209523D01*
X154252380Y-72114285D01*
X154300000Y-71971428D01*
X154347619Y-71923809D01*
X155157142Y-70923809D02*
X155204761Y-70971428D01*
X155252380Y-71114285D01*
X155252380Y-71209523D01*
X155204761Y-71352380D01*
X155109523Y-71447619D01*
X155014285Y-71495238D01*
X154823809Y-71542857D01*
X154680952Y-71542857D01*
X154490476Y-71495238D01*
X154395238Y-71447619D01*
X154300000Y-71352380D01*
X154252380Y-71209523D01*
X154252380Y-71114285D01*
X154300000Y-70971428D01*
X154347619Y-70923809D01*
X155252380Y-69971428D02*
X155252380Y-70542857D01*
X155252380Y-70257142D02*
X154252380Y-70257142D01*
X154395238Y-70352380D01*
X154490476Y-70447619D01*
X154538095Y-70542857D01*
X155347619Y-69780952D02*
X155347619Y-69019047D01*
X154252380Y-68304761D02*
X154252380Y-68780952D01*
X154728571Y-68828571D01*
X154680952Y-68780952D01*
X154633333Y-68685714D01*
X154633333Y-68447619D01*
X154680952Y-68352380D01*
X154728571Y-68304761D01*
X154823809Y-68257142D01*
X155061904Y-68257142D01*
X155157142Y-68304761D01*
X155204761Y-68352380D01*
X155252380Y-68447619D01*
X155252380Y-68685714D01*
X155204761Y-68780952D01*
X155157142Y-68828571D01*
X154252380Y-67638095D02*
X154252380Y-67542857D01*
X154300000Y-67447619D01*
X154347619Y-67400000D01*
X154442857Y-67352380D01*
X154633333Y-67304761D01*
X154871428Y-67304761D01*
X155061904Y-67352380D01*
X155157142Y-67400000D01*
X155204761Y-67447619D01*
X155252380Y-67542857D01*
X155252380Y-67638095D01*
X155204761Y-67733333D01*
X155157142Y-67780952D01*
X155061904Y-67828571D01*
X154871428Y-67876190D01*
X154633333Y-67876190D01*
X154442857Y-67828571D01*
X154347619Y-67780952D01*
X154300000Y-67733333D01*
X154252380Y-67638095D01*
X155252380Y-66352380D02*
X155252380Y-66923809D01*
X155252380Y-66638095D02*
X154252380Y-66638095D01*
X154395238Y-66733333D01*
X154490476Y-66828571D01*
X154538095Y-66923809D01*
D12*
%TO.C,U201*%
X120010000Y-83700000D02*
X120010000Y-89710000D01*
X120010000Y-89710000D02*
X118750000Y-89710000D01*
X113190000Y-89710000D02*
X114450000Y-89710000D01*
X113190000Y-85950000D02*
X113190000Y-89710000D01*
%TO.C,Y301*%
X85600000Y-74750000D02*
X85600000Y-70850000D01*
X82400000Y-74750000D02*
X85600000Y-74750000D01*
%TO.C,JP504*%
X139800000Y-79400000D02*
X137000000Y-79400000D01*
X137000000Y-79400000D02*
X137000000Y-77400000D01*
X137000000Y-77400000D02*
X139800000Y-77400000D01*
X139800000Y-77400000D02*
X139800000Y-79400000D01*
%TO.C,JP503*%
X140000000Y-73000000D02*
X140000000Y-70200000D01*
X140000000Y-70200000D02*
X142000000Y-70200000D01*
X142000000Y-70200000D02*
X142000000Y-73000000D01*
X142000000Y-73000000D02*
X140000000Y-73000000D01*
%TO.C,JP502*%
X63600000Y-79400000D02*
X63600000Y-77400000D01*
X66400000Y-79400000D02*
X63600000Y-79400000D01*
X66400000Y-77400000D02*
X66400000Y-79400000D01*
X63600000Y-77400000D02*
X66400000Y-77400000D01*
%TO.C,JP501*%
X60000000Y-68200000D02*
X60000000Y-71000000D01*
X60000000Y-71000000D02*
X58000000Y-71000000D01*
X58000000Y-71000000D02*
X58000000Y-68200000D01*
X58000000Y-68200000D02*
X60000000Y-68200000D01*
%TO.C,JP302*%
X111200000Y-60200000D02*
X108400000Y-60200000D01*
X108400000Y-60200000D02*
X108400000Y-58200000D01*
X108400000Y-58200000D02*
X111200000Y-58200000D01*
X111200000Y-58200000D02*
X111200000Y-60200000D01*
%TO.C,JP301*%
X117800000Y-60800000D02*
X117800000Y-63600000D01*
X117800000Y-63600000D02*
X115800000Y-63600000D01*
X115800000Y-63600000D02*
X115800000Y-60800000D01*
X115800000Y-60800000D02*
X117800000Y-60800000D01*
%TO.C,JSTLINK301*%
X112765000Y-69905000D02*
X112765000Y-69840000D01*
X112765000Y-60895000D02*
X109235000Y-60895000D01*
X112765000Y-69905000D02*
X109235000Y-69905000D01*
X109235000Y-69905000D02*
X109235000Y-69840000D01*
X109235000Y-60960000D02*
X109235000Y-60895000D01*
X112765000Y-60960000D02*
X112765000Y-60895000D01*
X114090000Y-69840000D02*
X112765000Y-69840000D01*
%TO.C,UDRIVER502*%
X139455000Y-73325000D02*
X139455000Y-69875000D01*
X134335000Y-73325000D02*
X134335000Y-71375000D01*
X134335000Y-73325000D02*
X134335000Y-75275000D01*
X139455000Y-73325000D02*
X139455000Y-75275000D01*
D13*
%TO.C,SW201*%
X110850000Y-86600000D02*
X110850000Y-89800000D01*
X105950000Y-86600000D02*
X110850000Y-86600000D01*
X110850000Y-89800000D02*
X105950000Y-89800000D01*
X110980000Y-84725000D02*
X110980000Y-86250000D01*
X105950000Y-89800000D02*
X105950000Y-86600000D01*
D12*
%TO.C,R202*%
X118077500Y-77254724D02*
X118077500Y-76745276D01*
X119122500Y-77254724D02*
X119122500Y-76745276D01*
%TO.C,JMCC0_501*%
X54000000Y-64500000D02*
X52660000Y-64500000D01*
X56550000Y-63450000D02*
X55300000Y-63450000D01*
X56250000Y-81350000D02*
X56250000Y-79550000D01*
X56250000Y-63750000D02*
X55500000Y-63750000D01*
X55500000Y-63750000D02*
X55500000Y-65550000D01*
X50290000Y-81360000D02*
X56260000Y-81360000D01*
X55500000Y-79550000D02*
X55500000Y-81350000D01*
X51050000Y-80600000D02*
X51050000Y-72550000D01*
X55500000Y-67050000D02*
X55500000Y-78050000D01*
X56250000Y-65550000D02*
X56250000Y-63750000D01*
X55500000Y-78050000D02*
X56250000Y-78050000D01*
X54000000Y-80600000D02*
X51050000Y-80600000D01*
X56550000Y-64700000D02*
X56550000Y-63450000D01*
X51050000Y-72550000D02*
X51050000Y-65560000D01*
X55500000Y-65550000D02*
X56250000Y-65550000D01*
X56250000Y-79550000D02*
X55500000Y-79550000D01*
X50290000Y-63740000D02*
X50290000Y-81360000D01*
X56250000Y-78050000D02*
X56250000Y-67050000D01*
X54000000Y-81350000D02*
X54000000Y-80600000D01*
X55500000Y-81350000D02*
X56250000Y-81350000D01*
X56250000Y-67050000D02*
X55500000Y-67050000D01*
X56260000Y-63740000D02*
X50290000Y-63740000D01*
X56260000Y-81360000D02*
X56260000Y-63740000D01*
X54000000Y-63750000D02*
X54000000Y-64500000D01*
%TO.C,JSERVO501*%
X94250000Y-49800000D02*
X95000000Y-49800000D01*
X102550000Y-52050000D02*
X104350000Y-52050000D01*
X104350000Y-51300000D02*
X102550000Y-51300000D01*
X95000000Y-46850000D02*
X99300000Y-46850000D01*
X104360000Y-52060000D02*
X104360000Y-46090000D01*
X96050000Y-52050000D02*
X96050000Y-51300000D01*
X95000000Y-49800000D02*
X95000000Y-46850000D01*
X104350000Y-52050000D02*
X104350000Y-51300000D01*
X94240000Y-46090000D02*
X94240000Y-52060000D01*
X94250000Y-51300000D02*
X94250000Y-52050000D01*
X101050000Y-52050000D02*
X101050000Y-51300000D01*
X101050000Y-51300000D02*
X97550000Y-51300000D01*
X102550000Y-51300000D02*
X102550000Y-52050000D01*
X97550000Y-51300000D02*
X97550000Y-52050000D01*
X104350000Y-49800000D02*
X103600000Y-49800000D01*
X99300000Y-46850000D02*
X102540000Y-46850000D01*
X97550000Y-52050000D02*
X101050000Y-52050000D01*
X104360000Y-46090000D02*
X94240000Y-46090000D01*
X103400000Y-52350000D02*
X104650000Y-52350000D01*
X103600000Y-49800000D02*
X103600000Y-48460000D01*
X104650000Y-52350000D02*
X104650000Y-51100000D01*
X96050000Y-51300000D02*
X94250000Y-51300000D01*
X94250000Y-52050000D02*
X96050000Y-52050000D01*
X94240000Y-52060000D02*
X104360000Y-52060000D01*
%TO.C,C503*%
X64924888Y-62235000D02*
X64924888Y-63760000D01*
X67125888Y-63995000D02*
X67125888Y-65605000D01*
X65605888Y-62402000D02*
X65605888Y-63760000D01*
X66405888Y-65840000D02*
X66405888Y-66701000D01*
X65725888Y-62452000D02*
X65725888Y-63760000D01*
X66365888Y-65840000D02*
X66365888Y-66737000D01*
X65525888Y-65840000D02*
X65525888Y-67228000D01*
X65845888Y-65840000D02*
X65845888Y-67090000D01*
X66005888Y-65840000D02*
X66005888Y-67000000D01*
X66325888Y-65840000D02*
X66325888Y-66771000D01*
X66245888Y-65840000D02*
X66245888Y-66835000D01*
X66965888Y-63622000D02*
X66965888Y-65978000D01*
X64884888Y-65840000D02*
X64884888Y-67369000D01*
X65084888Y-62257000D02*
X65084888Y-63760000D01*
X64644888Y-65840000D02*
X64644888Y-67380000D01*
X65645888Y-65840000D02*
X65645888Y-67182000D01*
X65284888Y-65840000D02*
X65284888Y-67301000D01*
X66205888Y-62735000D02*
X66205888Y-63760000D01*
X65044888Y-65840000D02*
X65044888Y-67350000D01*
X67045888Y-63789000D02*
X67045888Y-65811000D01*
X65365888Y-65840000D02*
X65365888Y-67280000D01*
X64644888Y-62220000D02*
X64644888Y-63760000D01*
X65925888Y-65840000D02*
X65925888Y-67047000D01*
X65965888Y-62576000D02*
X65965888Y-63760000D01*
X64884888Y-62231000D02*
X64884888Y-63760000D01*
X65084888Y-65840000D02*
X65084888Y-67343000D01*
X65284888Y-62299000D02*
X65284888Y-63760000D01*
X64764888Y-62222000D02*
X64764888Y-63760000D01*
X66285888Y-65840000D02*
X66285888Y-66804000D01*
X66045888Y-62625000D02*
X66045888Y-63760000D01*
X64964888Y-62239000D02*
X64964888Y-63760000D01*
X65445888Y-62345000D02*
X65445888Y-63760000D01*
X65765888Y-65840000D02*
X65765888Y-67129000D01*
X66205888Y-65840000D02*
X66205888Y-66865000D01*
X65324888Y-65840000D02*
X65324888Y-67291000D01*
X65805888Y-62490000D02*
X65805888Y-63760000D01*
X66405888Y-62899000D02*
X66405888Y-63760000D01*
X66165888Y-62705000D02*
X66165888Y-63760000D01*
X66605888Y-63101000D02*
X66605888Y-63760000D01*
X64924888Y-65840000D02*
X64924888Y-67365000D01*
X65885888Y-62532000D02*
X65885888Y-63760000D01*
X65685888Y-65840000D02*
X65685888Y-67165000D01*
X65485888Y-62358000D02*
X65485888Y-63760000D01*
X65124888Y-62264000D02*
X65124888Y-63760000D01*
X65244888Y-62289000D02*
X65244888Y-63760000D01*
X64684888Y-65840000D02*
X64684888Y-67380000D01*
X65525888Y-62372000D02*
X65525888Y-63760000D01*
X67005888Y-63702000D02*
X67005888Y-65898000D01*
X65645888Y-62418000D02*
X65645888Y-63760000D01*
X66925888Y-63549000D02*
X66925888Y-66051000D01*
X66565888Y-65840000D02*
X66565888Y-66543000D01*
X65725888Y-65840000D02*
X65725888Y-67148000D01*
X64684888Y-62220000D02*
X64684888Y-63760000D01*
X66645888Y-65840000D02*
X66645888Y-66453000D01*
X66605888Y-65840000D02*
X66605888Y-66499000D01*
X65164888Y-62272000D02*
X65164888Y-63760000D01*
X65485888Y-65840000D02*
X65485888Y-67242000D01*
X65845888Y-62510000D02*
X65845888Y-63760000D01*
X65004888Y-62244000D02*
X65004888Y-63760000D01*
X64844888Y-62227000D02*
X64844888Y-63760000D01*
X66245888Y-62765000D02*
X66245888Y-63760000D01*
X65164888Y-65840000D02*
X65164888Y-67328000D01*
X65565888Y-65840000D02*
X65565888Y-67214000D01*
X65565888Y-62386000D02*
X65565888Y-63760000D01*
X66525888Y-65840000D02*
X66525888Y-66585000D01*
X65605888Y-65840000D02*
X65605888Y-67198000D01*
X66285888Y-62796000D02*
X66285888Y-63760000D01*
X64804888Y-62224000D02*
X64804888Y-63760000D01*
X67205888Y-64282000D02*
X67205888Y-65318000D01*
X65445888Y-65840000D02*
X65445888Y-67255000D01*
X66325888Y-62829000D02*
X66325888Y-63760000D01*
X65765888Y-62471000D02*
X65765888Y-63760000D01*
X66485888Y-62974000D02*
X66485888Y-63760000D01*
X65244888Y-65840000D02*
X65244888Y-67311000D01*
X61840113Y-63325000D02*
X62340113Y-63325000D01*
X66645888Y-63147000D02*
X66645888Y-63760000D01*
X65124888Y-65840000D02*
X65124888Y-67336000D01*
X64964888Y-65840000D02*
X64964888Y-67361000D01*
X66445888Y-65840000D02*
X66445888Y-66664000D01*
X64844888Y-65840000D02*
X64844888Y-67373000D01*
X65044888Y-62250000D02*
X65044888Y-63760000D01*
X66525888Y-63015000D02*
X66525888Y-63760000D01*
X65204888Y-62280000D02*
X65204888Y-63760000D01*
X67245888Y-64516000D02*
X67245888Y-65084000D01*
X65885888Y-65840000D02*
X65885888Y-67068000D01*
X66685888Y-63195000D02*
X66685888Y-66405000D01*
X66165888Y-65840000D02*
X66165888Y-66895000D01*
X65204888Y-65840000D02*
X65204888Y-67320000D01*
X65004888Y-65840000D02*
X65004888Y-67356000D01*
X66765888Y-63300000D02*
X66765888Y-66300000D01*
X65965888Y-65840000D02*
X65965888Y-67024000D01*
X64804888Y-65840000D02*
X64804888Y-67376000D01*
X64724888Y-62221000D02*
X64724888Y-63760000D01*
X66365888Y-62863000D02*
X66365888Y-63760000D01*
X65405888Y-62332000D02*
X65405888Y-63760000D01*
X67085888Y-63885000D02*
X67085888Y-65715000D01*
X66805888Y-63357000D02*
X66805888Y-66243000D01*
X66005888Y-62600000D02*
X66005888Y-63760000D01*
X65405888Y-65840000D02*
X65405888Y-67268000D01*
X66565888Y-63057000D02*
X66565888Y-63760000D01*
X66725888Y-63246000D02*
X66725888Y-66354000D01*
X64764888Y-65840000D02*
X64764888Y-67378000D01*
X66045888Y-65840000D02*
X66045888Y-66975000D01*
X66085888Y-65840000D02*
X66085888Y-66949000D01*
X65324888Y-62309000D02*
X65324888Y-63760000D01*
X66445888Y-62936000D02*
X66445888Y-63760000D01*
X66125888Y-65840000D02*
X66125888Y-66922000D01*
X62090113Y-63075000D02*
X62090113Y-63575000D01*
X66085888Y-62651000D02*
X66085888Y-63760000D01*
X66885888Y-63481000D02*
X66885888Y-66119000D01*
X66845888Y-63417000D02*
X66845888Y-66183000D01*
X67165888Y-64123000D02*
X67165888Y-65477000D01*
X65925888Y-62553000D02*
X65925888Y-63760000D01*
X65365888Y-62320000D02*
X65365888Y-63760000D01*
X65685888Y-62435000D02*
X65685888Y-63760000D01*
X66485888Y-65840000D02*
X66485888Y-66626000D01*
X66125888Y-62678000D02*
X66125888Y-63760000D01*
X64724888Y-65840000D02*
X64724888Y-67379000D01*
X65805888Y-65840000D02*
X65805888Y-67110000D01*
X67264888Y-64800000D02*
G75*
G03*
X67264888Y-64800000I-2620000J0D01*
G01*
%TO.C,C303*%
X86253733Y-75490000D02*
X86546267Y-75490000D01*
X86253733Y-76510000D02*
X86546267Y-76510000D01*
%TO.C,C501*%
X59710000Y-74146267D02*
X59710000Y-73853733D01*
X58690000Y-74146267D02*
X58690000Y-73853733D01*
%TO.C,C508*%
X58690000Y-77453733D02*
X58690000Y-77746267D01*
X59710000Y-77453733D02*
X59710000Y-77746267D01*
%TO.C,R402*%
X132722500Y-53345276D02*
X132722500Y-53854724D01*
X131677500Y-53345276D02*
X131677500Y-53854724D01*
%TO.C,D202*%
X116265000Y-78660000D02*
X117735000Y-78660000D01*
X116265000Y-76200000D02*
X116265000Y-78660000D01*
X117735000Y-78660000D02*
X117735000Y-76200000D01*
%TO.C,C510*%
X59310000Y-66053733D02*
X59310000Y-66346267D01*
X58290000Y-66053733D02*
X58290000Y-66346267D01*
%TO.C,JTOF0_401*%
X126550000Y-51250000D02*
X126550000Y-50500000D01*
X141600000Y-49000000D02*
X141600000Y-47660000D01*
X124750000Y-49000000D02*
X125500000Y-49000000D01*
X133550000Y-46050000D02*
X140540000Y-46050000D01*
X124750000Y-51250000D02*
X126550000Y-51250000D01*
X124740000Y-45290000D02*
X124740000Y-51260000D01*
X142360000Y-45290000D02*
X124740000Y-45290000D01*
X124750000Y-50500000D02*
X124750000Y-51250000D01*
X124740000Y-51260000D02*
X142360000Y-51260000D01*
X140550000Y-51250000D02*
X142350000Y-51250000D01*
X142360000Y-51260000D02*
X142360000Y-45290000D01*
X128050000Y-51250000D02*
X139050000Y-51250000D01*
X142350000Y-51250000D02*
X142350000Y-50500000D01*
X142350000Y-50500000D02*
X140550000Y-50500000D01*
X140550000Y-50500000D02*
X140550000Y-51250000D01*
X125500000Y-46050000D02*
X133550000Y-46050000D01*
X141400000Y-51550000D02*
X142650000Y-51550000D01*
X142650000Y-51550000D02*
X142650000Y-50300000D01*
X128050000Y-50500000D02*
X128050000Y-51250000D01*
X125500000Y-49000000D02*
X125500000Y-46050000D01*
X139050000Y-50500000D02*
X128050000Y-50500000D01*
X142350000Y-49000000D02*
X141600000Y-49000000D01*
X126550000Y-50500000D02*
X124750000Y-50500000D01*
X139050000Y-51250000D02*
X139050000Y-50500000D01*
%TO.C,C506*%
X138253733Y-81110000D02*
X138546267Y-81110000D01*
X138253733Y-80090000D02*
X138546267Y-80090000D01*
%TO.C,D201*%
X111335000Y-79600000D02*
X111335000Y-77140000D01*
X111335000Y-77140000D02*
X109865000Y-77140000D01*
X109865000Y-77140000D02*
X109865000Y-79600000D01*
%TO.C,R301*%
X88145276Y-73277500D02*
X88654724Y-73277500D01*
X88145276Y-74322500D02*
X88654724Y-74322500D01*
%TO.C,JCOLOR_404*%
X107250000Y-48675000D02*
X108000000Y-48675000D01*
X122350000Y-47175000D02*
X122350000Y-46425000D01*
X122350000Y-48675000D02*
X121600000Y-48675000D01*
X107240000Y-52385000D02*
X122360000Y-52385000D01*
X108200000Y-46125000D02*
X106950000Y-46125000D01*
X122360000Y-46415000D02*
X107240000Y-46415000D01*
X120550000Y-47175000D02*
X122350000Y-47175000D01*
X114800000Y-51625000D02*
X109060000Y-51625000D01*
X121600000Y-51625000D02*
X114800000Y-51625000D01*
X107250000Y-47175000D02*
X109050000Y-47175000D01*
X107240000Y-46415000D02*
X107240000Y-52385000D01*
X121600000Y-48675000D02*
X121600000Y-51625000D01*
X110550000Y-46425000D02*
X110550000Y-47175000D01*
X122360000Y-52385000D02*
X122360000Y-46415000D01*
X108000000Y-48675000D02*
X108000000Y-50015000D01*
X120550000Y-46425000D02*
X120550000Y-47175000D01*
X119050000Y-47175000D02*
X119050000Y-46425000D01*
X119050000Y-46425000D02*
X110550000Y-46425000D01*
X109050000Y-47175000D02*
X109050000Y-46425000D01*
X106950000Y-46125000D02*
X106950000Y-47375000D01*
X110550000Y-47175000D02*
X119050000Y-47175000D01*
X107250000Y-46425000D02*
X107250000Y-47175000D01*
X109050000Y-46425000D02*
X107250000Y-46425000D01*
X122350000Y-46425000D02*
X120550000Y-46425000D01*
%TO.C,C202*%
X115690000Y-80746267D02*
X115690000Y-80453733D01*
X116710000Y-80746267D02*
X116710000Y-80453733D01*
%TO.C,C301*%
X86380000Y-66884888D02*
X84840000Y-66884888D01*
X85300000Y-68965888D02*
X82300000Y-68965888D01*
X82760000Y-67524888D02*
X81309000Y-67524888D01*
X86198000Y-67805888D02*
X84840000Y-67805888D01*
X82760000Y-67004888D02*
X81224000Y-67004888D01*
X82760000Y-68165888D02*
X81576000Y-68165888D01*
X85701000Y-68605888D02*
X84840000Y-68605888D01*
X86280000Y-67565888D02*
X84840000Y-67565888D01*
X86068000Y-68085888D02*
X84840000Y-68085888D01*
X85543000Y-68765888D02*
X84840000Y-68765888D01*
X86255000Y-67645888D02*
X84840000Y-67645888D01*
X86356000Y-67204888D02*
X84840000Y-67204888D01*
X82760000Y-68725888D02*
X82015000Y-68725888D01*
X82760000Y-67685888D02*
X81358000Y-67685888D01*
X86365000Y-67124888D02*
X84840000Y-67124888D01*
X82760000Y-67204888D02*
X81244000Y-67204888D01*
X86376000Y-67004888D02*
X84840000Y-67004888D01*
X82760000Y-67645888D02*
X81345000Y-67645888D01*
X82760000Y-68645888D02*
X81936000Y-68645888D01*
X85499000Y-68805888D02*
X84840000Y-68805888D01*
X82760000Y-66884888D02*
X81220000Y-66884888D01*
X82760000Y-68325888D02*
X81678000Y-68325888D01*
X82760000Y-68085888D02*
X81532000Y-68085888D01*
X85922000Y-68325888D02*
X84840000Y-68325888D01*
X82760000Y-67324888D02*
X81264000Y-67324888D01*
X82760000Y-66924888D02*
X81221000Y-66924888D01*
X86182000Y-67845888D02*
X84840000Y-67845888D01*
X86379000Y-66924888D02*
X84840000Y-66924888D01*
X82760000Y-67244888D02*
X81250000Y-67244888D01*
X82760000Y-68285888D02*
X81651000Y-68285888D01*
X84477000Y-69365888D02*
X83123000Y-69365888D01*
X85453000Y-68845888D02*
X84840000Y-68845888D01*
X86110000Y-68005888D02*
X84840000Y-68005888D01*
X82760000Y-68005888D02*
X81490000Y-68005888D01*
X82760000Y-67965888D02*
X81471000Y-67965888D01*
X86378000Y-66964888D02*
X84840000Y-66964888D01*
X86047000Y-68125888D02*
X84840000Y-68125888D01*
X86214000Y-67765888D02*
X84840000Y-67765888D01*
X84978000Y-69165888D02*
X82622000Y-69165888D01*
X85119000Y-69085888D02*
X82481000Y-69085888D01*
X82760000Y-67845888D02*
X81418000Y-67845888D01*
X84898000Y-69205888D02*
X82702000Y-69205888D01*
X82760000Y-68125888D02*
X81553000Y-68125888D01*
X86242000Y-67685888D02*
X84840000Y-67685888D01*
X82760000Y-67044888D02*
X81227000Y-67044888D01*
X85405000Y-68885888D02*
X82195000Y-68885888D01*
X85275000Y-64040113D02*
X85275000Y-64540113D01*
X82760000Y-66844888D02*
X81220000Y-66844888D01*
X85975000Y-68245888D02*
X84840000Y-68245888D01*
X85664000Y-68645888D02*
X84840000Y-68645888D01*
X85865000Y-68405888D02*
X84840000Y-68405888D01*
X86320000Y-67404888D02*
X84840000Y-67404888D01*
X84084000Y-69445888D02*
X83516000Y-69445888D01*
X82760000Y-67364888D02*
X81272000Y-67364888D01*
X82760000Y-68685888D02*
X81974000Y-68685888D01*
X82760000Y-68405888D02*
X81735000Y-68405888D01*
X82760000Y-67404888D02*
X81280000Y-67404888D01*
X85243000Y-69005888D02*
X82357000Y-69005888D01*
X82760000Y-68245888D02*
X81625000Y-68245888D01*
X84605000Y-69325888D02*
X82995000Y-69325888D01*
X86380000Y-66844888D02*
X84840000Y-66844888D01*
X85183000Y-69045888D02*
X82417000Y-69045888D01*
X85525000Y-64290113D02*
X85025000Y-64290113D01*
X82760000Y-68805888D02*
X82101000Y-68805888D01*
X86268000Y-67605888D02*
X84840000Y-67605888D01*
X82760000Y-67885888D02*
X81435000Y-67885888D01*
X86369000Y-67084888D02*
X84840000Y-67084888D01*
X82760000Y-68845888D02*
X82147000Y-68845888D01*
X86373000Y-67044888D02*
X84840000Y-67044888D01*
X82760000Y-68605888D02*
X81899000Y-68605888D01*
X82760000Y-66964888D02*
X81222000Y-66964888D01*
X84811000Y-69245888D02*
X82789000Y-69245888D01*
X86024000Y-68165888D02*
X84840000Y-68165888D01*
X86090000Y-68045888D02*
X84840000Y-68045888D01*
X85051000Y-69125888D02*
X82549000Y-69125888D01*
X86328000Y-67364888D02*
X84840000Y-67364888D01*
X85804000Y-68485888D02*
X84840000Y-68485888D01*
X86165000Y-67885888D02*
X84840000Y-67885888D01*
X82760000Y-68445888D02*
X81765000Y-68445888D01*
X85737000Y-68565888D02*
X84840000Y-68565888D01*
X86350000Y-67244888D02*
X84840000Y-67244888D01*
X85771000Y-68525888D02*
X84840000Y-68525888D01*
X86129000Y-67965888D02*
X84840000Y-67965888D01*
X82760000Y-68565888D02*
X81863000Y-68565888D01*
X82760000Y-68045888D02*
X81510000Y-68045888D01*
X85835000Y-68445888D02*
X84840000Y-68445888D01*
X82760000Y-67805888D02*
X81402000Y-67805888D01*
X85585000Y-68725888D02*
X84840000Y-68725888D01*
X86000000Y-68205888D02*
X84840000Y-68205888D01*
X85626000Y-68685888D02*
X84840000Y-68685888D01*
X86311000Y-67444888D02*
X84840000Y-67444888D01*
X82760000Y-67284888D02*
X81257000Y-67284888D01*
X85949000Y-68285888D02*
X84840000Y-68285888D01*
X82760000Y-67164888D02*
X81239000Y-67164888D01*
X86301000Y-67484888D02*
X84840000Y-67484888D01*
X82760000Y-67444888D02*
X81289000Y-67444888D01*
X86336000Y-67324888D02*
X84840000Y-67324888D01*
X84715000Y-69285888D02*
X82885000Y-69285888D01*
X82760000Y-67484888D02*
X81299000Y-67484888D01*
X82760000Y-67124888D02*
X81235000Y-67124888D01*
X86148000Y-67925888D02*
X84840000Y-67925888D01*
X82760000Y-67925888D02*
X81452000Y-67925888D01*
X85895000Y-68365888D02*
X84840000Y-68365888D01*
X86228000Y-67725888D02*
X84840000Y-67725888D01*
X82760000Y-68365888D02*
X81705000Y-68365888D01*
X84318000Y-69405888D02*
X83282000Y-69405888D01*
X82760000Y-67765888D02*
X81386000Y-67765888D01*
X82760000Y-67605888D02*
X81332000Y-67605888D01*
X82760000Y-67725888D02*
X81372000Y-67725888D01*
X82760000Y-68485888D02*
X81796000Y-68485888D01*
X82760000Y-67565888D02*
X81320000Y-67565888D01*
X82760000Y-68765888D02*
X82057000Y-68765888D01*
X86343000Y-67284888D02*
X84840000Y-67284888D01*
X82760000Y-68205888D02*
X81600000Y-68205888D01*
X86291000Y-67524888D02*
X84840000Y-67524888D01*
X86361000Y-67164888D02*
X84840000Y-67164888D01*
X85354000Y-68925888D02*
X82246000Y-68925888D01*
X82760000Y-67084888D02*
X81231000Y-67084888D01*
X82760000Y-68525888D02*
X81829000Y-68525888D01*
X86420000Y-66844888D02*
G75*
G03*
X86420000Y-66844888I-2620000J0D01*
G01*
%TO.C,C203*%
X119310000Y-80746267D02*
X119310000Y-80453733D01*
X118290000Y-80746267D02*
X118290000Y-80453733D01*
%TO.C,REG3-201*%
X120440000Y-79800000D02*
X120440000Y-81600000D01*
X123560000Y-79800000D02*
X123560000Y-80600000D01*
X120440000Y-79800000D02*
X120440000Y-79000000D01*
X123560000Y-79800000D02*
X123560000Y-79000000D01*
%TO.C,C302*%
X87910000Y-70546267D02*
X87910000Y-70253733D01*
X86890000Y-70546267D02*
X86890000Y-70253733D01*
%TO.C,C204*%
X121853733Y-76290000D02*
X122146267Y-76290000D01*
X121853733Y-77310000D02*
X122146267Y-77310000D01*
%TO.C,C201*%
X114510000Y-80746267D02*
X114510000Y-80453733D01*
X113490000Y-80746267D02*
X113490000Y-80453733D01*
%TO.C,C509*%
X143710000Y-73146267D02*
X143710000Y-72853733D01*
X142690000Y-73146267D02*
X142690000Y-72853733D01*
%TO.C,C502*%
X136605000Y-66916233D02*
X136605000Y-67208767D01*
X135585000Y-66916233D02*
X135585000Y-67208767D01*
%TO.C,R403*%
X62627500Y-53870276D02*
X62627500Y-54379724D01*
X63672500Y-53870276D02*
X63672500Y-54379724D01*
%TO.C,R401*%
X66072500Y-54379724D02*
X66072500Y-53870276D01*
X65027500Y-54379724D02*
X65027500Y-53870276D01*
%TO.C,JDistance0_401*%
X72350000Y-88275000D02*
X73100000Y-88275000D01*
X82450000Y-86775000D02*
X82450000Y-86025000D01*
X72350000Y-86025000D02*
X72350000Y-86775000D01*
X73100000Y-88275000D02*
X73100000Y-89615000D01*
X75650000Y-86775000D02*
X79150000Y-86775000D01*
X81700000Y-91225000D02*
X77400000Y-91225000D01*
X74150000Y-86775000D02*
X74150000Y-86025000D01*
X80650000Y-86775000D02*
X82450000Y-86775000D01*
X80650000Y-86025000D02*
X80650000Y-86775000D01*
X72340000Y-91985000D02*
X82460000Y-91985000D01*
X72350000Y-86775000D02*
X74150000Y-86775000D01*
X82450000Y-86025000D02*
X80650000Y-86025000D01*
X74150000Y-86025000D02*
X72350000Y-86025000D01*
X82460000Y-86015000D02*
X72340000Y-86015000D01*
X72340000Y-86015000D02*
X72340000Y-91985000D01*
X77400000Y-91225000D02*
X74160000Y-91225000D01*
X79150000Y-86775000D02*
X79150000Y-86025000D01*
X81700000Y-88275000D02*
X81700000Y-91225000D01*
X82460000Y-91985000D02*
X82460000Y-86015000D01*
X79150000Y-86025000D02*
X75650000Y-86025000D01*
X72050000Y-85725000D02*
X72050000Y-86975000D01*
X73300000Y-85725000D02*
X72050000Y-85725000D01*
X82450000Y-88275000D02*
X81700000Y-88275000D01*
X75650000Y-86025000D02*
X75650000Y-86775000D01*
%TO.C,R404*%
X134277500Y-53854724D02*
X134277500Y-53345276D01*
X135322500Y-53854724D02*
X135322500Y-53345276D01*
%TO.C,JCOLOR_401*%
X86450000Y-45825000D02*
X77950000Y-45825000D01*
X87950000Y-45825000D02*
X87950000Y-46575000D01*
X75400000Y-48075000D02*
X75400000Y-49415000D01*
X89760000Y-51785000D02*
X89760000Y-45815000D01*
X86450000Y-46575000D02*
X86450000Y-45825000D01*
X77950000Y-45825000D02*
X77950000Y-46575000D01*
X89000000Y-51025000D02*
X82200000Y-51025000D01*
X74650000Y-45825000D02*
X74650000Y-46575000D01*
X74650000Y-48075000D02*
X75400000Y-48075000D01*
X82200000Y-51025000D02*
X76460000Y-51025000D01*
X75600000Y-45525000D02*
X74350000Y-45525000D01*
X89760000Y-45815000D02*
X74640000Y-45815000D01*
X87950000Y-46575000D02*
X89750000Y-46575000D01*
X74650000Y-46575000D02*
X76450000Y-46575000D01*
X89750000Y-46575000D02*
X89750000Y-45825000D01*
X77950000Y-46575000D02*
X86450000Y-46575000D01*
X74350000Y-45525000D02*
X74350000Y-46775000D01*
X89000000Y-48075000D02*
X89000000Y-51025000D01*
X89750000Y-45825000D02*
X87950000Y-45825000D01*
X74640000Y-45815000D02*
X74640000Y-51785000D01*
X89750000Y-48075000D02*
X89000000Y-48075000D01*
X76450000Y-45825000D02*
X74650000Y-45825000D01*
X74640000Y-51785000D02*
X89760000Y-51785000D01*
X76450000Y-46575000D02*
X76450000Y-45825000D01*
%TO.C,R501*%
X103945276Y-53477500D02*
X104454724Y-53477500D01*
X103945276Y-54522500D02*
X104454724Y-54522500D01*
%TO.C,UDRIVER501*%
X64000000Y-74960000D02*
X65950000Y-74960000D01*
X64000000Y-69840000D02*
X60550000Y-69840000D01*
X64000000Y-74960000D02*
X62050000Y-74960000D01*
X64000000Y-69840000D02*
X65950000Y-69840000D01*
%TO.C,USTM301*%
X102710000Y-75510000D02*
X102710000Y-74560000D01*
X93440000Y-75510000D02*
X92490000Y-75510000D01*
X93440000Y-65290000D02*
X92490000Y-65290000D01*
X102710000Y-65290000D02*
X102710000Y-66240000D01*
X92490000Y-66240000D02*
X91150000Y-66240000D01*
X92490000Y-65290000D02*
X92490000Y-66240000D01*
X101760000Y-65290000D02*
X102710000Y-65290000D01*
X101760000Y-75510000D02*
X102710000Y-75510000D01*
X92490000Y-75510000D02*
X92490000Y-74560000D01*
%TO.C,R201*%
X111877500Y-80854724D02*
X111877500Y-80345276D01*
X112922500Y-80854724D02*
X112922500Y-80345276D01*
%TO.C,C304*%
X89310000Y-66853733D02*
X89310000Y-67146267D01*
X88290000Y-66853733D02*
X88290000Y-67146267D01*
%TO.C,C505*%
X93440000Y-55040000D02*
X94976000Y-55040000D01*
X93440000Y-54039000D02*
X94710000Y-54039000D01*
X90365000Y-53599000D02*
X91360000Y-53599000D01*
X90957000Y-53039000D02*
X93843000Y-53039000D01*
X90429000Y-53519000D02*
X91360000Y-53519000D01*
X93440000Y-54159000D02*
X94765000Y-54159000D01*
X93440000Y-54760000D02*
X94943000Y-54760000D01*
X89820000Y-55160000D02*
X91360000Y-55160000D01*
X90225000Y-53799000D02*
X91360000Y-53799000D01*
X89820000Y-55200000D02*
X91360000Y-55200000D01*
X89880000Y-54640000D02*
X91360000Y-54640000D01*
X93440000Y-54720000D02*
X94936000Y-54720000D01*
X89844000Y-54840000D02*
X91360000Y-54840000D01*
X89972000Y-54319000D02*
X91360000Y-54319000D01*
X93440000Y-54479000D02*
X94880000Y-54479000D01*
X89831000Y-54960000D02*
X91360000Y-54960000D01*
X90900000Y-53079000D02*
X93900000Y-53079000D01*
X93440000Y-54079000D02*
X94729000Y-54079000D01*
X93440000Y-54399000D02*
X94855000Y-54399000D01*
X90176000Y-53879000D02*
X91360000Y-53879000D01*
X91389000Y-52799000D02*
X93411000Y-52799000D01*
X93440000Y-53719000D02*
X94522000Y-53719000D01*
X93440000Y-54439000D02*
X94868000Y-54439000D01*
X93440000Y-53759000D02*
X94549000Y-53759000D01*
X91302000Y-52839000D02*
X93498000Y-52839000D01*
X93440000Y-53319000D02*
X94185000Y-53319000D01*
X93440000Y-53799000D02*
X94575000Y-53799000D01*
X89889000Y-54600000D02*
X91360000Y-54600000D01*
X90278000Y-53719000D02*
X91360000Y-53719000D01*
X89986000Y-54279000D02*
X91360000Y-54279000D01*
X89864000Y-54720000D02*
X91360000Y-54720000D01*
X93440000Y-53439000D02*
X94301000Y-53439000D01*
X90747000Y-53199000D02*
X91360000Y-53199000D01*
X93440000Y-53279000D02*
X94143000Y-53279000D01*
X91882000Y-52639000D02*
X92918000Y-52639000D01*
X91081000Y-52959000D02*
X93719000Y-52959000D01*
X93440000Y-54600000D02*
X94911000Y-54600000D01*
X93440000Y-53879000D02*
X94624000Y-53879000D01*
X93440000Y-53919000D02*
X94647000Y-53919000D01*
X93440000Y-53959000D02*
X94668000Y-53959000D01*
X90701000Y-53239000D02*
X91360000Y-53239000D01*
X89932000Y-54439000D02*
X91360000Y-54439000D01*
X93440000Y-54880000D02*
X94961000Y-54880000D01*
X93440000Y-54359000D02*
X94842000Y-54359000D01*
X93440000Y-55080000D02*
X94978000Y-55080000D01*
X93440000Y-53599000D02*
X94435000Y-53599000D01*
X93440000Y-54680000D02*
X94928000Y-54680000D01*
X93440000Y-54800000D02*
X94950000Y-54800000D01*
X93440000Y-54119000D02*
X94748000Y-54119000D01*
X89821000Y-55120000D02*
X91360000Y-55120000D01*
X93440000Y-53199000D02*
X94053000Y-53199000D01*
X90090000Y-54039000D02*
X91360000Y-54039000D01*
X89872000Y-54680000D02*
X91360000Y-54680000D01*
X93440000Y-53359000D02*
X94226000Y-53359000D01*
X89857000Y-54760000D02*
X91360000Y-54760000D01*
X93440000Y-55000000D02*
X94973000Y-55000000D01*
X90305000Y-53679000D02*
X91360000Y-53679000D01*
X89835000Y-54920000D02*
X91360000Y-54920000D01*
X91485000Y-52759000D02*
X93315000Y-52759000D01*
X93440000Y-55160000D02*
X94980000Y-55160000D01*
X93440000Y-54840000D02*
X94956000Y-54840000D01*
X93440000Y-54560000D02*
X94901000Y-54560000D01*
X89824000Y-55040000D02*
X91360000Y-55040000D01*
X93440000Y-53639000D02*
X94465000Y-53639000D01*
X91723000Y-52679000D02*
X93077000Y-52679000D01*
X90499000Y-53439000D02*
X91360000Y-53439000D01*
X93440000Y-54319000D02*
X94828000Y-54319000D01*
X90132000Y-53959000D02*
X91360000Y-53959000D01*
X93440000Y-53999000D02*
X94690000Y-53999000D01*
X90153000Y-53919000D02*
X91360000Y-53919000D01*
X93440000Y-54520000D02*
X94891000Y-54520000D01*
X90071000Y-54079000D02*
X91360000Y-54079000D01*
X90536000Y-53399000D02*
X91360000Y-53399000D01*
X90396000Y-53559000D02*
X91360000Y-53559000D01*
X90795000Y-53159000D02*
X94005000Y-53159000D01*
X90463000Y-53479000D02*
X91360000Y-53479000D01*
X93440000Y-53239000D02*
X94099000Y-53239000D01*
X89822000Y-55080000D02*
X91360000Y-55080000D01*
X89958000Y-54359000D02*
X91360000Y-54359000D01*
X91017000Y-52999000D02*
X93783000Y-52999000D01*
X93440000Y-53399000D02*
X94264000Y-53399000D01*
X90574000Y-53359000D02*
X91360000Y-53359000D01*
X90925000Y-58004775D02*
X90925000Y-57504775D01*
X93440000Y-55120000D02*
X94979000Y-55120000D01*
X90110000Y-53999000D02*
X91360000Y-53999000D01*
X93440000Y-54279000D02*
X94814000Y-54279000D01*
X91222000Y-52879000D02*
X93578000Y-52879000D01*
X93440000Y-53479000D02*
X94337000Y-53479000D01*
X89945000Y-54399000D02*
X91360000Y-54399000D01*
X89909000Y-54520000D02*
X91360000Y-54520000D01*
X90675000Y-57754775D02*
X91175000Y-57754775D01*
X89899000Y-54560000D02*
X91360000Y-54560000D01*
X90657000Y-53279000D02*
X91360000Y-53279000D01*
X90035000Y-54159000D02*
X91360000Y-54159000D01*
X93440000Y-53839000D02*
X94600000Y-53839000D01*
X90002000Y-54239000D02*
X91360000Y-54239000D01*
X90018000Y-54199000D02*
X91360000Y-54199000D01*
X90052000Y-54119000D02*
X91360000Y-54119000D01*
X91595000Y-52719000D02*
X93205000Y-52719000D01*
X93440000Y-55200000D02*
X94980000Y-55200000D01*
X91149000Y-52919000D02*
X93651000Y-52919000D01*
X90335000Y-53639000D02*
X91360000Y-53639000D01*
X90846000Y-53119000D02*
X93954000Y-53119000D01*
X93440000Y-54960000D02*
X94969000Y-54960000D01*
X93440000Y-54920000D02*
X94965000Y-54920000D01*
X93440000Y-53519000D02*
X94371000Y-53519000D01*
X93440000Y-53559000D02*
X94404000Y-53559000D01*
X89839000Y-54880000D02*
X91360000Y-54880000D01*
X92116000Y-52599000D02*
X92684000Y-52599000D01*
X89827000Y-55000000D02*
X91360000Y-55000000D01*
X93440000Y-53679000D02*
X94495000Y-53679000D01*
X93440000Y-54199000D02*
X94782000Y-54199000D01*
X93440000Y-54640000D02*
X94920000Y-54640000D01*
X90200000Y-53839000D02*
X91360000Y-53839000D01*
X93440000Y-54239000D02*
X94798000Y-54239000D01*
X90251000Y-53759000D02*
X91360000Y-53759000D01*
X89850000Y-54800000D02*
X91360000Y-54800000D01*
X89920000Y-54479000D02*
X91360000Y-54479000D01*
X90615000Y-53319000D02*
X91360000Y-53319000D01*
X95020000Y-55200000D02*
G75*
G03*
X95020000Y-55200000I-2620000J0D01*
G01*
%TO.C,C504*%
X140979888Y-63982000D02*
X140979888Y-65485000D01*
X142620888Y-64971000D02*
X142620888Y-68079000D01*
X141660888Y-64196000D02*
X141660888Y-65485000D01*
X141219888Y-64034000D02*
X141219888Y-65485000D01*
X142940888Y-65514000D02*
X142940888Y-67536000D01*
X142460888Y-67565000D02*
X142460888Y-68268000D01*
X142220888Y-67565000D02*
X142220888Y-68496000D01*
X141139888Y-64014000D02*
X141139888Y-65485000D01*
X142260888Y-67565000D02*
X142260888Y-68462000D01*
X141380888Y-67565000D02*
X141380888Y-68967000D01*
X141500888Y-67565000D02*
X141500888Y-68923000D01*
X142100888Y-64460000D02*
X142100888Y-65485000D01*
X142140888Y-67565000D02*
X142140888Y-68560000D01*
X141219888Y-67565000D02*
X141219888Y-69016000D01*
X140899888Y-63969000D02*
X140899888Y-65485000D01*
X142420888Y-64740000D02*
X142420888Y-65485000D01*
X140779888Y-63956000D02*
X140779888Y-65485000D01*
X143060888Y-65848000D02*
X143060888Y-67202000D01*
X140579888Y-63945000D02*
X140579888Y-65485000D01*
X142300888Y-64624000D02*
X142300888Y-65485000D01*
X142820888Y-65274000D02*
X142820888Y-67776000D01*
X142420888Y-67565000D02*
X142420888Y-68310000D01*
X141660888Y-67565000D02*
X141660888Y-68854000D01*
X142100888Y-67565000D02*
X142100888Y-68590000D01*
X141980888Y-64376000D02*
X141980888Y-65485000D01*
X141460888Y-64111000D02*
X141460888Y-65485000D01*
X142740888Y-65142000D02*
X142740888Y-67908000D01*
X142380888Y-67565000D02*
X142380888Y-68351000D01*
X140579888Y-67565000D02*
X140579888Y-69105000D01*
X143140888Y-66241000D02*
X143140888Y-66809000D01*
X141900888Y-67565000D02*
X141900888Y-68725000D01*
X141420888Y-64097000D02*
X141420888Y-65485000D01*
X140819888Y-67565000D02*
X140819888Y-69090000D01*
X140899888Y-67565000D02*
X140899888Y-69081000D01*
X140859888Y-67565000D02*
X140859888Y-69086000D01*
X141740888Y-67565000D02*
X141740888Y-68815000D01*
X141900888Y-64325000D02*
X141900888Y-65485000D01*
X141460888Y-67565000D02*
X141460888Y-68939000D01*
X141019888Y-67565000D02*
X141019888Y-69061000D01*
X141580888Y-67565000D02*
X141580888Y-68890000D01*
X141820888Y-64278000D02*
X141820888Y-65485000D01*
X140659888Y-63947000D02*
X140659888Y-65485000D01*
X142980888Y-65610000D02*
X142980888Y-67440000D01*
X142500888Y-67565000D02*
X142500888Y-68224000D01*
X141780888Y-67565000D02*
X141780888Y-68793000D01*
X141059888Y-63997000D02*
X141059888Y-65485000D01*
X142500888Y-64826000D02*
X142500888Y-65485000D01*
X142540888Y-64872000D02*
X142540888Y-65485000D01*
X141700888Y-67565000D02*
X141700888Y-68835000D01*
X142300888Y-67565000D02*
X142300888Y-68426000D01*
X142540888Y-67565000D02*
X142540888Y-68178000D01*
X141620888Y-64177000D02*
X141620888Y-65485000D01*
X141380888Y-64083000D02*
X141380888Y-65485000D01*
X141620888Y-67565000D02*
X141620888Y-68873000D01*
X142780888Y-65206000D02*
X142780888Y-67844000D01*
X140939888Y-63975000D02*
X140939888Y-65485000D01*
X141300888Y-64057000D02*
X141300888Y-65485000D01*
X141260888Y-67565000D02*
X141260888Y-69005000D01*
X141059888Y-67565000D02*
X141059888Y-69053000D01*
X140539888Y-63945000D02*
X140539888Y-65485000D01*
X141019888Y-63989000D02*
X141019888Y-65485000D01*
X141179888Y-64024000D02*
X141179888Y-65485000D01*
X142260888Y-64588000D02*
X142260888Y-65485000D01*
X141099888Y-67565000D02*
X141099888Y-69045000D01*
X140819888Y-63960000D02*
X140819888Y-65485000D01*
X140539888Y-67565000D02*
X140539888Y-69105000D01*
X141780888Y-64257000D02*
X141780888Y-65485000D01*
X140619888Y-67565000D02*
X140619888Y-69104000D01*
X142700888Y-65082000D02*
X142700888Y-67968000D01*
X142220888Y-64554000D02*
X142220888Y-65485000D01*
X142060888Y-67565000D02*
X142060888Y-68620000D01*
X142140888Y-64490000D02*
X142140888Y-65485000D01*
X141740888Y-64235000D02*
X141740888Y-65485000D01*
X141300888Y-67565000D02*
X141300888Y-68993000D01*
X141540888Y-64143000D02*
X141540888Y-65485000D01*
X142340888Y-67565000D02*
X142340888Y-68389000D01*
X141580888Y-64160000D02*
X141580888Y-65485000D01*
X142380888Y-64699000D02*
X142380888Y-65485000D01*
X140659888Y-67565000D02*
X140659888Y-69103000D01*
X141860888Y-67565000D02*
X141860888Y-68749000D01*
X141340888Y-64070000D02*
X141340888Y-65485000D01*
X141420888Y-67565000D02*
X141420888Y-68953000D01*
X141179888Y-67565000D02*
X141179888Y-69026000D01*
X143020888Y-65720000D02*
X143020888Y-67330000D01*
X140619888Y-63946000D02*
X140619888Y-65485000D01*
X140859888Y-63964000D02*
X140859888Y-65485000D01*
X141860888Y-64301000D02*
X141860888Y-65485000D01*
X140939888Y-67565000D02*
X140939888Y-69075000D01*
X137735113Y-65050000D02*
X138235113Y-65050000D01*
X142900888Y-65427000D02*
X142900888Y-67623000D01*
X137985113Y-64800000D02*
X137985113Y-65300000D01*
X141500888Y-64127000D02*
X141500888Y-65485000D01*
X142860888Y-65347000D02*
X142860888Y-67703000D01*
X141940888Y-64350000D02*
X141940888Y-65485000D01*
X140739888Y-63952000D02*
X140739888Y-65485000D01*
X142580888Y-64920000D02*
X142580888Y-68130000D01*
X140979888Y-67565000D02*
X140979888Y-69068000D01*
X142020888Y-67565000D02*
X142020888Y-68647000D01*
X142180888Y-64521000D02*
X142180888Y-65485000D01*
X140739888Y-67565000D02*
X140739888Y-69098000D01*
X140699888Y-63949000D02*
X140699888Y-65485000D01*
X141700888Y-64215000D02*
X141700888Y-65485000D01*
X142660888Y-65025000D02*
X142660888Y-68025000D01*
X142060888Y-64430000D02*
X142060888Y-65485000D01*
X143100888Y-66007000D02*
X143100888Y-67043000D01*
X141340888Y-67565000D02*
X141340888Y-68980000D01*
X141139888Y-67565000D02*
X141139888Y-69036000D01*
X141980888Y-67565000D02*
X141980888Y-68674000D01*
X141940888Y-67565000D02*
X141940888Y-68700000D01*
X141820888Y-67565000D02*
X141820888Y-68772000D01*
X140699888Y-67565000D02*
X140699888Y-69101000D01*
X142180888Y-67565000D02*
X142180888Y-68529000D01*
X142340888Y-64661000D02*
X142340888Y-65485000D01*
X142020888Y-64403000D02*
X142020888Y-65485000D01*
X141540888Y-67565000D02*
X141540888Y-68907000D01*
X141099888Y-64005000D02*
X141099888Y-65485000D01*
X141260888Y-64045000D02*
X141260888Y-65485000D01*
X140779888Y-67565000D02*
X140779888Y-69094000D01*
X142460888Y-64782000D02*
X142460888Y-65485000D01*
X143159888Y-66525000D02*
G75*
G03*
X143159888Y-66525000I-2620000J0D01*
G01*
%TO.C,JBat201*%
X97000000Y-85825000D02*
X97000000Y-86575000D01*
X104610000Y-91785000D02*
X104610000Y-85815000D01*
X104600000Y-85825000D02*
X102800000Y-85825000D01*
X101300000Y-85825000D02*
X100300000Y-85825000D01*
X96990000Y-91785000D02*
X104610000Y-91785000D01*
X102800000Y-86575000D02*
X104600000Y-86575000D01*
X104610000Y-85815000D02*
X96990000Y-85815000D01*
X98800000Y-86575000D02*
X98800000Y-85825000D01*
X97950000Y-85525000D02*
X96700000Y-85525000D01*
X100800000Y-91025000D02*
X98810000Y-91025000D01*
X100300000Y-85825000D02*
X100300000Y-86575000D01*
X104600000Y-86575000D02*
X104600000Y-85825000D01*
X97000000Y-88075000D02*
X97750000Y-88075000D01*
X100300000Y-86575000D02*
X101300000Y-86575000D01*
X102800000Y-85825000D02*
X102800000Y-86575000D01*
X96990000Y-85815000D02*
X96990000Y-91785000D01*
X97750000Y-88075000D02*
X97750000Y-89415000D01*
X103850000Y-91025000D02*
X100800000Y-91025000D01*
X98800000Y-85825000D02*
X97000000Y-85825000D01*
X97000000Y-86575000D02*
X98800000Y-86575000D01*
X103850000Y-88075000D02*
X103850000Y-91025000D01*
X101300000Y-86575000D02*
X101300000Y-85825000D01*
X104600000Y-88075000D02*
X103850000Y-88075000D01*
X96700000Y-85525000D02*
X96700000Y-86775000D01*
%TO.C,JTOF1_401*%
X56500000Y-45250000D02*
X55250000Y-45250000D01*
X69850000Y-46300000D02*
X69850000Y-45550000D01*
X73150000Y-47800000D02*
X72400000Y-47800000D01*
X71350000Y-46300000D02*
X73150000Y-46300000D01*
X55250000Y-45250000D02*
X55250000Y-46500000D01*
X57350000Y-46300000D02*
X57350000Y-45550000D01*
X64350000Y-50750000D02*
X57360000Y-50750000D01*
X69850000Y-45550000D02*
X58850000Y-45550000D01*
X71350000Y-45550000D02*
X71350000Y-46300000D01*
X58850000Y-45550000D02*
X58850000Y-46300000D01*
X73160000Y-51510000D02*
X73160000Y-45540000D01*
X73150000Y-45550000D02*
X71350000Y-45550000D01*
X73150000Y-46300000D02*
X73150000Y-45550000D01*
X55550000Y-47800000D02*
X56300000Y-47800000D01*
X58850000Y-46300000D02*
X69850000Y-46300000D01*
X55540000Y-45540000D02*
X55540000Y-51510000D01*
X73160000Y-45540000D02*
X55540000Y-45540000D01*
X56300000Y-47800000D02*
X56300000Y-49140000D01*
X55540000Y-51510000D02*
X73160000Y-51510000D01*
X55550000Y-46300000D02*
X57350000Y-46300000D01*
X72400000Y-50750000D02*
X64350000Y-50750000D01*
X72400000Y-47800000D02*
X72400000Y-50750000D01*
X55550000Y-45550000D02*
X55550000Y-46300000D01*
X57350000Y-45550000D02*
X55550000Y-45550000D01*
%TO.C,JDistance0_402*%
X84900000Y-88275000D02*
X84900000Y-89615000D01*
X90950000Y-86025000D02*
X87450000Y-86025000D01*
X85100000Y-85725000D02*
X83850000Y-85725000D01*
X93500000Y-91225000D02*
X89200000Y-91225000D01*
X92450000Y-86025000D02*
X92450000Y-86775000D01*
X92450000Y-86775000D02*
X94250000Y-86775000D01*
X94250000Y-88275000D02*
X93500000Y-88275000D01*
X83850000Y-85725000D02*
X83850000Y-86975000D01*
X94260000Y-91985000D02*
X94260000Y-86015000D01*
X87450000Y-86025000D02*
X87450000Y-86775000D01*
X85950000Y-86775000D02*
X85950000Y-86025000D01*
X84150000Y-86025000D02*
X84150000Y-86775000D01*
X94250000Y-86025000D02*
X92450000Y-86025000D01*
X84150000Y-86775000D02*
X85950000Y-86775000D01*
X94250000Y-86775000D02*
X94250000Y-86025000D01*
X93500000Y-88275000D02*
X93500000Y-91225000D01*
X84150000Y-88275000D02*
X84900000Y-88275000D01*
X84140000Y-91985000D02*
X94260000Y-91985000D01*
X89200000Y-91225000D02*
X85960000Y-91225000D01*
X84140000Y-86015000D02*
X84140000Y-91985000D01*
X85950000Y-86025000D02*
X84150000Y-86025000D01*
X94260000Y-86015000D02*
X84140000Y-86015000D01*
X87450000Y-86775000D02*
X90950000Y-86775000D01*
X90950000Y-86775000D02*
X90950000Y-86025000D01*
%TO.C,C507*%
X96490000Y-55053733D02*
X96490000Y-55346267D01*
X97510000Y-55053733D02*
X97510000Y-55346267D01*
%TO.C,JMCC1_501*%
X151970000Y-62625000D02*
X150720000Y-62625000D01*
X151670000Y-66225000D02*
X150920000Y-66225000D01*
X151970000Y-63875000D02*
X151970000Y-62625000D01*
X150920000Y-80525000D02*
X151670000Y-80525000D01*
X146470000Y-71725000D02*
X146470000Y-64735000D01*
X149420000Y-63675000D02*
X148080000Y-63675000D01*
X149420000Y-80525000D02*
X149420000Y-79775000D01*
X151680000Y-80535000D02*
X151680000Y-62915000D01*
X150920000Y-64725000D02*
X151670000Y-64725000D01*
X150920000Y-66225000D02*
X150920000Y-77225000D01*
X151670000Y-78725000D02*
X150920000Y-78725000D01*
X151670000Y-80525000D02*
X151670000Y-78725000D01*
X146470000Y-79775000D02*
X146470000Y-71725000D01*
X145710000Y-80535000D02*
X151680000Y-80535000D01*
X151670000Y-64725000D02*
X151670000Y-62925000D01*
X150920000Y-77225000D02*
X151670000Y-77225000D01*
X150920000Y-78725000D02*
X150920000Y-80525000D01*
X151670000Y-62925000D02*
X150920000Y-62925000D01*
X149420000Y-79775000D02*
X146470000Y-79775000D01*
X150920000Y-62925000D02*
X150920000Y-64725000D01*
X151670000Y-77225000D02*
X151670000Y-66225000D01*
X145710000Y-62915000D02*
X145710000Y-80535000D01*
X149420000Y-62925000D02*
X149420000Y-63675000D01*
X151680000Y-62915000D02*
X145710000Y-62915000D01*
%TD*%
M02*
