%TF.GenerationSoftware,KiCad,Pcbnew,(6.0.7-1)-1*%
%TF.CreationDate,2022-10-27T13:07:38+02:00*%
%TF.ProjectId,Beerator,42656572-6174-46f7-922e-6b696361645f,rev?*%
%TF.SameCoordinates,Original*%
%TF.FileFunction,Soldermask,Bot*%
%TF.FilePolarity,Negative*%
%FSLAX46Y46*%
G04 Gerber Fmt 4.6, Leading zero omitted, Abs format (unit mm)*
G04 Created by KiCad (PCBNEW (6.0.7-1)-1) date 2022-10-27 13:07:38*
%MOMM*%
%LPD*%
G01*
G04 APERTURE LIST*
G04 Aperture macros list*
%AMRoundRect*
0 Rectangle with rounded corners*
0 $1 Rounding radius*
0 $2 $3 $4 $5 $6 $7 $8 $9 X,Y pos of 4 corners*
0 Add a 4 corners polygon primitive as box body*
4,1,4,$2,$3,$4,$5,$6,$7,$8,$9,$2,$3,0*
0 Add four circle primitives for the rounded corners*
1,1,$1+$1,$2,$3*
1,1,$1+$1,$4,$5*
1,1,$1+$1,$6,$7*
1,1,$1+$1,$8,$9*
0 Add four rect primitives between the rounded corners*
20,1,$1+$1,$2,$3,$4,$5,0*
20,1,$1+$1,$4,$5,$6,$7,0*
20,1,$1+$1,$6,$7,$8,$9,0*
20,1,$1+$1,$8,$9,$2,$3,0*%
G04 Aperture macros list end*
%ADD10C,1.200000*%
%ADD11RoundRect,0.250000X-0.725000X0.600000X-0.725000X-0.600000X0.725000X-0.600000X0.725000X0.600000X0*%
%ADD12O,1.950000X1.700000*%
%ADD13RoundRect,0.250000X0.600000X0.725000X-0.600000X0.725000X-0.600000X-0.725000X0.600000X-0.725000X0*%
%ADD14O,1.700000X1.950000*%
%ADD15R,1.600000X1.600000*%
%ADD16C,1.600000*%
%ADD17RoundRect,0.250000X-0.600000X-0.725000X0.600000X-0.725000X0.600000X0.725000X-0.600000X0.725000X0*%
%ADD18C,0.800000*%
%ADD19C,6.400000*%
%ADD20RoundRect,0.250000X-0.600000X-0.750000X0.600000X-0.750000X0.600000X0.750000X-0.600000X0.750000X0*%
%ADD21O,1.700000X2.000000*%
G04 APERTURE END LIST*
D10*
%TO.C,JMCC0_501*%
X51800000Y-64700000D03*
D11*
X53800000Y-66300000D03*
D12*
X53800000Y-68800000D03*
X53800000Y-71300000D03*
X53800000Y-73800000D03*
X53800000Y-76300000D03*
X53800000Y-78800000D03*
%TD*%
D10*
%TO.C,JSERVO501*%
X103400000Y-47600000D03*
D13*
X101800000Y-49600000D03*
D14*
X99300000Y-49600000D03*
X96800000Y-49600000D03*
%TD*%
D15*
%TO.C,C503*%
X63644888Y-64800000D03*
D16*
X65644888Y-64800000D03*
%TD*%
D10*
%TO.C,JTOF0_401*%
X141400000Y-46800000D03*
D13*
X139800000Y-48800000D03*
D14*
X137300000Y-48800000D03*
X134800000Y-48800000D03*
X132300000Y-48800000D03*
X129800000Y-48800000D03*
X127300000Y-48800000D03*
%TD*%
D10*
%TO.C,JCOLOR_404*%
X108200000Y-50875000D03*
D17*
X109800000Y-48875000D03*
D14*
X112300000Y-48875000D03*
X114800000Y-48875000D03*
X117300000Y-48875000D03*
X119800000Y-48875000D03*
%TD*%
D18*
%TO.C,H102*%
X150000000Y-52400000D03*
X150000000Y-47600000D03*
D19*
X150000000Y-50000000D03*
D18*
X151697056Y-51697056D03*
X148302944Y-48302944D03*
X152400000Y-50000000D03*
X147600000Y-50000000D03*
X151697056Y-48302944D03*
X148302944Y-51697056D03*
%TD*%
D15*
%TO.C,C301*%
X83800000Y-65844888D03*
D16*
X83800000Y-67844888D03*
%TD*%
D18*
%TO.C,H101*%
X50000000Y-47600000D03*
X51697056Y-51697056D03*
X48302944Y-51697056D03*
X47600000Y-50000000D03*
X51697056Y-48302944D03*
X50000000Y-52400000D03*
X52400000Y-50000000D03*
D19*
X50000000Y-50000000D03*
D18*
X48302944Y-48302944D03*
%TD*%
D10*
%TO.C,JDistance0_401*%
X73300000Y-90475000D03*
D17*
X74900000Y-88475000D03*
D14*
X77400000Y-88475000D03*
X79900000Y-88475000D03*
%TD*%
D10*
%TO.C,JCOLOR_401*%
X75600000Y-50275000D03*
D17*
X77200000Y-48275000D03*
D14*
X79700000Y-48275000D03*
X82200000Y-48275000D03*
X84700000Y-48275000D03*
X87200000Y-48275000D03*
%TD*%
D19*
%TO.C,H104*%
X150000000Y-90000000D03*
D18*
X147600000Y-90000000D03*
X151697056Y-91697056D03*
X148302944Y-88302944D03*
X152400000Y-90000000D03*
X151697056Y-88302944D03*
X150000000Y-92400000D03*
X148302944Y-91697056D03*
X150000000Y-87600000D03*
%TD*%
D15*
%TO.C,C505*%
X92400000Y-56200000D03*
D16*
X92400000Y-54200000D03*
%TD*%
D15*
%TO.C,C504*%
X139539888Y-66525000D03*
D16*
X141539888Y-66525000D03*
%TD*%
D18*
%TO.C,H103*%
X48302944Y-88302944D03*
X48302944Y-91697056D03*
X50000000Y-92400000D03*
X52400000Y-90000000D03*
X50000000Y-87600000D03*
D19*
X50000000Y-90000000D03*
D18*
X47600000Y-90000000D03*
X51697056Y-88302944D03*
X51697056Y-91697056D03*
%TD*%
D10*
%TO.C,JBat201*%
X97950000Y-90275000D03*
D20*
X99550000Y-88275000D03*
D21*
X102050000Y-88275000D03*
%TD*%
D10*
%TO.C,JTOF1_401*%
X56500000Y-50000000D03*
D17*
X58100000Y-48000000D03*
D14*
X60600000Y-48000000D03*
X63100000Y-48000000D03*
X65600000Y-48000000D03*
X68100000Y-48000000D03*
X70600000Y-48000000D03*
%TD*%
D10*
%TO.C,JDistance0_402*%
X85100000Y-90475000D03*
D17*
X86700000Y-88475000D03*
D14*
X89200000Y-88475000D03*
X91700000Y-88475000D03*
%TD*%
D10*
%TO.C,JMCC1_501*%
X147220000Y-63875000D03*
D11*
X149220000Y-65475000D03*
D12*
X149220000Y-67975000D03*
X149220000Y-70475000D03*
X149220000Y-72975000D03*
X149220000Y-75475000D03*
X149220000Y-77975000D03*
%TD*%
M02*
