%TF.GenerationSoftware,KiCad,Pcbnew,(6.0.7-1)-1*%
%TF.CreationDate,2022-10-27T13:07:48+02:00*%
%TF.ProjectId,Beerator,42656572-6174-46f7-922e-6b696361645f,rev?*%
%TF.SameCoordinates,Original*%
%TF.FileFunction,Drillmap*%
%TF.FilePolarity,Positive*%
%FSLAX45Y45*%
G04 Gerber Fmt 4.5, Leading zero omitted, Abs format (unit mm)*
G04 Created by KiCad (PCBNEW (6.0.7-1)-1) date 2022-10-27 13:07:48*
%MOMM*%
%LPD*%
G01*
G04 APERTURE LIST*
%ADD10C,0.100000*%
%ADD11C,0.200000*%
%ADD12C,0.040000*%
%ADD13C,0.050000*%
%ADD14C,0.080000*%
%ADD15C,0.095000*%
%ADD16C,0.320000*%
G04 APERTURE END LIST*
D10*
X15000000Y-9600000D02*
X5000000Y-9600000D01*
X4400000Y-9000000D02*
X4400000Y-5000000D01*
X5000000Y-4400000D02*
G75*
G03*
X4400000Y-5000000I0J-600000D01*
G01*
X5000000Y-4400000D02*
X15000000Y-4400000D01*
X15000000Y-9600000D02*
G75*
G03*
X15600000Y-9000000I0J600000D01*
G01*
X15600000Y-5000000D02*
X15600000Y-9000000D01*
X4400000Y-9000000D02*
G75*
G03*
X5000000Y-9600000I600000J0D01*
G01*
X15600000Y-5000000D02*
G75*
G03*
X15000000Y-4400000I-600000J0D01*
G01*
D11*
D12*
X5860000Y-6340000D02*
X5900000Y-6380000D01*
X5900000Y-6340000D02*
X5860000Y-6380000D01*
X6800000Y-7040000D02*
X6840000Y-7080000D01*
X6840000Y-7040000D02*
X6800000Y-7080000D01*
X6800000Y-7280000D02*
X6840000Y-7320000D01*
X6840000Y-7280000D02*
X6800000Y-7320000D01*
X9000000Y-6400000D02*
X9040000Y-6440000D01*
X9040000Y-6400000D02*
X9000000Y-6440000D01*
X9060000Y-6300000D02*
X9100000Y-6340000D01*
X9100000Y-6300000D02*
X9060000Y-6340000D01*
X9140000Y-6200000D02*
X9180000Y-6240000D01*
X9180000Y-6200000D02*
X9140000Y-6240000D01*
X9200000Y-6100000D02*
X9240000Y-6140000D01*
X9240000Y-6100000D02*
X9200000Y-6140000D01*
X9340000Y-5920000D02*
X9380000Y-5960000D01*
X9380000Y-5920000D02*
X9340000Y-5960000D01*
X9438501Y-6024497D02*
X9478501Y-6064497D01*
X9478501Y-6024497D02*
X9438501Y-6064497D01*
X9560000Y-6720000D02*
X9600000Y-6760000D01*
X9600000Y-6720000D02*
X9560000Y-6760000D01*
X9660000Y-6760000D02*
X9700000Y-6800000D01*
X9700000Y-6760000D02*
X9660000Y-6800000D01*
X9760000Y-7760000D02*
X9800000Y-7800000D01*
X9800000Y-7760000D02*
X9760000Y-7800000D01*
X9960000Y-5880000D02*
X10000000Y-5920000D01*
X10000000Y-5880000D02*
X9960000Y-5920000D01*
X9960000Y-8140000D02*
X10000000Y-8180000D01*
X10000000Y-8140000D02*
X9960000Y-8180000D01*
X10040000Y-5960000D02*
X10080000Y-6000000D01*
X10080000Y-5960000D02*
X10040000Y-6000000D01*
X10040000Y-8020000D02*
X10080000Y-8060000D01*
X10080000Y-8020000D02*
X10040000Y-8060000D01*
X10084699Y-6049398D02*
X10124699Y-6089398D01*
X10124699Y-6049398D02*
X10084699Y-6089398D01*
X10120000Y-7900000D02*
X10160000Y-7940000D01*
X10160000Y-7900000D02*
X10120000Y-7940000D01*
X10140000Y-6140000D02*
X10180000Y-6180000D01*
X10180000Y-6140000D02*
X10140000Y-6180000D01*
X10180000Y-6240000D02*
X10220000Y-6280000D01*
X10220000Y-6240000D02*
X10180000Y-6280000D01*
X10222590Y-7797410D02*
X10262590Y-7837410D01*
X10262590Y-7797410D02*
X10222590Y-7837410D01*
X10500000Y-5260000D02*
X10540000Y-5300000D01*
X10540000Y-5260000D02*
X10500000Y-5300000D01*
X11200000Y-7780000D02*
X11240000Y-7820000D01*
X11240000Y-7780000D02*
X11200000Y-7820000D01*
X11560000Y-6660000D02*
X11600000Y-6700000D01*
X11600000Y-6660000D02*
X11560000Y-6700000D01*
X11560000Y-6780000D02*
X11600000Y-6820000D01*
X11600000Y-6780000D02*
X11560000Y-6820000D01*
X12040000Y-9020000D02*
X12080000Y-9060000D01*
X12080000Y-9020000D02*
X12040000Y-9060000D01*
X12100000Y-7540000D02*
X12140000Y-7580000D01*
X12140000Y-7540000D02*
X12100000Y-7580000D01*
X12180000Y-8240000D02*
X12220000Y-8280000D01*
X12220000Y-8240000D02*
X12180000Y-8280000D01*
X12420000Y-7660000D02*
X12460000Y-7700000D01*
X12460000Y-7660000D02*
X12420000Y-7700000D01*
X12980000Y-7200000D02*
X13020000Y-7240000D01*
X13020000Y-7200000D02*
X12980000Y-7240000D01*
X13100000Y-7100000D02*
X13140000Y-7140000D01*
X13140000Y-7100000D02*
X13100000Y-7140000D01*
X13460000Y-6600000D02*
X13500000Y-6640000D01*
X13500000Y-6600000D02*
X13460000Y-6640000D01*
X13609500Y-8032500D02*
X13649500Y-8072500D01*
X13649500Y-8032500D02*
X13609500Y-8072500D01*
X15080000Y-5960000D02*
X15120000Y-6000000D01*
X15120000Y-5960000D02*
X15080000Y-6000000D01*
D13*
X4785000Y-5000000D02*
G75*
G03*
X4785000Y-5000000I-25000J0D01*
G01*
X4785000Y-9000000D02*
G75*
G03*
X4785000Y-9000000I-25000J0D01*
G01*
X4855294Y-4830294D02*
G75*
G03*
X4855294Y-4830294I-25000J0D01*
G01*
X4855294Y-5169706D02*
G75*
G03*
X4855294Y-5169706I-25000J0D01*
G01*
X4855294Y-8830294D02*
G75*
G03*
X4855294Y-8830294I-25000J0D01*
G01*
X4855294Y-9169706D02*
G75*
G03*
X4855294Y-9169706I-25000J0D01*
G01*
X5025000Y-4760000D02*
G75*
G03*
X5025000Y-4760000I-25000J0D01*
G01*
X5025000Y-5240000D02*
G75*
G03*
X5025000Y-5240000I-25000J0D01*
G01*
X5025000Y-8760000D02*
G75*
G03*
X5025000Y-8760000I-25000J0D01*
G01*
X5025000Y-9240000D02*
G75*
G03*
X5025000Y-9240000I-25000J0D01*
G01*
X5194706Y-4830294D02*
G75*
G03*
X5194706Y-4830294I-25000J0D01*
G01*
X5194706Y-5169706D02*
G75*
G03*
X5194706Y-5169706I-25000J0D01*
G01*
X5194706Y-8830294D02*
G75*
G03*
X5194706Y-8830294I-25000J0D01*
G01*
X5194706Y-9169706D02*
G75*
G03*
X5194706Y-9169706I-25000J0D01*
G01*
X5265000Y-5000000D02*
G75*
G03*
X5265000Y-5000000I-25000J0D01*
G01*
X5265000Y-9000000D02*
G75*
G03*
X5265000Y-9000000I-25000J0D01*
G01*
X14785000Y-5000000D02*
G75*
G03*
X14785000Y-5000000I-25000J0D01*
G01*
X14785000Y-9000000D02*
G75*
G03*
X14785000Y-9000000I-25000J0D01*
G01*
X14855294Y-4830294D02*
G75*
G03*
X14855294Y-4830294I-25000J0D01*
G01*
X14855294Y-5169706D02*
G75*
G03*
X14855294Y-5169706I-25000J0D01*
G01*
X14855294Y-8830294D02*
G75*
G03*
X14855294Y-8830294I-25000J0D01*
G01*
X14855294Y-9169706D02*
G75*
G03*
X14855294Y-9169706I-25000J0D01*
G01*
X15025000Y-4760000D02*
G75*
G03*
X15025000Y-4760000I-25000J0D01*
G01*
X15025000Y-5240000D02*
G75*
G03*
X15025000Y-5240000I-25000J0D01*
G01*
X15025000Y-8760000D02*
G75*
G03*
X15025000Y-8760000I-25000J0D01*
G01*
X15025000Y-9240000D02*
G75*
G03*
X15025000Y-9240000I-25000J0D01*
G01*
X15194706Y-4830294D02*
G75*
G03*
X15194706Y-4830294I-25000J0D01*
G01*
X15194706Y-5169706D02*
G75*
G03*
X15194706Y-5169706I-25000J0D01*
G01*
X15194706Y-8830294D02*
G75*
G03*
X15194706Y-8830294I-25000J0D01*
G01*
X15194706Y-9169706D02*
G75*
G03*
X15194706Y-9169706I-25000J0D01*
G01*
X15265000Y-5000000D02*
G75*
G03*
X15265000Y-5000000I-25000J0D01*
G01*
X15265000Y-9000000D02*
G75*
G03*
X15265000Y-9000000I-25000J0D01*
G01*
D14*
X6364489Y-6440000D02*
X6364489Y-6520000D01*
X6324489Y-6480000D02*
X6404489Y-6480000D01*
X6564489Y-6440000D02*
X6564489Y-6520000D01*
X6524489Y-6480000D02*
X6604489Y-6480000D01*
X8380000Y-6544489D02*
X8380000Y-6624489D01*
X8340000Y-6584489D02*
X8420000Y-6584489D01*
X8380000Y-6744489D02*
X8380000Y-6824489D01*
X8340000Y-6784489D02*
X8420000Y-6784489D01*
X9240000Y-5380000D02*
X9240000Y-5460000D01*
X9200000Y-5420000D02*
X9280000Y-5420000D01*
X9240000Y-5580000D02*
X9240000Y-5660000D01*
X9200000Y-5620000D02*
X9280000Y-5620000D01*
X13953989Y-6612500D02*
X13953989Y-6692500D01*
X13913989Y-6652500D02*
X13993989Y-6652500D01*
X14153989Y-6612500D02*
X14153989Y-6692500D01*
X14113989Y-6652500D02*
X14193989Y-6652500D01*
D15*
X5413588Y-6663588D02*
X5413588Y-6596412D01*
X5346412Y-6596412D01*
X5346412Y-6663588D01*
X5413588Y-6663588D01*
X5413588Y-6913588D02*
X5413588Y-6846412D01*
X5346412Y-6846412D01*
X5346412Y-6913588D01*
X5413588Y-6913588D01*
X5413588Y-7163588D02*
X5413588Y-7096412D01*
X5346412Y-7096412D01*
X5346412Y-7163588D01*
X5413588Y-7163588D01*
X5413588Y-7413588D02*
X5413588Y-7346412D01*
X5346412Y-7346412D01*
X5346412Y-7413588D01*
X5413588Y-7413588D01*
X5413588Y-7663588D02*
X5413588Y-7596412D01*
X5346412Y-7596412D01*
X5346412Y-7663588D01*
X5413588Y-7663588D01*
X5413588Y-7913588D02*
X5413588Y-7846412D01*
X5346412Y-7846412D01*
X5346412Y-7913588D01*
X5413588Y-7913588D01*
X5843588Y-4833588D02*
X5843588Y-4766412D01*
X5776412Y-4766412D01*
X5776412Y-4833588D01*
X5843588Y-4833588D01*
X6093588Y-4833588D02*
X6093588Y-4766412D01*
X6026412Y-4766412D01*
X6026412Y-4833588D01*
X6093588Y-4833588D01*
X6343588Y-4833588D02*
X6343588Y-4766412D01*
X6276412Y-4766412D01*
X6276412Y-4833588D01*
X6343588Y-4833588D01*
X6593588Y-4833588D02*
X6593588Y-4766412D01*
X6526412Y-4766412D01*
X6526412Y-4833588D01*
X6593588Y-4833588D01*
X6843588Y-4833588D02*
X6843588Y-4766412D01*
X6776412Y-4766412D01*
X6776412Y-4833588D01*
X6843588Y-4833588D01*
X7093588Y-4833588D02*
X7093588Y-4766412D01*
X7026412Y-4766412D01*
X7026412Y-4833588D01*
X7093588Y-4833588D01*
X7523588Y-8881088D02*
X7523588Y-8813912D01*
X7456412Y-8813912D01*
X7456412Y-8881088D01*
X7523588Y-8881088D01*
X7753588Y-4861088D02*
X7753588Y-4793912D01*
X7686412Y-4793912D01*
X7686412Y-4861088D01*
X7753588Y-4861088D01*
X7773588Y-8881088D02*
X7773588Y-8813912D01*
X7706412Y-8813912D01*
X7706412Y-8881088D01*
X7773588Y-8881088D01*
X8003588Y-4861088D02*
X8003588Y-4793912D01*
X7936412Y-4793912D01*
X7936412Y-4861088D01*
X8003588Y-4861088D01*
X8023588Y-8881088D02*
X8023588Y-8813912D01*
X7956412Y-8813912D01*
X7956412Y-8881088D01*
X8023588Y-8881088D01*
X8253588Y-4861088D02*
X8253588Y-4793912D01*
X8186412Y-4793912D01*
X8186412Y-4861088D01*
X8253588Y-4861088D01*
X8503588Y-4861088D02*
X8503588Y-4793912D01*
X8436412Y-4793912D01*
X8436412Y-4861088D01*
X8503588Y-4861088D01*
X8703588Y-8881088D02*
X8703588Y-8813912D01*
X8636412Y-8813912D01*
X8636412Y-8881088D01*
X8703588Y-8881088D01*
X8753588Y-4861088D02*
X8753588Y-4793912D01*
X8686412Y-4793912D01*
X8686412Y-4861088D01*
X8753588Y-4861088D01*
X8953588Y-8881088D02*
X8953588Y-8813912D01*
X8886412Y-8813912D01*
X8886412Y-8881088D01*
X8953588Y-8881088D01*
X9203588Y-8881088D02*
X9203588Y-8813912D01*
X9136412Y-8813912D01*
X9136412Y-8881088D01*
X9203588Y-8881088D01*
X9713588Y-4993588D02*
X9713588Y-4926412D01*
X9646412Y-4926412D01*
X9646412Y-4993588D01*
X9713588Y-4993588D01*
X9963588Y-4993588D02*
X9963588Y-4926412D01*
X9896412Y-4926412D01*
X9896412Y-4993588D01*
X9963588Y-4993588D01*
X10213588Y-4993588D02*
X10213588Y-4926412D01*
X10146412Y-4926412D01*
X10146412Y-4993588D01*
X10213588Y-4993588D01*
X11013588Y-4921088D02*
X11013588Y-4853912D01*
X10946412Y-4853912D01*
X10946412Y-4921088D01*
X11013588Y-4921088D01*
X11263588Y-4921088D02*
X11263588Y-4853912D01*
X11196412Y-4853912D01*
X11196412Y-4921088D01*
X11263588Y-4921088D01*
X11513588Y-4921088D02*
X11513588Y-4853912D01*
X11446412Y-4853912D01*
X11446412Y-4921088D01*
X11513588Y-4921088D01*
X11763588Y-4921088D02*
X11763588Y-4853912D01*
X11696412Y-4853912D01*
X11696412Y-4921088D01*
X11763588Y-4921088D01*
X12013588Y-4921088D02*
X12013588Y-4853912D01*
X11946412Y-4853912D01*
X11946412Y-4921088D01*
X12013588Y-4921088D01*
X12763588Y-4913588D02*
X12763588Y-4846412D01*
X12696412Y-4846412D01*
X12696412Y-4913588D01*
X12763588Y-4913588D01*
X13013588Y-4913588D02*
X13013588Y-4846412D01*
X12946412Y-4846412D01*
X12946412Y-4913588D01*
X13013588Y-4913588D01*
X13263588Y-4913588D02*
X13263588Y-4846412D01*
X13196412Y-4846412D01*
X13196412Y-4913588D01*
X13263588Y-4913588D01*
X13513588Y-4913588D02*
X13513588Y-4846412D01*
X13446412Y-4846412D01*
X13446412Y-4913588D01*
X13513588Y-4913588D01*
X13763588Y-4913588D02*
X13763588Y-4846412D01*
X13696412Y-4846412D01*
X13696412Y-4913588D01*
X13763588Y-4913588D01*
X14013588Y-4913588D02*
X14013588Y-4846412D01*
X13946412Y-4846412D01*
X13946412Y-4913588D01*
X14013588Y-4913588D01*
X14955588Y-6581088D02*
X14955588Y-6513912D01*
X14888412Y-6513912D01*
X14888412Y-6581088D01*
X14955588Y-6581088D01*
X14955588Y-6831088D02*
X14955588Y-6763912D01*
X14888412Y-6763912D01*
X14888412Y-6831088D01*
X14955588Y-6831088D01*
X14955588Y-7081088D02*
X14955588Y-7013912D01*
X14888412Y-7013912D01*
X14888412Y-7081088D01*
X14955588Y-7081088D01*
X14955588Y-7331088D02*
X14955588Y-7263912D01*
X14888412Y-7263912D01*
X14888412Y-7331088D01*
X14955588Y-7331088D01*
X14955588Y-7581088D02*
X14955588Y-7513912D01*
X14888412Y-7513912D01*
X14888412Y-7581088D01*
X14955588Y-7581088D01*
X14955588Y-7831088D02*
X14955588Y-7763912D01*
X14888412Y-7763912D01*
X14888412Y-7831088D01*
X14955588Y-7831088D01*
D10*
X9955000Y-8877500D02*
X10005000Y-8827500D01*
X9955000Y-8777500D01*
X9905000Y-8827500D01*
X9955000Y-8877500D01*
X10205000Y-8877500D02*
X10255000Y-8827500D01*
X10205000Y-8777500D01*
X10155000Y-8827500D01*
X10205000Y-8877500D01*
D16*
X4840000Y-4840000D02*
X5160000Y-5160000D01*
X5160000Y-4840000D02*
X4840000Y-5160000D01*
X5160000Y-5000000D02*
G75*
G03*
X5160000Y-5000000I-160000J0D01*
G01*
X4840000Y-8840000D02*
X5160000Y-9160000D01*
X5160000Y-8840000D02*
X4840000Y-9160000D01*
X5160000Y-9000000D02*
G75*
G03*
X5160000Y-9000000I-160000J0D01*
G01*
X14840000Y-4840000D02*
X15160000Y-5160000D01*
X15160000Y-4840000D02*
X14840000Y-5160000D01*
X15160000Y-5000000D02*
G75*
G03*
X15160000Y-5000000I-160000J0D01*
G01*
X14840000Y-8840000D02*
X15160000Y-9160000D01*
X15160000Y-8840000D02*
X14840000Y-9160000D01*
X15160000Y-9000000D02*
G75*
G03*
X15160000Y-9000000I-160000J0D01*
G01*
D11*
X4652619Y-9915476D02*
X4652619Y-9715476D01*
X4700238Y-9715476D01*
X4728810Y-9725000D01*
X4747857Y-9744048D01*
X4757381Y-9763095D01*
X4766905Y-9801190D01*
X4766905Y-9829762D01*
X4757381Y-9867857D01*
X4747857Y-9886905D01*
X4728810Y-9905952D01*
X4700238Y-9915476D01*
X4652619Y-9915476D01*
X4852619Y-9915476D02*
X4852619Y-9782143D01*
X4852619Y-9820238D02*
X4862143Y-9801190D01*
X4871667Y-9791667D01*
X4890714Y-9782143D01*
X4909762Y-9782143D01*
X4976429Y-9915476D02*
X4976429Y-9782143D01*
X4976429Y-9715476D02*
X4966905Y-9725000D01*
X4976429Y-9734524D01*
X4985952Y-9725000D01*
X4976429Y-9715476D01*
X4976429Y-9734524D01*
X5100238Y-9915476D02*
X5081190Y-9905952D01*
X5071667Y-9886905D01*
X5071667Y-9715476D01*
X5205000Y-9915476D02*
X5185952Y-9905952D01*
X5176429Y-9886905D01*
X5176429Y-9715476D01*
X5433571Y-9915476D02*
X5433571Y-9715476D01*
X5500238Y-9858333D01*
X5566905Y-9715476D01*
X5566905Y-9915476D01*
X5747857Y-9915476D02*
X5747857Y-9810714D01*
X5738333Y-9791667D01*
X5719286Y-9782143D01*
X5681190Y-9782143D01*
X5662143Y-9791667D01*
X5747857Y-9905952D02*
X5728809Y-9915476D01*
X5681190Y-9915476D01*
X5662143Y-9905952D01*
X5652619Y-9886905D01*
X5652619Y-9867857D01*
X5662143Y-9848810D01*
X5681190Y-9839286D01*
X5728809Y-9839286D01*
X5747857Y-9829762D01*
X5843095Y-9782143D02*
X5843095Y-9982143D01*
X5843095Y-9791667D02*
X5862143Y-9782143D01*
X5900238Y-9782143D01*
X5919286Y-9791667D01*
X5928809Y-9801190D01*
X5938333Y-9820238D01*
X5938333Y-9877381D01*
X5928809Y-9896429D01*
X5919286Y-9905952D01*
X5900238Y-9915476D01*
X5862143Y-9915476D01*
X5843095Y-9905952D01*
X6024048Y-9896429D02*
X6033571Y-9905952D01*
X6024048Y-9915476D01*
X6014524Y-9905952D01*
X6024048Y-9896429D01*
X6024048Y-9915476D01*
X6024048Y-9791667D02*
X6033571Y-9801190D01*
X6024048Y-9810714D01*
X6014524Y-9801190D01*
X6024048Y-9791667D01*
X6024048Y-9810714D01*
D12*
X4355000Y-10225000D02*
X4395000Y-10265000D01*
X4395000Y-10225000D02*
X4355000Y-10265000D01*
D11*
X4690714Y-10135476D02*
X4709762Y-10135476D01*
X4728810Y-10145000D01*
X4738333Y-10154524D01*
X4747857Y-10173571D01*
X4757381Y-10211667D01*
X4757381Y-10259286D01*
X4747857Y-10297381D01*
X4738333Y-10316429D01*
X4728810Y-10325952D01*
X4709762Y-10335476D01*
X4690714Y-10335476D01*
X4671667Y-10325952D01*
X4662143Y-10316429D01*
X4652619Y-10297381D01*
X4643095Y-10259286D01*
X4643095Y-10211667D01*
X4652619Y-10173571D01*
X4662143Y-10154524D01*
X4671667Y-10145000D01*
X4690714Y-10135476D01*
X4843095Y-10316429D02*
X4852619Y-10325952D01*
X4843095Y-10335476D01*
X4833571Y-10325952D01*
X4843095Y-10316429D01*
X4843095Y-10335476D01*
X5024048Y-10202143D02*
X5024048Y-10335476D01*
X4976429Y-10125952D02*
X4928810Y-10268810D01*
X5052619Y-10268810D01*
X5166905Y-10135476D02*
X5185952Y-10135476D01*
X5205000Y-10145000D01*
X5214524Y-10154524D01*
X5224048Y-10173571D01*
X5233571Y-10211667D01*
X5233571Y-10259286D01*
X5224048Y-10297381D01*
X5214524Y-10316429D01*
X5205000Y-10325952D01*
X5185952Y-10335476D01*
X5166905Y-10335476D01*
X5147857Y-10325952D01*
X5138333Y-10316429D01*
X5128810Y-10297381D01*
X5119286Y-10259286D01*
X5119286Y-10211667D01*
X5128810Y-10173571D01*
X5138333Y-10154524D01*
X5147857Y-10145000D01*
X5166905Y-10135476D01*
X5357381Y-10135476D02*
X5376429Y-10135476D01*
X5395476Y-10145000D01*
X5405000Y-10154524D01*
X5414524Y-10173571D01*
X5424048Y-10211667D01*
X5424048Y-10259286D01*
X5414524Y-10297381D01*
X5405000Y-10316429D01*
X5395476Y-10325952D01*
X5376429Y-10335476D01*
X5357381Y-10335476D01*
X5338333Y-10325952D01*
X5328810Y-10316429D01*
X5319286Y-10297381D01*
X5309762Y-10259286D01*
X5309762Y-10211667D01*
X5319286Y-10173571D01*
X5328810Y-10154524D01*
X5338333Y-10145000D01*
X5357381Y-10135476D01*
X5509762Y-10335476D02*
X5509762Y-10202143D01*
X5509762Y-10221190D02*
X5519286Y-10211667D01*
X5538333Y-10202143D01*
X5566905Y-10202143D01*
X5585952Y-10211667D01*
X5595476Y-10230714D01*
X5595476Y-10335476D01*
X5595476Y-10230714D02*
X5605000Y-10211667D01*
X5624048Y-10202143D01*
X5652619Y-10202143D01*
X5671667Y-10211667D01*
X5681190Y-10230714D01*
X5681190Y-10335476D01*
X5776428Y-10335476D02*
X5776428Y-10202143D01*
X5776428Y-10221190D02*
X5785952Y-10211667D01*
X5805000Y-10202143D01*
X5833571Y-10202143D01*
X5852619Y-10211667D01*
X5862143Y-10230714D01*
X5862143Y-10335476D01*
X5862143Y-10230714D02*
X5871667Y-10211667D01*
X5890714Y-10202143D01*
X5919286Y-10202143D01*
X5938333Y-10211667D01*
X5947857Y-10230714D01*
X5947857Y-10335476D01*
X6338333Y-10125952D02*
X6166905Y-10383095D01*
X6595476Y-10135476D02*
X6614524Y-10135476D01*
X6633571Y-10145000D01*
X6643095Y-10154524D01*
X6652619Y-10173571D01*
X6662143Y-10211667D01*
X6662143Y-10259286D01*
X6652619Y-10297381D01*
X6643095Y-10316429D01*
X6633571Y-10325952D01*
X6614524Y-10335476D01*
X6595476Y-10335476D01*
X6576428Y-10325952D01*
X6566905Y-10316429D01*
X6557381Y-10297381D01*
X6547857Y-10259286D01*
X6547857Y-10211667D01*
X6557381Y-10173571D01*
X6566905Y-10154524D01*
X6576428Y-10145000D01*
X6595476Y-10135476D01*
X6747857Y-10316429D02*
X6757381Y-10325952D01*
X6747857Y-10335476D01*
X6738333Y-10325952D01*
X6747857Y-10316429D01*
X6747857Y-10335476D01*
X6881190Y-10135476D02*
X6900238Y-10135476D01*
X6919286Y-10145000D01*
X6928809Y-10154524D01*
X6938333Y-10173571D01*
X6947857Y-10211667D01*
X6947857Y-10259286D01*
X6938333Y-10297381D01*
X6928809Y-10316429D01*
X6919286Y-10325952D01*
X6900238Y-10335476D01*
X6881190Y-10335476D01*
X6862143Y-10325952D01*
X6852619Y-10316429D01*
X6843095Y-10297381D01*
X6833571Y-10259286D01*
X6833571Y-10211667D01*
X6843095Y-10173571D01*
X6852619Y-10154524D01*
X6862143Y-10145000D01*
X6881190Y-10135476D01*
X7138333Y-10335476D02*
X7024048Y-10335476D01*
X7081190Y-10335476D02*
X7081190Y-10135476D01*
X7062143Y-10164048D01*
X7043095Y-10183095D01*
X7024048Y-10192619D01*
X7319286Y-10135476D02*
X7224048Y-10135476D01*
X7214524Y-10230714D01*
X7224048Y-10221190D01*
X7243095Y-10211667D01*
X7290714Y-10211667D01*
X7309762Y-10221190D01*
X7319286Y-10230714D01*
X7328809Y-10249762D01*
X7328809Y-10297381D01*
X7319286Y-10316429D01*
X7309762Y-10325952D01*
X7290714Y-10335476D01*
X7243095Y-10335476D01*
X7224048Y-10325952D01*
X7214524Y-10316429D01*
X7395476Y-10135476D02*
X7528809Y-10135476D01*
X7443095Y-10335476D01*
X7595476Y-10135476D02*
X7595476Y-10173571D01*
X7671667Y-10135476D02*
X7671667Y-10173571D01*
X7966905Y-10411667D02*
X7957381Y-10402143D01*
X7938333Y-10373571D01*
X7928809Y-10354524D01*
X7919286Y-10325952D01*
X7909762Y-10278333D01*
X7909762Y-10240238D01*
X7919286Y-10192619D01*
X7928809Y-10164048D01*
X7938333Y-10145000D01*
X7957381Y-10116429D01*
X7966905Y-10106905D01*
X8024048Y-10135476D02*
X8147857Y-10135476D01*
X8081190Y-10211667D01*
X8109762Y-10211667D01*
X8128809Y-10221190D01*
X8138333Y-10230714D01*
X8147857Y-10249762D01*
X8147857Y-10297381D01*
X8138333Y-10316429D01*
X8128809Y-10325952D01*
X8109762Y-10335476D01*
X8052619Y-10335476D01*
X8033571Y-10325952D01*
X8024048Y-10316429D01*
X8319286Y-10202143D02*
X8319286Y-10335476D01*
X8271667Y-10125952D02*
X8224048Y-10268810D01*
X8347857Y-10268810D01*
X8576429Y-10335476D02*
X8576429Y-10135476D01*
X8662143Y-10335476D02*
X8662143Y-10230714D01*
X8652619Y-10211667D01*
X8633571Y-10202143D01*
X8605000Y-10202143D01*
X8585952Y-10211667D01*
X8576429Y-10221190D01*
X8785952Y-10335476D02*
X8766905Y-10325952D01*
X8757381Y-10316429D01*
X8747857Y-10297381D01*
X8747857Y-10240238D01*
X8757381Y-10221190D01*
X8766905Y-10211667D01*
X8785952Y-10202143D01*
X8814524Y-10202143D01*
X8833571Y-10211667D01*
X8843095Y-10221190D01*
X8852619Y-10240238D01*
X8852619Y-10297381D01*
X8843095Y-10316429D01*
X8833571Y-10325952D01*
X8814524Y-10335476D01*
X8785952Y-10335476D01*
X8966905Y-10335476D02*
X8947857Y-10325952D01*
X8938333Y-10306905D01*
X8938333Y-10135476D01*
X9119286Y-10325952D02*
X9100238Y-10335476D01*
X9062143Y-10335476D01*
X9043095Y-10325952D01*
X9033571Y-10306905D01*
X9033571Y-10230714D01*
X9043095Y-10211667D01*
X9062143Y-10202143D01*
X9100238Y-10202143D01*
X9119286Y-10211667D01*
X9128810Y-10230714D01*
X9128810Y-10249762D01*
X9033571Y-10268810D01*
X9205000Y-10325952D02*
X9224048Y-10335476D01*
X9262143Y-10335476D01*
X9281190Y-10325952D01*
X9290714Y-10306905D01*
X9290714Y-10297381D01*
X9281190Y-10278333D01*
X9262143Y-10268810D01*
X9233571Y-10268810D01*
X9214524Y-10259286D01*
X9205000Y-10240238D01*
X9205000Y-10230714D01*
X9214524Y-10211667D01*
X9233571Y-10202143D01*
X9262143Y-10202143D01*
X9281190Y-10211667D01*
X9357381Y-10411667D02*
X9366905Y-10402143D01*
X9385952Y-10373571D01*
X9395476Y-10354524D01*
X9405000Y-10325952D01*
X9414524Y-10278333D01*
X9414524Y-10240238D01*
X9405000Y-10192619D01*
X9395476Y-10164048D01*
X9385952Y-10145000D01*
X9366905Y-10116429D01*
X9357381Y-10106905D01*
D13*
X4395000Y-10509000D02*
G75*
G03*
X4395000Y-10509000I-25000J0D01*
G01*
D11*
X4690714Y-10399476D02*
X4709762Y-10399476D01*
X4728810Y-10409000D01*
X4738333Y-10418524D01*
X4747857Y-10437571D01*
X4757381Y-10475667D01*
X4757381Y-10523286D01*
X4747857Y-10561381D01*
X4738333Y-10580429D01*
X4728810Y-10589952D01*
X4709762Y-10599476D01*
X4690714Y-10599476D01*
X4671667Y-10589952D01*
X4662143Y-10580429D01*
X4652619Y-10561381D01*
X4643095Y-10523286D01*
X4643095Y-10475667D01*
X4652619Y-10437571D01*
X4662143Y-10418524D01*
X4671667Y-10409000D01*
X4690714Y-10399476D01*
X4843095Y-10580429D02*
X4852619Y-10589952D01*
X4843095Y-10599476D01*
X4833571Y-10589952D01*
X4843095Y-10580429D01*
X4843095Y-10599476D01*
X5033571Y-10399476D02*
X4938333Y-10399476D01*
X4928810Y-10494714D01*
X4938333Y-10485190D01*
X4957381Y-10475667D01*
X5005000Y-10475667D01*
X5024048Y-10485190D01*
X5033571Y-10494714D01*
X5043095Y-10513762D01*
X5043095Y-10561381D01*
X5033571Y-10580429D01*
X5024048Y-10589952D01*
X5005000Y-10599476D01*
X4957381Y-10599476D01*
X4938333Y-10589952D01*
X4928810Y-10580429D01*
X5166905Y-10399476D02*
X5185952Y-10399476D01*
X5205000Y-10409000D01*
X5214524Y-10418524D01*
X5224048Y-10437571D01*
X5233571Y-10475667D01*
X5233571Y-10523286D01*
X5224048Y-10561381D01*
X5214524Y-10580429D01*
X5205000Y-10589952D01*
X5185952Y-10599476D01*
X5166905Y-10599476D01*
X5147857Y-10589952D01*
X5138333Y-10580429D01*
X5128810Y-10561381D01*
X5119286Y-10523286D01*
X5119286Y-10475667D01*
X5128810Y-10437571D01*
X5138333Y-10418524D01*
X5147857Y-10409000D01*
X5166905Y-10399476D01*
X5357381Y-10399476D02*
X5376429Y-10399476D01*
X5395476Y-10409000D01*
X5405000Y-10418524D01*
X5414524Y-10437571D01*
X5424048Y-10475667D01*
X5424048Y-10523286D01*
X5414524Y-10561381D01*
X5405000Y-10580429D01*
X5395476Y-10589952D01*
X5376429Y-10599476D01*
X5357381Y-10599476D01*
X5338333Y-10589952D01*
X5328810Y-10580429D01*
X5319286Y-10561381D01*
X5309762Y-10523286D01*
X5309762Y-10475667D01*
X5319286Y-10437571D01*
X5328810Y-10418524D01*
X5338333Y-10409000D01*
X5357381Y-10399476D01*
X5509762Y-10599476D02*
X5509762Y-10466143D01*
X5509762Y-10485190D02*
X5519286Y-10475667D01*
X5538333Y-10466143D01*
X5566905Y-10466143D01*
X5585952Y-10475667D01*
X5595476Y-10494714D01*
X5595476Y-10599476D01*
X5595476Y-10494714D02*
X5605000Y-10475667D01*
X5624048Y-10466143D01*
X5652619Y-10466143D01*
X5671667Y-10475667D01*
X5681190Y-10494714D01*
X5681190Y-10599476D01*
X5776428Y-10599476D02*
X5776428Y-10466143D01*
X5776428Y-10485190D02*
X5785952Y-10475667D01*
X5805000Y-10466143D01*
X5833571Y-10466143D01*
X5852619Y-10475667D01*
X5862143Y-10494714D01*
X5862143Y-10599476D01*
X5862143Y-10494714D02*
X5871667Y-10475667D01*
X5890714Y-10466143D01*
X5919286Y-10466143D01*
X5938333Y-10475667D01*
X5947857Y-10494714D01*
X5947857Y-10599476D01*
X6338333Y-10389952D02*
X6166905Y-10647095D01*
X6595476Y-10399476D02*
X6614524Y-10399476D01*
X6633571Y-10409000D01*
X6643095Y-10418524D01*
X6652619Y-10437571D01*
X6662143Y-10475667D01*
X6662143Y-10523286D01*
X6652619Y-10561381D01*
X6643095Y-10580429D01*
X6633571Y-10589952D01*
X6614524Y-10599476D01*
X6595476Y-10599476D01*
X6576428Y-10589952D01*
X6566905Y-10580429D01*
X6557381Y-10561381D01*
X6547857Y-10523286D01*
X6547857Y-10475667D01*
X6557381Y-10437571D01*
X6566905Y-10418524D01*
X6576428Y-10409000D01*
X6595476Y-10399476D01*
X6747857Y-10580429D02*
X6757381Y-10589952D01*
X6747857Y-10599476D01*
X6738333Y-10589952D01*
X6747857Y-10580429D01*
X6747857Y-10599476D01*
X6881190Y-10399476D02*
X6900238Y-10399476D01*
X6919286Y-10409000D01*
X6928809Y-10418524D01*
X6938333Y-10437571D01*
X6947857Y-10475667D01*
X6947857Y-10523286D01*
X6938333Y-10561381D01*
X6928809Y-10580429D01*
X6919286Y-10589952D01*
X6900238Y-10599476D01*
X6881190Y-10599476D01*
X6862143Y-10589952D01*
X6852619Y-10580429D01*
X6843095Y-10561381D01*
X6833571Y-10523286D01*
X6833571Y-10475667D01*
X6843095Y-10437571D01*
X6852619Y-10418524D01*
X6862143Y-10409000D01*
X6881190Y-10399476D01*
X7138333Y-10599476D02*
X7024048Y-10599476D01*
X7081190Y-10599476D02*
X7081190Y-10399476D01*
X7062143Y-10428048D01*
X7043095Y-10447095D01*
X7024048Y-10456619D01*
X7233571Y-10599476D02*
X7271667Y-10599476D01*
X7290714Y-10589952D01*
X7300238Y-10580429D01*
X7319286Y-10551857D01*
X7328809Y-10513762D01*
X7328809Y-10437571D01*
X7319286Y-10418524D01*
X7309762Y-10409000D01*
X7290714Y-10399476D01*
X7252619Y-10399476D01*
X7233571Y-10409000D01*
X7224048Y-10418524D01*
X7214524Y-10437571D01*
X7214524Y-10485190D01*
X7224048Y-10504238D01*
X7233571Y-10513762D01*
X7252619Y-10523286D01*
X7290714Y-10523286D01*
X7309762Y-10513762D01*
X7319286Y-10504238D01*
X7328809Y-10485190D01*
X7395476Y-10399476D02*
X7528809Y-10399476D01*
X7443095Y-10599476D01*
X7595476Y-10399476D02*
X7595476Y-10437571D01*
X7671667Y-10399476D02*
X7671667Y-10437571D01*
X7966905Y-10675667D02*
X7957381Y-10666143D01*
X7938333Y-10637571D01*
X7928809Y-10618524D01*
X7919286Y-10589952D01*
X7909762Y-10542333D01*
X7909762Y-10504238D01*
X7919286Y-10456619D01*
X7928809Y-10428048D01*
X7938333Y-10409000D01*
X7957381Y-10380429D01*
X7966905Y-10370905D01*
X8024048Y-10399476D02*
X8147857Y-10399476D01*
X8081190Y-10475667D01*
X8109762Y-10475667D01*
X8128809Y-10485190D01*
X8138333Y-10494714D01*
X8147857Y-10513762D01*
X8147857Y-10561381D01*
X8138333Y-10580429D01*
X8128809Y-10589952D01*
X8109762Y-10599476D01*
X8052619Y-10599476D01*
X8033571Y-10589952D01*
X8024048Y-10580429D01*
X8224048Y-10418524D02*
X8233571Y-10409000D01*
X8252619Y-10399476D01*
X8300238Y-10399476D01*
X8319286Y-10409000D01*
X8328809Y-10418524D01*
X8338333Y-10437571D01*
X8338333Y-10456619D01*
X8328809Y-10485190D01*
X8214524Y-10599476D01*
X8338333Y-10599476D01*
X8576429Y-10599476D02*
X8576429Y-10399476D01*
X8662143Y-10599476D02*
X8662143Y-10494714D01*
X8652619Y-10475667D01*
X8633571Y-10466143D01*
X8605000Y-10466143D01*
X8585952Y-10475667D01*
X8576429Y-10485190D01*
X8785952Y-10599476D02*
X8766905Y-10589952D01*
X8757381Y-10580429D01*
X8747857Y-10561381D01*
X8747857Y-10504238D01*
X8757381Y-10485190D01*
X8766905Y-10475667D01*
X8785952Y-10466143D01*
X8814524Y-10466143D01*
X8833571Y-10475667D01*
X8843095Y-10485190D01*
X8852619Y-10504238D01*
X8852619Y-10561381D01*
X8843095Y-10580429D01*
X8833571Y-10589952D01*
X8814524Y-10599476D01*
X8785952Y-10599476D01*
X8966905Y-10599476D02*
X8947857Y-10589952D01*
X8938333Y-10570905D01*
X8938333Y-10399476D01*
X9119286Y-10589952D02*
X9100238Y-10599476D01*
X9062143Y-10599476D01*
X9043095Y-10589952D01*
X9033571Y-10570905D01*
X9033571Y-10494714D01*
X9043095Y-10475667D01*
X9062143Y-10466143D01*
X9100238Y-10466143D01*
X9119286Y-10475667D01*
X9128810Y-10494714D01*
X9128810Y-10513762D01*
X9033571Y-10532810D01*
X9205000Y-10589952D02*
X9224048Y-10599476D01*
X9262143Y-10599476D01*
X9281190Y-10589952D01*
X9290714Y-10570905D01*
X9290714Y-10561381D01*
X9281190Y-10542333D01*
X9262143Y-10532810D01*
X9233571Y-10532810D01*
X9214524Y-10523286D01*
X9205000Y-10504238D01*
X9205000Y-10494714D01*
X9214524Y-10475667D01*
X9233571Y-10466143D01*
X9262143Y-10466143D01*
X9281190Y-10475667D01*
X9357381Y-10675667D02*
X9366905Y-10666143D01*
X9385952Y-10637571D01*
X9395476Y-10618524D01*
X9405000Y-10589952D01*
X9414524Y-10542333D01*
X9414524Y-10504238D01*
X9405000Y-10456619D01*
X9395476Y-10428048D01*
X9385952Y-10409000D01*
X9366905Y-10380429D01*
X9357381Y-10370905D01*
D14*
X4355000Y-10733000D02*
X4355000Y-10813000D01*
X4315000Y-10773000D02*
X4395000Y-10773000D01*
D11*
X4690714Y-10663476D02*
X4709762Y-10663476D01*
X4728810Y-10673000D01*
X4738333Y-10682524D01*
X4747857Y-10701571D01*
X4757381Y-10739667D01*
X4757381Y-10787286D01*
X4747857Y-10825381D01*
X4738333Y-10844429D01*
X4728810Y-10853952D01*
X4709762Y-10863476D01*
X4690714Y-10863476D01*
X4671667Y-10853952D01*
X4662143Y-10844429D01*
X4652619Y-10825381D01*
X4643095Y-10787286D01*
X4643095Y-10739667D01*
X4652619Y-10701571D01*
X4662143Y-10682524D01*
X4671667Y-10673000D01*
X4690714Y-10663476D01*
X4843095Y-10844429D02*
X4852619Y-10853952D01*
X4843095Y-10863476D01*
X4833571Y-10853952D01*
X4843095Y-10844429D01*
X4843095Y-10863476D01*
X4966905Y-10749190D02*
X4947857Y-10739667D01*
X4938333Y-10730143D01*
X4928810Y-10711095D01*
X4928810Y-10701571D01*
X4938333Y-10682524D01*
X4947857Y-10673000D01*
X4966905Y-10663476D01*
X5005000Y-10663476D01*
X5024048Y-10673000D01*
X5033571Y-10682524D01*
X5043095Y-10701571D01*
X5043095Y-10711095D01*
X5033571Y-10730143D01*
X5024048Y-10739667D01*
X5005000Y-10749190D01*
X4966905Y-10749190D01*
X4947857Y-10758714D01*
X4938333Y-10768238D01*
X4928810Y-10787286D01*
X4928810Y-10825381D01*
X4938333Y-10844429D01*
X4947857Y-10853952D01*
X4966905Y-10863476D01*
X5005000Y-10863476D01*
X5024048Y-10853952D01*
X5033571Y-10844429D01*
X5043095Y-10825381D01*
X5043095Y-10787286D01*
X5033571Y-10768238D01*
X5024048Y-10758714D01*
X5005000Y-10749190D01*
X5166905Y-10663476D02*
X5185952Y-10663476D01*
X5205000Y-10673000D01*
X5214524Y-10682524D01*
X5224048Y-10701571D01*
X5233571Y-10739667D01*
X5233571Y-10787286D01*
X5224048Y-10825381D01*
X5214524Y-10844429D01*
X5205000Y-10853952D01*
X5185952Y-10863476D01*
X5166905Y-10863476D01*
X5147857Y-10853952D01*
X5138333Y-10844429D01*
X5128810Y-10825381D01*
X5119286Y-10787286D01*
X5119286Y-10739667D01*
X5128810Y-10701571D01*
X5138333Y-10682524D01*
X5147857Y-10673000D01*
X5166905Y-10663476D01*
X5357381Y-10663476D02*
X5376429Y-10663476D01*
X5395476Y-10673000D01*
X5405000Y-10682524D01*
X5414524Y-10701571D01*
X5424048Y-10739667D01*
X5424048Y-10787286D01*
X5414524Y-10825381D01*
X5405000Y-10844429D01*
X5395476Y-10853952D01*
X5376429Y-10863476D01*
X5357381Y-10863476D01*
X5338333Y-10853952D01*
X5328810Y-10844429D01*
X5319286Y-10825381D01*
X5309762Y-10787286D01*
X5309762Y-10739667D01*
X5319286Y-10701571D01*
X5328810Y-10682524D01*
X5338333Y-10673000D01*
X5357381Y-10663476D01*
X5509762Y-10863476D02*
X5509762Y-10730143D01*
X5509762Y-10749190D02*
X5519286Y-10739667D01*
X5538333Y-10730143D01*
X5566905Y-10730143D01*
X5585952Y-10739667D01*
X5595476Y-10758714D01*
X5595476Y-10863476D01*
X5595476Y-10758714D02*
X5605000Y-10739667D01*
X5624048Y-10730143D01*
X5652619Y-10730143D01*
X5671667Y-10739667D01*
X5681190Y-10758714D01*
X5681190Y-10863476D01*
X5776428Y-10863476D02*
X5776428Y-10730143D01*
X5776428Y-10749190D02*
X5785952Y-10739667D01*
X5805000Y-10730143D01*
X5833571Y-10730143D01*
X5852619Y-10739667D01*
X5862143Y-10758714D01*
X5862143Y-10863476D01*
X5862143Y-10758714D02*
X5871667Y-10739667D01*
X5890714Y-10730143D01*
X5919286Y-10730143D01*
X5938333Y-10739667D01*
X5947857Y-10758714D01*
X5947857Y-10863476D01*
X6338333Y-10653952D02*
X6166905Y-10911095D01*
X6595476Y-10663476D02*
X6614524Y-10663476D01*
X6633571Y-10673000D01*
X6643095Y-10682524D01*
X6652619Y-10701571D01*
X6662143Y-10739667D01*
X6662143Y-10787286D01*
X6652619Y-10825381D01*
X6643095Y-10844429D01*
X6633571Y-10853952D01*
X6614524Y-10863476D01*
X6595476Y-10863476D01*
X6576428Y-10853952D01*
X6566905Y-10844429D01*
X6557381Y-10825381D01*
X6547857Y-10787286D01*
X6547857Y-10739667D01*
X6557381Y-10701571D01*
X6566905Y-10682524D01*
X6576428Y-10673000D01*
X6595476Y-10663476D01*
X6747857Y-10844429D02*
X6757381Y-10853952D01*
X6747857Y-10863476D01*
X6738333Y-10853952D01*
X6747857Y-10844429D01*
X6747857Y-10863476D01*
X6881190Y-10663476D02*
X6900238Y-10663476D01*
X6919286Y-10673000D01*
X6928809Y-10682524D01*
X6938333Y-10701571D01*
X6947857Y-10739667D01*
X6947857Y-10787286D01*
X6938333Y-10825381D01*
X6928809Y-10844429D01*
X6919286Y-10853952D01*
X6900238Y-10863476D01*
X6881190Y-10863476D01*
X6862143Y-10853952D01*
X6852619Y-10844429D01*
X6843095Y-10825381D01*
X6833571Y-10787286D01*
X6833571Y-10739667D01*
X6843095Y-10701571D01*
X6852619Y-10682524D01*
X6862143Y-10673000D01*
X6881190Y-10663476D01*
X7014524Y-10663476D02*
X7138333Y-10663476D01*
X7071667Y-10739667D01*
X7100238Y-10739667D01*
X7119286Y-10749190D01*
X7128809Y-10758714D01*
X7138333Y-10777762D01*
X7138333Y-10825381D01*
X7128809Y-10844429D01*
X7119286Y-10853952D01*
X7100238Y-10863476D01*
X7043095Y-10863476D01*
X7024048Y-10853952D01*
X7014524Y-10844429D01*
X7328809Y-10863476D02*
X7214524Y-10863476D01*
X7271667Y-10863476D02*
X7271667Y-10663476D01*
X7252619Y-10692048D01*
X7233571Y-10711095D01*
X7214524Y-10720619D01*
X7509762Y-10663476D02*
X7414524Y-10663476D01*
X7405000Y-10758714D01*
X7414524Y-10749190D01*
X7433571Y-10739667D01*
X7481190Y-10739667D01*
X7500238Y-10749190D01*
X7509762Y-10758714D01*
X7519286Y-10777762D01*
X7519286Y-10825381D01*
X7509762Y-10844429D01*
X7500238Y-10853952D01*
X7481190Y-10863476D01*
X7433571Y-10863476D01*
X7414524Y-10853952D01*
X7405000Y-10844429D01*
X7595476Y-10663476D02*
X7595476Y-10701571D01*
X7671667Y-10663476D02*
X7671667Y-10701571D01*
X7966905Y-10939667D02*
X7957381Y-10930143D01*
X7938333Y-10901571D01*
X7928809Y-10882524D01*
X7919286Y-10853952D01*
X7909762Y-10806333D01*
X7909762Y-10768238D01*
X7919286Y-10720619D01*
X7928809Y-10692048D01*
X7938333Y-10673000D01*
X7957381Y-10644429D01*
X7966905Y-10634905D01*
X8071667Y-10749190D02*
X8052619Y-10739667D01*
X8043095Y-10730143D01*
X8033571Y-10711095D01*
X8033571Y-10701571D01*
X8043095Y-10682524D01*
X8052619Y-10673000D01*
X8071667Y-10663476D01*
X8109762Y-10663476D01*
X8128809Y-10673000D01*
X8138333Y-10682524D01*
X8147857Y-10701571D01*
X8147857Y-10711095D01*
X8138333Y-10730143D01*
X8128809Y-10739667D01*
X8109762Y-10749190D01*
X8071667Y-10749190D01*
X8052619Y-10758714D01*
X8043095Y-10768238D01*
X8033571Y-10787286D01*
X8033571Y-10825381D01*
X8043095Y-10844429D01*
X8052619Y-10853952D01*
X8071667Y-10863476D01*
X8109762Y-10863476D01*
X8128809Y-10853952D01*
X8138333Y-10844429D01*
X8147857Y-10825381D01*
X8147857Y-10787286D01*
X8138333Y-10768238D01*
X8128809Y-10758714D01*
X8109762Y-10749190D01*
X8385952Y-10863476D02*
X8385952Y-10663476D01*
X8471667Y-10863476D02*
X8471667Y-10758714D01*
X8462143Y-10739667D01*
X8443095Y-10730143D01*
X8414524Y-10730143D01*
X8395476Y-10739667D01*
X8385952Y-10749190D01*
X8595476Y-10863476D02*
X8576429Y-10853952D01*
X8566905Y-10844429D01*
X8557381Y-10825381D01*
X8557381Y-10768238D01*
X8566905Y-10749190D01*
X8576429Y-10739667D01*
X8595476Y-10730143D01*
X8624048Y-10730143D01*
X8643095Y-10739667D01*
X8652619Y-10749190D01*
X8662143Y-10768238D01*
X8662143Y-10825381D01*
X8652619Y-10844429D01*
X8643095Y-10853952D01*
X8624048Y-10863476D01*
X8595476Y-10863476D01*
X8776429Y-10863476D02*
X8757381Y-10853952D01*
X8747857Y-10834905D01*
X8747857Y-10663476D01*
X8928810Y-10853952D02*
X8909762Y-10863476D01*
X8871667Y-10863476D01*
X8852619Y-10853952D01*
X8843095Y-10834905D01*
X8843095Y-10758714D01*
X8852619Y-10739667D01*
X8871667Y-10730143D01*
X8909762Y-10730143D01*
X8928810Y-10739667D01*
X8938333Y-10758714D01*
X8938333Y-10777762D01*
X8843095Y-10796810D01*
X9014524Y-10853952D02*
X9033571Y-10863476D01*
X9071667Y-10863476D01*
X9090714Y-10853952D01*
X9100238Y-10834905D01*
X9100238Y-10825381D01*
X9090714Y-10806333D01*
X9071667Y-10796810D01*
X9043095Y-10796810D01*
X9024048Y-10787286D01*
X9014524Y-10768238D01*
X9014524Y-10758714D01*
X9024048Y-10739667D01*
X9043095Y-10730143D01*
X9071667Y-10730143D01*
X9090714Y-10739667D01*
X9166905Y-10939667D02*
X9176429Y-10930143D01*
X9195476Y-10901571D01*
X9205000Y-10882524D01*
X9214524Y-10853952D01*
X9224048Y-10806333D01*
X9224048Y-10768238D01*
X9214524Y-10720619D01*
X9205000Y-10692048D01*
X9195476Y-10673000D01*
X9176429Y-10644429D01*
X9166905Y-10634905D01*
D15*
X4381088Y-11070588D02*
X4381088Y-11003412D01*
X4313912Y-11003412D01*
X4313912Y-11070588D01*
X4381088Y-11070588D01*
D11*
X4690714Y-10927476D02*
X4709762Y-10927476D01*
X4728810Y-10937000D01*
X4738333Y-10946524D01*
X4747857Y-10965571D01*
X4757381Y-11003667D01*
X4757381Y-11051286D01*
X4747857Y-11089381D01*
X4738333Y-11108429D01*
X4728810Y-11117952D01*
X4709762Y-11127476D01*
X4690714Y-11127476D01*
X4671667Y-11117952D01*
X4662143Y-11108429D01*
X4652619Y-11089381D01*
X4643095Y-11051286D01*
X4643095Y-11003667D01*
X4652619Y-10965571D01*
X4662143Y-10946524D01*
X4671667Y-10937000D01*
X4690714Y-10927476D01*
X4843095Y-11108429D02*
X4852619Y-11117952D01*
X4843095Y-11127476D01*
X4833571Y-11117952D01*
X4843095Y-11108429D01*
X4843095Y-11127476D01*
X4947857Y-11127476D02*
X4985952Y-11127476D01*
X5005000Y-11117952D01*
X5014524Y-11108429D01*
X5033571Y-11079857D01*
X5043095Y-11041762D01*
X5043095Y-10965571D01*
X5033571Y-10946524D01*
X5024048Y-10937000D01*
X5005000Y-10927476D01*
X4966905Y-10927476D01*
X4947857Y-10937000D01*
X4938333Y-10946524D01*
X4928810Y-10965571D01*
X4928810Y-11013190D01*
X4938333Y-11032238D01*
X4947857Y-11041762D01*
X4966905Y-11051286D01*
X5005000Y-11051286D01*
X5024048Y-11041762D01*
X5033571Y-11032238D01*
X5043095Y-11013190D01*
X5224048Y-10927476D02*
X5128810Y-10927476D01*
X5119286Y-11022714D01*
X5128810Y-11013190D01*
X5147857Y-11003667D01*
X5195476Y-11003667D01*
X5214524Y-11013190D01*
X5224048Y-11022714D01*
X5233571Y-11041762D01*
X5233571Y-11089381D01*
X5224048Y-11108429D01*
X5214524Y-11117952D01*
X5195476Y-11127476D01*
X5147857Y-11127476D01*
X5128810Y-11117952D01*
X5119286Y-11108429D01*
X5357381Y-10927476D02*
X5376429Y-10927476D01*
X5395476Y-10937000D01*
X5405000Y-10946524D01*
X5414524Y-10965571D01*
X5424048Y-11003667D01*
X5424048Y-11051286D01*
X5414524Y-11089381D01*
X5405000Y-11108429D01*
X5395476Y-11117952D01*
X5376429Y-11127476D01*
X5357381Y-11127476D01*
X5338333Y-11117952D01*
X5328810Y-11108429D01*
X5319286Y-11089381D01*
X5309762Y-11051286D01*
X5309762Y-11003667D01*
X5319286Y-10965571D01*
X5328810Y-10946524D01*
X5338333Y-10937000D01*
X5357381Y-10927476D01*
X5509762Y-11127476D02*
X5509762Y-10994143D01*
X5509762Y-11013190D02*
X5519286Y-11003667D01*
X5538333Y-10994143D01*
X5566905Y-10994143D01*
X5585952Y-11003667D01*
X5595476Y-11022714D01*
X5595476Y-11127476D01*
X5595476Y-11022714D02*
X5605000Y-11003667D01*
X5624048Y-10994143D01*
X5652619Y-10994143D01*
X5671667Y-11003667D01*
X5681190Y-11022714D01*
X5681190Y-11127476D01*
X5776428Y-11127476D02*
X5776428Y-10994143D01*
X5776428Y-11013190D02*
X5785952Y-11003667D01*
X5805000Y-10994143D01*
X5833571Y-10994143D01*
X5852619Y-11003667D01*
X5862143Y-11022714D01*
X5862143Y-11127476D01*
X5862143Y-11022714D02*
X5871667Y-11003667D01*
X5890714Y-10994143D01*
X5919286Y-10994143D01*
X5938333Y-11003667D01*
X5947857Y-11022714D01*
X5947857Y-11127476D01*
X6338333Y-10917952D02*
X6166905Y-11175095D01*
X6595476Y-10927476D02*
X6614524Y-10927476D01*
X6633571Y-10937000D01*
X6643095Y-10946524D01*
X6652619Y-10965571D01*
X6662143Y-11003667D01*
X6662143Y-11051286D01*
X6652619Y-11089381D01*
X6643095Y-11108429D01*
X6633571Y-11117952D01*
X6614524Y-11127476D01*
X6595476Y-11127476D01*
X6576428Y-11117952D01*
X6566905Y-11108429D01*
X6557381Y-11089381D01*
X6547857Y-11051286D01*
X6547857Y-11003667D01*
X6557381Y-10965571D01*
X6566905Y-10946524D01*
X6576428Y-10937000D01*
X6595476Y-10927476D01*
X6747857Y-11108429D02*
X6757381Y-11117952D01*
X6747857Y-11127476D01*
X6738333Y-11117952D01*
X6747857Y-11108429D01*
X6747857Y-11127476D01*
X6881190Y-10927476D02*
X6900238Y-10927476D01*
X6919286Y-10937000D01*
X6928809Y-10946524D01*
X6938333Y-10965571D01*
X6947857Y-11003667D01*
X6947857Y-11051286D01*
X6938333Y-11089381D01*
X6928809Y-11108429D01*
X6919286Y-11117952D01*
X6900238Y-11127476D01*
X6881190Y-11127476D01*
X6862143Y-11117952D01*
X6852619Y-11108429D01*
X6843095Y-11089381D01*
X6833571Y-11051286D01*
X6833571Y-11003667D01*
X6843095Y-10965571D01*
X6852619Y-10946524D01*
X6862143Y-10937000D01*
X6881190Y-10927476D01*
X7014524Y-10927476D02*
X7138333Y-10927476D01*
X7071667Y-11003667D01*
X7100238Y-11003667D01*
X7119286Y-11013190D01*
X7128809Y-11022714D01*
X7138333Y-11041762D01*
X7138333Y-11089381D01*
X7128809Y-11108429D01*
X7119286Y-11117952D01*
X7100238Y-11127476D01*
X7043095Y-11127476D01*
X7024048Y-11117952D01*
X7014524Y-11108429D01*
X7205000Y-10927476D02*
X7338333Y-10927476D01*
X7252619Y-11127476D01*
X7500238Y-10994143D02*
X7500238Y-11127476D01*
X7452619Y-10917952D02*
X7405000Y-11060810D01*
X7528809Y-11060810D01*
X7595476Y-10927476D02*
X7595476Y-10965571D01*
X7671667Y-10927476D02*
X7671667Y-10965571D01*
X7966905Y-11203667D02*
X7957381Y-11194143D01*
X7938333Y-11165571D01*
X7928809Y-11146524D01*
X7919286Y-11117952D01*
X7909762Y-11070333D01*
X7909762Y-11032238D01*
X7919286Y-10984619D01*
X7928809Y-10956048D01*
X7938333Y-10937000D01*
X7957381Y-10908429D01*
X7966905Y-10898905D01*
X8128809Y-10994143D02*
X8128809Y-11127476D01*
X8081190Y-10917952D02*
X8033571Y-11060810D01*
X8157381Y-11060810D01*
X8214524Y-10927476D02*
X8338333Y-10927476D01*
X8271667Y-11003667D01*
X8300238Y-11003667D01*
X8319286Y-11013190D01*
X8328809Y-11022714D01*
X8338333Y-11041762D01*
X8338333Y-11089381D01*
X8328809Y-11108429D01*
X8319286Y-11117952D01*
X8300238Y-11127476D01*
X8243095Y-11127476D01*
X8224048Y-11117952D01*
X8214524Y-11108429D01*
X8576429Y-11127476D02*
X8576429Y-10927476D01*
X8662143Y-11127476D02*
X8662143Y-11022714D01*
X8652619Y-11003667D01*
X8633571Y-10994143D01*
X8605000Y-10994143D01*
X8585952Y-11003667D01*
X8576429Y-11013190D01*
X8785952Y-11127476D02*
X8766905Y-11117952D01*
X8757381Y-11108429D01*
X8747857Y-11089381D01*
X8747857Y-11032238D01*
X8757381Y-11013190D01*
X8766905Y-11003667D01*
X8785952Y-10994143D01*
X8814524Y-10994143D01*
X8833571Y-11003667D01*
X8843095Y-11013190D01*
X8852619Y-11032238D01*
X8852619Y-11089381D01*
X8843095Y-11108429D01*
X8833571Y-11117952D01*
X8814524Y-11127476D01*
X8785952Y-11127476D01*
X8966905Y-11127476D02*
X8947857Y-11117952D01*
X8938333Y-11098905D01*
X8938333Y-10927476D01*
X9119286Y-11117952D02*
X9100238Y-11127476D01*
X9062143Y-11127476D01*
X9043095Y-11117952D01*
X9033571Y-11098905D01*
X9033571Y-11022714D01*
X9043095Y-11003667D01*
X9062143Y-10994143D01*
X9100238Y-10994143D01*
X9119286Y-11003667D01*
X9128810Y-11022714D01*
X9128810Y-11041762D01*
X9033571Y-11060810D01*
X9205000Y-11117952D02*
X9224048Y-11127476D01*
X9262143Y-11127476D01*
X9281190Y-11117952D01*
X9290714Y-11098905D01*
X9290714Y-11089381D01*
X9281190Y-11070333D01*
X9262143Y-11060810D01*
X9233571Y-11060810D01*
X9214524Y-11051286D01*
X9205000Y-11032238D01*
X9205000Y-11022714D01*
X9214524Y-11003667D01*
X9233571Y-10994143D01*
X9262143Y-10994143D01*
X9281190Y-11003667D01*
X9357381Y-11203667D02*
X9366905Y-11194143D01*
X9385952Y-11165571D01*
X9395476Y-11146524D01*
X9405000Y-11117952D01*
X9414524Y-11070333D01*
X9414524Y-11032238D01*
X9405000Y-10984619D01*
X9395476Y-10956048D01*
X9385952Y-10937000D01*
X9366905Y-10908429D01*
X9357381Y-10898905D01*
D10*
X4345000Y-11351000D02*
X4395000Y-11301000D01*
X4345000Y-11251000D01*
X4295000Y-11301000D01*
X4345000Y-11351000D01*
D11*
X4757381Y-11391476D02*
X4643095Y-11391476D01*
X4700238Y-11391476D02*
X4700238Y-11191476D01*
X4681190Y-11220048D01*
X4662143Y-11239095D01*
X4643095Y-11248619D01*
X4843095Y-11372428D02*
X4852619Y-11381952D01*
X4843095Y-11391476D01*
X4833571Y-11381952D01*
X4843095Y-11372428D01*
X4843095Y-11391476D01*
X4976429Y-11191476D02*
X4995476Y-11191476D01*
X5014524Y-11201000D01*
X5024048Y-11210524D01*
X5033571Y-11229571D01*
X5043095Y-11267667D01*
X5043095Y-11315286D01*
X5033571Y-11353381D01*
X5024048Y-11372428D01*
X5014524Y-11381952D01*
X4995476Y-11391476D01*
X4976429Y-11391476D01*
X4957381Y-11381952D01*
X4947857Y-11372428D01*
X4938333Y-11353381D01*
X4928810Y-11315286D01*
X4928810Y-11267667D01*
X4938333Y-11229571D01*
X4947857Y-11210524D01*
X4957381Y-11201000D01*
X4976429Y-11191476D01*
X5166905Y-11191476D02*
X5185952Y-11191476D01*
X5205000Y-11201000D01*
X5214524Y-11210524D01*
X5224048Y-11229571D01*
X5233571Y-11267667D01*
X5233571Y-11315286D01*
X5224048Y-11353381D01*
X5214524Y-11372428D01*
X5205000Y-11381952D01*
X5185952Y-11391476D01*
X5166905Y-11391476D01*
X5147857Y-11381952D01*
X5138333Y-11372428D01*
X5128810Y-11353381D01*
X5119286Y-11315286D01*
X5119286Y-11267667D01*
X5128810Y-11229571D01*
X5138333Y-11210524D01*
X5147857Y-11201000D01*
X5166905Y-11191476D01*
X5357381Y-11191476D02*
X5376429Y-11191476D01*
X5395476Y-11201000D01*
X5405000Y-11210524D01*
X5414524Y-11229571D01*
X5424048Y-11267667D01*
X5424048Y-11315286D01*
X5414524Y-11353381D01*
X5405000Y-11372428D01*
X5395476Y-11381952D01*
X5376429Y-11391476D01*
X5357381Y-11391476D01*
X5338333Y-11381952D01*
X5328810Y-11372428D01*
X5319286Y-11353381D01*
X5309762Y-11315286D01*
X5309762Y-11267667D01*
X5319286Y-11229571D01*
X5328810Y-11210524D01*
X5338333Y-11201000D01*
X5357381Y-11191476D01*
X5509762Y-11391476D02*
X5509762Y-11258143D01*
X5509762Y-11277190D02*
X5519286Y-11267667D01*
X5538333Y-11258143D01*
X5566905Y-11258143D01*
X5585952Y-11267667D01*
X5595476Y-11286714D01*
X5595476Y-11391476D01*
X5595476Y-11286714D02*
X5605000Y-11267667D01*
X5624048Y-11258143D01*
X5652619Y-11258143D01*
X5671667Y-11267667D01*
X5681190Y-11286714D01*
X5681190Y-11391476D01*
X5776428Y-11391476D02*
X5776428Y-11258143D01*
X5776428Y-11277190D02*
X5785952Y-11267667D01*
X5805000Y-11258143D01*
X5833571Y-11258143D01*
X5852619Y-11267667D01*
X5862143Y-11286714D01*
X5862143Y-11391476D01*
X5862143Y-11286714D02*
X5871667Y-11267667D01*
X5890714Y-11258143D01*
X5919286Y-11258143D01*
X5938333Y-11267667D01*
X5947857Y-11286714D01*
X5947857Y-11391476D01*
X6338333Y-11181952D02*
X6166905Y-11439095D01*
X6595476Y-11191476D02*
X6614524Y-11191476D01*
X6633571Y-11201000D01*
X6643095Y-11210524D01*
X6652619Y-11229571D01*
X6662143Y-11267667D01*
X6662143Y-11315286D01*
X6652619Y-11353381D01*
X6643095Y-11372428D01*
X6633571Y-11381952D01*
X6614524Y-11391476D01*
X6595476Y-11391476D01*
X6576428Y-11381952D01*
X6566905Y-11372428D01*
X6557381Y-11353381D01*
X6547857Y-11315286D01*
X6547857Y-11267667D01*
X6557381Y-11229571D01*
X6566905Y-11210524D01*
X6576428Y-11201000D01*
X6595476Y-11191476D01*
X6747857Y-11372428D02*
X6757381Y-11381952D01*
X6747857Y-11391476D01*
X6738333Y-11381952D01*
X6747857Y-11372428D01*
X6747857Y-11391476D01*
X6881190Y-11191476D02*
X6900238Y-11191476D01*
X6919286Y-11201000D01*
X6928809Y-11210524D01*
X6938333Y-11229571D01*
X6947857Y-11267667D01*
X6947857Y-11315286D01*
X6938333Y-11353381D01*
X6928809Y-11372428D01*
X6919286Y-11381952D01*
X6900238Y-11391476D01*
X6881190Y-11391476D01*
X6862143Y-11381952D01*
X6852619Y-11372428D01*
X6843095Y-11353381D01*
X6833571Y-11315286D01*
X6833571Y-11267667D01*
X6843095Y-11229571D01*
X6852619Y-11210524D01*
X6862143Y-11201000D01*
X6881190Y-11191476D01*
X7014524Y-11191476D02*
X7138333Y-11191476D01*
X7071667Y-11267667D01*
X7100238Y-11267667D01*
X7119286Y-11277190D01*
X7128809Y-11286714D01*
X7138333Y-11305762D01*
X7138333Y-11353381D01*
X7128809Y-11372428D01*
X7119286Y-11381952D01*
X7100238Y-11391476D01*
X7043095Y-11391476D01*
X7024048Y-11381952D01*
X7014524Y-11372428D01*
X7233571Y-11391476D02*
X7271667Y-11391476D01*
X7290714Y-11381952D01*
X7300238Y-11372428D01*
X7319286Y-11343857D01*
X7328809Y-11305762D01*
X7328809Y-11229571D01*
X7319286Y-11210524D01*
X7309762Y-11201000D01*
X7290714Y-11191476D01*
X7252619Y-11191476D01*
X7233571Y-11201000D01*
X7224048Y-11210524D01*
X7214524Y-11229571D01*
X7214524Y-11277190D01*
X7224048Y-11296238D01*
X7233571Y-11305762D01*
X7252619Y-11315286D01*
X7290714Y-11315286D01*
X7309762Y-11305762D01*
X7319286Y-11296238D01*
X7328809Y-11277190D01*
X7500238Y-11258143D02*
X7500238Y-11391476D01*
X7452619Y-11181952D02*
X7405000Y-11324809D01*
X7528809Y-11324809D01*
X7595476Y-11191476D02*
X7595476Y-11229571D01*
X7671667Y-11191476D02*
X7671667Y-11229571D01*
X7966905Y-11467667D02*
X7957381Y-11458143D01*
X7938333Y-11429571D01*
X7928809Y-11410524D01*
X7919286Y-11381952D01*
X7909762Y-11334333D01*
X7909762Y-11296238D01*
X7919286Y-11248619D01*
X7928809Y-11220048D01*
X7938333Y-11201000D01*
X7957381Y-11172429D01*
X7966905Y-11162905D01*
X8033571Y-11210524D02*
X8043095Y-11201000D01*
X8062143Y-11191476D01*
X8109762Y-11191476D01*
X8128809Y-11201000D01*
X8138333Y-11210524D01*
X8147857Y-11229571D01*
X8147857Y-11248619D01*
X8138333Y-11277190D01*
X8024048Y-11391476D01*
X8147857Y-11391476D01*
X8385952Y-11391476D02*
X8385952Y-11191476D01*
X8471667Y-11391476D02*
X8471667Y-11286714D01*
X8462143Y-11267667D01*
X8443095Y-11258143D01*
X8414524Y-11258143D01*
X8395476Y-11267667D01*
X8385952Y-11277190D01*
X8595476Y-11391476D02*
X8576429Y-11381952D01*
X8566905Y-11372428D01*
X8557381Y-11353381D01*
X8557381Y-11296238D01*
X8566905Y-11277190D01*
X8576429Y-11267667D01*
X8595476Y-11258143D01*
X8624048Y-11258143D01*
X8643095Y-11267667D01*
X8652619Y-11277190D01*
X8662143Y-11296238D01*
X8662143Y-11353381D01*
X8652619Y-11372428D01*
X8643095Y-11381952D01*
X8624048Y-11391476D01*
X8595476Y-11391476D01*
X8776429Y-11391476D02*
X8757381Y-11381952D01*
X8747857Y-11362905D01*
X8747857Y-11191476D01*
X8928810Y-11381952D02*
X8909762Y-11391476D01*
X8871667Y-11391476D01*
X8852619Y-11381952D01*
X8843095Y-11362905D01*
X8843095Y-11286714D01*
X8852619Y-11267667D01*
X8871667Y-11258143D01*
X8909762Y-11258143D01*
X8928810Y-11267667D01*
X8938333Y-11286714D01*
X8938333Y-11305762D01*
X8843095Y-11324809D01*
X9014524Y-11381952D02*
X9033571Y-11391476D01*
X9071667Y-11391476D01*
X9090714Y-11381952D01*
X9100238Y-11362905D01*
X9100238Y-11353381D01*
X9090714Y-11334333D01*
X9071667Y-11324809D01*
X9043095Y-11324809D01*
X9024048Y-11315286D01*
X9014524Y-11296238D01*
X9014524Y-11286714D01*
X9024048Y-11267667D01*
X9043095Y-11258143D01*
X9071667Y-11258143D01*
X9090714Y-11267667D01*
X9166905Y-11467667D02*
X9176429Y-11458143D01*
X9195476Y-11429571D01*
X9205000Y-11410524D01*
X9214524Y-11381952D01*
X9224048Y-11334333D01*
X9224048Y-11296238D01*
X9214524Y-11248619D01*
X9205000Y-11220048D01*
X9195476Y-11201000D01*
X9176429Y-11172429D01*
X9166905Y-11162905D01*
X4195000Y-11465000D02*
X4395000Y-11665000D01*
X4395000Y-11465000D02*
X4195000Y-11665000D01*
X4395000Y-11565000D02*
G75*
G03*
X4395000Y-11565000I-100000J0D01*
G01*
X4633571Y-11455476D02*
X4757381Y-11455476D01*
X4690714Y-11531667D01*
X4719286Y-11531667D01*
X4738333Y-11541190D01*
X4747857Y-11550714D01*
X4757381Y-11569762D01*
X4757381Y-11617381D01*
X4747857Y-11636428D01*
X4738333Y-11645952D01*
X4719286Y-11655476D01*
X4662143Y-11655476D01*
X4643095Y-11645952D01*
X4633571Y-11636428D01*
X4843095Y-11636428D02*
X4852619Y-11645952D01*
X4843095Y-11655476D01*
X4833571Y-11645952D01*
X4843095Y-11636428D01*
X4843095Y-11655476D01*
X4928810Y-11474524D02*
X4938333Y-11465000D01*
X4957381Y-11455476D01*
X5005000Y-11455476D01*
X5024048Y-11465000D01*
X5033571Y-11474524D01*
X5043095Y-11493571D01*
X5043095Y-11512619D01*
X5033571Y-11541190D01*
X4919286Y-11655476D01*
X5043095Y-11655476D01*
X5166905Y-11455476D02*
X5185952Y-11455476D01*
X5205000Y-11465000D01*
X5214524Y-11474524D01*
X5224048Y-11493571D01*
X5233571Y-11531667D01*
X5233571Y-11579286D01*
X5224048Y-11617381D01*
X5214524Y-11636428D01*
X5205000Y-11645952D01*
X5185952Y-11655476D01*
X5166905Y-11655476D01*
X5147857Y-11645952D01*
X5138333Y-11636428D01*
X5128810Y-11617381D01*
X5119286Y-11579286D01*
X5119286Y-11531667D01*
X5128810Y-11493571D01*
X5138333Y-11474524D01*
X5147857Y-11465000D01*
X5166905Y-11455476D01*
X5357381Y-11455476D02*
X5376429Y-11455476D01*
X5395476Y-11465000D01*
X5405000Y-11474524D01*
X5414524Y-11493571D01*
X5424048Y-11531667D01*
X5424048Y-11579286D01*
X5414524Y-11617381D01*
X5405000Y-11636428D01*
X5395476Y-11645952D01*
X5376429Y-11655476D01*
X5357381Y-11655476D01*
X5338333Y-11645952D01*
X5328810Y-11636428D01*
X5319286Y-11617381D01*
X5309762Y-11579286D01*
X5309762Y-11531667D01*
X5319286Y-11493571D01*
X5328810Y-11474524D01*
X5338333Y-11465000D01*
X5357381Y-11455476D01*
X5509762Y-11655476D02*
X5509762Y-11522143D01*
X5509762Y-11541190D02*
X5519286Y-11531667D01*
X5538333Y-11522143D01*
X5566905Y-11522143D01*
X5585952Y-11531667D01*
X5595476Y-11550714D01*
X5595476Y-11655476D01*
X5595476Y-11550714D02*
X5605000Y-11531667D01*
X5624048Y-11522143D01*
X5652619Y-11522143D01*
X5671667Y-11531667D01*
X5681190Y-11550714D01*
X5681190Y-11655476D01*
X5776428Y-11655476D02*
X5776428Y-11522143D01*
X5776428Y-11541190D02*
X5785952Y-11531667D01*
X5805000Y-11522143D01*
X5833571Y-11522143D01*
X5852619Y-11531667D01*
X5862143Y-11550714D01*
X5862143Y-11655476D01*
X5862143Y-11550714D02*
X5871667Y-11531667D01*
X5890714Y-11522143D01*
X5919286Y-11522143D01*
X5938333Y-11531667D01*
X5947857Y-11550714D01*
X5947857Y-11655476D01*
X6338333Y-11445952D02*
X6166905Y-11703095D01*
X6595476Y-11455476D02*
X6614524Y-11455476D01*
X6633571Y-11465000D01*
X6643095Y-11474524D01*
X6652619Y-11493571D01*
X6662143Y-11531667D01*
X6662143Y-11579286D01*
X6652619Y-11617381D01*
X6643095Y-11636428D01*
X6633571Y-11645952D01*
X6614524Y-11655476D01*
X6595476Y-11655476D01*
X6576428Y-11645952D01*
X6566905Y-11636428D01*
X6557381Y-11617381D01*
X6547857Y-11579286D01*
X6547857Y-11531667D01*
X6557381Y-11493571D01*
X6566905Y-11474524D01*
X6576428Y-11465000D01*
X6595476Y-11455476D01*
X6747857Y-11636428D02*
X6757381Y-11645952D01*
X6747857Y-11655476D01*
X6738333Y-11645952D01*
X6747857Y-11636428D01*
X6747857Y-11655476D01*
X6947857Y-11655476D02*
X6833571Y-11655476D01*
X6890714Y-11655476D02*
X6890714Y-11455476D01*
X6871667Y-11484048D01*
X6852619Y-11503095D01*
X6833571Y-11512619D01*
X7024048Y-11474524D02*
X7033571Y-11465000D01*
X7052619Y-11455476D01*
X7100238Y-11455476D01*
X7119286Y-11465000D01*
X7128809Y-11474524D01*
X7138333Y-11493571D01*
X7138333Y-11512619D01*
X7128809Y-11541190D01*
X7014524Y-11655476D01*
X7138333Y-11655476D01*
X7309762Y-11455476D02*
X7271667Y-11455476D01*
X7252619Y-11465000D01*
X7243095Y-11474524D01*
X7224048Y-11503095D01*
X7214524Y-11541190D01*
X7214524Y-11617381D01*
X7224048Y-11636428D01*
X7233571Y-11645952D01*
X7252619Y-11655476D01*
X7290714Y-11655476D01*
X7309762Y-11645952D01*
X7319286Y-11636428D01*
X7328809Y-11617381D01*
X7328809Y-11569762D01*
X7319286Y-11550714D01*
X7309762Y-11541190D01*
X7290714Y-11531667D01*
X7252619Y-11531667D01*
X7233571Y-11541190D01*
X7224048Y-11550714D01*
X7214524Y-11569762D01*
X7452619Y-11455476D02*
X7471667Y-11455476D01*
X7490714Y-11465000D01*
X7500238Y-11474524D01*
X7509762Y-11493571D01*
X7519286Y-11531667D01*
X7519286Y-11579286D01*
X7509762Y-11617381D01*
X7500238Y-11636428D01*
X7490714Y-11645952D01*
X7471667Y-11655476D01*
X7452619Y-11655476D01*
X7433571Y-11645952D01*
X7424048Y-11636428D01*
X7414524Y-11617381D01*
X7405000Y-11579286D01*
X7405000Y-11531667D01*
X7414524Y-11493571D01*
X7424048Y-11474524D01*
X7433571Y-11465000D01*
X7452619Y-11455476D01*
X7595476Y-11455476D02*
X7595476Y-11493571D01*
X7671667Y-11455476D02*
X7671667Y-11493571D01*
X7966905Y-11731667D02*
X7957381Y-11722143D01*
X7938333Y-11693571D01*
X7928809Y-11674524D01*
X7919286Y-11645952D01*
X7909762Y-11598333D01*
X7909762Y-11560238D01*
X7919286Y-11512619D01*
X7928809Y-11484048D01*
X7938333Y-11465000D01*
X7957381Y-11436428D01*
X7966905Y-11426905D01*
X8128809Y-11522143D02*
X8128809Y-11655476D01*
X8081190Y-11445952D02*
X8033571Y-11588809D01*
X8157381Y-11588809D01*
X8385952Y-11655476D02*
X8385952Y-11455476D01*
X8471667Y-11655476D02*
X8471667Y-11550714D01*
X8462143Y-11531667D01*
X8443095Y-11522143D01*
X8414524Y-11522143D01*
X8395476Y-11531667D01*
X8385952Y-11541190D01*
X8595476Y-11655476D02*
X8576429Y-11645952D01*
X8566905Y-11636428D01*
X8557381Y-11617381D01*
X8557381Y-11560238D01*
X8566905Y-11541190D01*
X8576429Y-11531667D01*
X8595476Y-11522143D01*
X8624048Y-11522143D01*
X8643095Y-11531667D01*
X8652619Y-11541190D01*
X8662143Y-11560238D01*
X8662143Y-11617381D01*
X8652619Y-11636428D01*
X8643095Y-11645952D01*
X8624048Y-11655476D01*
X8595476Y-11655476D01*
X8776429Y-11655476D02*
X8757381Y-11645952D01*
X8747857Y-11626905D01*
X8747857Y-11455476D01*
X8928810Y-11645952D02*
X8909762Y-11655476D01*
X8871667Y-11655476D01*
X8852619Y-11645952D01*
X8843095Y-11626905D01*
X8843095Y-11550714D01*
X8852619Y-11531667D01*
X8871667Y-11522143D01*
X8909762Y-11522143D01*
X8928810Y-11531667D01*
X8938333Y-11550714D01*
X8938333Y-11569762D01*
X8843095Y-11588809D01*
X9014524Y-11645952D02*
X9033571Y-11655476D01*
X9071667Y-11655476D01*
X9090714Y-11645952D01*
X9100238Y-11626905D01*
X9100238Y-11617381D01*
X9090714Y-11598333D01*
X9071667Y-11588809D01*
X9043095Y-11588809D01*
X9024048Y-11579286D01*
X9014524Y-11560238D01*
X9014524Y-11550714D01*
X9024048Y-11531667D01*
X9043095Y-11522143D01*
X9071667Y-11522143D01*
X9090714Y-11531667D01*
X9166905Y-11731667D02*
X9176429Y-11722143D01*
X9195476Y-11693571D01*
X9205000Y-11674524D01*
X9214524Y-11645952D01*
X9224048Y-11598333D01*
X9224048Y-11560238D01*
X9214524Y-11512619D01*
X9205000Y-11484048D01*
X9195476Y-11465000D01*
X9176429Y-11436428D01*
X9166905Y-11426905D01*
M02*
