%TF.GenerationSoftware,KiCad,Pcbnew,(6.0.7-1)-1*%
%TF.CreationDate,2022-10-27T13:07:48+02:00*%
%TF.ProjectId,Beerator,42656572-6174-46f7-922e-6b696361645f,rev?*%
%TF.SameCoordinates,Original*%
%TF.FileFunction,Drillmap*%
%TF.FilePolarity,Positive*%
%FSLAX45Y45*%
G04 Gerber Fmt 4.5, Leading zero omitted, Abs format (unit mm)*
G04 Created by KiCad (PCBNEW (6.0.7-1)-1) date 2022-10-27 13:07:48*
%MOMM*%
%LPD*%
G01*
G04 APERTURE LIST*
%ADD10C,0.100000*%
%ADD11C,0.200000*%
%ADD12C,0.120000*%
G04 APERTURE END LIST*
D10*
X15000000Y-9600000D02*
X5000000Y-9600000D01*
X4400000Y-9000000D02*
X4400000Y-5000000D01*
X5000000Y-4400000D02*
G75*
G03*
X4400000Y-5000000I0J-600000D01*
G01*
X5000000Y-4400000D02*
X15000000Y-4400000D01*
X15000000Y-9600000D02*
G75*
G03*
X15600000Y-9000000I0J600000D01*
G01*
X15600000Y-5000000D02*
X15600000Y-9000000D01*
X4400000Y-9000000D02*
G75*
G03*
X5000000Y-9600000I600000J0D01*
G01*
X15600000Y-5000000D02*
G75*
G03*
X15000000Y-4400000I-600000J0D01*
G01*
D11*
D12*
X5120000Y-6410000D02*
X5240000Y-6530000D01*
X5240000Y-6410000D02*
X5120000Y-6530000D01*
X5590000Y-4940000D02*
X5710000Y-5060000D01*
X5710000Y-4940000D02*
X5590000Y-5060000D01*
X7270000Y-8987500D02*
X7390000Y-9107500D01*
X7390000Y-8987500D02*
X7270000Y-9107500D01*
X7500000Y-4967500D02*
X7620000Y-5087500D01*
X7620000Y-4967500D02*
X7500000Y-5087500D01*
X8450000Y-8987500D02*
X8570000Y-9107500D01*
X8570000Y-8987500D02*
X8450000Y-9107500D01*
X9735000Y-8967500D02*
X9855000Y-9087500D01*
X9855000Y-8967500D02*
X9735000Y-9087500D01*
X10280000Y-4700000D02*
X10400000Y-4820000D01*
X10400000Y-4700000D02*
X10280000Y-4820000D01*
X10760000Y-5027500D02*
X10880000Y-5147500D01*
X10880000Y-5027500D02*
X10760000Y-5147500D01*
X14080000Y-4620000D02*
X14200000Y-4740000D01*
X14200000Y-4620000D02*
X14080000Y-4740000D01*
X14662000Y-6327500D02*
X14782000Y-6447500D01*
X14782000Y-6327500D02*
X14662000Y-6447500D01*
D11*
X4652619Y-9915476D02*
X4652619Y-9715476D01*
X4700238Y-9715476D01*
X4728810Y-9725000D01*
X4747857Y-9744048D01*
X4757381Y-9763095D01*
X4766905Y-9801190D01*
X4766905Y-9829762D01*
X4757381Y-9867857D01*
X4747857Y-9886905D01*
X4728810Y-9905952D01*
X4700238Y-9915476D01*
X4652619Y-9915476D01*
X4852619Y-9915476D02*
X4852619Y-9782143D01*
X4852619Y-9820238D02*
X4862143Y-9801190D01*
X4871667Y-9791667D01*
X4890714Y-9782143D01*
X4909762Y-9782143D01*
X4976429Y-9915476D02*
X4976429Y-9782143D01*
X4976429Y-9715476D02*
X4966905Y-9725000D01*
X4976429Y-9734524D01*
X4985952Y-9725000D01*
X4976429Y-9715476D01*
X4976429Y-9734524D01*
X5100238Y-9915476D02*
X5081190Y-9905952D01*
X5071667Y-9886905D01*
X5071667Y-9715476D01*
X5205000Y-9915476D02*
X5185952Y-9905952D01*
X5176429Y-9886905D01*
X5176429Y-9715476D01*
X5433571Y-9915476D02*
X5433571Y-9715476D01*
X5500238Y-9858333D01*
X5566905Y-9715476D01*
X5566905Y-9915476D01*
X5747857Y-9915476D02*
X5747857Y-9810714D01*
X5738333Y-9791667D01*
X5719286Y-9782143D01*
X5681190Y-9782143D01*
X5662143Y-9791667D01*
X5747857Y-9905952D02*
X5728809Y-9915476D01*
X5681190Y-9915476D01*
X5662143Y-9905952D01*
X5652619Y-9886905D01*
X5652619Y-9867857D01*
X5662143Y-9848810D01*
X5681190Y-9839286D01*
X5728809Y-9839286D01*
X5747857Y-9829762D01*
X5843095Y-9782143D02*
X5843095Y-9982143D01*
X5843095Y-9791667D02*
X5862143Y-9782143D01*
X5900238Y-9782143D01*
X5919286Y-9791667D01*
X5928809Y-9801190D01*
X5938333Y-9820238D01*
X5938333Y-9877381D01*
X5928809Y-9896429D01*
X5919286Y-9905952D01*
X5900238Y-9915476D01*
X5862143Y-9915476D01*
X5843095Y-9905952D01*
X6024048Y-9896429D02*
X6033571Y-9905952D01*
X6024048Y-9915476D01*
X6014524Y-9905952D01*
X6024048Y-9896429D01*
X6024048Y-9915476D01*
X6024048Y-9791667D02*
X6033571Y-9801190D01*
X6024048Y-9810714D01*
X6014524Y-9801190D01*
X6024048Y-9791667D01*
X6024048Y-9810714D01*
D12*
X4275000Y-10185000D02*
X4395000Y-10305000D01*
X4395000Y-10185000D02*
X4275000Y-10305000D01*
D11*
X4757381Y-10335476D02*
X4643095Y-10335476D01*
X4700238Y-10335476D02*
X4700238Y-10135476D01*
X4681190Y-10164048D01*
X4662143Y-10183095D01*
X4643095Y-10192619D01*
X4843095Y-10316429D02*
X4852619Y-10325952D01*
X4843095Y-10335476D01*
X4833571Y-10325952D01*
X4843095Y-10316429D01*
X4843095Y-10335476D01*
X4928810Y-10154524D02*
X4938333Y-10145000D01*
X4957381Y-10135476D01*
X5005000Y-10135476D01*
X5024048Y-10145000D01*
X5033571Y-10154524D01*
X5043095Y-10173571D01*
X5043095Y-10192619D01*
X5033571Y-10221190D01*
X4919286Y-10335476D01*
X5043095Y-10335476D01*
X5166905Y-10135476D02*
X5185952Y-10135476D01*
X5205000Y-10145000D01*
X5214524Y-10154524D01*
X5224048Y-10173571D01*
X5233571Y-10211667D01*
X5233571Y-10259286D01*
X5224048Y-10297381D01*
X5214524Y-10316429D01*
X5205000Y-10325952D01*
X5185952Y-10335476D01*
X5166905Y-10335476D01*
X5147857Y-10325952D01*
X5138333Y-10316429D01*
X5128810Y-10297381D01*
X5119286Y-10259286D01*
X5119286Y-10211667D01*
X5128810Y-10173571D01*
X5138333Y-10154524D01*
X5147857Y-10145000D01*
X5166905Y-10135476D01*
X5357381Y-10135476D02*
X5376429Y-10135476D01*
X5395476Y-10145000D01*
X5405000Y-10154524D01*
X5414524Y-10173571D01*
X5424048Y-10211667D01*
X5424048Y-10259286D01*
X5414524Y-10297381D01*
X5405000Y-10316429D01*
X5395476Y-10325952D01*
X5376429Y-10335476D01*
X5357381Y-10335476D01*
X5338333Y-10325952D01*
X5328810Y-10316429D01*
X5319286Y-10297381D01*
X5309762Y-10259286D01*
X5309762Y-10211667D01*
X5319286Y-10173571D01*
X5328810Y-10154524D01*
X5338333Y-10145000D01*
X5357381Y-10135476D01*
X5509762Y-10335476D02*
X5509762Y-10202143D01*
X5509762Y-10221190D02*
X5519286Y-10211667D01*
X5538333Y-10202143D01*
X5566905Y-10202143D01*
X5585952Y-10211667D01*
X5595476Y-10230714D01*
X5595476Y-10335476D01*
X5595476Y-10230714D02*
X5605000Y-10211667D01*
X5624048Y-10202143D01*
X5652619Y-10202143D01*
X5671667Y-10211667D01*
X5681190Y-10230714D01*
X5681190Y-10335476D01*
X5776428Y-10335476D02*
X5776428Y-10202143D01*
X5776428Y-10221190D02*
X5785952Y-10211667D01*
X5805000Y-10202143D01*
X5833571Y-10202143D01*
X5852619Y-10211667D01*
X5862143Y-10230714D01*
X5862143Y-10335476D01*
X5862143Y-10230714D02*
X5871667Y-10211667D01*
X5890714Y-10202143D01*
X5919286Y-10202143D01*
X5938333Y-10211667D01*
X5947857Y-10230714D01*
X5947857Y-10335476D01*
X6338333Y-10125952D02*
X6166905Y-10383095D01*
X6595476Y-10135476D02*
X6614524Y-10135476D01*
X6633571Y-10145000D01*
X6643095Y-10154524D01*
X6652619Y-10173571D01*
X6662143Y-10211667D01*
X6662143Y-10259286D01*
X6652619Y-10297381D01*
X6643095Y-10316429D01*
X6633571Y-10325952D01*
X6614524Y-10335476D01*
X6595476Y-10335476D01*
X6576428Y-10325952D01*
X6566905Y-10316429D01*
X6557381Y-10297381D01*
X6547857Y-10259286D01*
X6547857Y-10211667D01*
X6557381Y-10173571D01*
X6566905Y-10154524D01*
X6576428Y-10145000D01*
X6595476Y-10135476D01*
X6747857Y-10316429D02*
X6757381Y-10325952D01*
X6747857Y-10335476D01*
X6738333Y-10325952D01*
X6747857Y-10316429D01*
X6747857Y-10335476D01*
X6881190Y-10135476D02*
X6900238Y-10135476D01*
X6919286Y-10145000D01*
X6928809Y-10154524D01*
X6938333Y-10173571D01*
X6947857Y-10211667D01*
X6947857Y-10259286D01*
X6938333Y-10297381D01*
X6928809Y-10316429D01*
X6919286Y-10325952D01*
X6900238Y-10335476D01*
X6881190Y-10335476D01*
X6862143Y-10325952D01*
X6852619Y-10316429D01*
X6843095Y-10297381D01*
X6833571Y-10259286D01*
X6833571Y-10211667D01*
X6843095Y-10173571D01*
X6852619Y-10154524D01*
X6862143Y-10145000D01*
X6881190Y-10135476D01*
X7119286Y-10202143D02*
X7119286Y-10335476D01*
X7071667Y-10125952D02*
X7024048Y-10268810D01*
X7147857Y-10268810D01*
X7205000Y-10135476D02*
X7338333Y-10135476D01*
X7252619Y-10335476D01*
X7405000Y-10154524D02*
X7414524Y-10145000D01*
X7433571Y-10135476D01*
X7481190Y-10135476D01*
X7500238Y-10145000D01*
X7509762Y-10154524D01*
X7519286Y-10173571D01*
X7519286Y-10192619D01*
X7509762Y-10221190D01*
X7395476Y-10335476D01*
X7519286Y-10335476D01*
X7595476Y-10135476D02*
X7595476Y-10173571D01*
X7671667Y-10135476D02*
X7671667Y-10173571D01*
X7966905Y-10411667D02*
X7957381Y-10402143D01*
X7938333Y-10373571D01*
X7928809Y-10354524D01*
X7919286Y-10325952D01*
X7909762Y-10278333D01*
X7909762Y-10240238D01*
X7919286Y-10192619D01*
X7928809Y-10164048D01*
X7938333Y-10145000D01*
X7957381Y-10116429D01*
X7966905Y-10106905D01*
X8147857Y-10335476D02*
X8033571Y-10335476D01*
X8090714Y-10335476D02*
X8090714Y-10135476D01*
X8071667Y-10164048D01*
X8052619Y-10183095D01*
X8033571Y-10192619D01*
X8271667Y-10135476D02*
X8290714Y-10135476D01*
X8309762Y-10145000D01*
X8319286Y-10154524D01*
X8328809Y-10173571D01*
X8338333Y-10211667D01*
X8338333Y-10259286D01*
X8328809Y-10297381D01*
X8319286Y-10316429D01*
X8309762Y-10325952D01*
X8290714Y-10335476D01*
X8271667Y-10335476D01*
X8252619Y-10325952D01*
X8243095Y-10316429D01*
X8233571Y-10297381D01*
X8224048Y-10259286D01*
X8224048Y-10211667D01*
X8233571Y-10173571D01*
X8243095Y-10154524D01*
X8252619Y-10145000D01*
X8271667Y-10135476D01*
X8576429Y-10335476D02*
X8576429Y-10135476D01*
X8662143Y-10335476D02*
X8662143Y-10230714D01*
X8652619Y-10211667D01*
X8633571Y-10202143D01*
X8605000Y-10202143D01*
X8585952Y-10211667D01*
X8576429Y-10221190D01*
X8785952Y-10335476D02*
X8766905Y-10325952D01*
X8757381Y-10316429D01*
X8747857Y-10297381D01*
X8747857Y-10240238D01*
X8757381Y-10221190D01*
X8766905Y-10211667D01*
X8785952Y-10202143D01*
X8814524Y-10202143D01*
X8833571Y-10211667D01*
X8843095Y-10221190D01*
X8852619Y-10240238D01*
X8852619Y-10297381D01*
X8843095Y-10316429D01*
X8833571Y-10325952D01*
X8814524Y-10335476D01*
X8785952Y-10335476D01*
X8966905Y-10335476D02*
X8947857Y-10325952D01*
X8938333Y-10306905D01*
X8938333Y-10135476D01*
X9119286Y-10325952D02*
X9100238Y-10335476D01*
X9062143Y-10335476D01*
X9043095Y-10325952D01*
X9033571Y-10306905D01*
X9033571Y-10230714D01*
X9043095Y-10211667D01*
X9062143Y-10202143D01*
X9100238Y-10202143D01*
X9119286Y-10211667D01*
X9128810Y-10230714D01*
X9128810Y-10249762D01*
X9033571Y-10268810D01*
X9205000Y-10325952D02*
X9224048Y-10335476D01*
X9262143Y-10335476D01*
X9281190Y-10325952D01*
X9290714Y-10306905D01*
X9290714Y-10297381D01*
X9281190Y-10278333D01*
X9262143Y-10268810D01*
X9233571Y-10268810D01*
X9214524Y-10259286D01*
X9205000Y-10240238D01*
X9205000Y-10230714D01*
X9214524Y-10211667D01*
X9233571Y-10202143D01*
X9262143Y-10202143D01*
X9281190Y-10211667D01*
X9357381Y-10411667D02*
X9366905Y-10402143D01*
X9385952Y-10373571D01*
X9395476Y-10354524D01*
X9405000Y-10325952D01*
X9414524Y-10278333D01*
X9414524Y-10240238D01*
X9405000Y-10192619D01*
X9395476Y-10164048D01*
X9385952Y-10145000D01*
X9366905Y-10116429D01*
X9357381Y-10106905D01*
X9719286Y-10411667D02*
X9709762Y-10402143D01*
X9690714Y-10373571D01*
X9681190Y-10354524D01*
X9671667Y-10325952D01*
X9662143Y-10278333D01*
X9662143Y-10240238D01*
X9671667Y-10192619D01*
X9681190Y-10164048D01*
X9690714Y-10145000D01*
X9709762Y-10116429D01*
X9719286Y-10106905D01*
X9795476Y-10202143D02*
X9795476Y-10335476D01*
X9795476Y-10221190D02*
X9805000Y-10211667D01*
X9824048Y-10202143D01*
X9852619Y-10202143D01*
X9871667Y-10211667D01*
X9881190Y-10230714D01*
X9881190Y-10335476D01*
X10005000Y-10335476D02*
X9985952Y-10325952D01*
X9976429Y-10316429D01*
X9966905Y-10297381D01*
X9966905Y-10240238D01*
X9976429Y-10221190D01*
X9985952Y-10211667D01*
X10005000Y-10202143D01*
X10033571Y-10202143D01*
X10052619Y-10211667D01*
X10062143Y-10221190D01*
X10071667Y-10240238D01*
X10071667Y-10297381D01*
X10062143Y-10316429D01*
X10052619Y-10325952D01*
X10033571Y-10335476D01*
X10005000Y-10335476D01*
X10128810Y-10202143D02*
X10205000Y-10202143D01*
X10157381Y-10135476D02*
X10157381Y-10306905D01*
X10166905Y-10325952D01*
X10185952Y-10335476D01*
X10205000Y-10335476D01*
X10424048Y-10202143D02*
X10424048Y-10402143D01*
X10424048Y-10211667D02*
X10443095Y-10202143D01*
X10481190Y-10202143D01*
X10500238Y-10211667D01*
X10509762Y-10221190D01*
X10519286Y-10240238D01*
X10519286Y-10297381D01*
X10509762Y-10316429D01*
X10500238Y-10325952D01*
X10481190Y-10335476D01*
X10443095Y-10335476D01*
X10424048Y-10325952D01*
X10633571Y-10335476D02*
X10614524Y-10325952D01*
X10605000Y-10306905D01*
X10605000Y-10135476D01*
X10795476Y-10335476D02*
X10795476Y-10230714D01*
X10785952Y-10211667D01*
X10766905Y-10202143D01*
X10728810Y-10202143D01*
X10709762Y-10211667D01*
X10795476Y-10325952D02*
X10776429Y-10335476D01*
X10728810Y-10335476D01*
X10709762Y-10325952D01*
X10700238Y-10306905D01*
X10700238Y-10287857D01*
X10709762Y-10268810D01*
X10728810Y-10259286D01*
X10776429Y-10259286D01*
X10795476Y-10249762D01*
X10862143Y-10202143D02*
X10938333Y-10202143D01*
X10890714Y-10135476D02*
X10890714Y-10306905D01*
X10900238Y-10325952D01*
X10919286Y-10335476D01*
X10938333Y-10335476D01*
X11081190Y-10325952D02*
X11062143Y-10335476D01*
X11024048Y-10335476D01*
X11005000Y-10325952D01*
X10995476Y-10306905D01*
X10995476Y-10230714D01*
X11005000Y-10211667D01*
X11024048Y-10202143D01*
X11062143Y-10202143D01*
X11081190Y-10211667D01*
X11090714Y-10230714D01*
X11090714Y-10249762D01*
X10995476Y-10268810D01*
X11262143Y-10335476D02*
X11262143Y-10135476D01*
X11262143Y-10325952D02*
X11243095Y-10335476D01*
X11205000Y-10335476D01*
X11185952Y-10325952D01*
X11176429Y-10316429D01*
X11166905Y-10297381D01*
X11166905Y-10240238D01*
X11176429Y-10221190D01*
X11185952Y-10211667D01*
X11205000Y-10202143D01*
X11243095Y-10202143D01*
X11262143Y-10211667D01*
X11338333Y-10411667D02*
X11347857Y-10402143D01*
X11366905Y-10373571D01*
X11376428Y-10354524D01*
X11385952Y-10325952D01*
X11395476Y-10278333D01*
X11395476Y-10240238D01*
X11385952Y-10192619D01*
X11376428Y-10164048D01*
X11366905Y-10145000D01*
X11347857Y-10116429D01*
X11338333Y-10106905D01*
M02*
