%TF.GenerationSoftware,KiCad,Pcbnew,(6.0.7-1)-1*%
%TF.CreationDate,2022-10-27T13:07:38+02:00*%
%TF.ProjectId,Beerator,42656572-6174-46f7-922e-6b696361645f,rev?*%
%TF.SameCoordinates,Original*%
%TF.FileFunction,Copper,L2,Inr*%
%TF.FilePolarity,Positive*%
%FSLAX46Y46*%
G04 Gerber Fmt 4.6, Leading zero omitted, Abs format (unit mm)*
G04 Created by KiCad (PCBNEW (6.0.7-1)-1) date 2022-10-27 13:07:38*
%MOMM*%
%LPD*%
G01*
G04 APERTURE LIST*
G04 Aperture macros list*
%AMRoundRect*
0 Rectangle with rounded corners*
0 $1 Rounding radius*
0 $2 $3 $4 $5 $6 $7 $8 $9 X,Y pos of 4 corners*
0 Add a 4 corners polygon primitive as box body*
4,1,4,$2,$3,$4,$5,$6,$7,$8,$9,$2,$3,0*
0 Add four circle primitives for the rounded corners*
1,1,$1+$1,$2,$3*
1,1,$1+$1,$4,$5*
1,1,$1+$1,$6,$7*
1,1,$1+$1,$8,$9*
0 Add four rect primitives between the rounded corners*
20,1,$1+$1,$2,$3,$4,$5,0*
20,1,$1+$1,$4,$5,$6,$7,0*
20,1,$1+$1,$6,$7,$8,$9,0*
20,1,$1+$1,$8,$9,$2,$3,0*%
G04 Aperture macros list end*
%ADD10C,0.300000*%
%TA.AperFunction,NonConductor*%
%ADD11C,0.300000*%
%TD*%
%TA.AperFunction,ComponentPad*%
%ADD12RoundRect,0.250000X-0.725000X0.600000X-0.725000X-0.600000X0.725000X-0.600000X0.725000X0.600000X0*%
%TD*%
%TA.AperFunction,ComponentPad*%
%ADD13O,1.950000X1.700000*%
%TD*%
%TA.AperFunction,ComponentPad*%
%ADD14RoundRect,0.250000X0.600000X0.725000X-0.600000X0.725000X-0.600000X-0.725000X0.600000X-0.725000X0*%
%TD*%
%TA.AperFunction,ComponentPad*%
%ADD15O,1.700000X1.950000*%
%TD*%
%TA.AperFunction,ComponentPad*%
%ADD16R,1.600000X1.600000*%
%TD*%
%TA.AperFunction,ComponentPad*%
%ADD17C,1.600000*%
%TD*%
%TA.AperFunction,ComponentPad*%
%ADD18RoundRect,0.250000X-0.600000X-0.725000X0.600000X-0.725000X0.600000X0.725000X-0.600000X0.725000X0*%
%TD*%
%TA.AperFunction,ComponentPad*%
%ADD19C,0.800000*%
%TD*%
%TA.AperFunction,ComponentPad*%
%ADD20C,6.400000*%
%TD*%
%TA.AperFunction,ComponentPad*%
%ADD21RoundRect,0.250000X-0.600000X-0.750000X0.600000X-0.750000X0.600000X0.750000X-0.600000X0.750000X0*%
%TD*%
%TA.AperFunction,ComponentPad*%
%ADD22O,1.700000X2.000000*%
%TD*%
%TA.AperFunction,ViaPad*%
%ADD23C,0.800000*%
%TD*%
G04 APERTURE END LIST*
D10*
D11*
X135307142Y-90285357D02*
X135521428Y-90356785D01*
X135592857Y-90428214D01*
X135664285Y-90571071D01*
X135664285Y-90785357D01*
X135592857Y-90928214D01*
X135521428Y-90999642D01*
X135378571Y-91071071D01*
X134807142Y-91071071D01*
X134807142Y-89571071D01*
X135307142Y-89571071D01*
X135450000Y-89642500D01*
X135521428Y-89713928D01*
X135592857Y-89856785D01*
X135592857Y-89999642D01*
X135521428Y-90142500D01*
X135450000Y-90213928D01*
X135307142Y-90285357D01*
X134807142Y-90285357D01*
X136878571Y-90999642D02*
X136735714Y-91071071D01*
X136450000Y-91071071D01*
X136307142Y-90999642D01*
X136235714Y-90856785D01*
X136235714Y-90285357D01*
X136307142Y-90142500D01*
X136450000Y-90071071D01*
X136735714Y-90071071D01*
X136878571Y-90142500D01*
X136950000Y-90285357D01*
X136950000Y-90428214D01*
X136235714Y-90571071D01*
X138164285Y-90999642D02*
X138021428Y-91071071D01*
X137735714Y-91071071D01*
X137592857Y-90999642D01*
X137521428Y-90856785D01*
X137521428Y-90285357D01*
X137592857Y-90142500D01*
X137735714Y-90071071D01*
X138021428Y-90071071D01*
X138164285Y-90142500D01*
X138235714Y-90285357D01*
X138235714Y-90428214D01*
X137521428Y-90571071D01*
X138878571Y-91071071D02*
X138878571Y-90071071D01*
X138878571Y-90356785D02*
X138950000Y-90213928D01*
X139021428Y-90142500D01*
X139164285Y-90071071D01*
X139307142Y-90071071D01*
X140450000Y-91071071D02*
X140450000Y-90285357D01*
X140378571Y-90142500D01*
X140235714Y-90071071D01*
X139950000Y-90071071D01*
X139807142Y-90142500D01*
X140450000Y-90999642D02*
X140307142Y-91071071D01*
X139950000Y-91071071D01*
X139807142Y-90999642D01*
X139735714Y-90856785D01*
X139735714Y-90713928D01*
X139807142Y-90571071D01*
X139950000Y-90499642D01*
X140307142Y-90499642D01*
X140450000Y-90428214D01*
X140950000Y-90071071D02*
X141521428Y-90071071D01*
X141164285Y-89571071D02*
X141164285Y-90856785D01*
X141235714Y-90999642D01*
X141378571Y-91071071D01*
X141521428Y-91071071D01*
X142235714Y-91071071D02*
X142092857Y-90999642D01*
X142021428Y-90928214D01*
X141950000Y-90785357D01*
X141950000Y-90356785D01*
X142021428Y-90213928D01*
X142092857Y-90142500D01*
X142235714Y-90071071D01*
X142450000Y-90071071D01*
X142592857Y-90142500D01*
X142664285Y-90213928D01*
X142735714Y-90356785D01*
X142735714Y-90785357D01*
X142664285Y-90928214D01*
X142592857Y-90999642D01*
X142450000Y-91071071D01*
X142235714Y-91071071D01*
X143378571Y-91071071D02*
X143378571Y-90071071D01*
X143378571Y-90356785D02*
X143450000Y-90213928D01*
X143521428Y-90142500D01*
X143664285Y-90071071D01*
X143807142Y-90071071D01*
X137735714Y-93057500D02*
X138450000Y-93057500D01*
X137592857Y-93486071D02*
X138092857Y-91986071D01*
X138592857Y-93486071D01*
X139092857Y-93343214D02*
X139164285Y-93414642D01*
X139092857Y-93486071D01*
X139021428Y-93414642D01*
X139092857Y-93343214D01*
X139092857Y-93486071D01*
X139807142Y-93486071D02*
X139807142Y-91986071D01*
X140378571Y-91986071D01*
X140521428Y-92057500D01*
X140592857Y-92128928D01*
X140664285Y-92271785D01*
X140664285Y-92486071D01*
X140592857Y-92628928D01*
X140521428Y-92700357D01*
X140378571Y-92771785D01*
X139807142Y-92771785D01*
D12*
%TO.N,O1_D1*%
%TO.C,JMCC0_501*%
X53800000Y-66300000D03*
D13*
%TO.N,+5V*%
X53800000Y-68800000D03*
%TO.N,PHASE_B_M1*%
X53800000Y-71300000D03*
%TO.N,PHASE_A_M1*%
X53800000Y-73800000D03*
%TO.N,GND*%
X53800000Y-76300000D03*
%TO.N,O2_D1*%
X53800000Y-78800000D03*
%TD*%
D14*
%TO.N,SERVO_DATA*%
%TO.C,JSERVO501*%
X101800000Y-49600000D03*
D15*
%TO.N,+BATT*%
X99300000Y-49600000D03*
%TO.N,GND*%
X96800000Y-49600000D03*
%TD*%
D16*
%TO.N,+BATT*%
%TO.C,C503*%
X63644888Y-64800000D03*
D17*
%TO.N,GND*%
X65644888Y-64800000D03*
%TD*%
D14*
%TO.N,TOF-EXTI*%
%TO.C,JTOF0_401*%
X139800000Y-48800000D03*
D15*
%TO.N,TOF-XSHUT*%
X137300000Y-48800000D03*
%TO.N,TOF-SCL*%
X134800000Y-48800000D03*
%TO.N,TOF-SDA*%
X132300000Y-48800000D03*
%TO.N,GND*%
X129800000Y-48800000D03*
%TO.N,+3.3V*%
X127300000Y-48800000D03*
%TD*%
D18*
%TO.N,TCS-S0*%
%TO.C,JCOLOR_404*%
X109800000Y-48875000D03*
D15*
%TO.N,TCS-S1*%
X112300000Y-48875000D03*
%TO.N,TCS-S2*%
X114800000Y-48875000D03*
%TO.N,TCS-S3*%
X117300000Y-48875000D03*
%TO.N,TCS-OUT*%
X119800000Y-48875000D03*
%TD*%
D19*
%TO.N,GND*%
%TO.C,H102*%
X150000000Y-52400000D03*
X150000000Y-47600000D03*
D20*
X150000000Y-50000000D03*
D19*
X151697056Y-51697056D03*
X148302944Y-48302944D03*
X152400000Y-50000000D03*
X147600000Y-50000000D03*
X151697056Y-48302944D03*
X148302944Y-51697056D03*
%TD*%
D16*
%TO.N,+3.3V*%
%TO.C,C301*%
X83800000Y-65844888D03*
D17*
%TO.N,GND*%
X83800000Y-67844888D03*
%TD*%
D19*
%TO.N,GND*%
%TO.C,H101*%
X50000000Y-47600000D03*
X51697056Y-51697056D03*
X48302944Y-51697056D03*
X47600000Y-50000000D03*
X51697056Y-48302944D03*
X50000000Y-52400000D03*
X52400000Y-50000000D03*
D20*
X50000000Y-50000000D03*
D19*
X48302944Y-48302944D03*
%TD*%
D18*
%TO.N,GND*%
%TO.C,JDistance0_401*%
X74900000Y-88475000D03*
D15*
%TO.N,+3.3V*%
X77400000Y-88475000D03*
%TO.N,IR2-OUT*%
X79900000Y-88475000D03*
%TD*%
D18*
%TO.N,+5V*%
%TO.C,JCOLOR_401*%
X77200000Y-48275000D03*
D15*
%TO.N,GND*%
X79700000Y-48275000D03*
%TO.N,TCS-OE*%
X82200000Y-48275000D03*
%TO.N,TCS-LED*%
X84700000Y-48275000D03*
%TO.N,GND*%
X87200000Y-48275000D03*
%TD*%
D20*
%TO.N,GND*%
%TO.C,H104*%
X150000000Y-90000000D03*
D19*
X147600000Y-90000000D03*
X151697056Y-91697056D03*
X148302944Y-88302944D03*
X152400000Y-90000000D03*
X151697056Y-88302944D03*
X150000000Y-92400000D03*
X148302944Y-91697056D03*
X150000000Y-87600000D03*
%TD*%
D16*
%TO.N,+BATT*%
%TO.C,C505*%
X92400000Y-56200000D03*
D17*
%TO.N,GND*%
X92400000Y-54200000D03*
%TD*%
D16*
%TO.N,+BATT*%
%TO.C,C504*%
X139539888Y-66525000D03*
D17*
%TO.N,GND*%
X141539888Y-66525000D03*
%TD*%
D19*
%TO.N,GND*%
%TO.C,H103*%
X48302944Y-88302944D03*
X48302944Y-91697056D03*
X50000000Y-92400000D03*
X52400000Y-90000000D03*
X50000000Y-87600000D03*
D20*
X50000000Y-90000000D03*
D19*
X47600000Y-90000000D03*
X51697056Y-88302944D03*
X51697056Y-91697056D03*
%TD*%
D21*
%TO.N,GND*%
%TO.C,JBat201*%
X99550000Y-88275000D03*
D22*
%TO.N,Net-(JBat201-Pad2)*%
X102050000Y-88275000D03*
%TD*%
D18*
%TO.N,TOF2_EXTI*%
%TO.C,JTOF1_401*%
X58100000Y-48000000D03*
D15*
%TO.N,TOF2_XSHUT*%
X60600000Y-48000000D03*
%TO.N,TOF2_SCL*%
X63100000Y-48000000D03*
%TO.N,TOF2_SDA*%
X65600000Y-48000000D03*
%TO.N,GND*%
X68100000Y-48000000D03*
%TO.N,+3.3V*%
X70600000Y-48000000D03*
%TD*%
D18*
%TO.N,GND*%
%TO.C,JDistance0_402*%
X86700000Y-88475000D03*
D15*
%TO.N,+3.3V*%
X89200000Y-88475000D03*
%TO.N,IR1-OUT*%
X91700000Y-88475000D03*
%TD*%
D12*
%TO.N,O1_D2*%
%TO.C,JMCC1_501*%
X149220000Y-65475000D03*
D13*
%TO.N,+5V*%
X149220000Y-67975000D03*
%TO.N,PHASE_B_M2*%
X149220000Y-70475000D03*
%TO.N,PHASE_A_M2*%
X149220000Y-72975000D03*
%TO.N,GND*%
X149220000Y-75475000D03*
%TO.N,O2_D2*%
X149220000Y-77975000D03*
%TD*%
D23*
%TO.N,GND*%
X120600000Y-90400000D03*
%TO.N,+5V*%
X151000000Y-59800000D03*
%TO.N,GND*%
X58800000Y-63600000D03*
%TO.N,+3.3V*%
X105200000Y-52800000D03*
%TO.N,SERVO_DATA*%
X97800000Y-77800000D03*
%TO.N,TCS-OUT*%
X102000000Y-62600000D03*
%TO.N,TCS-S3*%
X101600000Y-61600000D03*
%TO.N,TCS-S2*%
X101046991Y-60693982D03*
%TO.N,TCS-S1*%
X100600000Y-59800000D03*
%TO.N,TCS-S0*%
X99800000Y-59000000D03*
%TO.N,TCS-OE*%
X94585011Y-60444966D03*
%TO.N,TCS-LED*%
X93600000Y-59400000D03*
%TO.N,PHASE_B_M1*%
X95800000Y-67400000D03*
%TO.N,PHASE_A_M1*%
X96800000Y-67800000D03*
%TO.N,TOF2_EXTI*%
X90200000Y-64200000D03*
%TO.N,TOF2_XSHUT*%
X90800000Y-63200000D03*
%TO.N,TOF2_SCL*%
X91600000Y-62200000D03*
%TO.N,TOF2_SDA*%
X92200000Y-61200000D03*
%TO.N,TOF-SDA*%
X102425904Y-78174097D03*
%TO.N,TOF-SCL*%
X101400000Y-79200000D03*
%TO.N,TOF-XSHUT*%
X100600000Y-80400000D03*
%TO.N,TOF-EXTI*%
X99800000Y-81600000D03*
%TO.N,PHASE_A_M2*%
X130000000Y-72200000D03*
%TO.N,PHASE_B_M2*%
X131200000Y-71200000D03*
%TO.N,+3.3V*%
X115800000Y-68000000D03*
%TO.N,GND*%
X115800000Y-66800000D03*
X68200000Y-70600000D03*
X68200000Y-73000000D03*
X136295000Y-80525000D03*
X134800000Y-66200000D03*
X124400000Y-76800000D03*
X122000000Y-82600000D03*
%TO.N,+3.3V*%
X121200000Y-75600000D03*
%TO.N,GND*%
X112200000Y-78000000D03*
%TD*%
%TA.AperFunction,Conductor*%
%TO.N,GND*%
G36*
X149970018Y-44510000D02*
G01*
X149984851Y-44512310D01*
X149984855Y-44512310D01*
X149993724Y-44513691D01*
X150014664Y-44510953D01*
X150036202Y-44509997D01*
X150224026Y-44517766D01*
X150448278Y-44527041D01*
X150458656Y-44527901D01*
X150734674Y-44562307D01*
X150898702Y-44582753D01*
X150908967Y-44584465D01*
X151072054Y-44618661D01*
X151342976Y-44675467D01*
X151353072Y-44678023D01*
X151778101Y-44804561D01*
X151787938Y-44807938D01*
X152201081Y-44969147D01*
X152210581Y-44973314D01*
X152608983Y-45168081D01*
X152618141Y-45173037D01*
X152999085Y-45400030D01*
X153007804Y-45405726D01*
X153368705Y-45663405D01*
X153376923Y-45669801D01*
X153715326Y-45956413D01*
X153722987Y-45963467D01*
X154036533Y-46277013D01*
X154043587Y-46284674D01*
X154330199Y-46623077D01*
X154336595Y-46631295D01*
X154594274Y-46992196D01*
X154599970Y-47000915D01*
X154609632Y-47017130D01*
X154824518Y-47377755D01*
X154826963Y-47381859D01*
X154831918Y-47391015D01*
X155021095Y-47777982D01*
X155026682Y-47789411D01*
X155030853Y-47798919D01*
X155192062Y-48212062D01*
X155195439Y-48221899D01*
X155321977Y-48646928D01*
X155324533Y-48657024D01*
X155412283Y-49075523D01*
X155415534Y-49091030D01*
X155417247Y-49101298D01*
X155429339Y-49198303D01*
X155472099Y-49541344D01*
X155472959Y-49551722D01*
X155478786Y-49692602D01*
X155489454Y-49950523D01*
X155489694Y-49956335D01*
X155488302Y-49980920D01*
X155486309Y-49993724D01*
X155487473Y-50002626D01*
X155487473Y-50002628D01*
X155490436Y-50025283D01*
X155491500Y-50041621D01*
X155491500Y-89950633D01*
X155490000Y-89970018D01*
X155487690Y-89984851D01*
X155487690Y-89984855D01*
X155486309Y-89993724D01*
X155489047Y-90014659D01*
X155490003Y-90036202D01*
X155486368Y-90124091D01*
X155472959Y-90448278D01*
X155472099Y-90458656D01*
X155417248Y-90898698D01*
X155415535Y-90908967D01*
X155389114Y-91034974D01*
X155324533Y-91342976D01*
X155321977Y-91353072D01*
X155195439Y-91778101D01*
X155192062Y-91787938D01*
X155030853Y-92201081D01*
X155026686Y-92210581D01*
X154918323Y-92432241D01*
X154831919Y-92608983D01*
X154826963Y-92618141D01*
X154599970Y-92999085D01*
X154594274Y-93007804D01*
X154336595Y-93368705D01*
X154330199Y-93376923D01*
X154043587Y-93715326D01*
X154036533Y-93722987D01*
X153722987Y-94036533D01*
X153715326Y-94043587D01*
X153376923Y-94330199D01*
X153368705Y-94336595D01*
X153007804Y-94594274D01*
X152999085Y-94599970D01*
X152618141Y-94826963D01*
X152608985Y-94831918D01*
X152210581Y-95026686D01*
X152201081Y-95030853D01*
X151787938Y-95192062D01*
X151778101Y-95195439D01*
X151353072Y-95321977D01*
X151342975Y-95324533D01*
X150908967Y-95415535D01*
X150898702Y-95417247D01*
X150734674Y-95437693D01*
X150458656Y-95472099D01*
X150448278Y-95472959D01*
X150270676Y-95480305D01*
X150043661Y-95489694D01*
X150019080Y-95488302D01*
X150006276Y-95486309D01*
X149997374Y-95487473D01*
X149997372Y-95487473D01*
X149982323Y-95489441D01*
X149974714Y-95490436D01*
X149958379Y-95491500D01*
X50049367Y-95491500D01*
X50029982Y-95490000D01*
X50015149Y-95487690D01*
X50015145Y-95487690D01*
X50006276Y-95486309D01*
X49985336Y-95489047D01*
X49963798Y-95490003D01*
X49775974Y-95482234D01*
X49551722Y-95472959D01*
X49541344Y-95472099D01*
X49265326Y-95437693D01*
X49101298Y-95417247D01*
X49091033Y-95415535D01*
X48657025Y-95324533D01*
X48646928Y-95321977D01*
X48221899Y-95195439D01*
X48212062Y-95192062D01*
X47798919Y-95030853D01*
X47789419Y-95026686D01*
X47391015Y-94831918D01*
X47381859Y-94826963D01*
X47250181Y-94748500D01*
X133791500Y-94748500D01*
X144608500Y-94748500D01*
X144608500Y-92797386D01*
X147567759Y-92797386D01*
X147575216Y-92807753D01*
X147814935Y-93001874D01*
X147820272Y-93005751D01*
X148140685Y-93213830D01*
X148146394Y-93217127D01*
X148486811Y-93390578D01*
X148492836Y-93393260D01*
X148849502Y-93530171D01*
X148855784Y-93532212D01*
X149224816Y-93631094D01*
X149231266Y-93632465D01*
X149608629Y-93692234D01*
X149615167Y-93692920D01*
X149996699Y-93712916D01*
X150003301Y-93712916D01*
X150384833Y-93692920D01*
X150391371Y-93692234D01*
X150768734Y-93632465D01*
X150775184Y-93631094D01*
X151144216Y-93532212D01*
X151150498Y-93530171D01*
X151507164Y-93393260D01*
X151513189Y-93390578D01*
X151853606Y-93217127D01*
X151859315Y-93213830D01*
X152179728Y-93005751D01*
X152185065Y-93001874D01*
X152423835Y-92808522D01*
X152432300Y-92796267D01*
X152425966Y-92785176D01*
X150012812Y-90372022D01*
X149998868Y-90364408D01*
X149997035Y-90364539D01*
X149990420Y-90368790D01*
X147574900Y-92784310D01*
X147567759Y-92797386D01*
X144608500Y-92797386D01*
X144608500Y-90003301D01*
X146287084Y-90003301D01*
X146307080Y-90384833D01*
X146307766Y-90391371D01*
X146367535Y-90768734D01*
X146368906Y-90775184D01*
X146467788Y-91144216D01*
X146469829Y-91150498D01*
X146606740Y-91507164D01*
X146609422Y-91513189D01*
X146782872Y-91853603D01*
X146786169Y-91859313D01*
X146994253Y-92179735D01*
X146998123Y-92185061D01*
X147191478Y-92423835D01*
X147203733Y-92432300D01*
X147214824Y-92425966D01*
X149627978Y-90012812D01*
X149634356Y-90001132D01*
X150364408Y-90001132D01*
X150364539Y-90002965D01*
X150368790Y-90009580D01*
X152784310Y-92425100D01*
X152797386Y-92432241D01*
X152807753Y-92424784D01*
X153001877Y-92185061D01*
X153005747Y-92179735D01*
X153213831Y-91859313D01*
X153217128Y-91853603D01*
X153390578Y-91513189D01*
X153393260Y-91507164D01*
X153530171Y-91150498D01*
X153532212Y-91144216D01*
X153631094Y-90775184D01*
X153632465Y-90768734D01*
X153692234Y-90391371D01*
X153692920Y-90384833D01*
X153712916Y-90003301D01*
X153712916Y-89996699D01*
X153692920Y-89615167D01*
X153692234Y-89608629D01*
X153632465Y-89231266D01*
X153631094Y-89224816D01*
X153532212Y-88855784D01*
X153530171Y-88849502D01*
X153393260Y-88492836D01*
X153390578Y-88486811D01*
X153217128Y-88146397D01*
X153213831Y-88140687D01*
X153005747Y-87820265D01*
X153001877Y-87814939D01*
X152808522Y-87576165D01*
X152796267Y-87567700D01*
X152785176Y-87574034D01*
X150372022Y-89987188D01*
X150364408Y-90001132D01*
X149634356Y-90001132D01*
X149635592Y-89998868D01*
X149635461Y-89997035D01*
X149631210Y-89990420D01*
X147215690Y-87574900D01*
X147202614Y-87567759D01*
X147192247Y-87575216D01*
X146998123Y-87814939D01*
X146994253Y-87820265D01*
X146786169Y-88140687D01*
X146782872Y-88146397D01*
X146609422Y-88486811D01*
X146606740Y-88492836D01*
X146469829Y-88849502D01*
X146467788Y-88855784D01*
X146368906Y-89224816D01*
X146367535Y-89231266D01*
X146307766Y-89608629D01*
X146307080Y-89615167D01*
X146287084Y-89996699D01*
X146287084Y-90003301D01*
X144608500Y-90003301D01*
X144608500Y-88451500D01*
X133791500Y-88451500D01*
X133791500Y-94748500D01*
X47250181Y-94748500D01*
X47000915Y-94599970D01*
X46992196Y-94594274D01*
X46631295Y-94336595D01*
X46623077Y-94330199D01*
X46284674Y-94043587D01*
X46277013Y-94036533D01*
X45963467Y-93722987D01*
X45956413Y-93715326D01*
X45669801Y-93376923D01*
X45663405Y-93368705D01*
X45405726Y-93007804D01*
X45400030Y-92999085D01*
X45279844Y-92797386D01*
X47567759Y-92797386D01*
X47575216Y-92807753D01*
X47814935Y-93001874D01*
X47820272Y-93005751D01*
X48140685Y-93213830D01*
X48146394Y-93217127D01*
X48486811Y-93390578D01*
X48492836Y-93393260D01*
X48849502Y-93530171D01*
X48855784Y-93532212D01*
X49224816Y-93631094D01*
X49231266Y-93632465D01*
X49608629Y-93692234D01*
X49615167Y-93692920D01*
X49996699Y-93712916D01*
X50003301Y-93712916D01*
X50384833Y-93692920D01*
X50391371Y-93692234D01*
X50768734Y-93632465D01*
X50775184Y-93631094D01*
X51144216Y-93532212D01*
X51150498Y-93530171D01*
X51507164Y-93393260D01*
X51513189Y-93390578D01*
X51853606Y-93217127D01*
X51859315Y-93213830D01*
X52179728Y-93005751D01*
X52185065Y-93001874D01*
X52423835Y-92808522D01*
X52432300Y-92796267D01*
X52425966Y-92785176D01*
X50012812Y-90372022D01*
X49998868Y-90364408D01*
X49997035Y-90364539D01*
X49990420Y-90368790D01*
X47574900Y-92784310D01*
X47567759Y-92797386D01*
X45279844Y-92797386D01*
X45173037Y-92618141D01*
X45168081Y-92608983D01*
X45081677Y-92432241D01*
X44973314Y-92210581D01*
X44969147Y-92201081D01*
X44807938Y-91787938D01*
X44804561Y-91778101D01*
X44678023Y-91353072D01*
X44675467Y-91342976D01*
X44610886Y-91034974D01*
X44584465Y-90908967D01*
X44582752Y-90898698D01*
X44527901Y-90458656D01*
X44527041Y-90448278D01*
X44510462Y-90047439D01*
X44512100Y-90021329D01*
X44512769Y-90017351D01*
X44512770Y-90017345D01*
X44513576Y-90012552D01*
X44513689Y-90003301D01*
X46287084Y-90003301D01*
X46307080Y-90384833D01*
X46307766Y-90391371D01*
X46367535Y-90768734D01*
X46368906Y-90775184D01*
X46467788Y-91144216D01*
X46469829Y-91150498D01*
X46606740Y-91507164D01*
X46609422Y-91513189D01*
X46782872Y-91853603D01*
X46786169Y-91859313D01*
X46994253Y-92179735D01*
X46998123Y-92185061D01*
X47191478Y-92423835D01*
X47203733Y-92432300D01*
X47214824Y-92425966D01*
X49627978Y-90012812D01*
X49634356Y-90001132D01*
X50364408Y-90001132D01*
X50364539Y-90002965D01*
X50368790Y-90009580D01*
X52784310Y-92425100D01*
X52797386Y-92432241D01*
X52807753Y-92424784D01*
X53001877Y-92185061D01*
X53005747Y-92179735D01*
X53213831Y-91859313D01*
X53217128Y-91853603D01*
X53390578Y-91513189D01*
X53393260Y-91507164D01*
X53530171Y-91150498D01*
X53532212Y-91144216D01*
X53631094Y-90775184D01*
X53632465Y-90768734D01*
X53687604Y-90420604D01*
X72187787Y-90420604D01*
X72197567Y-90631899D01*
X72198971Y-90637724D01*
X72198971Y-90637725D01*
X72244016Y-90824632D01*
X72247125Y-90837534D01*
X72249607Y-90842992D01*
X72249608Y-90842996D01*
X72293053Y-90938546D01*
X72334674Y-91030087D01*
X72457054Y-91202611D01*
X72469791Y-91214804D01*
X72603682Y-91342976D01*
X72609850Y-91348881D01*
X72787548Y-91463620D01*
X72793114Y-91465863D01*
X72978168Y-91540442D01*
X72978171Y-91540443D01*
X72983737Y-91542686D01*
X73191337Y-91583228D01*
X73196899Y-91583500D01*
X73352846Y-91583500D01*
X73510566Y-91568452D01*
X73713534Y-91508908D01*
X73797111Y-91465863D01*
X73896249Y-91414804D01*
X73896252Y-91414802D01*
X73901580Y-91412058D01*
X74067920Y-91281396D01*
X74071852Y-91276865D01*
X74071855Y-91276862D01*
X74202621Y-91126167D01*
X74206552Y-91121637D01*
X74209552Y-91116451D01*
X74209555Y-91116447D01*
X74309467Y-90943742D01*
X74312473Y-90938546D01*
X74381861Y-90738729D01*
X74397351Y-90631899D01*
X74411352Y-90535336D01*
X74411352Y-90535333D01*
X74412213Y-90529396D01*
X74407177Y-90420604D01*
X83987787Y-90420604D01*
X83997567Y-90631899D01*
X83998971Y-90637724D01*
X83998971Y-90637725D01*
X84044016Y-90824632D01*
X84047125Y-90837534D01*
X84049607Y-90842992D01*
X84049608Y-90842996D01*
X84093053Y-90938546D01*
X84134674Y-91030087D01*
X84257054Y-91202611D01*
X84269791Y-91214804D01*
X84403682Y-91342976D01*
X84409850Y-91348881D01*
X84587548Y-91463620D01*
X84593114Y-91465863D01*
X84778168Y-91540442D01*
X84778171Y-91540443D01*
X84783737Y-91542686D01*
X84991337Y-91583228D01*
X84996899Y-91583500D01*
X85152846Y-91583500D01*
X85310566Y-91568452D01*
X85513534Y-91508908D01*
X85597111Y-91465863D01*
X85696249Y-91414804D01*
X85696252Y-91414802D01*
X85701580Y-91412058D01*
X85867920Y-91281396D01*
X85871852Y-91276865D01*
X85871855Y-91276862D01*
X86002621Y-91126167D01*
X86006552Y-91121637D01*
X86009552Y-91116451D01*
X86009555Y-91116447D01*
X86109467Y-90943742D01*
X86112473Y-90938546D01*
X86181861Y-90738729D01*
X86197351Y-90631899D01*
X86211352Y-90535336D01*
X86211352Y-90535333D01*
X86212213Y-90529396D01*
X86202433Y-90318101D01*
X86178936Y-90220604D01*
X96837787Y-90220604D01*
X96847567Y-90431899D01*
X96897125Y-90637534D01*
X96899607Y-90642992D01*
X96899608Y-90642996D01*
X96943053Y-90738546D01*
X96984674Y-90830087D01*
X97107054Y-91002611D01*
X97259850Y-91148881D01*
X97437548Y-91263620D01*
X97443114Y-91265863D01*
X97628168Y-91340442D01*
X97628171Y-91340443D01*
X97633737Y-91342686D01*
X97841337Y-91383228D01*
X97846899Y-91383500D01*
X98002846Y-91383500D01*
X98160566Y-91368452D01*
X98363534Y-91308908D01*
X98368862Y-91306164D01*
X98546249Y-91214804D01*
X98546252Y-91214802D01*
X98551580Y-91212058D01*
X98717920Y-91081396D01*
X98721852Y-91076865D01*
X98721855Y-91076862D01*
X98852621Y-90926167D01*
X98856552Y-90921637D01*
X98859552Y-90916451D01*
X98859555Y-90916447D01*
X98959467Y-90743742D01*
X98962473Y-90738546D01*
X99031861Y-90538729D01*
X99048219Y-90425909D01*
X99061352Y-90335336D01*
X99061352Y-90335333D01*
X99062213Y-90329396D01*
X99052433Y-90118101D01*
X99009154Y-89938520D01*
X99012639Y-89867610D01*
X99053908Y-89809840D01*
X99119859Y-89783553D01*
X99131647Y-89783000D01*
X99277885Y-89783000D01*
X99293124Y-89778525D01*
X99294329Y-89777135D01*
X99296000Y-89769452D01*
X99296000Y-89764884D01*
X99804000Y-89764884D01*
X99808475Y-89780123D01*
X99809865Y-89781328D01*
X99817548Y-89782999D01*
X100197095Y-89782999D01*
X100203614Y-89782662D01*
X100299206Y-89772743D01*
X100312600Y-89769851D01*
X100466784Y-89718412D01*
X100479962Y-89712239D01*
X100617807Y-89626937D01*
X100629208Y-89617901D01*
X100743739Y-89503171D01*
X100752753Y-89491757D01*
X100838723Y-89352287D01*
X100891495Y-89304793D01*
X100961566Y-89293369D01*
X101026690Y-89321643D01*
X101037149Y-89331426D01*
X101146576Y-89446135D01*
X101150854Y-89449318D01*
X101157576Y-89454319D01*
X101331542Y-89583754D01*
X101336293Y-89586170D01*
X101336297Y-89586172D01*
X101433242Y-89635461D01*
X101537051Y-89688240D01*
X101542145Y-89689822D01*
X101542148Y-89689823D01*
X101727540Y-89747389D01*
X101757227Y-89756607D01*
X101762516Y-89757308D01*
X101980489Y-89786198D01*
X101980494Y-89786198D01*
X101985774Y-89786898D01*
X101991103Y-89786698D01*
X101991105Y-89786698D01*
X102100966Y-89782573D01*
X102216158Y-89778249D01*
X102221468Y-89777135D01*
X102436572Y-89732002D01*
X102441791Y-89730907D01*
X102446750Y-89728949D01*
X102446752Y-89728948D01*
X102651256Y-89648185D01*
X102651258Y-89648184D01*
X102656221Y-89646224D01*
X102677103Y-89633553D01*
X102848757Y-89529390D01*
X102848756Y-89529390D01*
X102853317Y-89526623D01*
X102857347Y-89523126D01*
X103023412Y-89379023D01*
X103023414Y-89379021D01*
X103027445Y-89375523D01*
X103100538Y-89286380D01*
X103170240Y-89201373D01*
X103170244Y-89201367D01*
X103173624Y-89197245D01*
X103182560Y-89181548D01*
X103285032Y-89001529D01*
X103287675Y-88996886D01*
X103366337Y-88780175D01*
X103367287Y-88774923D01*
X103406623Y-88557392D01*
X103406624Y-88557385D01*
X103407361Y-88553308D01*
X103408500Y-88529156D01*
X103408500Y-88067110D01*
X103402367Y-87994825D01*
X103394371Y-87900591D01*
X103394370Y-87900587D01*
X103393920Y-87895280D01*
X103392582Y-87890125D01*
X103392581Y-87890119D01*
X103337343Y-87677297D01*
X103337342Y-87677293D01*
X103336001Y-87672128D01*
X103288987Y-87567759D01*
X103256518Y-87495681D01*
X103241312Y-87461925D01*
X103112559Y-87270681D01*
X103088643Y-87245610D01*
X103048694Y-87203733D01*
X147567700Y-87203733D01*
X147574034Y-87214824D01*
X149987188Y-89627978D01*
X150001132Y-89635592D01*
X150002965Y-89635461D01*
X150009580Y-89631210D01*
X152425100Y-87215690D01*
X152432241Y-87202614D01*
X152424784Y-87192247D01*
X152185065Y-86998126D01*
X152179728Y-86994249D01*
X151859315Y-86786170D01*
X151853606Y-86782873D01*
X151513189Y-86609422D01*
X151507164Y-86606740D01*
X151150498Y-86469829D01*
X151144216Y-86467788D01*
X150775184Y-86368906D01*
X150768734Y-86367535D01*
X150391371Y-86307766D01*
X150384833Y-86307080D01*
X150003301Y-86287084D01*
X149996699Y-86287084D01*
X149615167Y-86307080D01*
X149608629Y-86307766D01*
X149231266Y-86367535D01*
X149224816Y-86368906D01*
X148855784Y-86467788D01*
X148849502Y-86469829D01*
X148492836Y-86606740D01*
X148486811Y-86609422D01*
X148146397Y-86782872D01*
X148140687Y-86786169D01*
X147820265Y-86994253D01*
X147814939Y-86998123D01*
X147576165Y-87191478D01*
X147567700Y-87203733D01*
X103048694Y-87203733D01*
X102994810Y-87147249D01*
X102953424Y-87103865D01*
X102768458Y-86966246D01*
X102763707Y-86963830D01*
X102763703Y-86963828D01*
X102641731Y-86901815D01*
X102562949Y-86861760D01*
X102557855Y-86860178D01*
X102557852Y-86860177D01*
X102347871Y-86794976D01*
X102342773Y-86793393D01*
X102337484Y-86792692D01*
X102119511Y-86763802D01*
X102119506Y-86763802D01*
X102114226Y-86763102D01*
X102108897Y-86763302D01*
X102108895Y-86763302D01*
X102010368Y-86767001D01*
X101883842Y-86771751D01*
X101878623Y-86772846D01*
X101858849Y-86776995D01*
X101658209Y-86819093D01*
X101653250Y-86821051D01*
X101653248Y-86821052D01*
X101448744Y-86901815D01*
X101448742Y-86901816D01*
X101443779Y-86903776D01*
X101439220Y-86906543D01*
X101439217Y-86906544D01*
X101340832Y-86966246D01*
X101246683Y-87023377D01*
X101242653Y-87026874D01*
X101102995Y-87148063D01*
X101072555Y-87174477D01*
X101056193Y-87194432D01*
X101042994Y-87210529D01*
X100984334Y-87250524D01*
X100913364Y-87252455D01*
X100852616Y-87215710D01*
X100838416Y-87196941D01*
X100751937Y-87057193D01*
X100742901Y-87045792D01*
X100628171Y-86931261D01*
X100616760Y-86922249D01*
X100478757Y-86837184D01*
X100465576Y-86831037D01*
X100311290Y-86779862D01*
X100297914Y-86776995D01*
X100203562Y-86767328D01*
X100197145Y-86767000D01*
X99822115Y-86767000D01*
X99806876Y-86771475D01*
X99805671Y-86772865D01*
X99804000Y-86780548D01*
X99804000Y-89764884D01*
X99296000Y-89764884D01*
X99296000Y-88547115D01*
X99291525Y-88531876D01*
X99290135Y-88530671D01*
X99282452Y-88529000D01*
X98210116Y-88529000D01*
X98194877Y-88533475D01*
X98193672Y-88534865D01*
X98192001Y-88542548D01*
X98192001Y-89041066D01*
X98171999Y-89109187D01*
X98118343Y-89155680D01*
X98058754Y-89164910D01*
X98058663Y-89166772D01*
X98054643Y-89166575D01*
X98054626Y-89166575D01*
X98053101Y-89166500D01*
X97897154Y-89166500D01*
X97739434Y-89181548D01*
X97536466Y-89241092D01*
X97531139Y-89243836D01*
X97531138Y-89243836D01*
X97353751Y-89335196D01*
X97353748Y-89335198D01*
X97348420Y-89337942D01*
X97182080Y-89468604D01*
X97178148Y-89473135D01*
X97178145Y-89473138D01*
X97067089Y-89601119D01*
X97043448Y-89628363D01*
X97040448Y-89633549D01*
X97040445Y-89633553D01*
X96970173Y-89755024D01*
X96937527Y-89811454D01*
X96868139Y-90011271D01*
X96867278Y-90017206D01*
X96867278Y-90017208D01*
X96866681Y-90021329D01*
X96837787Y-90220604D01*
X86178936Y-90220604D01*
X86153129Y-90113520D01*
X86156614Y-90042610D01*
X86197883Y-89984840D01*
X86263834Y-89958553D01*
X86275622Y-89958000D01*
X86427885Y-89958000D01*
X86443124Y-89953525D01*
X86444329Y-89952135D01*
X86446000Y-89944452D01*
X86446000Y-89939884D01*
X86954000Y-89939884D01*
X86958475Y-89955123D01*
X86959865Y-89956328D01*
X86967548Y-89957999D01*
X87347095Y-89957999D01*
X87353614Y-89957662D01*
X87449206Y-89947743D01*
X87462600Y-89944851D01*
X87616784Y-89893412D01*
X87629962Y-89887239D01*
X87767807Y-89801937D01*
X87779208Y-89792901D01*
X87893739Y-89678171D01*
X87902753Y-89666757D01*
X87988723Y-89527287D01*
X88041495Y-89479793D01*
X88111566Y-89468369D01*
X88176690Y-89496643D01*
X88187149Y-89506426D01*
X88296576Y-89621135D01*
X88481542Y-89758754D01*
X88486293Y-89761170D01*
X88486297Y-89761172D01*
X88582021Y-89809840D01*
X88687051Y-89863240D01*
X88692145Y-89864822D01*
X88692148Y-89864823D01*
X88845583Y-89912466D01*
X88907227Y-89931607D01*
X88912516Y-89932308D01*
X89130489Y-89961198D01*
X89130494Y-89961198D01*
X89135774Y-89961898D01*
X89141103Y-89961698D01*
X89141105Y-89961698D01*
X89250966Y-89957573D01*
X89366158Y-89953249D01*
X89371468Y-89952135D01*
X89586572Y-89907002D01*
X89591791Y-89905907D01*
X89596750Y-89903949D01*
X89596752Y-89903948D01*
X89801256Y-89823185D01*
X89801258Y-89823184D01*
X89806221Y-89821224D01*
X89822322Y-89811454D01*
X89998757Y-89704390D01*
X89998756Y-89704390D01*
X90003317Y-89701623D01*
X90088186Y-89627978D01*
X90173412Y-89554023D01*
X90173414Y-89554021D01*
X90177445Y-89550523D01*
X90240897Y-89473138D01*
X90320240Y-89376373D01*
X90320244Y-89376367D01*
X90323624Y-89372245D01*
X90341552Y-89340750D01*
X90392632Y-89291445D01*
X90462262Y-89277583D01*
X90528333Y-89303566D01*
X90555573Y-89332716D01*
X90637441Y-89454319D01*
X90641120Y-89458176D01*
X90641122Y-89458178D01*
X90703080Y-89523126D01*
X90796576Y-89621135D01*
X90981542Y-89758754D01*
X90986293Y-89761170D01*
X90986297Y-89761172D01*
X91082021Y-89809840D01*
X91187051Y-89863240D01*
X91192145Y-89864822D01*
X91192148Y-89864823D01*
X91345583Y-89912466D01*
X91407227Y-89931607D01*
X91412516Y-89932308D01*
X91630489Y-89961198D01*
X91630494Y-89961198D01*
X91635774Y-89961898D01*
X91641103Y-89961698D01*
X91641105Y-89961698D01*
X91750966Y-89957573D01*
X91866158Y-89953249D01*
X91871468Y-89952135D01*
X92086572Y-89907002D01*
X92091791Y-89905907D01*
X92096750Y-89903949D01*
X92096752Y-89903948D01*
X92301256Y-89823185D01*
X92301258Y-89823184D01*
X92306221Y-89821224D01*
X92322322Y-89811454D01*
X92498757Y-89704390D01*
X92498756Y-89704390D01*
X92503317Y-89701623D01*
X92588186Y-89627978D01*
X92673412Y-89554023D01*
X92673414Y-89554021D01*
X92677445Y-89550523D01*
X92740897Y-89473138D01*
X92820240Y-89376373D01*
X92820244Y-89376367D01*
X92823624Y-89372245D01*
X92826740Y-89366772D01*
X92932175Y-89181548D01*
X92937675Y-89171886D01*
X93016337Y-88955175D01*
X93048932Y-88774923D01*
X93056623Y-88732392D01*
X93056624Y-88732385D01*
X93057361Y-88728308D01*
X93058500Y-88704156D01*
X93058500Y-88292110D01*
X93043920Y-88120280D01*
X93042582Y-88115125D01*
X93042581Y-88115119D01*
X93013451Y-88002885D01*
X98192000Y-88002885D01*
X98196475Y-88018124D01*
X98197865Y-88019329D01*
X98205548Y-88021000D01*
X99277885Y-88021000D01*
X99293124Y-88016525D01*
X99294329Y-88015135D01*
X99296000Y-88007452D01*
X99296000Y-86785116D01*
X99291525Y-86769877D01*
X99290135Y-86768672D01*
X99282452Y-86767001D01*
X98902905Y-86767001D01*
X98896386Y-86767338D01*
X98800794Y-86777257D01*
X98787400Y-86780149D01*
X98633216Y-86831588D01*
X98620038Y-86837761D01*
X98482193Y-86923063D01*
X98470792Y-86932099D01*
X98356261Y-87046829D01*
X98347249Y-87058240D01*
X98262184Y-87196243D01*
X98256037Y-87209424D01*
X98204862Y-87363710D01*
X98201995Y-87377086D01*
X98192328Y-87471438D01*
X98192000Y-87477855D01*
X98192000Y-88002885D01*
X93013451Y-88002885D01*
X92987343Y-87902297D01*
X92987342Y-87902293D01*
X92986001Y-87897128D01*
X92891312Y-87686925D01*
X92762559Y-87495681D01*
X92726129Y-87457492D01*
X92667446Y-87395977D01*
X92603424Y-87328865D01*
X92418458Y-87191246D01*
X92413707Y-87188830D01*
X92413703Y-87188828D01*
X92254178Y-87107722D01*
X92212949Y-87086760D01*
X92207855Y-87085178D01*
X92207852Y-87085177D01*
X91997871Y-87019976D01*
X91992773Y-87018393D01*
X91987484Y-87017692D01*
X91769511Y-86988802D01*
X91769506Y-86988802D01*
X91764226Y-86988102D01*
X91758897Y-86988302D01*
X91758895Y-86988302D01*
X91660368Y-86992001D01*
X91533842Y-86996751D01*
X91528623Y-86997846D01*
X91527303Y-86998123D01*
X91308209Y-87044093D01*
X91303250Y-87046051D01*
X91303248Y-87046052D01*
X91098744Y-87126815D01*
X91098742Y-87126816D01*
X91093779Y-87128776D01*
X91089220Y-87131543D01*
X91089217Y-87131544D01*
X90990832Y-87191246D01*
X90896683Y-87248377D01*
X90892653Y-87251874D01*
X90776398Y-87352755D01*
X90722555Y-87399477D01*
X90719168Y-87403608D01*
X90579760Y-87573627D01*
X90579756Y-87573633D01*
X90576376Y-87577755D01*
X90558448Y-87609250D01*
X90507368Y-87658555D01*
X90437738Y-87672417D01*
X90371667Y-87646434D01*
X90344427Y-87617284D01*
X90265539Y-87500108D01*
X90262559Y-87495681D01*
X90226129Y-87457492D01*
X90167446Y-87395977D01*
X90103424Y-87328865D01*
X89918458Y-87191246D01*
X89913707Y-87188830D01*
X89913703Y-87188828D01*
X89754178Y-87107722D01*
X89712949Y-87086760D01*
X89707855Y-87085178D01*
X89707852Y-87085177D01*
X89497871Y-87019976D01*
X89492773Y-87018393D01*
X89487484Y-87017692D01*
X89269511Y-86988802D01*
X89269506Y-86988802D01*
X89264226Y-86988102D01*
X89258897Y-86988302D01*
X89258895Y-86988302D01*
X89160368Y-86992001D01*
X89033842Y-86996751D01*
X89028623Y-86997846D01*
X89027303Y-86998123D01*
X88808209Y-87044093D01*
X88803250Y-87046051D01*
X88803248Y-87046052D01*
X88598744Y-87126815D01*
X88598742Y-87126816D01*
X88593779Y-87128776D01*
X88589220Y-87131543D01*
X88589217Y-87131544D01*
X88490832Y-87191246D01*
X88396683Y-87248377D01*
X88392653Y-87251874D01*
X88276398Y-87352755D01*
X88222555Y-87399477D01*
X88219168Y-87403608D01*
X88192994Y-87435529D01*
X88134334Y-87475524D01*
X88063364Y-87477455D01*
X88002616Y-87440710D01*
X87988416Y-87421941D01*
X87901937Y-87282193D01*
X87892901Y-87270792D01*
X87778171Y-87156261D01*
X87766760Y-87147249D01*
X87628757Y-87062184D01*
X87615576Y-87056037D01*
X87461290Y-87004862D01*
X87447914Y-87001995D01*
X87353562Y-86992328D01*
X87347145Y-86992000D01*
X86972115Y-86992000D01*
X86956876Y-86996475D01*
X86955671Y-86997865D01*
X86954000Y-87005548D01*
X86954000Y-89939884D01*
X86446000Y-89939884D01*
X86446000Y-88747115D01*
X86441525Y-88731876D01*
X86440135Y-88730671D01*
X86432452Y-88729000D01*
X85360116Y-88729000D01*
X85344877Y-88733475D01*
X85343672Y-88734865D01*
X85342001Y-88742548D01*
X85342001Y-89241066D01*
X85321999Y-89309187D01*
X85268343Y-89355680D01*
X85208754Y-89364910D01*
X85208663Y-89366772D01*
X85204643Y-89366575D01*
X85204626Y-89366575D01*
X85203101Y-89366500D01*
X85047154Y-89366500D01*
X84889434Y-89381548D01*
X84686466Y-89441092D01*
X84681139Y-89443836D01*
X84681138Y-89443836D01*
X84503751Y-89535196D01*
X84503748Y-89535198D01*
X84498420Y-89537942D01*
X84332080Y-89668604D01*
X84328148Y-89673135D01*
X84328145Y-89673138D01*
X84224220Y-89792901D01*
X84193448Y-89828363D01*
X84190448Y-89833549D01*
X84190445Y-89833553D01*
X84118451Y-89958000D01*
X84087527Y-90011454D01*
X84018139Y-90211271D01*
X84017278Y-90217206D01*
X84017278Y-90217208D01*
X83992026Y-90391371D01*
X83987787Y-90420604D01*
X74407177Y-90420604D01*
X74402433Y-90318101D01*
X74353129Y-90113520D01*
X74356614Y-90042610D01*
X74397883Y-89984840D01*
X74463834Y-89958553D01*
X74475622Y-89958000D01*
X74627885Y-89958000D01*
X74643124Y-89953525D01*
X74644329Y-89952135D01*
X74646000Y-89944452D01*
X74646000Y-89939884D01*
X75154000Y-89939884D01*
X75158475Y-89955123D01*
X75159865Y-89956328D01*
X75167548Y-89957999D01*
X75547095Y-89957999D01*
X75553614Y-89957662D01*
X75649206Y-89947743D01*
X75662600Y-89944851D01*
X75816784Y-89893412D01*
X75829962Y-89887239D01*
X75967807Y-89801937D01*
X75979208Y-89792901D01*
X76093739Y-89678171D01*
X76102753Y-89666757D01*
X76188723Y-89527287D01*
X76241495Y-89479793D01*
X76311566Y-89468369D01*
X76376690Y-89496643D01*
X76387149Y-89506426D01*
X76496576Y-89621135D01*
X76681542Y-89758754D01*
X76686293Y-89761170D01*
X76686297Y-89761172D01*
X76782021Y-89809840D01*
X76887051Y-89863240D01*
X76892145Y-89864822D01*
X76892148Y-89864823D01*
X77045583Y-89912466D01*
X77107227Y-89931607D01*
X77112516Y-89932308D01*
X77330489Y-89961198D01*
X77330494Y-89961198D01*
X77335774Y-89961898D01*
X77341103Y-89961698D01*
X77341105Y-89961698D01*
X77450966Y-89957573D01*
X77566158Y-89953249D01*
X77571468Y-89952135D01*
X77786572Y-89907002D01*
X77791791Y-89905907D01*
X77796750Y-89903949D01*
X77796752Y-89903948D01*
X78001256Y-89823185D01*
X78001258Y-89823184D01*
X78006221Y-89821224D01*
X78022322Y-89811454D01*
X78198757Y-89704390D01*
X78198756Y-89704390D01*
X78203317Y-89701623D01*
X78288186Y-89627978D01*
X78373412Y-89554023D01*
X78373414Y-89554021D01*
X78377445Y-89550523D01*
X78440897Y-89473138D01*
X78520240Y-89376373D01*
X78520244Y-89376367D01*
X78523624Y-89372245D01*
X78541552Y-89340750D01*
X78592632Y-89291445D01*
X78662262Y-89277583D01*
X78728333Y-89303566D01*
X78755573Y-89332716D01*
X78837441Y-89454319D01*
X78841120Y-89458176D01*
X78841122Y-89458178D01*
X78903080Y-89523126D01*
X78996576Y-89621135D01*
X79181542Y-89758754D01*
X79186293Y-89761170D01*
X79186297Y-89761172D01*
X79282021Y-89809840D01*
X79387051Y-89863240D01*
X79392145Y-89864822D01*
X79392148Y-89864823D01*
X79545583Y-89912466D01*
X79607227Y-89931607D01*
X79612516Y-89932308D01*
X79830489Y-89961198D01*
X79830494Y-89961198D01*
X79835774Y-89961898D01*
X79841103Y-89961698D01*
X79841105Y-89961698D01*
X79950966Y-89957573D01*
X80066158Y-89953249D01*
X80071468Y-89952135D01*
X80286572Y-89907002D01*
X80291791Y-89905907D01*
X80296750Y-89903949D01*
X80296752Y-89903948D01*
X80501256Y-89823185D01*
X80501258Y-89823184D01*
X80506221Y-89821224D01*
X80522322Y-89811454D01*
X80698757Y-89704390D01*
X80698756Y-89704390D01*
X80703317Y-89701623D01*
X80788186Y-89627978D01*
X80873412Y-89554023D01*
X80873414Y-89554021D01*
X80877445Y-89550523D01*
X80940897Y-89473138D01*
X81020240Y-89376373D01*
X81020244Y-89376367D01*
X81023624Y-89372245D01*
X81026740Y-89366772D01*
X81132175Y-89181548D01*
X81137675Y-89171886D01*
X81216337Y-88955175D01*
X81248932Y-88774923D01*
X81256623Y-88732392D01*
X81256624Y-88732385D01*
X81257361Y-88728308D01*
X81258500Y-88704156D01*
X81258500Y-88292110D01*
X81250929Y-88202885D01*
X85342000Y-88202885D01*
X85346475Y-88218124D01*
X85347865Y-88219329D01*
X85355548Y-88221000D01*
X86427885Y-88221000D01*
X86443124Y-88216525D01*
X86444329Y-88215135D01*
X86446000Y-88207452D01*
X86446000Y-87010116D01*
X86441525Y-86994877D01*
X86440135Y-86993672D01*
X86432452Y-86992001D01*
X86052905Y-86992001D01*
X86046386Y-86992338D01*
X85950794Y-87002257D01*
X85937400Y-87005149D01*
X85783216Y-87056588D01*
X85770038Y-87062761D01*
X85632193Y-87148063D01*
X85620792Y-87157099D01*
X85506261Y-87271829D01*
X85497249Y-87283240D01*
X85412184Y-87421243D01*
X85406037Y-87434424D01*
X85354862Y-87588710D01*
X85351995Y-87602086D01*
X85342328Y-87696438D01*
X85342000Y-87702855D01*
X85342000Y-88202885D01*
X81250929Y-88202885D01*
X81243920Y-88120280D01*
X81242582Y-88115125D01*
X81242581Y-88115119D01*
X81187343Y-87902297D01*
X81187342Y-87902293D01*
X81186001Y-87897128D01*
X81091312Y-87686925D01*
X80962559Y-87495681D01*
X80926129Y-87457492D01*
X80867446Y-87395977D01*
X80803424Y-87328865D01*
X80618458Y-87191246D01*
X80613707Y-87188830D01*
X80613703Y-87188828D01*
X80454178Y-87107722D01*
X80412949Y-87086760D01*
X80407855Y-87085178D01*
X80407852Y-87085177D01*
X80197871Y-87019976D01*
X80192773Y-87018393D01*
X80187484Y-87017692D01*
X79969511Y-86988802D01*
X79969506Y-86988802D01*
X79964226Y-86988102D01*
X79958897Y-86988302D01*
X79958895Y-86988302D01*
X79860368Y-86992001D01*
X79733842Y-86996751D01*
X79728623Y-86997846D01*
X79727303Y-86998123D01*
X79508209Y-87044093D01*
X79503250Y-87046051D01*
X79503248Y-87046052D01*
X79298744Y-87126815D01*
X79298742Y-87126816D01*
X79293779Y-87128776D01*
X79289220Y-87131543D01*
X79289217Y-87131544D01*
X79190832Y-87191246D01*
X79096683Y-87248377D01*
X79092653Y-87251874D01*
X78976398Y-87352755D01*
X78922555Y-87399477D01*
X78919168Y-87403608D01*
X78779760Y-87573627D01*
X78779756Y-87573633D01*
X78776376Y-87577755D01*
X78758448Y-87609250D01*
X78707368Y-87658555D01*
X78637738Y-87672417D01*
X78571667Y-87646434D01*
X78544427Y-87617284D01*
X78465539Y-87500108D01*
X78462559Y-87495681D01*
X78426129Y-87457492D01*
X78367446Y-87395977D01*
X78303424Y-87328865D01*
X78118458Y-87191246D01*
X78113707Y-87188830D01*
X78113703Y-87188828D01*
X77954178Y-87107722D01*
X77912949Y-87086760D01*
X77907855Y-87085178D01*
X77907852Y-87085177D01*
X77697871Y-87019976D01*
X77692773Y-87018393D01*
X77687484Y-87017692D01*
X77469511Y-86988802D01*
X77469506Y-86988802D01*
X77464226Y-86988102D01*
X77458897Y-86988302D01*
X77458895Y-86988302D01*
X77360368Y-86992001D01*
X77233842Y-86996751D01*
X77228623Y-86997846D01*
X77227303Y-86998123D01*
X77008209Y-87044093D01*
X77003250Y-87046051D01*
X77003248Y-87046052D01*
X76798744Y-87126815D01*
X76798742Y-87126816D01*
X76793779Y-87128776D01*
X76789220Y-87131543D01*
X76789217Y-87131544D01*
X76690832Y-87191246D01*
X76596683Y-87248377D01*
X76592653Y-87251874D01*
X76476398Y-87352755D01*
X76422555Y-87399477D01*
X76419168Y-87403608D01*
X76392994Y-87435529D01*
X76334334Y-87475524D01*
X76263364Y-87477455D01*
X76202616Y-87440710D01*
X76188416Y-87421941D01*
X76101937Y-87282193D01*
X76092901Y-87270792D01*
X75978171Y-87156261D01*
X75966760Y-87147249D01*
X75828757Y-87062184D01*
X75815576Y-87056037D01*
X75661290Y-87004862D01*
X75647914Y-87001995D01*
X75553562Y-86992328D01*
X75547145Y-86992000D01*
X75172115Y-86992000D01*
X75156876Y-86996475D01*
X75155671Y-86997865D01*
X75154000Y-87005548D01*
X75154000Y-89939884D01*
X74646000Y-89939884D01*
X74646000Y-88747115D01*
X74641525Y-88731876D01*
X74640135Y-88730671D01*
X74632452Y-88729000D01*
X73560116Y-88729000D01*
X73544877Y-88733475D01*
X73543672Y-88734865D01*
X73542001Y-88742548D01*
X73542001Y-89241066D01*
X73521999Y-89309187D01*
X73468343Y-89355680D01*
X73408754Y-89364910D01*
X73408663Y-89366772D01*
X73404643Y-89366575D01*
X73404626Y-89366575D01*
X73403101Y-89366500D01*
X73247154Y-89366500D01*
X73089434Y-89381548D01*
X72886466Y-89441092D01*
X72881139Y-89443836D01*
X72881138Y-89443836D01*
X72703751Y-89535196D01*
X72703748Y-89535198D01*
X72698420Y-89537942D01*
X72532080Y-89668604D01*
X72528148Y-89673135D01*
X72528145Y-89673138D01*
X72424220Y-89792901D01*
X72393448Y-89828363D01*
X72390448Y-89833549D01*
X72390445Y-89833553D01*
X72318451Y-89958000D01*
X72287527Y-90011454D01*
X72218139Y-90211271D01*
X72217278Y-90217206D01*
X72217278Y-90217208D01*
X72192026Y-90391371D01*
X72187787Y-90420604D01*
X53687604Y-90420604D01*
X53692234Y-90391371D01*
X53692920Y-90384833D01*
X53712916Y-90003301D01*
X53712916Y-89996699D01*
X53692920Y-89615167D01*
X53692234Y-89608629D01*
X53632465Y-89231266D01*
X53631094Y-89224816D01*
X53532212Y-88855784D01*
X53530171Y-88849502D01*
X53393260Y-88492836D01*
X53390578Y-88486811D01*
X53245910Y-88202885D01*
X73542000Y-88202885D01*
X73546475Y-88218124D01*
X73547865Y-88219329D01*
X73555548Y-88221000D01*
X74627885Y-88221000D01*
X74643124Y-88216525D01*
X74644329Y-88215135D01*
X74646000Y-88207452D01*
X74646000Y-87010116D01*
X74641525Y-86994877D01*
X74640135Y-86993672D01*
X74632452Y-86992001D01*
X74252905Y-86992001D01*
X74246386Y-86992338D01*
X74150794Y-87002257D01*
X74137400Y-87005149D01*
X73983216Y-87056588D01*
X73970038Y-87062761D01*
X73832193Y-87148063D01*
X73820792Y-87157099D01*
X73706261Y-87271829D01*
X73697249Y-87283240D01*
X73612184Y-87421243D01*
X73606037Y-87434424D01*
X73554862Y-87588710D01*
X73551995Y-87602086D01*
X73542328Y-87696438D01*
X73542000Y-87702855D01*
X73542000Y-88202885D01*
X53245910Y-88202885D01*
X53217128Y-88146397D01*
X53213831Y-88140687D01*
X53005747Y-87820265D01*
X53001877Y-87814939D01*
X52808522Y-87576165D01*
X52796267Y-87567700D01*
X52785176Y-87574034D01*
X50372022Y-89987188D01*
X50364408Y-90001132D01*
X49634356Y-90001132D01*
X49635592Y-89998868D01*
X49635461Y-89997035D01*
X49631210Y-89990420D01*
X47215690Y-87574900D01*
X47202614Y-87567759D01*
X47192247Y-87575216D01*
X46998123Y-87814939D01*
X46994253Y-87820265D01*
X46786169Y-88140687D01*
X46782872Y-88146397D01*
X46609422Y-88486811D01*
X46606740Y-88492836D01*
X46469829Y-88849502D01*
X46467788Y-88855784D01*
X46368906Y-89224816D01*
X46367535Y-89231266D01*
X46307766Y-89608629D01*
X46307080Y-89615167D01*
X46287084Y-89996699D01*
X46287084Y-90003301D01*
X44513689Y-90003301D01*
X44513729Y-90000000D01*
X44509773Y-89972376D01*
X44508500Y-89954514D01*
X44508500Y-87203733D01*
X47567700Y-87203733D01*
X47574034Y-87214824D01*
X49987188Y-89627978D01*
X50001132Y-89635592D01*
X50002965Y-89635461D01*
X50009580Y-89631210D01*
X52425100Y-87215690D01*
X52432241Y-87202614D01*
X52424784Y-87192247D01*
X52185065Y-86998126D01*
X52179728Y-86994249D01*
X51859315Y-86786170D01*
X51853606Y-86782873D01*
X51513189Y-86609422D01*
X51507164Y-86606740D01*
X51150498Y-86469829D01*
X51144216Y-86467788D01*
X50775184Y-86368906D01*
X50768734Y-86367535D01*
X50391371Y-86307766D01*
X50384833Y-86307080D01*
X50003301Y-86287084D01*
X49996699Y-86287084D01*
X49615167Y-86307080D01*
X49608629Y-86307766D01*
X49231266Y-86367535D01*
X49224816Y-86368906D01*
X48855784Y-86467788D01*
X48849502Y-86469829D01*
X48492836Y-86606740D01*
X48486811Y-86609422D01*
X48146397Y-86782872D01*
X48140687Y-86786169D01*
X47820265Y-86994253D01*
X47814939Y-86998123D01*
X47576165Y-87191478D01*
X47567700Y-87203733D01*
X44508500Y-87203733D01*
X44508500Y-81600000D01*
X98886496Y-81600000D01*
X98906458Y-81789928D01*
X98965473Y-81971556D01*
X99060960Y-82136944D01*
X99188747Y-82278866D01*
X99343248Y-82391118D01*
X99349276Y-82393802D01*
X99349278Y-82393803D01*
X99511681Y-82466109D01*
X99517712Y-82468794D01*
X99611112Y-82488647D01*
X99698056Y-82507128D01*
X99698061Y-82507128D01*
X99704513Y-82508500D01*
X99895487Y-82508500D01*
X99901939Y-82507128D01*
X99901944Y-82507128D01*
X99988888Y-82488647D01*
X100082288Y-82468794D01*
X100088319Y-82466109D01*
X100250722Y-82393803D01*
X100250724Y-82393802D01*
X100256752Y-82391118D01*
X100411253Y-82278866D01*
X100539040Y-82136944D01*
X100634527Y-81971556D01*
X100693542Y-81789928D01*
X100713504Y-81600000D01*
X100695001Y-81423953D01*
X100707773Y-81354115D01*
X100756275Y-81302268D01*
X100794114Y-81287536D01*
X100882288Y-81268794D01*
X100958800Y-81234729D01*
X101050722Y-81193803D01*
X101050724Y-81193802D01*
X101056752Y-81191118D01*
X101211253Y-81078866D01*
X101339040Y-80936944D01*
X101434527Y-80771556D01*
X101493542Y-80589928D01*
X101513504Y-80400000D01*
X101495001Y-80223953D01*
X101507773Y-80154115D01*
X101556275Y-80102268D01*
X101594114Y-80087536D01*
X101595022Y-80087343D01*
X101682288Y-80068794D01*
X101688319Y-80066109D01*
X101850722Y-79993803D01*
X101850724Y-79993802D01*
X101856752Y-79991118D01*
X102011253Y-79878866D01*
X102139040Y-79736944D01*
X102216190Y-79603317D01*
X102231223Y-79577279D01*
X102231224Y-79577278D01*
X102234527Y-79571556D01*
X102293542Y-79389928D01*
X102299497Y-79333275D01*
X102313504Y-79200000D01*
X102315283Y-79200187D01*
X102332816Y-79140476D01*
X102386472Y-79093983D01*
X102438814Y-79082597D01*
X102521391Y-79082597D01*
X102527843Y-79081225D01*
X102527848Y-79081225D01*
X102614791Y-79062744D01*
X102708192Y-79042891D01*
X102728436Y-79033878D01*
X102876626Y-78967900D01*
X102876628Y-78967899D01*
X102882656Y-78965215D01*
X102900233Y-78952445D01*
X103008001Y-78874146D01*
X103037157Y-78852963D01*
X103100740Y-78782347D01*
X103160525Y-78715949D01*
X103160526Y-78715948D01*
X103164944Y-78711041D01*
X103260431Y-78545653D01*
X103319446Y-78364025D01*
X103321777Y-78341852D01*
X103338718Y-78180662D01*
X103339408Y-78174097D01*
X103325233Y-78039226D01*
X103320136Y-77990732D01*
X103320136Y-77990730D01*
X103319446Y-77984169D01*
X103295598Y-77910774D01*
X147733102Y-77910774D01*
X147741751Y-78141158D01*
X147789093Y-78366791D01*
X147791051Y-78371750D01*
X147791052Y-78371752D01*
X147861990Y-78551376D01*
X147873776Y-78581221D01*
X147876543Y-78585780D01*
X147876544Y-78585783D01*
X147926917Y-78668794D01*
X147993377Y-78778317D01*
X147996874Y-78782347D01*
X148083438Y-78882103D01*
X148144477Y-78952445D01*
X148148608Y-78955832D01*
X148318627Y-79095240D01*
X148318633Y-79095244D01*
X148322755Y-79098624D01*
X148327391Y-79101263D01*
X148327394Y-79101265D01*
X148396278Y-79140476D01*
X148523114Y-79212675D01*
X148739825Y-79291337D01*
X148745074Y-79292286D01*
X148745077Y-79292287D01*
X148962608Y-79331623D01*
X148962615Y-79331624D01*
X148966692Y-79332361D01*
X148984414Y-79333197D01*
X148989356Y-79333430D01*
X148989363Y-79333430D01*
X148990844Y-79333500D01*
X149402890Y-79333500D01*
X149469809Y-79327822D01*
X149569409Y-79319371D01*
X149569413Y-79319370D01*
X149574720Y-79318920D01*
X149579875Y-79317582D01*
X149579881Y-79317581D01*
X149792703Y-79262343D01*
X149792707Y-79262342D01*
X149797872Y-79261001D01*
X149802738Y-79258809D01*
X149802741Y-79258808D01*
X150003202Y-79168507D01*
X150008075Y-79166312D01*
X150199319Y-79037559D01*
X150366135Y-78878424D01*
X150372767Y-78869511D01*
X150444010Y-78773757D01*
X150503754Y-78693458D01*
X150515597Y-78670166D01*
X150593342Y-78517251D01*
X150608240Y-78487949D01*
X150611061Y-78478866D01*
X150675024Y-78272871D01*
X150676607Y-78267773D01*
X150687019Y-78189217D01*
X150706198Y-78044511D01*
X150706198Y-78044506D01*
X150706898Y-78039226D01*
X150705078Y-77990732D01*
X150698449Y-77814173D01*
X150698249Y-77808842D01*
X150650907Y-77583209D01*
X150648948Y-77578248D01*
X150568185Y-77373744D01*
X150568184Y-77373742D01*
X150566224Y-77368779D01*
X150446623Y-77171683D01*
X150402759Y-77121134D01*
X150299023Y-77001588D01*
X150299021Y-77001586D01*
X150295523Y-76997555D01*
X150214605Y-76931206D01*
X150121373Y-76854760D01*
X150121367Y-76854756D01*
X150117245Y-76851376D01*
X150112602Y-76848733D01*
X150085265Y-76833171D01*
X150035959Y-76782088D01*
X150022098Y-76712458D01*
X150048082Y-76646387D01*
X150077232Y-76619149D01*
X150194578Y-76540148D01*
X150202870Y-76533481D01*
X150361900Y-76381772D01*
X150368941Y-76373814D01*
X150500141Y-76197475D01*
X150505745Y-76188438D01*
X150605357Y-75992516D01*
X150609357Y-75982665D01*
X150674534Y-75772760D01*
X150676817Y-75762376D01*
X150678861Y-75746957D01*
X150676665Y-75732793D01*
X150663478Y-75729000D01*
X147778808Y-75729000D01*
X147765277Y-75732973D01*
X147763752Y-75743580D01*
X147788477Y-75861421D01*
X147791537Y-75871617D01*
X147872263Y-76076029D01*
X147876994Y-76085561D01*
X147991016Y-76273462D01*
X147997280Y-76282052D01*
X148141327Y-76448052D01*
X148148958Y-76455472D01*
X148318911Y-76594826D01*
X148327674Y-76600848D01*
X148354711Y-76616238D01*
X148404018Y-76667320D01*
X148417880Y-76736951D01*
X148391897Y-76803022D01*
X148362747Y-76830261D01*
X148358425Y-76833171D01*
X148240681Y-76912441D01*
X148236824Y-76916120D01*
X148236822Y-76916122D01*
X148167464Y-76982287D01*
X148073865Y-77071576D01*
X147936246Y-77256542D01*
X147933830Y-77261293D01*
X147933828Y-77261297D01*
X147884418Y-77358481D01*
X147831760Y-77462051D01*
X147830178Y-77467145D01*
X147830177Y-77467148D01*
X147787747Y-77603794D01*
X147763393Y-77682227D01*
X147762692Y-77687516D01*
X147734417Y-77900854D01*
X147733102Y-77910774D01*
X103295598Y-77910774D01*
X103260431Y-77802541D01*
X103164944Y-77637153D01*
X103156723Y-77628022D01*
X103041579Y-77500142D01*
X103041578Y-77500141D01*
X103037157Y-77495231D01*
X102882656Y-77382979D01*
X102876628Y-77380295D01*
X102876626Y-77380294D01*
X102714223Y-77307988D01*
X102714222Y-77307988D01*
X102708192Y-77305303D01*
X102614791Y-77285450D01*
X102527848Y-77266969D01*
X102527843Y-77266969D01*
X102521391Y-77265597D01*
X102330417Y-77265597D01*
X102323965Y-77266969D01*
X102323960Y-77266969D01*
X102237017Y-77285450D01*
X102143616Y-77305303D01*
X102137586Y-77307988D01*
X102137585Y-77307988D01*
X101975182Y-77380294D01*
X101975180Y-77380295D01*
X101969152Y-77382979D01*
X101814651Y-77495231D01*
X101810230Y-77500141D01*
X101810229Y-77500142D01*
X101695086Y-77628022D01*
X101686864Y-77637153D01*
X101591377Y-77802541D01*
X101532362Y-77984169D01*
X101531672Y-77990730D01*
X101531672Y-77990732D01*
X101526575Y-78039226D01*
X101512400Y-78174097D01*
X101510621Y-78173910D01*
X101493088Y-78233621D01*
X101439432Y-78280114D01*
X101387090Y-78291500D01*
X101304513Y-78291500D01*
X101298061Y-78292872D01*
X101298056Y-78292872D01*
X101211113Y-78311353D01*
X101117712Y-78331206D01*
X101111682Y-78333891D01*
X101111681Y-78333891D01*
X100949278Y-78406197D01*
X100949276Y-78406198D01*
X100943248Y-78408882D01*
X100788747Y-78521134D01*
X100784326Y-78526044D01*
X100784325Y-78526045D01*
X100691964Y-78628623D01*
X100660960Y-78663056D01*
X100565473Y-78828444D01*
X100506458Y-79010072D01*
X100505768Y-79016633D01*
X100505768Y-79016635D01*
X100497230Y-79097871D01*
X100486496Y-79200000D01*
X100487186Y-79206565D01*
X100504999Y-79376047D01*
X100492227Y-79445885D01*
X100443725Y-79497732D01*
X100405886Y-79512464D01*
X100317712Y-79531206D01*
X100311682Y-79533891D01*
X100311681Y-79533891D01*
X100149278Y-79606197D01*
X100149276Y-79606198D01*
X100143248Y-79608882D01*
X99988747Y-79721134D01*
X99860960Y-79863056D01*
X99765473Y-80028444D01*
X99706458Y-80210072D01*
X99686496Y-80400000D01*
X99687186Y-80406565D01*
X99704999Y-80576047D01*
X99692227Y-80645885D01*
X99643725Y-80697732D01*
X99605886Y-80712464D01*
X99517712Y-80731206D01*
X99511682Y-80733891D01*
X99511681Y-80733891D01*
X99349278Y-80806197D01*
X99349276Y-80806198D01*
X99343248Y-80808882D01*
X99188747Y-80921134D01*
X99060960Y-81063056D01*
X98965473Y-81228444D01*
X98906458Y-81410072D01*
X98886496Y-81600000D01*
X44508500Y-81600000D01*
X44508500Y-78735774D01*
X52313102Y-78735774D01*
X52321751Y-78966158D01*
X52369093Y-79191791D01*
X52371051Y-79196750D01*
X52371052Y-79196752D01*
X52447342Y-79389928D01*
X52453776Y-79406221D01*
X52573377Y-79603317D01*
X52576874Y-79607347D01*
X52679875Y-79726045D01*
X52724477Y-79777445D01*
X52728608Y-79780832D01*
X52898627Y-79920240D01*
X52898633Y-79920244D01*
X52902755Y-79923624D01*
X52907391Y-79926263D01*
X52907394Y-79926265D01*
X53014507Y-79987237D01*
X53103114Y-80037675D01*
X53319825Y-80116337D01*
X53325074Y-80117286D01*
X53325077Y-80117287D01*
X53542608Y-80156623D01*
X53542615Y-80156624D01*
X53546692Y-80157361D01*
X53564414Y-80158197D01*
X53569356Y-80158430D01*
X53569363Y-80158430D01*
X53570844Y-80158500D01*
X53982890Y-80158500D01*
X54049809Y-80152822D01*
X54149409Y-80144371D01*
X54149413Y-80144370D01*
X54154720Y-80143920D01*
X54159875Y-80142582D01*
X54159881Y-80142581D01*
X54372703Y-80087343D01*
X54372707Y-80087342D01*
X54377872Y-80086001D01*
X54382738Y-80083809D01*
X54382741Y-80083808D01*
X54583202Y-79993507D01*
X54588075Y-79991312D01*
X54779319Y-79862559D01*
X54946135Y-79703424D01*
X55083754Y-79518458D01*
X55188240Y-79312949D01*
X55204371Y-79261001D01*
X55255024Y-79097871D01*
X55256607Y-79092773D01*
X55268400Y-79003794D01*
X55286198Y-78869511D01*
X55286198Y-78869506D01*
X55286898Y-78864226D01*
X55278249Y-78633842D01*
X55230907Y-78408209D01*
X55228948Y-78403248D01*
X55148185Y-78198744D01*
X55148184Y-78198742D01*
X55146224Y-78193779D01*
X55138265Y-78180662D01*
X55029390Y-78001243D01*
X55026623Y-77996683D01*
X54939755Y-77896576D01*
X54879023Y-77826588D01*
X54879021Y-77826586D01*
X54875523Y-77822555D01*
X54848015Y-77800000D01*
X96886496Y-77800000D01*
X96906458Y-77989928D01*
X96965473Y-78171556D01*
X96968776Y-78177278D01*
X96968777Y-78177279D01*
X96978303Y-78193779D01*
X97060960Y-78336944D01*
X97065378Y-78341851D01*
X97065379Y-78341852D01*
X97125127Y-78408209D01*
X97188747Y-78478866D01*
X97343248Y-78591118D01*
X97349276Y-78593802D01*
X97349278Y-78593803D01*
X97504824Y-78663056D01*
X97517712Y-78668794D01*
X97611112Y-78688647D01*
X97698056Y-78707128D01*
X97698061Y-78707128D01*
X97704513Y-78708500D01*
X97895487Y-78708500D01*
X97901939Y-78707128D01*
X97901944Y-78707128D01*
X97988888Y-78688647D01*
X98082288Y-78668794D01*
X98095176Y-78663056D01*
X98250722Y-78593803D01*
X98250724Y-78593802D01*
X98256752Y-78591118D01*
X98411253Y-78478866D01*
X98474873Y-78408209D01*
X98534621Y-78341852D01*
X98534622Y-78341851D01*
X98539040Y-78336944D01*
X98621697Y-78193779D01*
X98631223Y-78177279D01*
X98631224Y-78177278D01*
X98634527Y-78171556D01*
X98693542Y-77989928D01*
X98713504Y-77800000D01*
X98701126Y-77682227D01*
X98694232Y-77616635D01*
X98694232Y-77616633D01*
X98693542Y-77610072D01*
X98634527Y-77428444D01*
X98629552Y-77419826D01*
X98594134Y-77358481D01*
X98539040Y-77263056D01*
X98456768Y-77171683D01*
X98415675Y-77126045D01*
X98415674Y-77126044D01*
X98411253Y-77121134D01*
X98256752Y-77008882D01*
X98250724Y-77006198D01*
X98250722Y-77006197D01*
X98088319Y-76933891D01*
X98088318Y-76933891D01*
X98082288Y-76931206D01*
X97988888Y-76911353D01*
X97901944Y-76892872D01*
X97901939Y-76892872D01*
X97895487Y-76891500D01*
X97704513Y-76891500D01*
X97698061Y-76892872D01*
X97698056Y-76892872D01*
X97611112Y-76911353D01*
X97517712Y-76931206D01*
X97511682Y-76933891D01*
X97511681Y-76933891D01*
X97349278Y-77006197D01*
X97349276Y-77006198D01*
X97343248Y-77008882D01*
X97188747Y-77121134D01*
X97184326Y-77126044D01*
X97184325Y-77126045D01*
X97143233Y-77171683D01*
X97060960Y-77263056D01*
X97005866Y-77358481D01*
X96970449Y-77419826D01*
X96965473Y-77428444D01*
X96906458Y-77610072D01*
X96905768Y-77616633D01*
X96905768Y-77616635D01*
X96898874Y-77682227D01*
X96886496Y-77800000D01*
X54848015Y-77800000D01*
X54833970Y-77788484D01*
X54701373Y-77679760D01*
X54701367Y-77679756D01*
X54697245Y-77676376D01*
X54692602Y-77673733D01*
X54665265Y-77658171D01*
X54615959Y-77607088D01*
X54602098Y-77537458D01*
X54628082Y-77471387D01*
X54657232Y-77444149D01*
X54774578Y-77365148D01*
X54782870Y-77358481D01*
X54941900Y-77206772D01*
X54948941Y-77198814D01*
X55080141Y-77022475D01*
X55085745Y-77013438D01*
X55185357Y-76817516D01*
X55189357Y-76807665D01*
X55254534Y-76597760D01*
X55256817Y-76587376D01*
X55258861Y-76571957D01*
X55256665Y-76557793D01*
X55243478Y-76554000D01*
X52358808Y-76554000D01*
X52345277Y-76557973D01*
X52343752Y-76568580D01*
X52368477Y-76686421D01*
X52371537Y-76696617D01*
X52452263Y-76901029D01*
X52456994Y-76910561D01*
X52571016Y-77098462D01*
X52577280Y-77107052D01*
X52721327Y-77273052D01*
X52728958Y-77280472D01*
X52898911Y-77419826D01*
X52907674Y-77425848D01*
X52934711Y-77441238D01*
X52984018Y-77492320D01*
X52997880Y-77561951D01*
X52971897Y-77628022D01*
X52942747Y-77655261D01*
X52938425Y-77658171D01*
X52820681Y-77737441D01*
X52653865Y-77896576D01*
X52650682Y-77900854D01*
X52643301Y-77910774D01*
X52516246Y-78081542D01*
X52411760Y-78287051D01*
X52410178Y-78292145D01*
X52410177Y-78292148D01*
X52353724Y-78473955D01*
X52343393Y-78507227D01*
X52342692Y-78512516D01*
X52315730Y-78715949D01*
X52313102Y-78735774D01*
X44508500Y-78735774D01*
X44508500Y-64645604D01*
X50687787Y-64645604D01*
X50697567Y-64856899D01*
X50698971Y-64862724D01*
X50698971Y-64862725D01*
X50743376Y-65046976D01*
X50747125Y-65062534D01*
X50749607Y-65067992D01*
X50749608Y-65067996D01*
X50801916Y-65183041D01*
X50834674Y-65255087D01*
X50957054Y-65427611D01*
X51109850Y-65573881D01*
X51287548Y-65688620D01*
X51293114Y-65690863D01*
X51478168Y-65765442D01*
X51478171Y-65765443D01*
X51483737Y-65767686D01*
X51691337Y-65808228D01*
X51696899Y-65808500D01*
X51852846Y-65808500D01*
X52010566Y-65793452D01*
X52016322Y-65791763D01*
X52016324Y-65791763D01*
X52155031Y-65751071D01*
X52226027Y-65751088D01*
X52285744Y-65789486D01*
X52315222Y-65854074D01*
X52316500Y-65871976D01*
X52316500Y-66950400D01*
X52316837Y-66953646D01*
X52316837Y-66953650D01*
X52326507Y-67046844D01*
X52327474Y-67056166D01*
X52329655Y-67062702D01*
X52329655Y-67062704D01*
X52357656Y-67146633D01*
X52383450Y-67223946D01*
X52476522Y-67374348D01*
X52601697Y-67499305D01*
X52747340Y-67589081D01*
X52794832Y-67641852D01*
X52806256Y-67711924D01*
X52777982Y-67777048D01*
X52768195Y-67787510D01*
X52735680Y-67818528D01*
X52653865Y-67896576D01*
X52650682Y-67900854D01*
X52643301Y-67910774D01*
X52516246Y-68081542D01*
X52411760Y-68287051D01*
X52410178Y-68292145D01*
X52410177Y-68292148D01*
X52353724Y-68473955D01*
X52343393Y-68507227D01*
X52342692Y-68512516D01*
X52316717Y-68708500D01*
X52313102Y-68735774D01*
X52313302Y-68741103D01*
X52313302Y-68741105D01*
X52317426Y-68850966D01*
X52321751Y-68966158D01*
X52322846Y-68971377D01*
X52325558Y-68984302D01*
X52369093Y-69191791D01*
X52371051Y-69196750D01*
X52371052Y-69196752D01*
X52432117Y-69351376D01*
X52453776Y-69406221D01*
X52573377Y-69603317D01*
X52576874Y-69607347D01*
X52710465Y-69761297D01*
X52724477Y-69777445D01*
X52728608Y-69780832D01*
X52898627Y-69920240D01*
X52898633Y-69920244D01*
X52902755Y-69923624D01*
X52934250Y-69941552D01*
X52983555Y-69992632D01*
X52997417Y-70062262D01*
X52971434Y-70128333D01*
X52942284Y-70155573D01*
X52820681Y-70237441D01*
X52816824Y-70241120D01*
X52816822Y-70241122D01*
X52751305Y-70303623D01*
X52653865Y-70396576D01*
X52650682Y-70400854D01*
X52646707Y-70406197D01*
X52516246Y-70581542D01*
X52513830Y-70586293D01*
X52513828Y-70586297D01*
X52474802Y-70663056D01*
X52411760Y-70787051D01*
X52410178Y-70792145D01*
X52410177Y-70792148D01*
X52350962Y-70982852D01*
X52343393Y-71007227D01*
X52342692Y-71012516D01*
X52319341Y-71188703D01*
X52313102Y-71235774D01*
X52313302Y-71241103D01*
X52313302Y-71241105D01*
X52315375Y-71296329D01*
X52321751Y-71466158D01*
X52369093Y-71691791D01*
X52371051Y-71696750D01*
X52371052Y-71696752D01*
X52432117Y-71851376D01*
X52453776Y-71906221D01*
X52573377Y-72103317D01*
X52576874Y-72107347D01*
X52710465Y-72261297D01*
X52724477Y-72277445D01*
X52728608Y-72280832D01*
X52898627Y-72420240D01*
X52898633Y-72420244D01*
X52902755Y-72423624D01*
X52934250Y-72441552D01*
X52983555Y-72492632D01*
X52997417Y-72562262D01*
X52971434Y-72628333D01*
X52942284Y-72655573D01*
X52820681Y-72737441D01*
X52653865Y-72896576D01*
X52650682Y-72900854D01*
X52643301Y-72910774D01*
X52516246Y-73081542D01*
X52411760Y-73287051D01*
X52410178Y-73292145D01*
X52410177Y-73292148D01*
X52350962Y-73482852D01*
X52343393Y-73507227D01*
X52342692Y-73512516D01*
X52319341Y-73688703D01*
X52313102Y-73735774D01*
X52321751Y-73966158D01*
X52369093Y-74191791D01*
X52371051Y-74196750D01*
X52371052Y-74196752D01*
X52396426Y-74261001D01*
X52453776Y-74406221D01*
X52573377Y-74603317D01*
X52576874Y-74607347D01*
X52702853Y-74752525D01*
X52724477Y-74777445D01*
X52728608Y-74780832D01*
X52898627Y-74920240D01*
X52898633Y-74920244D01*
X52902755Y-74923624D01*
X52907398Y-74926267D01*
X52934735Y-74941829D01*
X52984041Y-74992912D01*
X52997902Y-75062542D01*
X52971918Y-75128613D01*
X52942768Y-75155851D01*
X52825422Y-75234852D01*
X52817130Y-75241519D01*
X52658100Y-75393228D01*
X52651059Y-75401186D01*
X52519859Y-75577525D01*
X52514255Y-75586562D01*
X52414643Y-75782484D01*
X52410643Y-75792335D01*
X52345466Y-76002240D01*
X52343183Y-76012624D01*
X52341139Y-76028043D01*
X52343335Y-76042207D01*
X52356522Y-76046000D01*
X55241192Y-76046000D01*
X55254723Y-76042027D01*
X55256248Y-76031420D01*
X55231523Y-75913579D01*
X55228463Y-75903383D01*
X55147737Y-75698971D01*
X55143006Y-75689439D01*
X55088733Y-75600000D01*
X120286496Y-75600000D01*
X120287186Y-75606565D01*
X120305676Y-75782484D01*
X120306458Y-75789928D01*
X120365473Y-75971556D01*
X120460960Y-76136944D01*
X120588747Y-76278866D01*
X120743248Y-76391118D01*
X120749276Y-76393802D01*
X120749278Y-76393803D01*
X120871124Y-76448052D01*
X120917712Y-76468794D01*
X121011112Y-76488647D01*
X121098056Y-76507128D01*
X121098061Y-76507128D01*
X121104513Y-76508500D01*
X121295487Y-76508500D01*
X121301939Y-76507128D01*
X121301944Y-76507128D01*
X121388888Y-76488647D01*
X121482288Y-76468794D01*
X121528876Y-76448052D01*
X121650722Y-76393803D01*
X121650724Y-76393802D01*
X121656752Y-76391118D01*
X121811253Y-76278866D01*
X121939040Y-76136944D01*
X122034527Y-75971556D01*
X122093542Y-75789928D01*
X122094325Y-75782484D01*
X122112814Y-75606565D01*
X122113504Y-75600000D01*
X122093542Y-75410072D01*
X122034527Y-75228444D01*
X122027936Y-75217027D01*
X121942341Y-75068774D01*
X121939040Y-75063056D01*
X121874442Y-74991312D01*
X121815675Y-74926045D01*
X121815674Y-74926044D01*
X121811253Y-74921134D01*
X121656752Y-74808882D01*
X121650724Y-74806198D01*
X121650722Y-74806197D01*
X121488319Y-74733891D01*
X121488318Y-74733891D01*
X121482288Y-74731206D01*
X121368893Y-74707103D01*
X121301944Y-74692872D01*
X121301939Y-74692872D01*
X121295487Y-74691500D01*
X121104513Y-74691500D01*
X121098061Y-74692872D01*
X121098056Y-74692872D01*
X121031107Y-74707103D01*
X120917712Y-74731206D01*
X120911682Y-74733891D01*
X120911681Y-74733891D01*
X120749278Y-74806197D01*
X120749276Y-74806198D01*
X120743248Y-74808882D01*
X120588747Y-74921134D01*
X120584326Y-74926044D01*
X120584325Y-74926045D01*
X120525559Y-74991312D01*
X120460960Y-75063056D01*
X120457659Y-75068774D01*
X120372065Y-75217027D01*
X120365473Y-75228444D01*
X120306458Y-75410072D01*
X120286496Y-75600000D01*
X55088733Y-75600000D01*
X55028984Y-75501538D01*
X55022720Y-75492948D01*
X54878673Y-75326948D01*
X54871042Y-75319528D01*
X54701089Y-75180174D01*
X54692326Y-75174152D01*
X54665289Y-75158762D01*
X54615982Y-75107680D01*
X54602120Y-75038049D01*
X54628103Y-74971978D01*
X54657253Y-74944739D01*
X54762368Y-74873971D01*
X54779319Y-74862559D01*
X54838402Y-74806197D01*
X54942278Y-74707103D01*
X54946135Y-74703424D01*
X55083754Y-74518458D01*
X55188240Y-74312949D01*
X55204371Y-74261001D01*
X55255024Y-74097871D01*
X55256607Y-74092773D01*
X55264413Y-74033878D01*
X55286198Y-73869511D01*
X55286198Y-73869506D01*
X55286898Y-73864226D01*
X55278249Y-73633842D01*
X55230907Y-73408209D01*
X55228948Y-73403248D01*
X55148185Y-73198744D01*
X55148184Y-73198742D01*
X55146224Y-73193779D01*
X55026623Y-72996683D01*
X54939755Y-72896576D01*
X54879023Y-72826588D01*
X54879021Y-72826586D01*
X54875523Y-72822555D01*
X54777099Y-72741852D01*
X54701373Y-72679760D01*
X54701367Y-72679756D01*
X54697245Y-72676376D01*
X54665750Y-72658448D01*
X54616445Y-72607368D01*
X54602583Y-72537738D01*
X54628566Y-72471667D01*
X54657716Y-72444427D01*
X54738666Y-72389928D01*
X54779319Y-72362559D01*
X54946135Y-72203424D01*
X54948683Y-72200000D01*
X129086496Y-72200000D01*
X129087186Y-72206565D01*
X129103895Y-72365539D01*
X129106458Y-72389928D01*
X129165473Y-72571556D01*
X129168776Y-72577278D01*
X129168777Y-72577279D01*
X129172201Y-72583209D01*
X129260960Y-72736944D01*
X129388747Y-72878866D01*
X129543248Y-72991118D01*
X129549276Y-72993802D01*
X129549278Y-72993803D01*
X129663171Y-73044511D01*
X129717712Y-73068794D01*
X129800057Y-73086297D01*
X129898056Y-73107128D01*
X129898061Y-73107128D01*
X129904513Y-73108500D01*
X130095487Y-73108500D01*
X130101939Y-73107128D01*
X130101944Y-73107128D01*
X130199943Y-73086297D01*
X130282288Y-73068794D01*
X130336829Y-73044511D01*
X130450722Y-72993803D01*
X130450724Y-72993802D01*
X130456752Y-72991118D01*
X130611253Y-72878866D01*
X130739040Y-72736944D01*
X130827799Y-72583209D01*
X130831223Y-72577279D01*
X130831224Y-72577278D01*
X130834527Y-72571556D01*
X130893542Y-72389928D01*
X130896106Y-72365539D01*
X130905788Y-72273412D01*
X130912458Y-72209957D01*
X130939470Y-72144301D01*
X130997691Y-72103671D01*
X131063964Y-72099881D01*
X131098056Y-72107128D01*
X131098061Y-72107128D01*
X131104513Y-72108500D01*
X131295487Y-72108500D01*
X131301939Y-72107128D01*
X131301944Y-72107128D01*
X131388887Y-72088647D01*
X131482288Y-72068794D01*
X131501171Y-72060387D01*
X131650722Y-71993803D01*
X131650724Y-71993802D01*
X131656752Y-71991118D01*
X131811253Y-71878866D01*
X131861806Y-71822721D01*
X131934621Y-71741852D01*
X131934622Y-71741851D01*
X131939040Y-71736944D01*
X132034527Y-71571556D01*
X132093542Y-71389928D01*
X132094365Y-71382103D01*
X132112814Y-71206565D01*
X132113504Y-71200000D01*
X132106002Y-71128623D01*
X132094232Y-71016635D01*
X132094232Y-71016633D01*
X132093542Y-71010072D01*
X132034527Y-70828444D01*
X132013572Y-70792148D01*
X131996445Y-70762484D01*
X131939040Y-70663056D01*
X131811253Y-70521134D01*
X131656752Y-70408882D01*
X131650724Y-70406198D01*
X131650722Y-70406197D01*
X131488319Y-70333891D01*
X131488318Y-70333891D01*
X131482288Y-70331206D01*
X131388887Y-70311353D01*
X131301944Y-70292872D01*
X131301939Y-70292872D01*
X131295487Y-70291500D01*
X131104513Y-70291500D01*
X131098061Y-70292872D01*
X131098056Y-70292872D01*
X131011113Y-70311353D01*
X130917712Y-70331206D01*
X130911682Y-70333891D01*
X130911681Y-70333891D01*
X130749278Y-70406197D01*
X130749276Y-70406198D01*
X130743248Y-70408882D01*
X130588747Y-70521134D01*
X130460960Y-70663056D01*
X130403555Y-70762484D01*
X130386429Y-70792148D01*
X130365473Y-70828444D01*
X130306458Y-71010072D01*
X130287684Y-71188703D01*
X130287543Y-71190042D01*
X130260530Y-71255699D01*
X130202309Y-71296329D01*
X130136036Y-71300119D01*
X130101944Y-71292872D01*
X130101939Y-71292872D01*
X130095487Y-71291500D01*
X129904513Y-71291500D01*
X129898061Y-71292872D01*
X129898056Y-71292872D01*
X129811113Y-71311353D01*
X129717712Y-71331206D01*
X129711682Y-71333891D01*
X129711681Y-71333891D01*
X129549278Y-71406197D01*
X129549276Y-71406198D01*
X129543248Y-71408882D01*
X129388747Y-71521134D01*
X129384326Y-71526044D01*
X129384325Y-71526045D01*
X129316600Y-71601262D01*
X129260960Y-71663056D01*
X129165473Y-71828444D01*
X129106458Y-72010072D01*
X129105768Y-72016633D01*
X129105768Y-72016635D01*
X129101170Y-72060387D01*
X129086496Y-72200000D01*
X54948683Y-72200000D01*
X55083754Y-72018458D01*
X55092332Y-72001588D01*
X55166982Y-71854760D01*
X55188240Y-71812949D01*
X55210317Y-71741852D01*
X55255024Y-71597871D01*
X55256607Y-71592773D01*
X55266102Y-71521134D01*
X55286198Y-71369511D01*
X55286198Y-71369506D01*
X55286898Y-71364226D01*
X55278249Y-71133842D01*
X55230907Y-70908209D01*
X55228948Y-70903248D01*
X55148185Y-70698744D01*
X55148184Y-70698742D01*
X55146224Y-70693779D01*
X55026623Y-70496683D01*
X54952075Y-70410774D01*
X54879023Y-70326588D01*
X54879021Y-70326586D01*
X54875523Y-70322555D01*
X54833970Y-70288484D01*
X54701373Y-70179760D01*
X54701367Y-70179756D01*
X54697245Y-70176376D01*
X54665750Y-70158448D01*
X54616445Y-70107368D01*
X54602583Y-70037738D01*
X54628566Y-69971667D01*
X54657716Y-69944427D01*
X54762705Y-69873744D01*
X54779319Y-69862559D01*
X54946135Y-69703424D01*
X55083754Y-69518458D01*
X55092332Y-69501588D01*
X55166982Y-69354760D01*
X55188240Y-69312949D01*
X55215229Y-69226033D01*
X55255024Y-69097871D01*
X55256607Y-69092773D01*
X55264413Y-69033878D01*
X55278055Y-68930950D01*
X83078493Y-68930950D01*
X83087789Y-68942965D01*
X83138994Y-68978819D01*
X83148489Y-68984302D01*
X83345947Y-69076378D01*
X83356239Y-69080124D01*
X83566688Y-69136513D01*
X83577481Y-69138416D01*
X83794525Y-69157405D01*
X83805475Y-69157405D01*
X84022519Y-69138416D01*
X84033312Y-69136513D01*
X84243761Y-69080124D01*
X84254053Y-69076378D01*
X84451511Y-68984302D01*
X84461006Y-68978819D01*
X84513048Y-68942379D01*
X84521424Y-68931900D01*
X84514356Y-68918454D01*
X83812812Y-68216910D01*
X83798868Y-68209296D01*
X83797035Y-68209427D01*
X83790420Y-68213678D01*
X83084923Y-68919175D01*
X83078493Y-68930950D01*
X55278055Y-68930950D01*
X55286198Y-68869511D01*
X55286198Y-68869506D01*
X55286898Y-68864226D01*
X55278249Y-68633842D01*
X55230907Y-68408209D01*
X55218692Y-68377279D01*
X55148185Y-68198744D01*
X55148184Y-68198742D01*
X55146224Y-68193779D01*
X55142255Y-68187237D01*
X55049204Y-68033895D01*
X55026623Y-67996683D01*
X54939755Y-67896576D01*
X54899654Y-67850363D01*
X82487483Y-67850363D01*
X82506472Y-68067407D01*
X82508375Y-68078200D01*
X82564764Y-68288649D01*
X82568510Y-68298941D01*
X82660586Y-68496399D01*
X82666069Y-68505894D01*
X82702509Y-68557936D01*
X82712988Y-68566312D01*
X82726434Y-68559244D01*
X83710905Y-67574773D01*
X83773217Y-67540747D01*
X83844032Y-67545812D01*
X83889095Y-67574773D01*
X84874287Y-68559965D01*
X84886062Y-68566395D01*
X84898077Y-68557099D01*
X84933931Y-68505894D01*
X84939414Y-68496399D01*
X85031490Y-68298941D01*
X85035236Y-68288649D01*
X85091625Y-68078200D01*
X85093528Y-68067407D01*
X85112517Y-67850363D01*
X85112517Y-67839413D01*
X85093528Y-67622369D01*
X85091625Y-67611576D01*
X85035236Y-67401127D01*
X85034826Y-67400000D01*
X94886496Y-67400000D01*
X94887186Y-67406565D01*
X94892608Y-67458148D01*
X94906458Y-67589928D01*
X94965473Y-67771556D01*
X95060960Y-67936944D01*
X95065378Y-67941851D01*
X95065379Y-67941852D01*
X95111825Y-67993435D01*
X95188747Y-68078866D01*
X95343248Y-68191118D01*
X95349276Y-68193802D01*
X95349278Y-68193803D01*
X95401178Y-68216910D01*
X95517712Y-68268794D01*
X95581234Y-68282296D01*
X95698056Y-68307128D01*
X95698061Y-68307128D01*
X95704513Y-68308500D01*
X95895487Y-68308500D01*
X95916310Y-68304074D01*
X95941726Y-68298672D01*
X96012516Y-68304074D01*
X96061558Y-68337608D01*
X96188747Y-68478866D01*
X96287843Y-68550864D01*
X96309106Y-68566312D01*
X96343248Y-68591118D01*
X96349276Y-68593802D01*
X96349278Y-68593803D01*
X96511681Y-68666109D01*
X96517712Y-68668794D01*
X96583365Y-68682749D01*
X96698056Y-68707128D01*
X96698061Y-68707128D01*
X96704513Y-68708500D01*
X96895487Y-68708500D01*
X96901939Y-68707128D01*
X96901944Y-68707128D01*
X97016635Y-68682749D01*
X97082288Y-68668794D01*
X97088319Y-68666109D01*
X97250722Y-68593803D01*
X97250724Y-68593802D01*
X97256752Y-68591118D01*
X97290895Y-68566312D01*
X97312157Y-68550864D01*
X97411253Y-68478866D01*
X97539040Y-68336944D01*
X97623920Y-68189928D01*
X97631223Y-68177279D01*
X97631224Y-68177278D01*
X97634527Y-68171556D01*
X97690269Y-68000000D01*
X114886496Y-68000000D01*
X114887186Y-68006565D01*
X114905129Y-68177279D01*
X114906458Y-68189928D01*
X114965473Y-68371556D01*
X115060960Y-68536944D01*
X115065378Y-68541851D01*
X115065379Y-68541852D01*
X115179678Y-68668794D01*
X115188747Y-68678866D01*
X115343248Y-68791118D01*
X115349276Y-68793802D01*
X115349278Y-68793803D01*
X115495478Y-68858895D01*
X115517712Y-68868794D01*
X115580326Y-68882103D01*
X115698056Y-68907128D01*
X115698061Y-68907128D01*
X115704513Y-68908500D01*
X115895487Y-68908500D01*
X115901939Y-68907128D01*
X115901944Y-68907128D01*
X116019674Y-68882103D01*
X116082288Y-68868794D01*
X116104522Y-68858895D01*
X116250722Y-68793803D01*
X116250724Y-68793802D01*
X116256752Y-68791118D01*
X116411253Y-68678866D01*
X116420322Y-68668794D01*
X116534621Y-68541852D01*
X116534622Y-68541851D01*
X116539040Y-68536944D01*
X116634527Y-68371556D01*
X116693542Y-68189928D01*
X116694872Y-68177279D01*
X116712814Y-68006565D01*
X116713504Y-68000000D01*
X116711756Y-67983365D01*
X116694232Y-67816635D01*
X116694232Y-67816633D01*
X116693542Y-67810072D01*
X116634527Y-67628444D01*
X116539040Y-67463056D01*
X116458074Y-67373134D01*
X138231388Y-67373134D01*
X138238143Y-67435316D01*
X138289273Y-67571705D01*
X138376627Y-67688261D01*
X138493183Y-67775615D01*
X138629572Y-67826745D01*
X138691754Y-67833500D01*
X140388022Y-67833500D01*
X140450204Y-67826745D01*
X140586593Y-67775615D01*
X140671576Y-67711924D01*
X140695966Y-67693645D01*
X140695969Y-67693642D01*
X140703149Y-67688261D01*
X140708530Y-67681081D01*
X140714881Y-67674730D01*
X140717023Y-67676872D01*
X140761734Y-67643436D01*
X140832552Y-67638406D01*
X140873923Y-67656523D01*
X140874120Y-67656182D01*
X140877186Y-67657952D01*
X140877978Y-67658299D01*
X140878877Y-67658929D01*
X140888377Y-67664414D01*
X141085835Y-67756490D01*
X141096127Y-67760236D01*
X141306576Y-67816625D01*
X141317369Y-67818528D01*
X141534413Y-67837517D01*
X141545363Y-67837517D01*
X141762407Y-67818528D01*
X141773200Y-67816625D01*
X141983649Y-67760236D01*
X141993941Y-67756490D01*
X142191399Y-67664414D01*
X142200894Y-67658931D01*
X142252936Y-67622491D01*
X142261312Y-67612012D01*
X142254244Y-67598566D01*
X141269773Y-66614095D01*
X141235747Y-66551783D01*
X141237582Y-66526132D01*
X141904296Y-66526132D01*
X141904427Y-66527965D01*
X141908678Y-66534580D01*
X142614175Y-67240077D01*
X142625950Y-67246507D01*
X142637965Y-67237211D01*
X142673819Y-67186006D01*
X142679302Y-67176511D01*
X142771378Y-66979053D01*
X142775124Y-66968761D01*
X142831513Y-66758312D01*
X142833416Y-66747519D01*
X142852405Y-66530475D01*
X142852405Y-66519525D01*
X142833416Y-66302481D01*
X142831513Y-66291688D01*
X142775124Y-66081239D01*
X142771378Y-66070947D01*
X142679302Y-65873489D01*
X142673819Y-65863994D01*
X142637379Y-65811952D01*
X142626900Y-65803576D01*
X142613454Y-65810644D01*
X141911910Y-66512188D01*
X141904296Y-66526132D01*
X141237582Y-66526132D01*
X141240812Y-66480968D01*
X141269773Y-66435905D01*
X142254965Y-65450713D01*
X142261395Y-65438938D01*
X142252099Y-65426923D01*
X142200894Y-65391069D01*
X142191399Y-65385586D01*
X141993941Y-65293510D01*
X141983649Y-65289764D01*
X141773200Y-65233375D01*
X141762407Y-65231472D01*
X141545363Y-65212483D01*
X141534413Y-65212483D01*
X141317369Y-65231472D01*
X141306576Y-65233375D01*
X141096127Y-65289764D01*
X141085835Y-65293510D01*
X140888377Y-65385586D01*
X140878877Y-65391071D01*
X140877978Y-65391701D01*
X140877518Y-65391856D01*
X140874120Y-65393818D01*
X140873726Y-65393135D01*
X140810704Y-65414388D01*
X140741844Y-65397102D01*
X140716085Y-65374066D01*
X140714881Y-65375270D01*
X140708530Y-65368919D01*
X140703149Y-65361739D01*
X140695969Y-65356358D01*
X140695966Y-65356355D01*
X140607113Y-65289764D01*
X140586593Y-65274385D01*
X140450204Y-65223255D01*
X140388022Y-65216500D01*
X138691754Y-65216500D01*
X138629572Y-65223255D01*
X138493183Y-65274385D01*
X138376627Y-65361739D01*
X138289273Y-65478295D01*
X138238143Y-65614684D01*
X138231388Y-65676866D01*
X138231388Y-67373134D01*
X116458074Y-67373134D01*
X116411253Y-67321134D01*
X116267423Y-67216635D01*
X116262094Y-67212763D01*
X116262093Y-67212762D01*
X116256752Y-67208882D01*
X116250724Y-67206198D01*
X116250722Y-67206197D01*
X116088319Y-67133891D01*
X116088318Y-67133891D01*
X116082288Y-67131206D01*
X115988888Y-67111353D01*
X115901944Y-67092872D01*
X115901939Y-67092872D01*
X115895487Y-67091500D01*
X115704513Y-67091500D01*
X115698061Y-67092872D01*
X115698056Y-67092872D01*
X115611112Y-67111353D01*
X115517712Y-67131206D01*
X115511682Y-67133891D01*
X115511681Y-67133891D01*
X115349278Y-67206197D01*
X115349276Y-67206198D01*
X115343248Y-67208882D01*
X115337907Y-67212762D01*
X115337906Y-67212763D01*
X115332577Y-67216635D01*
X115188747Y-67321134D01*
X115060960Y-67463056D01*
X114965473Y-67628444D01*
X114906458Y-67810072D01*
X114905768Y-67816633D01*
X114905768Y-67816635D01*
X114888244Y-67983365D01*
X114886496Y-68000000D01*
X97690269Y-68000000D01*
X97693542Y-67989928D01*
X97713504Y-67800000D01*
X97702326Y-67693645D01*
X97694232Y-67616635D01*
X97694232Y-67616633D01*
X97693542Y-67610072D01*
X97634527Y-67428444D01*
X97618756Y-67401127D01*
X97572571Y-67321134D01*
X97539040Y-67263056D01*
X97497243Y-67216635D01*
X97415675Y-67126045D01*
X97415674Y-67126044D01*
X97411253Y-67121134D01*
X97256752Y-67008882D01*
X97250724Y-67006198D01*
X97250722Y-67006197D01*
X97088319Y-66933891D01*
X97088318Y-66933891D01*
X97082288Y-66931206D01*
X96988888Y-66911353D01*
X96901944Y-66892872D01*
X96901939Y-66892872D01*
X96895487Y-66891500D01*
X96704513Y-66891500D01*
X96698053Y-66892873D01*
X96698054Y-66892873D01*
X96658274Y-66901328D01*
X96587484Y-66895926D01*
X96538442Y-66862392D01*
X96528523Y-66851376D01*
X96411253Y-66721134D01*
X96256752Y-66608882D01*
X96250724Y-66606198D01*
X96250722Y-66606197D01*
X96088319Y-66533891D01*
X96088318Y-66533891D01*
X96082288Y-66531206D01*
X95988887Y-66511353D01*
X95901944Y-66492872D01*
X95901939Y-66492872D01*
X95895487Y-66491500D01*
X95704513Y-66491500D01*
X95698061Y-66492872D01*
X95698056Y-66492872D01*
X95611113Y-66511353D01*
X95517712Y-66531206D01*
X95511682Y-66533891D01*
X95511681Y-66533891D01*
X95349278Y-66606197D01*
X95349276Y-66606198D01*
X95343248Y-66608882D01*
X95188747Y-66721134D01*
X95184329Y-66726041D01*
X95184325Y-66726045D01*
X95147346Y-66767115D01*
X95060960Y-66863056D01*
X94965473Y-67028444D01*
X94906458Y-67210072D01*
X94905768Y-67216633D01*
X94905768Y-67216635D01*
X94888648Y-67379521D01*
X94886496Y-67400000D01*
X85034826Y-67400000D01*
X85031490Y-67390835D01*
X84939414Y-67193377D01*
X84933929Y-67183877D01*
X84933299Y-67182978D01*
X84933144Y-67182518D01*
X84931182Y-67179120D01*
X84931865Y-67178726D01*
X84910612Y-67115704D01*
X84927898Y-67046844D01*
X84950934Y-67021085D01*
X84949730Y-67019881D01*
X84956081Y-67013530D01*
X84963261Y-67008149D01*
X84968642Y-67000969D01*
X84968645Y-67000966D01*
X85045229Y-66898779D01*
X85050615Y-66891593D01*
X85101745Y-66755204D01*
X85108500Y-66693022D01*
X85108500Y-64996754D01*
X85101745Y-64934572D01*
X85050615Y-64798183D01*
X84963261Y-64681627D01*
X84846705Y-64594273D01*
X84710316Y-64543143D01*
X84648134Y-64536388D01*
X82951866Y-64536388D01*
X82889684Y-64543143D01*
X82753295Y-64594273D01*
X82636739Y-64681627D01*
X82549385Y-64798183D01*
X82498255Y-64934572D01*
X82491500Y-64996754D01*
X82491500Y-66693022D01*
X82498255Y-66755204D01*
X82549385Y-66891593D01*
X82554771Y-66898779D01*
X82631355Y-67000966D01*
X82631358Y-67000969D01*
X82636739Y-67008149D01*
X82643919Y-67013530D01*
X82650270Y-67019881D01*
X82648128Y-67022023D01*
X82681564Y-67066734D01*
X82686594Y-67137552D01*
X82668477Y-67178923D01*
X82668818Y-67179120D01*
X82667048Y-67182186D01*
X82666701Y-67182978D01*
X82666071Y-67183877D01*
X82660586Y-67193377D01*
X82568510Y-67390835D01*
X82564764Y-67401127D01*
X82508375Y-67611576D01*
X82506472Y-67622369D01*
X82487483Y-67839413D01*
X82487483Y-67850363D01*
X54899654Y-67850363D01*
X54879023Y-67826588D01*
X54879021Y-67826586D01*
X54875523Y-67822555D01*
X54839880Y-67793330D01*
X54799886Y-67734671D01*
X54797954Y-67663701D01*
X54834698Y-67602952D01*
X54853468Y-67588752D01*
X54993120Y-67502332D01*
X54999348Y-67498478D01*
X55124305Y-67373303D01*
X55129906Y-67364217D01*
X55213275Y-67228968D01*
X55213276Y-67228966D01*
X55217115Y-67222738D01*
X55247930Y-67129834D01*
X55270632Y-67061389D01*
X55270632Y-67061387D01*
X55272797Y-67054861D01*
X55273619Y-67046844D01*
X55278319Y-67000966D01*
X55283500Y-66950400D01*
X55283500Y-65649600D01*
X55283348Y-65648134D01*
X62336388Y-65648134D01*
X62343143Y-65710316D01*
X62394273Y-65846705D01*
X62481627Y-65963261D01*
X62598183Y-66050615D01*
X62734572Y-66101745D01*
X62796754Y-66108500D01*
X64493022Y-66108500D01*
X64555204Y-66101745D01*
X64691593Y-66050615D01*
X64737390Y-66016292D01*
X64800966Y-65968645D01*
X64800969Y-65968642D01*
X64808149Y-65963261D01*
X64813530Y-65956081D01*
X64819881Y-65949730D01*
X64822023Y-65951872D01*
X64866734Y-65918436D01*
X64937552Y-65913406D01*
X64978923Y-65931523D01*
X64979120Y-65931182D01*
X64982186Y-65932952D01*
X64982978Y-65933299D01*
X64983877Y-65933929D01*
X64993377Y-65939414D01*
X65190835Y-66031490D01*
X65201127Y-66035236D01*
X65411576Y-66091625D01*
X65422369Y-66093528D01*
X65639413Y-66112517D01*
X65650363Y-66112517D01*
X65867407Y-66093528D01*
X65878200Y-66091625D01*
X66088649Y-66035236D01*
X66098941Y-66031490D01*
X66296399Y-65939414D01*
X66305896Y-65933930D01*
X66357936Y-65897491D01*
X66366312Y-65887012D01*
X66359244Y-65873566D01*
X65374773Y-64889095D01*
X65340747Y-64826783D01*
X65342582Y-64801132D01*
X66009296Y-64801132D01*
X66009427Y-64802965D01*
X66013678Y-64809580D01*
X66719175Y-65515077D01*
X66730950Y-65521507D01*
X66742965Y-65512211D01*
X66778819Y-65461006D01*
X66784302Y-65451511D01*
X66876378Y-65254053D01*
X66880124Y-65243761D01*
X66936513Y-65033312D01*
X66938416Y-65022519D01*
X66957405Y-64805475D01*
X66957405Y-64794525D01*
X66938416Y-64577481D01*
X66936513Y-64566688D01*
X66880124Y-64356239D01*
X66876378Y-64345947D01*
X66808322Y-64200000D01*
X89286496Y-64200000D01*
X89306458Y-64389928D01*
X89365473Y-64571556D01*
X89460960Y-64736944D01*
X89465378Y-64741851D01*
X89465379Y-64741852D01*
X89575019Y-64863620D01*
X89588747Y-64878866D01*
X89673499Y-64940442D01*
X89731190Y-64982357D01*
X89743248Y-64991118D01*
X89749276Y-64993802D01*
X89749278Y-64993803D01*
X89911681Y-65066109D01*
X89917712Y-65068794D01*
X90011113Y-65088647D01*
X90098056Y-65107128D01*
X90098061Y-65107128D01*
X90104513Y-65108500D01*
X90295487Y-65108500D01*
X90301939Y-65107128D01*
X90301944Y-65107128D01*
X90388887Y-65088647D01*
X90482288Y-65068794D01*
X90488319Y-65066109D01*
X90650722Y-64993803D01*
X90650724Y-64993802D01*
X90656752Y-64991118D01*
X90668811Y-64982357D01*
X90726501Y-64940442D01*
X90811253Y-64878866D01*
X90824981Y-64863620D01*
X90934621Y-64741852D01*
X90934622Y-64741851D01*
X90939040Y-64736944D01*
X91034527Y-64571556D01*
X91093542Y-64389928D01*
X91113504Y-64200000D01*
X91108504Y-64152425D01*
X91121277Y-64082586D01*
X91169779Y-64030740D01*
X91182565Y-64024148D01*
X91228281Y-64003794D01*
X91256752Y-63991118D01*
X91282488Y-63972420D01*
X91384727Y-63898138D01*
X91411253Y-63878866D01*
X91450994Y-63834729D01*
X91463712Y-63820604D01*
X146107787Y-63820604D01*
X146117567Y-64031899D01*
X146118971Y-64037724D01*
X146118971Y-64037725D01*
X146153955Y-64182885D01*
X146167125Y-64237534D01*
X146169607Y-64242992D01*
X146169608Y-64242996D01*
X146215214Y-64343299D01*
X146254674Y-64430087D01*
X146334265Y-64542290D01*
X146368904Y-64591121D01*
X146377054Y-64602611D01*
X146529850Y-64748881D01*
X146707548Y-64863620D01*
X146755013Y-64882749D01*
X146898168Y-64940442D01*
X146898171Y-64940443D01*
X146903737Y-64942686D01*
X147111337Y-64983228D01*
X147116899Y-64983500D01*
X147272846Y-64983500D01*
X147430566Y-64968452D01*
X147436322Y-64966763D01*
X147436324Y-64966763D01*
X147575031Y-64926071D01*
X147646027Y-64926088D01*
X147705744Y-64964486D01*
X147735222Y-65029074D01*
X147736500Y-65046976D01*
X147736500Y-66125400D01*
X147747474Y-66231166D01*
X147803450Y-66398946D01*
X147896522Y-66549348D01*
X148021697Y-66674305D01*
X148167340Y-66764081D01*
X148214832Y-66816852D01*
X148226256Y-66886924D01*
X148197982Y-66952048D01*
X148188195Y-66962510D01*
X148170854Y-66979053D01*
X148073865Y-67071576D01*
X147936246Y-67256542D01*
X147831760Y-67462051D01*
X147830178Y-67467145D01*
X147830177Y-67467148D01*
X147781942Y-67622491D01*
X147763393Y-67682227D01*
X147762692Y-67687516D01*
X147734417Y-67900854D01*
X147733102Y-67910774D01*
X147741751Y-68141158D01*
X147789093Y-68366791D01*
X147791051Y-68371750D01*
X147791052Y-68371752D01*
X147865382Y-68559965D01*
X147873776Y-68581221D01*
X147876543Y-68585780D01*
X147876544Y-68585783D01*
X147935385Y-68682749D01*
X147993377Y-68778317D01*
X147996874Y-68782347D01*
X148136251Y-68942965D01*
X148144477Y-68952445D01*
X148148608Y-68955832D01*
X148318627Y-69095240D01*
X148318633Y-69095244D01*
X148322755Y-69098624D01*
X148354250Y-69116552D01*
X148403555Y-69167632D01*
X148417417Y-69237262D01*
X148391434Y-69303333D01*
X148362284Y-69330573D01*
X148240681Y-69412441D01*
X148073865Y-69571576D01*
X147936246Y-69756542D01*
X147933830Y-69761293D01*
X147933828Y-69761297D01*
X147925618Y-69777445D01*
X147831760Y-69962051D01*
X147830178Y-69967145D01*
X147830177Y-69967148D01*
X147786228Y-70108688D01*
X147763393Y-70182227D01*
X147762692Y-70187516D01*
X147734417Y-70400854D01*
X147733102Y-70410774D01*
X147741751Y-70641158D01*
X147789093Y-70866791D01*
X147791051Y-70871750D01*
X147791052Y-70871752D01*
X147848270Y-71016635D01*
X147873776Y-71081221D01*
X147993377Y-71278317D01*
X147996874Y-71282347D01*
X148090228Y-71389928D01*
X148144477Y-71452445D01*
X148148608Y-71455832D01*
X148318627Y-71595240D01*
X148318633Y-71595244D01*
X148322755Y-71598624D01*
X148354250Y-71616552D01*
X148403555Y-71667632D01*
X148417417Y-71737262D01*
X148391434Y-71803333D01*
X148362284Y-71830573D01*
X148240681Y-71912441D01*
X148073865Y-72071576D01*
X147936246Y-72256542D01*
X147933830Y-72261293D01*
X147933828Y-72261297D01*
X147925618Y-72277445D01*
X147831760Y-72462051D01*
X147830178Y-72467145D01*
X147830177Y-72467148D01*
X147786228Y-72608688D01*
X147763393Y-72682227D01*
X147762692Y-72687516D01*
X147734417Y-72900854D01*
X147733102Y-72910774D01*
X147741751Y-73141158D01*
X147789093Y-73366791D01*
X147791051Y-73371750D01*
X147791052Y-73371752D01*
X147803491Y-73403248D01*
X147873776Y-73581221D01*
X147993377Y-73778317D01*
X147996874Y-73782347D01*
X148083438Y-73882103D01*
X148144477Y-73952445D01*
X148148608Y-73955832D01*
X148318627Y-74095240D01*
X148318633Y-74095244D01*
X148322755Y-74098624D01*
X148327398Y-74101267D01*
X148354735Y-74116829D01*
X148404041Y-74167912D01*
X148417902Y-74237542D01*
X148391918Y-74303613D01*
X148362768Y-74330851D01*
X148245422Y-74409852D01*
X148237130Y-74416519D01*
X148078100Y-74568228D01*
X148071059Y-74576186D01*
X147939859Y-74752525D01*
X147934255Y-74761562D01*
X147834643Y-74957484D01*
X147830643Y-74967335D01*
X147765466Y-75177240D01*
X147763183Y-75187624D01*
X147761139Y-75203043D01*
X147763335Y-75217207D01*
X147776522Y-75221000D01*
X150661192Y-75221000D01*
X150674723Y-75217027D01*
X150676248Y-75206420D01*
X150651523Y-75088579D01*
X150648463Y-75078383D01*
X150567737Y-74873971D01*
X150563006Y-74864439D01*
X150448984Y-74676538D01*
X150442720Y-74667948D01*
X150298673Y-74501948D01*
X150291042Y-74494528D01*
X150121089Y-74355174D01*
X150112326Y-74349152D01*
X150085289Y-74333762D01*
X150035982Y-74282680D01*
X150022120Y-74213049D01*
X150048103Y-74146978D01*
X150077253Y-74119739D01*
X150130532Y-74083869D01*
X150199319Y-74037559D01*
X150366135Y-73878424D01*
X150372767Y-73869511D01*
X150444010Y-73773757D01*
X150503754Y-73693458D01*
X150608240Y-73487949D01*
X150644321Y-73371752D01*
X150675024Y-73272871D01*
X150676607Y-73267773D01*
X150687019Y-73189217D01*
X150706198Y-73044511D01*
X150706198Y-73044506D01*
X150706898Y-73039226D01*
X150698249Y-72808842D01*
X150650907Y-72583209D01*
X150643823Y-72565271D01*
X150568185Y-72373744D01*
X150568184Y-72373742D01*
X150566224Y-72368779D01*
X150446623Y-72171683D01*
X150390605Y-72107128D01*
X150299023Y-72001588D01*
X150299021Y-72001586D01*
X150295523Y-71997555D01*
X150253970Y-71963484D01*
X150121373Y-71854760D01*
X150121367Y-71854756D01*
X150117245Y-71851376D01*
X150085750Y-71833448D01*
X150036445Y-71782368D01*
X150022583Y-71712738D01*
X150048566Y-71646667D01*
X150077716Y-71619427D01*
X150113642Y-71595240D01*
X150199319Y-71537559D01*
X150366135Y-71378424D01*
X150372767Y-71369511D01*
X150457445Y-71255699D01*
X150503754Y-71193458D01*
X150608240Y-70987949D01*
X150644321Y-70871752D01*
X150675024Y-70772871D01*
X150676607Y-70767773D01*
X150690486Y-70663056D01*
X150706198Y-70544511D01*
X150706198Y-70544506D01*
X150706898Y-70539226D01*
X150698249Y-70308842D01*
X150650907Y-70083209D01*
X150648948Y-70078248D01*
X150568185Y-69873744D01*
X150568184Y-69873742D01*
X150566224Y-69868779D01*
X150446623Y-69671683D01*
X150359755Y-69571576D01*
X150299023Y-69501588D01*
X150299021Y-69501586D01*
X150295523Y-69497555D01*
X150253970Y-69463484D01*
X150121373Y-69354760D01*
X150121367Y-69354756D01*
X150117245Y-69351376D01*
X150085750Y-69333448D01*
X150036445Y-69282368D01*
X150022583Y-69212738D01*
X150048566Y-69146667D01*
X150077716Y-69119427D01*
X150113642Y-69095240D01*
X150199319Y-69037559D01*
X150366135Y-68878424D01*
X150372767Y-68869511D01*
X150444010Y-68773757D01*
X150503754Y-68693458D01*
X150515597Y-68670166D01*
X150580834Y-68541852D01*
X150608240Y-68487949D01*
X150611061Y-68478866D01*
X150675024Y-68272871D01*
X150676607Y-68267773D01*
X150684340Y-68209427D01*
X150706198Y-68044511D01*
X150706198Y-68044506D01*
X150706898Y-68039226D01*
X150702844Y-67931226D01*
X150699397Y-67839413D01*
X150698249Y-67808842D01*
X150691627Y-67777279D01*
X150652002Y-67588428D01*
X150650907Y-67583209D01*
X150648948Y-67578248D01*
X150568185Y-67373744D01*
X150568184Y-67373742D01*
X150566224Y-67368779D01*
X150540293Y-67326045D01*
X150455314Y-67186006D01*
X150446623Y-67171683D01*
X150443126Y-67167653D01*
X150299023Y-67001588D01*
X150299021Y-67001586D01*
X150295523Y-66997555D01*
X150259880Y-66968330D01*
X150219886Y-66909671D01*
X150217954Y-66838701D01*
X150254698Y-66777952D01*
X150273468Y-66763752D01*
X150413120Y-66677332D01*
X150419348Y-66673478D01*
X150544305Y-66548303D01*
X150554844Y-66531206D01*
X150633275Y-66403968D01*
X150633276Y-66403966D01*
X150637115Y-66397738D01*
X150692797Y-66229861D01*
X150703500Y-66125400D01*
X150703500Y-64824600D01*
X150701942Y-64809580D01*
X150693238Y-64725692D01*
X150693237Y-64725688D01*
X150692526Y-64718834D01*
X150678318Y-64676246D01*
X150638868Y-64558002D01*
X150636550Y-64551054D01*
X150543478Y-64400652D01*
X150418303Y-64275695D01*
X150295504Y-64200000D01*
X150273968Y-64186725D01*
X150273966Y-64186724D01*
X150267738Y-64182885D01*
X150187995Y-64156436D01*
X150106389Y-64129368D01*
X150106387Y-64129368D01*
X150099861Y-64127203D01*
X150093025Y-64126503D01*
X150093022Y-64126502D01*
X150049969Y-64122091D01*
X149995400Y-64116500D01*
X148450671Y-64116500D01*
X148382550Y-64096498D01*
X148336057Y-64042842D01*
X148325975Y-63972420D01*
X148331352Y-63935337D01*
X148331352Y-63935333D01*
X148332213Y-63929396D01*
X148322433Y-63718101D01*
X148285479Y-63564764D01*
X148274281Y-63518299D01*
X148274280Y-63518297D01*
X148272875Y-63512466D01*
X148263343Y-63491500D01*
X148207763Y-63369260D01*
X148185326Y-63319913D01*
X148062946Y-63147389D01*
X147926358Y-63016635D01*
X147914480Y-63005264D01*
X147910150Y-63001119D01*
X147732452Y-62886380D01*
X147672354Y-62862160D01*
X147541832Y-62809558D01*
X147541829Y-62809557D01*
X147536263Y-62807314D01*
X147328663Y-62766772D01*
X147323101Y-62766500D01*
X147167154Y-62766500D01*
X147009434Y-62781548D01*
X146806466Y-62841092D01*
X146801139Y-62843836D01*
X146801138Y-62843836D01*
X146623751Y-62935196D01*
X146623748Y-62935198D01*
X146618420Y-62937942D01*
X146452080Y-63068604D01*
X146448148Y-63073135D01*
X146448145Y-63073138D01*
X146379474Y-63152275D01*
X146313448Y-63228363D01*
X146310448Y-63233549D01*
X146310445Y-63233553D01*
X146260485Y-63319913D01*
X146207527Y-63411454D01*
X146138139Y-63611271D01*
X146137278Y-63617206D01*
X146137278Y-63617208D01*
X146115611Y-63766646D01*
X146107787Y-63820604D01*
X91463712Y-63820604D01*
X91534621Y-63741852D01*
X91534622Y-63741851D01*
X91539040Y-63736944D01*
X91608170Y-63617208D01*
X91631223Y-63577279D01*
X91631224Y-63577278D01*
X91634527Y-63571556D01*
X91693542Y-63389928D01*
X91695022Y-63375852D01*
X91713504Y-63200000D01*
X91714785Y-63200135D01*
X91732816Y-63138728D01*
X91786472Y-63092235D01*
X91812606Y-63083606D01*
X91882288Y-63068794D01*
X91999440Y-63016635D01*
X92050722Y-62993803D01*
X92050724Y-62993802D01*
X92056752Y-62991118D01*
X92211253Y-62878866D01*
X92291333Y-62789928D01*
X92334621Y-62741852D01*
X92334622Y-62741851D01*
X92339040Y-62736944D01*
X92434527Y-62571556D01*
X92493542Y-62389928D01*
X92495310Y-62373113D01*
X92512814Y-62206565D01*
X92513504Y-62200000D01*
X92508504Y-62152425D01*
X92521277Y-62082586D01*
X92569779Y-62030740D01*
X92582565Y-62024148D01*
X92628281Y-62003794D01*
X92656752Y-61991118D01*
X92811253Y-61878866D01*
X92861806Y-61822721D01*
X92934621Y-61741852D01*
X92934622Y-61741851D01*
X92939040Y-61736944D01*
X93034527Y-61571556D01*
X93093542Y-61389928D01*
X93095022Y-61375852D01*
X93112814Y-61206565D01*
X93113504Y-61200000D01*
X93093542Y-61010072D01*
X93034527Y-60828444D01*
X93017528Y-60799000D01*
X92942341Y-60668774D01*
X92939040Y-60663056D01*
X92876685Y-60593803D01*
X92815675Y-60526045D01*
X92815674Y-60526044D01*
X92811253Y-60521134D01*
X92656752Y-60408882D01*
X92650724Y-60406198D01*
X92650722Y-60406197D01*
X92488319Y-60333891D01*
X92488318Y-60333891D01*
X92482288Y-60331206D01*
X92388887Y-60311353D01*
X92301944Y-60292872D01*
X92301939Y-60292872D01*
X92295487Y-60291500D01*
X92104513Y-60291500D01*
X92098061Y-60292872D01*
X92098056Y-60292872D01*
X92011113Y-60311353D01*
X91917712Y-60331206D01*
X91911682Y-60333891D01*
X91911681Y-60333891D01*
X91749278Y-60406197D01*
X91749276Y-60406198D01*
X91743248Y-60408882D01*
X91588747Y-60521134D01*
X91584326Y-60526044D01*
X91584325Y-60526045D01*
X91523316Y-60593803D01*
X91460960Y-60663056D01*
X91457659Y-60668774D01*
X91382473Y-60799000D01*
X91365473Y-60828444D01*
X91306458Y-61010072D01*
X91286496Y-61200000D01*
X91287186Y-61206565D01*
X91291496Y-61247575D01*
X91278723Y-61317414D01*
X91230221Y-61369260D01*
X91217435Y-61375852D01*
X91143248Y-61408882D01*
X90988747Y-61521134D01*
X90860960Y-61663056D01*
X90857659Y-61668774D01*
X90770979Y-61818908D01*
X90765473Y-61828444D01*
X90706458Y-62010072D01*
X90705768Y-62016633D01*
X90705768Y-62016635D01*
X90691496Y-62152425D01*
X90686496Y-62200000D01*
X90685215Y-62199865D01*
X90667184Y-62261272D01*
X90613528Y-62307765D01*
X90587394Y-62316394D01*
X90517712Y-62331206D01*
X90511683Y-62333890D01*
X90511684Y-62333890D01*
X90349278Y-62406197D01*
X90349276Y-62406198D01*
X90343248Y-62408882D01*
X90188747Y-62521134D01*
X90060960Y-62663056D01*
X89965473Y-62828444D01*
X89906458Y-63010072D01*
X89905768Y-63016633D01*
X89905768Y-63016635D01*
X89892461Y-63143247D01*
X89886496Y-63200000D01*
X89887186Y-63206565D01*
X89891496Y-63247575D01*
X89878723Y-63317414D01*
X89830221Y-63369260D01*
X89817435Y-63375852D01*
X89743248Y-63408882D01*
X89737907Y-63412762D01*
X89737906Y-63412763D01*
X89687843Y-63449136D01*
X89588747Y-63521134D01*
X89584326Y-63526044D01*
X89584325Y-63526045D01*
X89472473Y-63650270D01*
X89460960Y-63663056D01*
X89365473Y-63828444D01*
X89306458Y-64010072D01*
X89305768Y-64016633D01*
X89305768Y-64016635D01*
X89298515Y-64085644D01*
X89286496Y-64200000D01*
X66808322Y-64200000D01*
X66784302Y-64148489D01*
X66778819Y-64138994D01*
X66742379Y-64086952D01*
X66731900Y-64078576D01*
X66718454Y-64085644D01*
X66016910Y-64787188D01*
X66009296Y-64801132D01*
X65342582Y-64801132D01*
X65345812Y-64755968D01*
X65374773Y-64710905D01*
X66359965Y-63725713D01*
X66366395Y-63713938D01*
X66357099Y-63701923D01*
X66305894Y-63666069D01*
X66296399Y-63660586D01*
X66098941Y-63568510D01*
X66088649Y-63564764D01*
X65878200Y-63508375D01*
X65867407Y-63506472D01*
X65650363Y-63487483D01*
X65639413Y-63487483D01*
X65422369Y-63506472D01*
X65411576Y-63508375D01*
X65201127Y-63564764D01*
X65190835Y-63568510D01*
X64993377Y-63660586D01*
X64983877Y-63666071D01*
X64982978Y-63666701D01*
X64982518Y-63666856D01*
X64979120Y-63668818D01*
X64978726Y-63668135D01*
X64915704Y-63689388D01*
X64846844Y-63672102D01*
X64821085Y-63649066D01*
X64819881Y-63650270D01*
X64813530Y-63643919D01*
X64808149Y-63636739D01*
X64800969Y-63631358D01*
X64800966Y-63631355D01*
X64728812Y-63577279D01*
X64691593Y-63549385D01*
X64555204Y-63498255D01*
X64493022Y-63491500D01*
X62796754Y-63491500D01*
X62734572Y-63498255D01*
X62598183Y-63549385D01*
X62481627Y-63636739D01*
X62394273Y-63753295D01*
X62343143Y-63889684D01*
X62336388Y-63951866D01*
X62336388Y-65648134D01*
X55283348Y-65648134D01*
X55283163Y-65646350D01*
X55273238Y-65550692D01*
X55273237Y-65550688D01*
X55272526Y-65543834D01*
X55250661Y-65478295D01*
X55218868Y-65383002D01*
X55216550Y-65376054D01*
X55123478Y-65225652D01*
X54998303Y-65100695D01*
X54948776Y-65070166D01*
X54853968Y-65011725D01*
X54853966Y-65011724D01*
X54847738Y-65007885D01*
X54728851Y-64968452D01*
X54686389Y-64954368D01*
X54686387Y-64954368D01*
X54679861Y-64952203D01*
X54673025Y-64951503D01*
X54673022Y-64951502D01*
X54629969Y-64947091D01*
X54575400Y-64941500D01*
X53030671Y-64941500D01*
X52962550Y-64921498D01*
X52916057Y-64867842D01*
X52905975Y-64797420D01*
X52911352Y-64760337D01*
X52911352Y-64760333D01*
X52912213Y-64754396D01*
X52902433Y-64543101D01*
X52852875Y-64337466D01*
X52827141Y-64280866D01*
X52781543Y-64180581D01*
X52765326Y-64144913D01*
X52656231Y-63991118D01*
X52646412Y-63977275D01*
X52646411Y-63977274D01*
X52642946Y-63972389D01*
X52490150Y-63826119D01*
X52312452Y-63711380D01*
X52214990Y-63672102D01*
X52121832Y-63634558D01*
X52121829Y-63634557D01*
X52116263Y-63632314D01*
X51908663Y-63591772D01*
X51903101Y-63591500D01*
X51747154Y-63591500D01*
X51589434Y-63606548D01*
X51386466Y-63666092D01*
X51381139Y-63668836D01*
X51381138Y-63668836D01*
X51203751Y-63760196D01*
X51203748Y-63760198D01*
X51198420Y-63762942D01*
X51032080Y-63893604D01*
X51028148Y-63898135D01*
X51028145Y-63898138D01*
X50917271Y-64025909D01*
X50893448Y-64053363D01*
X50890448Y-64058549D01*
X50890445Y-64058553D01*
X50816296Y-64186725D01*
X50787527Y-64236454D01*
X50718139Y-64436271D01*
X50717278Y-64442206D01*
X50717278Y-64442208D01*
X50694021Y-64602611D01*
X50687787Y-64645604D01*
X44508500Y-64645604D01*
X44508500Y-59400000D01*
X92686496Y-59400000D01*
X92706458Y-59589928D01*
X92765473Y-59771556D01*
X92860960Y-59936944D01*
X92865378Y-59941851D01*
X92865379Y-59941852D01*
X92904476Y-59985274D01*
X92988747Y-60078866D01*
X93143248Y-60191118D01*
X93149276Y-60193802D01*
X93149278Y-60193803D01*
X93286815Y-60255038D01*
X93317712Y-60268794D01*
X93411113Y-60288647D01*
X93498056Y-60307128D01*
X93498061Y-60307128D01*
X93504513Y-60308500D01*
X93546197Y-60308500D01*
X93614318Y-60328502D01*
X93660811Y-60382158D01*
X93672197Y-60434500D01*
X93672197Y-60438401D01*
X93671507Y-60444966D01*
X93672197Y-60451531D01*
X93688358Y-60605291D01*
X93691469Y-60634894D01*
X93750484Y-60816522D01*
X93845971Y-60981910D01*
X93850389Y-60986817D01*
X93850390Y-60986818D01*
X93926423Y-61071261D01*
X93973758Y-61123832D01*
X94069558Y-61193435D01*
X94121160Y-61230926D01*
X94128259Y-61236084D01*
X94134287Y-61238768D01*
X94134289Y-61238769D01*
X94154068Y-61247575D01*
X94302723Y-61313760D01*
X94396124Y-61333613D01*
X94483067Y-61352094D01*
X94483072Y-61352094D01*
X94489524Y-61353466D01*
X94680498Y-61353466D01*
X94686950Y-61352094D01*
X94686955Y-61352094D01*
X94773898Y-61333613D01*
X94867299Y-61313760D01*
X95015954Y-61247575D01*
X95035733Y-61238769D01*
X95035735Y-61238768D01*
X95041763Y-61236084D01*
X95048863Y-61230926D01*
X95100464Y-61193435D01*
X95196264Y-61123832D01*
X95243599Y-61071261D01*
X95319632Y-60986818D01*
X95319633Y-60986817D01*
X95324051Y-60981910D01*
X95419538Y-60816522D01*
X95478553Y-60634894D01*
X95481665Y-60605291D01*
X95497825Y-60451531D01*
X95498515Y-60444966D01*
X95491914Y-60382158D01*
X95479243Y-60261601D01*
X95479243Y-60261599D01*
X95478553Y-60255038D01*
X95419538Y-60073410D01*
X95324051Y-59908022D01*
X95286313Y-59866109D01*
X95200686Y-59771011D01*
X95200685Y-59771010D01*
X95196264Y-59766100D01*
X95041763Y-59653848D01*
X95035735Y-59651164D01*
X95035733Y-59651163D01*
X94873330Y-59578857D01*
X94873329Y-59578857D01*
X94867299Y-59576172D01*
X94773898Y-59556319D01*
X94686955Y-59537838D01*
X94686950Y-59537838D01*
X94680498Y-59536466D01*
X94638814Y-59536466D01*
X94570693Y-59516464D01*
X94524200Y-59462808D01*
X94512814Y-59410466D01*
X94512814Y-59406565D01*
X94513504Y-59400000D01*
X94493542Y-59210072D01*
X94434527Y-59028444D01*
X94418105Y-59000000D01*
X98886496Y-59000000D01*
X98887186Y-59006565D01*
X98899228Y-59121134D01*
X98906458Y-59189928D01*
X98965473Y-59371556D01*
X99060960Y-59536944D01*
X99065378Y-59541851D01*
X99065379Y-59541852D01*
X99108667Y-59589928D01*
X99188747Y-59678866D01*
X99343248Y-59791118D01*
X99349276Y-59793802D01*
X99349278Y-59793803D01*
X99430145Y-59829807D01*
X99517712Y-59868794D01*
X99524167Y-59870166D01*
X99524170Y-59870167D01*
X99576181Y-59881222D01*
X99609125Y-59888224D01*
X99671598Y-59921952D01*
X99705920Y-59984807D01*
X99706458Y-59989928D01*
X99765473Y-60171556D01*
X99860960Y-60336944D01*
X99865378Y-60341851D01*
X99865379Y-60341852D01*
X99925733Y-60408882D01*
X99988747Y-60478866D01*
X100023415Y-60504054D01*
X100085371Y-60549068D01*
X100128725Y-60605291D01*
X100136620Y-60664174D01*
X100133487Y-60693982D01*
X100134177Y-60700547D01*
X100140721Y-60762805D01*
X100153449Y-60883910D01*
X100212464Y-61065538D01*
X100307951Y-61230926D01*
X100435738Y-61372848D01*
X100590239Y-61485100D01*
X100596272Y-61487786D01*
X100612434Y-61494982D01*
X100666530Y-61540961D01*
X100684242Y-61600237D01*
X100686496Y-61600000D01*
X100692608Y-61658148D01*
X100706458Y-61789928D01*
X100765473Y-61971556D01*
X100860960Y-62136944D01*
X100988747Y-62278866D01*
X100994089Y-62282747D01*
X100994091Y-62282749D01*
X101052066Y-62324870D01*
X101095420Y-62381092D01*
X101103315Y-62439976D01*
X101086496Y-62600000D01*
X101087186Y-62606565D01*
X101104026Y-62766785D01*
X101106458Y-62789928D01*
X101165473Y-62971556D01*
X101260960Y-63136944D01*
X101388747Y-63278866D01*
X101543248Y-63391118D01*
X101549276Y-63393802D01*
X101549278Y-63393803D01*
X101601654Y-63417122D01*
X101717712Y-63468794D01*
X101805636Y-63487483D01*
X101898056Y-63507128D01*
X101898061Y-63507128D01*
X101904513Y-63508500D01*
X102095487Y-63508500D01*
X102101939Y-63507128D01*
X102101944Y-63507128D01*
X102194364Y-63487483D01*
X102282288Y-63468794D01*
X102398346Y-63417122D01*
X102450722Y-63393803D01*
X102450724Y-63393802D01*
X102456752Y-63391118D01*
X102611253Y-63278866D01*
X102739040Y-63136944D01*
X102834527Y-62971556D01*
X102893542Y-62789928D01*
X102895975Y-62766785D01*
X102912814Y-62606565D01*
X102913504Y-62600000D01*
X102893542Y-62410072D01*
X102834527Y-62228444D01*
X102739040Y-62063056D01*
X102697243Y-62016635D01*
X102615675Y-61926045D01*
X102615674Y-61926044D01*
X102611253Y-61921134D01*
X102547934Y-61875130D01*
X102504580Y-61818908D01*
X102496685Y-61760024D01*
X102512814Y-61606565D01*
X102513504Y-61600000D01*
X102507299Y-61540961D01*
X102494232Y-61416635D01*
X102494232Y-61416633D01*
X102493542Y-61410072D01*
X102434527Y-61228444D01*
X102339040Y-61063056D01*
X102297243Y-61016635D01*
X102215675Y-60926045D01*
X102215674Y-60926044D01*
X102211253Y-60921134D01*
X102056752Y-60808882D01*
X102034557Y-60799000D01*
X101980461Y-60753021D01*
X101962749Y-60693745D01*
X101960495Y-60693982D01*
X101941223Y-60510617D01*
X101941223Y-60510615D01*
X101940533Y-60504054D01*
X101881518Y-60322426D01*
X101850554Y-60268794D01*
X101789332Y-60162756D01*
X101786031Y-60157038D01*
X101658244Y-60015116D01*
X101561620Y-59944914D01*
X101518266Y-59888691D01*
X101510371Y-59829807D01*
X101512814Y-59806564D01*
X101513504Y-59800000D01*
X150086496Y-59800000D01*
X150087186Y-59806564D01*
X150087186Y-59806565D01*
X150099314Y-59921952D01*
X150106458Y-59989928D01*
X150165473Y-60171556D01*
X150260960Y-60336944D01*
X150265378Y-60341851D01*
X150265379Y-60341852D01*
X150325733Y-60408882D01*
X150388747Y-60478866D01*
X150543248Y-60591118D01*
X150549276Y-60593802D01*
X150549278Y-60593803D01*
X150711681Y-60666109D01*
X150717712Y-60668794D01*
X150805331Y-60687418D01*
X150898056Y-60707128D01*
X150898061Y-60707128D01*
X150904513Y-60708500D01*
X151095487Y-60708500D01*
X151101939Y-60707128D01*
X151101944Y-60707128D01*
X151194669Y-60687418D01*
X151282288Y-60668794D01*
X151288319Y-60666109D01*
X151450722Y-60593803D01*
X151450724Y-60593802D01*
X151456752Y-60591118D01*
X151611253Y-60478866D01*
X151674267Y-60408882D01*
X151734621Y-60341852D01*
X151734622Y-60341851D01*
X151739040Y-60336944D01*
X151834527Y-60171556D01*
X151893542Y-59989928D01*
X151900687Y-59921952D01*
X151912814Y-59806565D01*
X151912814Y-59806564D01*
X151913504Y-59800000D01*
X151901181Y-59682749D01*
X151894232Y-59616635D01*
X151894232Y-59616633D01*
X151893542Y-59610072D01*
X151834527Y-59428444D01*
X151824148Y-59410466D01*
X151742341Y-59268774D01*
X151739040Y-59263056D01*
X151697243Y-59216635D01*
X151615675Y-59126045D01*
X151615674Y-59126044D01*
X151611253Y-59121134D01*
X151456752Y-59008882D01*
X151450724Y-59006198D01*
X151450722Y-59006197D01*
X151288319Y-58933891D01*
X151288318Y-58933891D01*
X151282288Y-58931206D01*
X151188888Y-58911353D01*
X151101944Y-58892872D01*
X151101939Y-58892872D01*
X151095487Y-58891500D01*
X150904513Y-58891500D01*
X150898061Y-58892872D01*
X150898056Y-58892872D01*
X150811112Y-58911353D01*
X150717712Y-58931206D01*
X150711682Y-58933891D01*
X150711681Y-58933891D01*
X150549278Y-59006197D01*
X150549276Y-59006198D01*
X150543248Y-59008882D01*
X150388747Y-59121134D01*
X150384326Y-59126044D01*
X150384325Y-59126045D01*
X150302758Y-59216635D01*
X150260960Y-59263056D01*
X150257659Y-59268774D01*
X150175853Y-59410466D01*
X150165473Y-59428444D01*
X150106458Y-59610072D01*
X150105768Y-59616633D01*
X150105768Y-59616635D01*
X150098819Y-59682749D01*
X150086496Y-59800000D01*
X101513504Y-59800000D01*
X101501181Y-59682749D01*
X101494232Y-59616635D01*
X101494232Y-59616633D01*
X101493542Y-59610072D01*
X101434527Y-59428444D01*
X101424148Y-59410466D01*
X101342341Y-59268774D01*
X101339040Y-59263056D01*
X101297243Y-59216635D01*
X101215675Y-59126045D01*
X101215674Y-59126044D01*
X101211253Y-59121134D01*
X101056752Y-59008882D01*
X101050724Y-59006198D01*
X101050722Y-59006197D01*
X100888319Y-58933891D01*
X100888318Y-58933891D01*
X100882288Y-58931206D01*
X100875833Y-58929834D01*
X100875830Y-58929833D01*
X100823819Y-58918778D01*
X100790875Y-58911776D01*
X100728402Y-58878048D01*
X100694080Y-58815193D01*
X100693542Y-58810072D01*
X100634527Y-58628444D01*
X100539040Y-58463056D01*
X100411253Y-58321134D01*
X100256752Y-58208882D01*
X100250724Y-58206198D01*
X100250722Y-58206197D01*
X100088319Y-58133891D01*
X100088318Y-58133891D01*
X100082288Y-58131206D01*
X99988888Y-58111353D01*
X99901944Y-58092872D01*
X99901939Y-58092872D01*
X99895487Y-58091500D01*
X99704513Y-58091500D01*
X99698061Y-58092872D01*
X99698056Y-58092872D01*
X99611112Y-58111353D01*
X99517712Y-58131206D01*
X99511682Y-58133891D01*
X99511681Y-58133891D01*
X99349278Y-58206197D01*
X99349276Y-58206198D01*
X99343248Y-58208882D01*
X99188747Y-58321134D01*
X99060960Y-58463056D01*
X98965473Y-58628444D01*
X98906458Y-58810072D01*
X98905768Y-58816633D01*
X98905768Y-58816635D01*
X98895769Y-58911776D01*
X98886496Y-59000000D01*
X94418105Y-59000000D01*
X94339040Y-58863056D01*
X94297243Y-58816635D01*
X94215675Y-58726045D01*
X94215674Y-58726044D01*
X94211253Y-58721134D01*
X94056752Y-58608882D01*
X94050724Y-58606198D01*
X94050722Y-58606197D01*
X93888319Y-58533891D01*
X93888318Y-58533891D01*
X93882288Y-58531206D01*
X93788887Y-58511353D01*
X93701944Y-58492872D01*
X93701939Y-58492872D01*
X93695487Y-58491500D01*
X93504513Y-58491500D01*
X93498061Y-58492872D01*
X93498056Y-58492872D01*
X93411113Y-58511353D01*
X93317712Y-58531206D01*
X93311682Y-58533891D01*
X93311681Y-58533891D01*
X93149278Y-58606197D01*
X93149276Y-58606198D01*
X93143248Y-58608882D01*
X92988747Y-58721134D01*
X92984326Y-58726044D01*
X92984325Y-58726045D01*
X92902758Y-58816635D01*
X92860960Y-58863056D01*
X92765473Y-59028444D01*
X92706458Y-59210072D01*
X92686496Y-59400000D01*
X44508500Y-59400000D01*
X44508500Y-54205475D01*
X91087483Y-54205475D01*
X91106472Y-54422519D01*
X91108375Y-54433312D01*
X91164764Y-54643761D01*
X91168510Y-54654053D01*
X91260586Y-54851511D01*
X91266071Y-54861011D01*
X91266701Y-54861910D01*
X91266856Y-54862370D01*
X91268818Y-54865768D01*
X91268135Y-54866162D01*
X91289388Y-54929184D01*
X91272102Y-54998044D01*
X91249066Y-55023803D01*
X91250270Y-55025007D01*
X91243919Y-55031358D01*
X91236739Y-55036739D01*
X91231358Y-55043919D01*
X91231355Y-55043922D01*
X91183708Y-55107498D01*
X91149385Y-55153295D01*
X91098255Y-55289684D01*
X91091500Y-55351866D01*
X91091500Y-57048134D01*
X91098255Y-57110316D01*
X91149385Y-57246705D01*
X91236739Y-57363261D01*
X91353295Y-57450615D01*
X91489684Y-57501745D01*
X91551866Y-57508500D01*
X93248134Y-57508500D01*
X93310316Y-57501745D01*
X93446705Y-57450615D01*
X93563261Y-57363261D01*
X93650615Y-57246705D01*
X93701745Y-57110316D01*
X93708500Y-57048134D01*
X93708500Y-55351866D01*
X93701745Y-55289684D01*
X93650615Y-55153295D01*
X93616292Y-55107498D01*
X93568645Y-55043922D01*
X93568642Y-55043919D01*
X93563261Y-55036739D01*
X93556081Y-55031358D01*
X93549730Y-55025007D01*
X93551872Y-55022865D01*
X93518436Y-54978154D01*
X93513406Y-54907336D01*
X93531523Y-54865965D01*
X93531182Y-54865768D01*
X93532952Y-54862702D01*
X93533299Y-54861910D01*
X93533929Y-54861011D01*
X93539414Y-54851511D01*
X93631490Y-54654053D01*
X93635236Y-54643761D01*
X93691625Y-54433312D01*
X93693528Y-54422519D01*
X93712517Y-54205475D01*
X93712517Y-54194525D01*
X93693528Y-53977481D01*
X93691625Y-53966688D01*
X93635236Y-53756239D01*
X93631490Y-53745947D01*
X93539414Y-53548489D01*
X93533931Y-53538994D01*
X93497491Y-53486952D01*
X93487012Y-53478576D01*
X93473566Y-53485644D01*
X92489095Y-54470115D01*
X92426783Y-54504141D01*
X92355968Y-54499076D01*
X92310905Y-54470115D01*
X91325713Y-53484923D01*
X91313938Y-53478493D01*
X91301923Y-53487789D01*
X91266069Y-53538994D01*
X91260586Y-53548489D01*
X91168510Y-53745947D01*
X91164764Y-53756239D01*
X91108375Y-53966688D01*
X91106472Y-53977481D01*
X91087483Y-54194525D01*
X91087483Y-54205475D01*
X44508500Y-54205475D01*
X44508500Y-52797386D01*
X47567759Y-52797386D01*
X47575216Y-52807753D01*
X47814935Y-53001874D01*
X47820272Y-53005751D01*
X48140685Y-53213830D01*
X48146394Y-53217127D01*
X48486811Y-53390578D01*
X48492836Y-53393260D01*
X48849502Y-53530171D01*
X48855784Y-53532212D01*
X49224816Y-53631094D01*
X49231266Y-53632465D01*
X49608629Y-53692234D01*
X49615167Y-53692920D01*
X49996699Y-53712916D01*
X50003301Y-53712916D01*
X50384833Y-53692920D01*
X50391371Y-53692234D01*
X50768734Y-53632465D01*
X50775184Y-53631094D01*
X51144216Y-53532212D01*
X51150498Y-53530171D01*
X51507164Y-53393260D01*
X51513189Y-53390578D01*
X51853606Y-53217127D01*
X51859315Y-53213830D01*
X52014598Y-53112988D01*
X91678576Y-53112988D01*
X91685644Y-53126434D01*
X92387188Y-53827978D01*
X92401132Y-53835592D01*
X92402965Y-53835461D01*
X92409580Y-53831210D01*
X93115077Y-53125713D01*
X93121507Y-53113938D01*
X93112211Y-53101923D01*
X93061006Y-53066069D01*
X93051511Y-53060586D01*
X92854053Y-52968510D01*
X92843761Y-52964764D01*
X92633312Y-52908375D01*
X92622519Y-52906472D01*
X92405475Y-52887483D01*
X92394525Y-52887483D01*
X92177481Y-52906472D01*
X92166688Y-52908375D01*
X91956239Y-52964764D01*
X91945947Y-52968510D01*
X91748489Y-53060586D01*
X91738994Y-53066069D01*
X91686952Y-53102509D01*
X91678576Y-53112988D01*
X52014598Y-53112988D01*
X52179728Y-53005751D01*
X52185065Y-53001874D01*
X52423835Y-52808522D01*
X52429721Y-52800000D01*
X104286496Y-52800000D01*
X104287186Y-52806565D01*
X104297887Y-52908375D01*
X104306458Y-52989928D01*
X104365473Y-53171556D01*
X104460960Y-53336944D01*
X104588747Y-53478866D01*
X104743248Y-53591118D01*
X104749276Y-53593802D01*
X104749278Y-53593803D01*
X104833036Y-53631094D01*
X104917712Y-53668794D01*
X105011113Y-53688647D01*
X105098056Y-53707128D01*
X105098061Y-53707128D01*
X105104513Y-53708500D01*
X105295487Y-53708500D01*
X105301939Y-53707128D01*
X105301944Y-53707128D01*
X105388887Y-53688647D01*
X105482288Y-53668794D01*
X105566964Y-53631094D01*
X105650722Y-53593803D01*
X105650724Y-53593802D01*
X105656752Y-53591118D01*
X105811253Y-53478866D01*
X105939040Y-53336944D01*
X106034527Y-53171556D01*
X106093542Y-52989928D01*
X106102114Y-52908375D01*
X106112814Y-52806565D01*
X106113504Y-52800000D01*
X106113229Y-52797386D01*
X147567759Y-52797386D01*
X147575216Y-52807753D01*
X147814935Y-53001874D01*
X147820272Y-53005751D01*
X148140685Y-53213830D01*
X148146394Y-53217127D01*
X148486811Y-53390578D01*
X148492836Y-53393260D01*
X148849502Y-53530171D01*
X148855784Y-53532212D01*
X149224816Y-53631094D01*
X149231266Y-53632465D01*
X149608629Y-53692234D01*
X149615167Y-53692920D01*
X149996699Y-53712916D01*
X150003301Y-53712916D01*
X150384833Y-53692920D01*
X150391371Y-53692234D01*
X150768734Y-53632465D01*
X150775184Y-53631094D01*
X151144216Y-53532212D01*
X151150498Y-53530171D01*
X151507164Y-53393260D01*
X151513189Y-53390578D01*
X151853606Y-53217127D01*
X151859315Y-53213830D01*
X152179728Y-53005751D01*
X152185065Y-53001874D01*
X152423835Y-52808522D01*
X152432300Y-52796267D01*
X152425966Y-52785176D01*
X150012812Y-50372022D01*
X149998868Y-50364408D01*
X149997035Y-50364539D01*
X149990420Y-50368790D01*
X147574900Y-52784310D01*
X147567759Y-52797386D01*
X106113229Y-52797386D01*
X106093542Y-52610072D01*
X106034527Y-52428444D01*
X105939040Y-52263056D01*
X105811253Y-52121134D01*
X105656752Y-52008882D01*
X105650724Y-52006198D01*
X105650722Y-52006197D01*
X105488319Y-51933891D01*
X105488318Y-51933891D01*
X105482288Y-51931206D01*
X105377385Y-51908908D01*
X105301944Y-51892872D01*
X105301939Y-51892872D01*
X105295487Y-51891500D01*
X105104513Y-51891500D01*
X105098061Y-51892872D01*
X105098056Y-51892872D01*
X105022615Y-51908908D01*
X104917712Y-51931206D01*
X104911682Y-51933891D01*
X104911681Y-51933891D01*
X104749278Y-52006197D01*
X104749276Y-52006198D01*
X104743248Y-52008882D01*
X104588747Y-52121134D01*
X104460960Y-52263056D01*
X104365473Y-52428444D01*
X104306458Y-52610072D01*
X104286496Y-52800000D01*
X52429721Y-52800000D01*
X52432300Y-52796267D01*
X52425966Y-52785176D01*
X50012812Y-50372022D01*
X49998868Y-50364408D01*
X49997035Y-50364539D01*
X49990420Y-50368790D01*
X47574900Y-52784310D01*
X47567759Y-52797386D01*
X44508500Y-52797386D01*
X44508500Y-50053250D01*
X44510246Y-50032345D01*
X44512770Y-50017344D01*
X44512770Y-50017341D01*
X44513576Y-50012552D01*
X44513689Y-50003301D01*
X46287084Y-50003301D01*
X46307080Y-50384833D01*
X46307766Y-50391371D01*
X46367535Y-50768734D01*
X46368906Y-50775184D01*
X46467788Y-51144216D01*
X46469829Y-51150498D01*
X46606740Y-51507164D01*
X46609422Y-51513189D01*
X46782872Y-51853603D01*
X46786169Y-51859313D01*
X46994253Y-52179735D01*
X46998123Y-52185061D01*
X47191478Y-52423835D01*
X47203733Y-52432300D01*
X47214824Y-52425966D01*
X49627978Y-50012812D01*
X49634356Y-50001132D01*
X50364408Y-50001132D01*
X50364539Y-50002965D01*
X50368790Y-50009580D01*
X52784310Y-52425100D01*
X52797386Y-52432241D01*
X52807753Y-52424784D01*
X53001877Y-52185061D01*
X53005747Y-52179735D01*
X53213831Y-51859313D01*
X53217128Y-51853603D01*
X53390578Y-51513189D01*
X53393260Y-51507164D01*
X53530171Y-51150498D01*
X53532212Y-51144216D01*
X53631094Y-50775184D01*
X53632465Y-50768734D01*
X53692234Y-50391371D01*
X53692920Y-50384833D01*
X53712916Y-50003301D01*
X53712916Y-49996699D01*
X53710238Y-49945604D01*
X55387787Y-49945604D01*
X55397567Y-50156899D01*
X55398971Y-50162724D01*
X55398971Y-50162725D01*
X55444936Y-50353449D01*
X55447125Y-50362534D01*
X55449607Y-50367992D01*
X55449608Y-50367996D01*
X55493053Y-50463546D01*
X55534674Y-50555087D01*
X55657054Y-50727611D01*
X55809850Y-50873881D01*
X55987548Y-50988620D01*
X55993114Y-50990863D01*
X56178168Y-51065442D01*
X56178171Y-51065443D01*
X56183737Y-51067686D01*
X56391337Y-51108228D01*
X56396899Y-51108500D01*
X56552846Y-51108500D01*
X56710566Y-51093452D01*
X56913534Y-51033908D01*
X56919361Y-51030907D01*
X57096249Y-50939804D01*
X57096252Y-50939802D01*
X57101580Y-50937058D01*
X57267920Y-50806396D01*
X57271852Y-50801865D01*
X57271855Y-50801862D01*
X57402621Y-50651167D01*
X57406552Y-50646637D01*
X57409552Y-50641451D01*
X57409555Y-50641447D01*
X57509467Y-50468742D01*
X57512473Y-50463546D01*
X57581861Y-50263729D01*
X57585129Y-50241192D01*
X57588114Y-50220604D01*
X74487787Y-50220604D01*
X74497567Y-50431899D01*
X74498971Y-50437724D01*
X74498971Y-50437725D01*
X74540796Y-50611271D01*
X74547125Y-50637534D01*
X74549607Y-50642992D01*
X74549608Y-50642996D01*
X74593053Y-50738546D01*
X74634674Y-50830087D01*
X74710554Y-50937058D01*
X74748721Y-50990863D01*
X74757054Y-51002611D01*
X74909850Y-51148881D01*
X75087548Y-51263620D01*
X75093114Y-51265863D01*
X75278168Y-51340442D01*
X75278171Y-51340443D01*
X75283737Y-51342686D01*
X75491337Y-51383228D01*
X75496899Y-51383500D01*
X75652846Y-51383500D01*
X75810566Y-51368452D01*
X76013534Y-51308908D01*
X76097111Y-51265863D01*
X76196249Y-51214804D01*
X76196252Y-51214802D01*
X76201580Y-51212058D01*
X76367920Y-51081396D01*
X76371852Y-51076865D01*
X76371855Y-51076862D01*
X76502621Y-50926167D01*
X76506552Y-50921637D01*
X76509552Y-50916451D01*
X76509555Y-50916447D01*
X76609467Y-50743742D01*
X76612473Y-50738546D01*
X76681861Y-50538729D01*
X76690207Y-50481166D01*
X76711352Y-50335336D01*
X76711352Y-50335333D01*
X76712213Y-50329396D01*
X76702433Y-50118101D01*
X76664282Y-49959797D01*
X76653250Y-49914021D01*
X76655404Y-49870193D01*
X95449410Y-49870193D01*
X95456124Y-49949325D01*
X95457914Y-49959797D01*
X95513130Y-50172535D01*
X95516665Y-50182575D01*
X95606937Y-50382970D01*
X95612106Y-50392256D01*
X95734850Y-50574575D01*
X95741519Y-50582870D01*
X95893228Y-50741900D01*
X95901186Y-50748941D01*
X96077525Y-50880141D01*
X96086562Y-50885745D01*
X96282484Y-50985357D01*
X96292335Y-50989357D01*
X96502240Y-51054534D01*
X96512624Y-51056817D01*
X96528043Y-51058861D01*
X96542207Y-51056665D01*
X96546000Y-51043478D01*
X96546000Y-51041192D01*
X97054000Y-51041192D01*
X97057973Y-51054723D01*
X97068580Y-51056248D01*
X97186421Y-51031523D01*
X97196617Y-51028463D01*
X97401029Y-50947737D01*
X97410561Y-50943006D01*
X97598462Y-50828984D01*
X97607052Y-50822720D01*
X97773052Y-50678673D01*
X97780472Y-50671042D01*
X97919826Y-50501089D01*
X97925848Y-50492326D01*
X97941238Y-50465289D01*
X97992320Y-50415982D01*
X98061951Y-50402120D01*
X98128022Y-50428103D01*
X98155261Y-50457253D01*
X98184773Y-50501089D01*
X98237441Y-50579319D01*
X98241120Y-50583176D01*
X98241122Y-50583178D01*
X98296708Y-50641447D01*
X98396576Y-50746135D01*
X98581542Y-50883754D01*
X98586293Y-50886170D01*
X98586297Y-50886172D01*
X98645844Y-50916447D01*
X98787051Y-50988240D01*
X98792145Y-50989822D01*
X98792148Y-50989823D01*
X98946417Y-51037725D01*
X99007227Y-51056607D01*
X99012516Y-51057308D01*
X99230489Y-51086198D01*
X99230494Y-51086198D01*
X99235774Y-51086898D01*
X99241103Y-51086698D01*
X99241105Y-51086698D01*
X99350966Y-51082573D01*
X99466158Y-51078249D01*
X99472769Y-51076862D01*
X99659296Y-51037725D01*
X99691791Y-51030907D01*
X99696750Y-51028949D01*
X99696752Y-51028948D01*
X99901256Y-50948185D01*
X99901258Y-50948184D01*
X99906221Y-50946224D01*
X99911525Y-50943006D01*
X100089555Y-50834974D01*
X100103317Y-50826623D01*
X100143134Y-50792072D01*
X100273412Y-50679023D01*
X100273414Y-50679021D01*
X100277445Y-50675523D01*
X100306670Y-50639880D01*
X100365329Y-50599886D01*
X100436299Y-50597954D01*
X100497048Y-50634698D01*
X100511248Y-50653468D01*
X100559693Y-50731753D01*
X100601522Y-50799348D01*
X100726697Y-50924305D01*
X100732927Y-50928145D01*
X100732928Y-50928146D01*
X100870090Y-51012694D01*
X100877262Y-51017115D01*
X100912938Y-51028948D01*
X101038611Y-51070632D01*
X101038613Y-51070632D01*
X101045139Y-51072797D01*
X101051975Y-51073497D01*
X101051978Y-51073498D01*
X101084813Y-51076862D01*
X101149600Y-51083500D01*
X102450400Y-51083500D01*
X102453646Y-51083163D01*
X102453650Y-51083163D01*
X102549308Y-51073238D01*
X102549312Y-51073237D01*
X102556166Y-51072526D01*
X102562702Y-51070345D01*
X102562704Y-51070345D01*
X102695894Y-51025909D01*
X102723946Y-51016550D01*
X102874348Y-50923478D01*
X102977043Y-50820604D01*
X107087787Y-50820604D01*
X107097567Y-51031899D01*
X107098971Y-51037724D01*
X107098971Y-51037725D01*
X107140093Y-51208354D01*
X107147125Y-51237534D01*
X107149607Y-51242992D01*
X107149608Y-51242996D01*
X107193053Y-51338546D01*
X107234674Y-51430087D01*
X107357054Y-51602611D01*
X107509850Y-51748881D01*
X107687548Y-51863620D01*
X107693114Y-51865863D01*
X107878168Y-51940442D01*
X107878171Y-51940443D01*
X107883737Y-51942686D01*
X108091337Y-51983228D01*
X108096899Y-51983500D01*
X108252846Y-51983500D01*
X108410566Y-51968452D01*
X108613534Y-51908908D01*
X108697111Y-51865863D01*
X108796249Y-51814804D01*
X108796252Y-51814802D01*
X108801580Y-51812058D01*
X108967920Y-51681396D01*
X108971852Y-51676865D01*
X108971855Y-51676862D01*
X109102621Y-51526167D01*
X109106552Y-51521637D01*
X109109552Y-51516451D01*
X109109555Y-51516447D01*
X109209467Y-51343742D01*
X109212473Y-51338546D01*
X109281861Y-51138729D01*
X109286254Y-51108434D01*
X109311352Y-50935336D01*
X109311352Y-50935333D01*
X109312213Y-50929396D01*
X109302433Y-50718101D01*
X109267843Y-50574575D01*
X109253250Y-50514021D01*
X109256735Y-50443110D01*
X109298005Y-50385340D01*
X109363955Y-50359053D01*
X109375743Y-50358500D01*
X110450400Y-50358500D01*
X110453646Y-50358163D01*
X110453650Y-50358163D01*
X110549308Y-50348238D01*
X110549312Y-50348237D01*
X110556166Y-50347526D01*
X110562702Y-50345345D01*
X110562704Y-50345345D01*
X110716998Y-50293868D01*
X110723946Y-50291550D01*
X110874348Y-50198478D01*
X110999305Y-50073303D01*
X111010960Y-50054396D01*
X111039748Y-50007693D01*
X111089081Y-49927660D01*
X111141852Y-49880168D01*
X111211924Y-49868744D01*
X111277048Y-49897018D01*
X111287510Y-49906805D01*
X111327706Y-49948941D01*
X111396576Y-50021135D01*
X111581542Y-50158754D01*
X111586293Y-50161170D01*
X111586297Y-50161172D01*
X111642650Y-50189823D01*
X111787051Y-50263240D01*
X111792145Y-50264822D01*
X111792148Y-50264823D01*
X111980793Y-50323399D01*
X112007227Y-50331607D01*
X112012516Y-50332308D01*
X112230489Y-50361198D01*
X112230494Y-50361198D01*
X112235774Y-50361898D01*
X112241103Y-50361698D01*
X112241105Y-50361698D01*
X112350966Y-50357574D01*
X112466158Y-50353249D01*
X112691791Y-50305907D01*
X112696750Y-50303949D01*
X112696752Y-50303948D01*
X112901256Y-50223185D01*
X112901258Y-50223184D01*
X112906221Y-50221224D01*
X112912993Y-50217115D01*
X113098757Y-50104390D01*
X113098756Y-50104390D01*
X113103317Y-50101623D01*
X113159062Y-50053250D01*
X113273412Y-49954023D01*
X113273414Y-49954021D01*
X113277445Y-49950523D01*
X113335133Y-49880168D01*
X113420240Y-49776373D01*
X113420244Y-49776367D01*
X113423624Y-49772245D01*
X113441552Y-49740750D01*
X113492632Y-49691445D01*
X113562262Y-49677583D01*
X113628333Y-49703566D01*
X113655573Y-49732716D01*
X113737441Y-49854319D01*
X113741120Y-49858176D01*
X113741122Y-49858178D01*
X113762100Y-49880168D01*
X113896576Y-50021135D01*
X114081542Y-50158754D01*
X114086293Y-50161170D01*
X114086297Y-50161172D01*
X114142650Y-50189823D01*
X114287051Y-50263240D01*
X114292145Y-50264822D01*
X114292148Y-50264823D01*
X114480793Y-50323399D01*
X114507227Y-50331607D01*
X114512516Y-50332308D01*
X114730489Y-50361198D01*
X114730494Y-50361198D01*
X114735774Y-50361898D01*
X114741103Y-50361698D01*
X114741105Y-50361698D01*
X114850966Y-50357574D01*
X114966158Y-50353249D01*
X115191791Y-50305907D01*
X115196750Y-50303949D01*
X115196752Y-50303948D01*
X115401256Y-50223185D01*
X115401258Y-50223184D01*
X115406221Y-50221224D01*
X115412993Y-50217115D01*
X115598757Y-50104390D01*
X115598756Y-50104390D01*
X115603317Y-50101623D01*
X115659062Y-50053250D01*
X115773412Y-49954023D01*
X115773414Y-49954021D01*
X115777445Y-49950523D01*
X115835133Y-49880168D01*
X115920240Y-49776373D01*
X115920244Y-49776367D01*
X115923624Y-49772245D01*
X115941552Y-49740750D01*
X115992632Y-49691445D01*
X116062262Y-49677583D01*
X116128333Y-49703566D01*
X116155573Y-49732716D01*
X116237441Y-49854319D01*
X116241120Y-49858176D01*
X116241122Y-49858178D01*
X116262100Y-49880168D01*
X116396576Y-50021135D01*
X116581542Y-50158754D01*
X116586293Y-50161170D01*
X116586297Y-50161172D01*
X116642650Y-50189823D01*
X116787051Y-50263240D01*
X116792145Y-50264822D01*
X116792148Y-50264823D01*
X116980793Y-50323399D01*
X117007227Y-50331607D01*
X117012516Y-50332308D01*
X117230489Y-50361198D01*
X117230494Y-50361198D01*
X117235774Y-50361898D01*
X117241103Y-50361698D01*
X117241105Y-50361698D01*
X117350966Y-50357574D01*
X117466158Y-50353249D01*
X117691791Y-50305907D01*
X117696750Y-50303949D01*
X117696752Y-50303948D01*
X117901256Y-50223185D01*
X117901258Y-50223184D01*
X117906221Y-50221224D01*
X117912993Y-50217115D01*
X118098757Y-50104390D01*
X118098756Y-50104390D01*
X118103317Y-50101623D01*
X118159062Y-50053250D01*
X118273412Y-49954023D01*
X118273414Y-49954021D01*
X118277445Y-49950523D01*
X118335133Y-49880168D01*
X118420240Y-49776373D01*
X118420244Y-49776367D01*
X118423624Y-49772245D01*
X118441552Y-49740750D01*
X118492632Y-49691445D01*
X118562262Y-49677583D01*
X118628333Y-49703566D01*
X118655573Y-49732716D01*
X118737441Y-49854319D01*
X118741120Y-49858176D01*
X118741122Y-49858178D01*
X118762100Y-49880168D01*
X118896576Y-50021135D01*
X119081542Y-50158754D01*
X119086293Y-50161170D01*
X119086297Y-50161172D01*
X119142650Y-50189823D01*
X119287051Y-50263240D01*
X119292145Y-50264822D01*
X119292148Y-50264823D01*
X119480793Y-50323399D01*
X119507227Y-50331607D01*
X119512516Y-50332308D01*
X119730489Y-50361198D01*
X119730494Y-50361198D01*
X119735774Y-50361898D01*
X119741103Y-50361698D01*
X119741105Y-50361698D01*
X119850966Y-50357574D01*
X119966158Y-50353249D01*
X120191791Y-50305907D01*
X120196750Y-50303949D01*
X120196752Y-50303948D01*
X120401256Y-50223185D01*
X120401258Y-50223184D01*
X120406221Y-50221224D01*
X120412993Y-50217115D01*
X120598757Y-50104390D01*
X120598756Y-50104390D01*
X120603317Y-50101623D01*
X120659062Y-50053250D01*
X120773412Y-49954023D01*
X120773414Y-49954021D01*
X120777445Y-49950523D01*
X120835133Y-49880168D01*
X120920240Y-49776373D01*
X120920244Y-49776367D01*
X120923624Y-49772245D01*
X120926740Y-49766772D01*
X121035032Y-49576529D01*
X121037675Y-49571886D01*
X121116337Y-49355175D01*
X121117871Y-49346692D01*
X121156623Y-49132392D01*
X121156624Y-49132385D01*
X121157361Y-49128308D01*
X121158500Y-49104156D01*
X121158500Y-48982890D01*
X125941500Y-48982890D01*
X125941725Y-48985539D01*
X125955622Y-49149318D01*
X125956080Y-49154720D01*
X125957418Y-49159875D01*
X125957419Y-49159881D01*
X126012657Y-49372703D01*
X126013999Y-49377872D01*
X126016191Y-49382738D01*
X126016192Y-49382741D01*
X126055655Y-49470345D01*
X126108688Y-49588075D01*
X126237441Y-49779319D01*
X126241120Y-49783176D01*
X126241122Y-49783178D01*
X126296370Y-49841092D01*
X126396576Y-49946135D01*
X126400854Y-49949318D01*
X126407178Y-49954023D01*
X126581542Y-50083754D01*
X126586293Y-50086170D01*
X126586297Y-50086172D01*
X126649481Y-50118296D01*
X126787051Y-50188240D01*
X126792145Y-50189822D01*
X126792148Y-50189823D01*
X126957583Y-50241192D01*
X127007227Y-50256607D01*
X127012516Y-50257308D01*
X127230489Y-50286198D01*
X127230494Y-50286198D01*
X127235774Y-50286898D01*
X127241103Y-50286698D01*
X127241105Y-50286698D01*
X127350966Y-50282574D01*
X127466158Y-50278249D01*
X127488802Y-50273498D01*
X127686572Y-50232002D01*
X127691791Y-50230907D01*
X127696750Y-50228949D01*
X127696752Y-50228948D01*
X127901256Y-50148185D01*
X127901258Y-50148184D01*
X127906221Y-50146224D01*
X127911525Y-50143006D01*
X128098757Y-50029390D01*
X128098756Y-50029390D01*
X128103317Y-50026623D01*
X128119233Y-50012812D01*
X128273412Y-49879023D01*
X128273414Y-49879021D01*
X128277445Y-49875523D01*
X128341048Y-49797954D01*
X128420240Y-49701373D01*
X128420244Y-49701367D01*
X128423624Y-49697245D01*
X128433520Y-49679861D01*
X128441829Y-49665265D01*
X128492912Y-49615959D01*
X128562542Y-49602098D01*
X128628613Y-49628082D01*
X128655851Y-49657232D01*
X128734852Y-49774578D01*
X128741519Y-49782870D01*
X128893228Y-49941900D01*
X128901186Y-49948941D01*
X129077525Y-50080141D01*
X129086562Y-50085745D01*
X129282484Y-50185357D01*
X129292335Y-50189357D01*
X129502240Y-50254534D01*
X129512624Y-50256817D01*
X129528043Y-50258861D01*
X129542207Y-50256665D01*
X129546000Y-50243478D01*
X129546000Y-50241192D01*
X130054000Y-50241192D01*
X130057973Y-50254723D01*
X130068580Y-50256248D01*
X130186421Y-50231523D01*
X130196617Y-50228463D01*
X130401029Y-50147737D01*
X130410561Y-50143006D01*
X130598462Y-50028984D01*
X130607052Y-50022720D01*
X130773052Y-49878673D01*
X130780472Y-49871042D01*
X130919826Y-49701089D01*
X130925848Y-49692326D01*
X130941238Y-49665289D01*
X130992320Y-49615982D01*
X131061951Y-49602120D01*
X131128022Y-49628103D01*
X131155261Y-49657253D01*
X131184773Y-49701089D01*
X131237441Y-49779319D01*
X131241120Y-49783176D01*
X131241122Y-49783178D01*
X131296370Y-49841092D01*
X131396576Y-49946135D01*
X131400854Y-49949318D01*
X131407178Y-49954023D01*
X131581542Y-50083754D01*
X131586293Y-50086170D01*
X131586297Y-50086172D01*
X131649481Y-50118296D01*
X131787051Y-50188240D01*
X131792145Y-50189822D01*
X131792148Y-50189823D01*
X131957583Y-50241192D01*
X132007227Y-50256607D01*
X132012516Y-50257308D01*
X132230489Y-50286198D01*
X132230494Y-50286198D01*
X132235774Y-50286898D01*
X132241103Y-50286698D01*
X132241105Y-50286698D01*
X132350966Y-50282574D01*
X132466158Y-50278249D01*
X132488802Y-50273498D01*
X132686572Y-50232002D01*
X132691791Y-50230907D01*
X132696750Y-50228949D01*
X132696752Y-50228948D01*
X132901256Y-50148185D01*
X132901258Y-50148184D01*
X132906221Y-50146224D01*
X132911525Y-50143006D01*
X133098757Y-50029390D01*
X133098756Y-50029390D01*
X133103317Y-50026623D01*
X133119233Y-50012812D01*
X133273412Y-49879023D01*
X133273414Y-49879021D01*
X133277445Y-49875523D01*
X133341048Y-49797954D01*
X133420240Y-49701373D01*
X133420244Y-49701367D01*
X133423624Y-49697245D01*
X133441552Y-49665750D01*
X133492632Y-49616445D01*
X133562262Y-49602583D01*
X133628333Y-49628566D01*
X133655573Y-49657716D01*
X133660983Y-49665752D01*
X133737441Y-49779319D01*
X133741120Y-49783176D01*
X133741122Y-49783178D01*
X133796370Y-49841092D01*
X133896576Y-49946135D01*
X133900854Y-49949318D01*
X133907178Y-49954023D01*
X134081542Y-50083754D01*
X134086293Y-50086170D01*
X134086297Y-50086172D01*
X134149481Y-50118296D01*
X134287051Y-50188240D01*
X134292145Y-50189822D01*
X134292148Y-50189823D01*
X134457583Y-50241192D01*
X134507227Y-50256607D01*
X134512516Y-50257308D01*
X134730489Y-50286198D01*
X134730494Y-50286198D01*
X134735774Y-50286898D01*
X134741103Y-50286698D01*
X134741105Y-50286698D01*
X134850966Y-50282574D01*
X134966158Y-50278249D01*
X134988802Y-50273498D01*
X135186572Y-50232002D01*
X135191791Y-50230907D01*
X135196750Y-50228949D01*
X135196752Y-50228948D01*
X135401256Y-50148185D01*
X135401258Y-50148184D01*
X135406221Y-50146224D01*
X135411525Y-50143006D01*
X135598757Y-50029390D01*
X135598756Y-50029390D01*
X135603317Y-50026623D01*
X135619233Y-50012812D01*
X135773412Y-49879023D01*
X135773414Y-49879021D01*
X135777445Y-49875523D01*
X135841048Y-49797954D01*
X135920240Y-49701373D01*
X135920244Y-49701367D01*
X135923624Y-49697245D01*
X135941552Y-49665750D01*
X135992632Y-49616445D01*
X136062262Y-49602583D01*
X136128333Y-49628566D01*
X136155573Y-49657716D01*
X136160983Y-49665752D01*
X136237441Y-49779319D01*
X136241120Y-49783176D01*
X136241122Y-49783178D01*
X136296370Y-49841092D01*
X136396576Y-49946135D01*
X136400854Y-49949318D01*
X136407178Y-49954023D01*
X136581542Y-50083754D01*
X136586293Y-50086170D01*
X136586297Y-50086172D01*
X136649481Y-50118296D01*
X136787051Y-50188240D01*
X136792145Y-50189822D01*
X136792148Y-50189823D01*
X136957583Y-50241192D01*
X137007227Y-50256607D01*
X137012516Y-50257308D01*
X137230489Y-50286198D01*
X137230494Y-50286198D01*
X137235774Y-50286898D01*
X137241103Y-50286698D01*
X137241105Y-50286698D01*
X137350966Y-50282574D01*
X137466158Y-50278249D01*
X137488802Y-50273498D01*
X137686572Y-50232002D01*
X137691791Y-50230907D01*
X137696750Y-50228949D01*
X137696752Y-50228948D01*
X137901256Y-50148185D01*
X137901258Y-50148184D01*
X137906221Y-50146224D01*
X137911525Y-50143006D01*
X138098757Y-50029390D01*
X138098756Y-50029390D01*
X138103317Y-50026623D01*
X138119233Y-50012812D01*
X138273412Y-49879023D01*
X138273414Y-49879021D01*
X138277445Y-49875523D01*
X138306670Y-49839880D01*
X138365329Y-49799886D01*
X138436299Y-49797954D01*
X138497048Y-49834698D01*
X138511248Y-49853468D01*
X138561823Y-49935196D01*
X138601522Y-49999348D01*
X138726697Y-50124305D01*
X138732927Y-50128145D01*
X138732928Y-50128146D01*
X138870090Y-50212694D01*
X138877262Y-50217115D01*
X138949852Y-50241192D01*
X139038611Y-50270632D01*
X139038613Y-50270632D01*
X139045139Y-50272797D01*
X139051975Y-50273497D01*
X139051978Y-50273498D01*
X139087663Y-50277154D01*
X139149600Y-50283500D01*
X140450400Y-50283500D01*
X140453646Y-50283163D01*
X140453650Y-50283163D01*
X140549308Y-50273238D01*
X140549312Y-50273237D01*
X140556166Y-50272526D01*
X140562702Y-50270345D01*
X140562704Y-50270345D01*
X140702116Y-50223833D01*
X140723946Y-50216550D01*
X140874348Y-50123478D01*
X140885534Y-50112273D01*
X140994134Y-50003483D01*
X140994316Y-50003301D01*
X146287084Y-50003301D01*
X146307080Y-50384833D01*
X146307766Y-50391371D01*
X146367535Y-50768734D01*
X146368906Y-50775184D01*
X146467788Y-51144216D01*
X146469829Y-51150498D01*
X146606740Y-51507164D01*
X146609422Y-51513189D01*
X146782872Y-51853603D01*
X146786169Y-51859313D01*
X146994253Y-52179735D01*
X146998123Y-52185061D01*
X147191478Y-52423835D01*
X147203733Y-52432300D01*
X147214824Y-52425966D01*
X149627978Y-50012812D01*
X149634356Y-50001132D01*
X150364408Y-50001132D01*
X150364539Y-50002965D01*
X150368790Y-50009580D01*
X152784310Y-52425100D01*
X152797386Y-52432241D01*
X152807753Y-52424784D01*
X153001877Y-52185061D01*
X153005747Y-52179735D01*
X153213831Y-51859313D01*
X153217128Y-51853603D01*
X153390578Y-51513189D01*
X153393260Y-51507164D01*
X153530171Y-51150498D01*
X153532212Y-51144216D01*
X153631094Y-50775184D01*
X153632465Y-50768734D01*
X153692234Y-50391371D01*
X153692920Y-50384833D01*
X153712916Y-50003301D01*
X153712916Y-49996699D01*
X153692920Y-49615167D01*
X153692234Y-49608629D01*
X153632465Y-49231266D01*
X153631094Y-49224816D01*
X153532212Y-48855784D01*
X153530171Y-48849502D01*
X153393260Y-48492836D01*
X153390578Y-48486811D01*
X153217128Y-48146397D01*
X153213831Y-48140687D01*
X153005747Y-47820265D01*
X153001877Y-47814939D01*
X152808522Y-47576165D01*
X152796267Y-47567700D01*
X152785176Y-47574034D01*
X150372022Y-49987188D01*
X150364408Y-50001132D01*
X149634356Y-50001132D01*
X149635592Y-49998868D01*
X149635461Y-49997035D01*
X149631210Y-49990420D01*
X147215690Y-47574900D01*
X147202614Y-47567759D01*
X147192247Y-47575216D01*
X146998123Y-47814939D01*
X146994253Y-47820265D01*
X146786169Y-48140687D01*
X146782872Y-48146397D01*
X146609422Y-48486811D01*
X146606740Y-48492836D01*
X146469829Y-48849502D01*
X146467788Y-48855784D01*
X146368906Y-49224816D01*
X146367535Y-49231266D01*
X146307766Y-49608629D01*
X146307080Y-49615167D01*
X146287084Y-49996699D01*
X146287084Y-50003301D01*
X140994316Y-50003301D01*
X140999305Y-49998303D01*
X141004164Y-49990420D01*
X141088275Y-49853968D01*
X141088276Y-49853966D01*
X141092115Y-49847738D01*
X141123819Y-49752154D01*
X141145632Y-49686389D01*
X141145632Y-49686387D01*
X141147797Y-49679861D01*
X141149293Y-49665265D01*
X141153805Y-49621224D01*
X141158500Y-49575400D01*
X141158500Y-48033995D01*
X141178502Y-47965874D01*
X141232158Y-47919381D01*
X141291239Y-47910226D01*
X141291337Y-47908228D01*
X141295357Y-47908425D01*
X141295374Y-47908425D01*
X141296899Y-47908500D01*
X141452846Y-47908500D01*
X141610566Y-47893452D01*
X141813534Y-47833908D01*
X141826438Y-47827262D01*
X141996249Y-47739804D01*
X141996252Y-47739802D01*
X142001580Y-47737058D01*
X142167920Y-47606396D01*
X142171852Y-47601865D01*
X142171855Y-47601862D01*
X142302621Y-47451167D01*
X142306552Y-47446637D01*
X142309552Y-47441451D01*
X142309555Y-47441447D01*
X142409467Y-47268742D01*
X142412473Y-47263546D01*
X142433244Y-47203733D01*
X147567700Y-47203733D01*
X147574034Y-47214824D01*
X149987188Y-49627978D01*
X150001132Y-49635592D01*
X150002965Y-49635461D01*
X150009580Y-49631210D01*
X152425100Y-47215690D01*
X152432241Y-47202614D01*
X152424784Y-47192247D01*
X152185065Y-46998126D01*
X152179728Y-46994249D01*
X151859315Y-46786170D01*
X151853606Y-46782873D01*
X151513189Y-46609422D01*
X151507164Y-46606740D01*
X151150498Y-46469829D01*
X151144216Y-46467788D01*
X150775184Y-46368906D01*
X150768734Y-46367535D01*
X150391371Y-46307766D01*
X150384833Y-46307080D01*
X150003301Y-46287084D01*
X149996699Y-46287084D01*
X149615167Y-46307080D01*
X149608629Y-46307766D01*
X149231266Y-46367535D01*
X149224816Y-46368906D01*
X148855784Y-46467788D01*
X148849502Y-46469829D01*
X148492836Y-46606740D01*
X148486811Y-46609422D01*
X148146397Y-46782872D01*
X148140687Y-46786169D01*
X147820265Y-46994253D01*
X147814939Y-46998123D01*
X147576165Y-47191478D01*
X147567700Y-47203733D01*
X142433244Y-47203733D01*
X142481861Y-47063729D01*
X142491373Y-46998126D01*
X142511352Y-46860336D01*
X142511352Y-46860333D01*
X142512213Y-46854396D01*
X142502433Y-46643101D01*
X142465897Y-46491500D01*
X142454281Y-46443299D01*
X142454280Y-46443297D01*
X142452875Y-46437466D01*
X142421703Y-46368906D01*
X142367806Y-46250368D01*
X142365326Y-46244913D01*
X142242946Y-46072389D01*
X142090150Y-45926119D01*
X141912452Y-45811380D01*
X141852354Y-45787160D01*
X141721832Y-45734558D01*
X141721829Y-45734557D01*
X141716263Y-45732314D01*
X141508663Y-45691772D01*
X141503101Y-45691500D01*
X141347154Y-45691500D01*
X141189434Y-45706548D01*
X140986466Y-45766092D01*
X140981139Y-45768836D01*
X140981138Y-45768836D01*
X140803751Y-45860196D01*
X140803748Y-45860198D01*
X140798420Y-45862942D01*
X140632080Y-45993604D01*
X140628148Y-45998135D01*
X140628145Y-45998138D01*
X140559474Y-46077275D01*
X140493448Y-46153363D01*
X140490448Y-46158549D01*
X140490445Y-46158553D01*
X140416088Y-46287084D01*
X140387527Y-46336454D01*
X140318139Y-46536271D01*
X140317278Y-46542206D01*
X140317278Y-46542208D01*
X140291084Y-46722868D01*
X140287787Y-46745604D01*
X140297567Y-46956899D01*
X140298971Y-46962724D01*
X140298971Y-46962725D01*
X140346750Y-47160979D01*
X140343265Y-47231890D01*
X140301995Y-47289660D01*
X140236045Y-47315947D01*
X140224257Y-47316500D01*
X139149600Y-47316500D01*
X139146354Y-47316837D01*
X139146350Y-47316837D01*
X139050692Y-47326762D01*
X139050688Y-47326763D01*
X139043834Y-47327474D01*
X139037298Y-47329655D01*
X139037296Y-47329655D01*
X138905497Y-47373627D01*
X138876054Y-47383450D01*
X138725652Y-47476522D01*
X138600695Y-47601697D01*
X138511319Y-47746692D01*
X138510920Y-47747339D01*
X138458148Y-47794832D01*
X138388076Y-47806256D01*
X138322952Y-47777982D01*
X138312490Y-47768195D01*
X138244695Y-47697128D01*
X138203424Y-47653865D01*
X138196078Y-47648399D01*
X138064759Y-47550695D01*
X138018458Y-47516246D01*
X138013707Y-47513830D01*
X138013703Y-47513828D01*
X137904988Y-47458555D01*
X137812949Y-47411760D01*
X137807855Y-47410178D01*
X137807852Y-47410177D01*
X137597871Y-47344976D01*
X137592773Y-47343393D01*
X137583832Y-47342208D01*
X137369511Y-47313802D01*
X137369506Y-47313802D01*
X137364226Y-47313102D01*
X137358897Y-47313302D01*
X137358895Y-47313302D01*
X137249034Y-47317427D01*
X137133842Y-47321751D01*
X136908209Y-47369093D01*
X136903250Y-47371051D01*
X136903248Y-47371052D01*
X136698744Y-47451815D01*
X136698742Y-47451816D01*
X136693779Y-47453776D01*
X136689220Y-47456543D01*
X136689217Y-47456544D01*
X136552240Y-47539664D01*
X136496683Y-47573377D01*
X136492653Y-47576874D01*
X136347922Y-47702465D01*
X136322555Y-47724477D01*
X136319168Y-47728608D01*
X136179760Y-47898627D01*
X136179756Y-47898633D01*
X136176376Y-47902755D01*
X136158448Y-47934250D01*
X136107368Y-47983555D01*
X136037738Y-47997417D01*
X135971667Y-47971434D01*
X135944427Y-47942284D01*
X135916032Y-47900108D01*
X135862559Y-47820681D01*
X135857082Y-47814939D01*
X135744695Y-47697128D01*
X135703424Y-47653865D01*
X135696078Y-47648399D01*
X135564759Y-47550695D01*
X135518458Y-47516246D01*
X135513707Y-47513830D01*
X135513703Y-47513828D01*
X135404988Y-47458555D01*
X135312949Y-47411760D01*
X135307855Y-47410178D01*
X135307852Y-47410177D01*
X135097871Y-47344976D01*
X135092773Y-47343393D01*
X135083832Y-47342208D01*
X134869511Y-47313802D01*
X134869506Y-47313802D01*
X134864226Y-47313102D01*
X134858897Y-47313302D01*
X134858895Y-47313302D01*
X134749034Y-47317427D01*
X134633842Y-47321751D01*
X134408209Y-47369093D01*
X134403250Y-47371051D01*
X134403248Y-47371052D01*
X134198744Y-47451815D01*
X134198742Y-47451816D01*
X134193779Y-47453776D01*
X134189220Y-47456543D01*
X134189217Y-47456544D01*
X134052240Y-47539664D01*
X133996683Y-47573377D01*
X133992653Y-47576874D01*
X133847922Y-47702465D01*
X133822555Y-47724477D01*
X133819168Y-47728608D01*
X133679760Y-47898627D01*
X133679756Y-47898633D01*
X133676376Y-47902755D01*
X133658448Y-47934250D01*
X133607368Y-47983555D01*
X133537738Y-47997417D01*
X133471667Y-47971434D01*
X133444427Y-47942284D01*
X133416032Y-47900108D01*
X133362559Y-47820681D01*
X133357082Y-47814939D01*
X133244695Y-47697128D01*
X133203424Y-47653865D01*
X133196078Y-47648399D01*
X133064759Y-47550695D01*
X133018458Y-47516246D01*
X133013707Y-47513830D01*
X133013703Y-47513828D01*
X132904988Y-47458555D01*
X132812949Y-47411760D01*
X132807855Y-47410178D01*
X132807852Y-47410177D01*
X132597871Y-47344976D01*
X132592773Y-47343393D01*
X132583832Y-47342208D01*
X132369511Y-47313802D01*
X132369506Y-47313802D01*
X132364226Y-47313102D01*
X132358897Y-47313302D01*
X132358895Y-47313302D01*
X132249034Y-47317427D01*
X132133842Y-47321751D01*
X131908209Y-47369093D01*
X131903250Y-47371051D01*
X131903248Y-47371052D01*
X131698744Y-47451815D01*
X131698742Y-47451816D01*
X131693779Y-47453776D01*
X131689220Y-47456543D01*
X131689217Y-47456544D01*
X131552240Y-47539664D01*
X131496683Y-47573377D01*
X131492653Y-47576874D01*
X131347922Y-47702465D01*
X131322555Y-47724477D01*
X131319168Y-47728608D01*
X131179760Y-47898627D01*
X131179756Y-47898633D01*
X131176376Y-47902755D01*
X131173733Y-47907398D01*
X131158171Y-47934735D01*
X131107088Y-47984041D01*
X131037458Y-47997902D01*
X130971387Y-47971918D01*
X130944149Y-47942768D01*
X130865148Y-47825422D01*
X130858481Y-47817130D01*
X130706772Y-47658100D01*
X130698814Y-47651059D01*
X130522475Y-47519859D01*
X130513438Y-47514255D01*
X130317516Y-47414643D01*
X130307665Y-47410643D01*
X130097760Y-47345466D01*
X130087376Y-47343183D01*
X130071957Y-47341139D01*
X130057793Y-47343335D01*
X130054000Y-47356522D01*
X130054000Y-50241192D01*
X129546000Y-50241192D01*
X129546000Y-47358808D01*
X129542027Y-47345277D01*
X129531420Y-47343752D01*
X129413579Y-47368477D01*
X129403383Y-47371537D01*
X129198971Y-47452263D01*
X129189439Y-47456994D01*
X129001538Y-47571016D01*
X128992948Y-47577280D01*
X128826948Y-47721327D01*
X128819528Y-47728958D01*
X128680174Y-47898911D01*
X128674152Y-47907674D01*
X128658762Y-47934711D01*
X128607680Y-47984018D01*
X128538049Y-47997880D01*
X128471978Y-47971897D01*
X128444739Y-47942747D01*
X128395354Y-47869393D01*
X128362559Y-47820681D01*
X128357082Y-47814939D01*
X128244695Y-47697128D01*
X128203424Y-47653865D01*
X128196078Y-47648399D01*
X128064759Y-47550695D01*
X128018458Y-47516246D01*
X128013707Y-47513830D01*
X128013703Y-47513828D01*
X127904988Y-47458555D01*
X127812949Y-47411760D01*
X127807855Y-47410178D01*
X127807852Y-47410177D01*
X127597871Y-47344976D01*
X127592773Y-47343393D01*
X127583832Y-47342208D01*
X127369511Y-47313802D01*
X127369506Y-47313802D01*
X127364226Y-47313102D01*
X127358897Y-47313302D01*
X127358895Y-47313302D01*
X127249034Y-47317427D01*
X127133842Y-47321751D01*
X126908209Y-47369093D01*
X126903250Y-47371051D01*
X126903248Y-47371052D01*
X126698744Y-47451815D01*
X126698742Y-47451816D01*
X126693779Y-47453776D01*
X126689220Y-47456543D01*
X126689217Y-47456544D01*
X126552240Y-47539664D01*
X126496683Y-47573377D01*
X126492653Y-47576874D01*
X126347922Y-47702465D01*
X126322555Y-47724477D01*
X126319168Y-47728608D01*
X126179760Y-47898627D01*
X126179756Y-47898633D01*
X126176376Y-47902755D01*
X126173738Y-47907390D01*
X126173735Y-47907394D01*
X126115757Y-48009248D01*
X126062325Y-48103114D01*
X125983663Y-48319825D01*
X125982714Y-48325074D01*
X125982713Y-48325077D01*
X125943377Y-48542608D01*
X125943376Y-48542615D01*
X125942639Y-48546692D01*
X125941500Y-48570844D01*
X125941500Y-48982890D01*
X121158500Y-48982890D01*
X121158500Y-48692110D01*
X121148337Y-48572331D01*
X121144371Y-48525591D01*
X121144370Y-48525587D01*
X121143920Y-48520280D01*
X121142582Y-48515125D01*
X121142581Y-48515119D01*
X121087343Y-48302297D01*
X121087342Y-48302293D01*
X121086001Y-48297128D01*
X121068102Y-48257392D01*
X121000866Y-48108135D01*
X120991312Y-48086925D01*
X120862559Y-47895681D01*
X120858822Y-47891763D01*
X120785079Y-47814461D01*
X120703424Y-47728865D01*
X120518458Y-47591246D01*
X120513707Y-47588830D01*
X120513703Y-47588828D01*
X120377210Y-47519432D01*
X120312949Y-47486760D01*
X120307855Y-47485178D01*
X120307852Y-47485177D01*
X120097871Y-47419976D01*
X120092773Y-47418393D01*
X120084217Y-47417259D01*
X119869511Y-47388802D01*
X119869506Y-47388802D01*
X119864226Y-47388102D01*
X119858897Y-47388302D01*
X119858895Y-47388302D01*
X119749034Y-47392426D01*
X119633842Y-47396751D01*
X119628623Y-47397846D01*
X119530696Y-47418393D01*
X119408209Y-47444093D01*
X119403250Y-47446051D01*
X119403248Y-47446052D01*
X119198744Y-47526815D01*
X119198742Y-47526816D01*
X119193779Y-47528776D01*
X119189220Y-47531543D01*
X119189217Y-47531544D01*
X119090832Y-47591246D01*
X118996683Y-47648377D01*
X118992653Y-47651874D01*
X118855552Y-47770844D01*
X118822555Y-47799477D01*
X118805916Y-47819770D01*
X118679760Y-47973627D01*
X118679756Y-47973633D01*
X118676376Y-47977755D01*
X118658448Y-48009250D01*
X118607368Y-48058555D01*
X118537738Y-48072417D01*
X118471667Y-48046434D01*
X118444427Y-48017284D01*
X118413885Y-47971918D01*
X118362559Y-47895681D01*
X118358822Y-47891763D01*
X118285079Y-47814461D01*
X118203424Y-47728865D01*
X118018458Y-47591246D01*
X118013707Y-47588830D01*
X118013703Y-47588828D01*
X117877210Y-47519432D01*
X117812949Y-47486760D01*
X117807855Y-47485178D01*
X117807852Y-47485177D01*
X117597871Y-47419976D01*
X117592773Y-47418393D01*
X117584217Y-47417259D01*
X117369511Y-47388802D01*
X117369506Y-47388802D01*
X117364226Y-47388102D01*
X117358897Y-47388302D01*
X117358895Y-47388302D01*
X117249034Y-47392426D01*
X117133842Y-47396751D01*
X117128623Y-47397846D01*
X117030696Y-47418393D01*
X116908209Y-47444093D01*
X116903250Y-47446051D01*
X116903248Y-47446052D01*
X116698744Y-47526815D01*
X116698742Y-47526816D01*
X116693779Y-47528776D01*
X116689220Y-47531543D01*
X116689217Y-47531544D01*
X116590832Y-47591246D01*
X116496683Y-47648377D01*
X116492653Y-47651874D01*
X116355552Y-47770844D01*
X116322555Y-47799477D01*
X116305916Y-47819770D01*
X116179760Y-47973627D01*
X116179756Y-47973633D01*
X116176376Y-47977755D01*
X116158448Y-48009250D01*
X116107368Y-48058555D01*
X116037738Y-48072417D01*
X115971667Y-48046434D01*
X115944427Y-48017284D01*
X115913885Y-47971918D01*
X115862559Y-47895681D01*
X115858822Y-47891763D01*
X115785079Y-47814461D01*
X115703424Y-47728865D01*
X115518458Y-47591246D01*
X115513707Y-47588830D01*
X115513703Y-47588828D01*
X115377210Y-47519432D01*
X115312949Y-47486760D01*
X115307855Y-47485178D01*
X115307852Y-47485177D01*
X115097871Y-47419976D01*
X115092773Y-47418393D01*
X115084217Y-47417259D01*
X114869511Y-47388802D01*
X114869506Y-47388802D01*
X114864226Y-47388102D01*
X114858897Y-47388302D01*
X114858895Y-47388302D01*
X114749034Y-47392426D01*
X114633842Y-47396751D01*
X114628623Y-47397846D01*
X114530696Y-47418393D01*
X114408209Y-47444093D01*
X114403250Y-47446051D01*
X114403248Y-47446052D01*
X114198744Y-47526815D01*
X114198742Y-47526816D01*
X114193779Y-47528776D01*
X114189220Y-47531543D01*
X114189217Y-47531544D01*
X114090832Y-47591246D01*
X113996683Y-47648377D01*
X113992653Y-47651874D01*
X113855552Y-47770844D01*
X113822555Y-47799477D01*
X113805916Y-47819770D01*
X113679760Y-47973627D01*
X113679756Y-47973633D01*
X113676376Y-47977755D01*
X113658448Y-48009250D01*
X113607368Y-48058555D01*
X113537738Y-48072417D01*
X113471667Y-48046434D01*
X113444427Y-48017284D01*
X113413885Y-47971918D01*
X113362559Y-47895681D01*
X113358822Y-47891763D01*
X113285079Y-47814461D01*
X113203424Y-47728865D01*
X113018458Y-47591246D01*
X113013707Y-47588830D01*
X113013703Y-47588828D01*
X112877210Y-47519432D01*
X112812949Y-47486760D01*
X112807855Y-47485178D01*
X112807852Y-47485177D01*
X112597871Y-47419976D01*
X112592773Y-47418393D01*
X112584217Y-47417259D01*
X112369511Y-47388802D01*
X112369506Y-47388802D01*
X112364226Y-47388102D01*
X112358897Y-47388302D01*
X112358895Y-47388302D01*
X112249034Y-47392426D01*
X112133842Y-47396751D01*
X112128623Y-47397846D01*
X112030696Y-47418393D01*
X111908209Y-47444093D01*
X111903250Y-47446051D01*
X111903248Y-47446052D01*
X111698744Y-47526815D01*
X111698742Y-47526816D01*
X111693779Y-47528776D01*
X111689220Y-47531543D01*
X111689217Y-47531544D01*
X111590832Y-47591246D01*
X111496683Y-47648377D01*
X111492653Y-47651874D01*
X111355552Y-47770844D01*
X111322555Y-47799477D01*
X111293330Y-47835120D01*
X111234671Y-47875114D01*
X111163701Y-47877046D01*
X111102952Y-47840302D01*
X111088752Y-47821532D01*
X111002332Y-47681880D01*
X110998478Y-47675652D01*
X110873303Y-47550695D01*
X110865044Y-47545604D01*
X110728968Y-47461725D01*
X110728966Y-47461724D01*
X110722738Y-47457885D01*
X110630518Y-47427297D01*
X110561389Y-47404368D01*
X110561387Y-47404368D01*
X110554861Y-47402203D01*
X110548025Y-47401503D01*
X110548022Y-47401502D01*
X110504969Y-47397091D01*
X110450400Y-47391500D01*
X109149600Y-47391500D01*
X109146354Y-47391837D01*
X109146350Y-47391837D01*
X109050692Y-47401762D01*
X109050688Y-47401763D01*
X109043834Y-47402474D01*
X109037298Y-47404655D01*
X109037296Y-47404655D01*
X108905194Y-47448728D01*
X108876054Y-47458450D01*
X108725652Y-47551522D01*
X108600695Y-47676697D01*
X108596855Y-47682927D01*
X108596854Y-47682928D01*
X108511942Y-47820681D01*
X108507885Y-47827262D01*
X108486491Y-47891763D01*
X108455892Y-47984018D01*
X108452203Y-47995139D01*
X108451503Y-48001975D01*
X108451502Y-48001978D01*
X108448222Y-48033995D01*
X108441500Y-48099600D01*
X108441500Y-49641005D01*
X108421498Y-49709126D01*
X108367842Y-49755619D01*
X108308761Y-49764774D01*
X108308663Y-49766772D01*
X108304643Y-49766575D01*
X108304626Y-49766575D01*
X108303101Y-49766500D01*
X108147154Y-49766500D01*
X107989434Y-49781548D01*
X107786466Y-49841092D01*
X107781139Y-49843836D01*
X107781138Y-49843836D01*
X107603751Y-49935196D01*
X107603748Y-49935198D01*
X107598420Y-49937942D01*
X107432080Y-50068604D01*
X107428148Y-50073135D01*
X107428145Y-50073138D01*
X107351753Y-50161172D01*
X107293448Y-50228363D01*
X107290448Y-50233549D01*
X107290445Y-50233553D01*
X107221084Y-50353449D01*
X107187527Y-50411454D01*
X107118139Y-50611271D01*
X107117278Y-50617206D01*
X107117278Y-50617208D01*
X107089310Y-50810102D01*
X107087787Y-50820604D01*
X102977043Y-50820604D01*
X102999305Y-50798303D01*
X103032937Y-50743742D01*
X103088275Y-50653968D01*
X103088276Y-50653966D01*
X103092115Y-50647738D01*
X103126393Y-50544393D01*
X103145632Y-50486389D01*
X103145632Y-50486387D01*
X103147797Y-50479861D01*
X103150050Y-50457878D01*
X103156773Y-50392256D01*
X103158500Y-50375400D01*
X103158500Y-48833995D01*
X103178502Y-48765874D01*
X103232158Y-48719381D01*
X103291239Y-48710226D01*
X103291337Y-48708228D01*
X103295357Y-48708425D01*
X103295374Y-48708425D01*
X103296899Y-48708500D01*
X103452846Y-48708500D01*
X103610566Y-48693452D01*
X103813534Y-48633908D01*
X103846111Y-48617130D01*
X103996249Y-48539804D01*
X103996252Y-48539802D01*
X104001580Y-48537058D01*
X104167920Y-48406396D01*
X104171852Y-48401865D01*
X104171855Y-48401862D01*
X104302621Y-48251167D01*
X104306552Y-48246637D01*
X104309552Y-48241451D01*
X104309555Y-48241447D01*
X104409467Y-48068742D01*
X104412473Y-48063546D01*
X104481861Y-47863729D01*
X104485258Y-47840302D01*
X104511352Y-47660336D01*
X104511352Y-47660333D01*
X104512213Y-47654396D01*
X104502433Y-47443101D01*
X104452875Y-47237466D01*
X104448236Y-47227262D01*
X104391625Y-47102755D01*
X104365326Y-47044913D01*
X104242946Y-46872389D01*
X104090150Y-46726119D01*
X103912452Y-46611380D01*
X103843148Y-46583450D01*
X103721832Y-46534558D01*
X103721829Y-46534557D01*
X103716263Y-46532314D01*
X103508663Y-46491772D01*
X103503101Y-46491500D01*
X103347154Y-46491500D01*
X103189434Y-46506548D01*
X102986466Y-46566092D01*
X102981139Y-46568836D01*
X102981138Y-46568836D01*
X102803751Y-46660196D01*
X102803748Y-46660198D01*
X102798420Y-46662942D01*
X102632080Y-46793604D01*
X102628148Y-46798135D01*
X102628145Y-46798138D01*
X102551243Y-46886760D01*
X102493448Y-46953363D01*
X102490448Y-46958549D01*
X102490445Y-46958553D01*
X102409246Y-47098911D01*
X102387527Y-47136454D01*
X102318139Y-47336271D01*
X102317278Y-47342206D01*
X102317278Y-47342208D01*
X102289826Y-47531544D01*
X102287787Y-47545604D01*
X102297567Y-47756899D01*
X102298971Y-47762724D01*
X102298971Y-47762725D01*
X102346750Y-47960979D01*
X102343265Y-48031890D01*
X102301995Y-48089660D01*
X102236045Y-48115947D01*
X102224257Y-48116500D01*
X101149600Y-48116500D01*
X101146354Y-48116837D01*
X101146350Y-48116837D01*
X101050692Y-48126762D01*
X101050688Y-48126763D01*
X101043834Y-48127474D01*
X101037298Y-48129655D01*
X101037296Y-48129655D01*
X100905194Y-48173728D01*
X100876054Y-48183450D01*
X100725652Y-48276522D01*
X100600695Y-48401697D01*
X100511319Y-48546692D01*
X100510920Y-48547339D01*
X100458148Y-48594832D01*
X100388076Y-48606256D01*
X100322952Y-48577982D01*
X100312490Y-48568195D01*
X100251399Y-48504156D01*
X100203424Y-48453865D01*
X100018458Y-48316246D01*
X100013707Y-48313830D01*
X100013703Y-48313828D01*
X99915704Y-48264003D01*
X99812949Y-48211760D01*
X99807855Y-48210178D01*
X99807852Y-48210177D01*
X99597871Y-48144976D01*
X99592773Y-48143393D01*
X99587484Y-48142692D01*
X99369511Y-48113802D01*
X99369506Y-48113802D01*
X99364226Y-48113102D01*
X99358897Y-48113302D01*
X99358895Y-48113302D01*
X99249034Y-48117427D01*
X99133842Y-48121751D01*
X98908209Y-48169093D01*
X98903250Y-48171051D01*
X98903248Y-48171052D01*
X98698744Y-48251815D01*
X98698742Y-48251816D01*
X98693779Y-48253776D01*
X98689220Y-48256543D01*
X98689217Y-48256544D01*
X98594113Y-48314255D01*
X98496683Y-48373377D01*
X98492653Y-48376874D01*
X98327392Y-48520280D01*
X98322555Y-48524477D01*
X98304340Y-48546692D01*
X98179760Y-48698627D01*
X98179756Y-48698633D01*
X98176376Y-48702755D01*
X98173733Y-48707398D01*
X98158171Y-48734735D01*
X98107088Y-48784041D01*
X98037458Y-48797902D01*
X97971387Y-48771918D01*
X97944149Y-48742768D01*
X97865148Y-48625422D01*
X97858481Y-48617130D01*
X97706772Y-48458100D01*
X97698814Y-48451059D01*
X97522475Y-48319859D01*
X97513438Y-48314255D01*
X97317516Y-48214643D01*
X97307665Y-48210643D01*
X97097760Y-48145466D01*
X97087376Y-48143183D01*
X97071957Y-48141139D01*
X97057793Y-48143335D01*
X97054000Y-48156522D01*
X97054000Y-51041192D01*
X96546000Y-51041192D01*
X96546000Y-49872115D01*
X96541525Y-49856876D01*
X96540135Y-49855671D01*
X96532452Y-49854000D01*
X95466151Y-49854000D01*
X95451473Y-49858310D01*
X95449410Y-49870193D01*
X76655404Y-49870193D01*
X76656735Y-49843110D01*
X76698005Y-49785340D01*
X76763955Y-49759053D01*
X76775743Y-49758500D01*
X77850400Y-49758500D01*
X77853646Y-49758163D01*
X77853650Y-49758163D01*
X77949308Y-49748238D01*
X77949312Y-49748237D01*
X77956166Y-49747526D01*
X77962702Y-49745345D01*
X77962704Y-49745345D01*
X78116998Y-49693868D01*
X78123946Y-49691550D01*
X78274348Y-49598478D01*
X78331383Y-49541344D01*
X78359399Y-49513279D01*
X78399305Y-49473303D01*
X78410875Y-49454534D01*
X78462462Y-49370844D01*
X78489353Y-49327220D01*
X78542124Y-49279727D01*
X78612196Y-49268303D01*
X78677320Y-49296577D01*
X78687782Y-49306364D01*
X78793234Y-49416906D01*
X78801186Y-49423941D01*
X78977525Y-49555141D01*
X78986562Y-49560745D01*
X79182484Y-49660357D01*
X79192335Y-49664357D01*
X79402240Y-49729534D01*
X79412624Y-49731817D01*
X79428043Y-49733861D01*
X79442207Y-49731665D01*
X79446000Y-49718478D01*
X79446000Y-49716192D01*
X79954000Y-49716192D01*
X79957973Y-49729723D01*
X79968580Y-49731248D01*
X80086421Y-49706523D01*
X80096617Y-49703463D01*
X80301029Y-49622737D01*
X80310561Y-49618006D01*
X80498462Y-49503984D01*
X80507052Y-49497720D01*
X80673052Y-49353673D01*
X80680472Y-49346042D01*
X80819826Y-49176089D01*
X80825848Y-49167326D01*
X80841238Y-49140289D01*
X80892320Y-49090982D01*
X80961951Y-49077120D01*
X81028022Y-49103103D01*
X81055261Y-49132253D01*
X81084773Y-49176089D01*
X81137441Y-49254319D01*
X81141120Y-49258176D01*
X81141122Y-49258178D01*
X81167420Y-49285745D01*
X81296576Y-49421135D01*
X81300854Y-49424318D01*
X81355395Y-49464898D01*
X81481542Y-49558754D01*
X81486293Y-49561170D01*
X81486297Y-49561172D01*
X81539212Y-49588075D01*
X81687051Y-49663240D01*
X81692145Y-49664822D01*
X81692148Y-49664823D01*
X81834827Y-49709126D01*
X81907227Y-49731607D01*
X81912516Y-49732308D01*
X82130489Y-49761198D01*
X82130494Y-49761198D01*
X82135774Y-49761898D01*
X82141103Y-49761698D01*
X82141105Y-49761698D01*
X82250966Y-49757574D01*
X82366158Y-49753249D01*
X82591791Y-49705907D01*
X82596750Y-49703949D01*
X82596752Y-49703948D01*
X82801256Y-49623185D01*
X82801258Y-49623184D01*
X82806221Y-49621224D01*
X82811525Y-49618006D01*
X82958276Y-49528955D01*
X83003317Y-49501623D01*
X83036143Y-49473138D01*
X83173412Y-49354023D01*
X83173414Y-49354021D01*
X83177445Y-49350523D01*
X83244861Y-49268303D01*
X83320240Y-49176373D01*
X83320244Y-49176367D01*
X83323624Y-49172245D01*
X83341552Y-49140750D01*
X83392632Y-49091445D01*
X83462262Y-49077583D01*
X83528333Y-49103566D01*
X83555573Y-49132716D01*
X83560983Y-49140752D01*
X83637441Y-49254319D01*
X83641120Y-49258176D01*
X83641122Y-49258178D01*
X83667420Y-49285745D01*
X83796576Y-49421135D01*
X83800854Y-49424318D01*
X83855395Y-49464898D01*
X83981542Y-49558754D01*
X83986293Y-49561170D01*
X83986297Y-49561172D01*
X84039212Y-49588075D01*
X84187051Y-49663240D01*
X84192145Y-49664822D01*
X84192148Y-49664823D01*
X84334827Y-49709126D01*
X84407227Y-49731607D01*
X84412516Y-49732308D01*
X84630489Y-49761198D01*
X84630494Y-49761198D01*
X84635774Y-49761898D01*
X84641103Y-49761698D01*
X84641105Y-49761698D01*
X84750966Y-49757574D01*
X84866158Y-49753249D01*
X85091791Y-49705907D01*
X85096750Y-49703949D01*
X85096752Y-49703948D01*
X85301256Y-49623185D01*
X85301258Y-49623184D01*
X85306221Y-49621224D01*
X85311525Y-49618006D01*
X85458276Y-49528955D01*
X85503317Y-49501623D01*
X85536143Y-49473138D01*
X85673412Y-49354023D01*
X85673414Y-49354021D01*
X85677445Y-49350523D01*
X85744861Y-49268303D01*
X85820240Y-49176373D01*
X85820244Y-49176367D01*
X85823624Y-49172245D01*
X85832777Y-49156166D01*
X85841829Y-49140265D01*
X85892912Y-49090959D01*
X85962542Y-49077098D01*
X86028613Y-49103082D01*
X86055851Y-49132232D01*
X86134852Y-49249578D01*
X86141519Y-49257870D01*
X86293228Y-49416900D01*
X86301186Y-49423941D01*
X86477525Y-49555141D01*
X86486562Y-49560745D01*
X86682484Y-49660357D01*
X86692335Y-49664357D01*
X86902240Y-49729534D01*
X86912624Y-49731817D01*
X86928043Y-49733861D01*
X86942207Y-49731665D01*
X86946000Y-49718478D01*
X86946000Y-49716192D01*
X87454000Y-49716192D01*
X87457973Y-49729723D01*
X87468580Y-49731248D01*
X87586421Y-49706523D01*
X87596617Y-49703463D01*
X87801029Y-49622737D01*
X87810561Y-49618006D01*
X87998462Y-49503984D01*
X88007052Y-49497720D01*
X88173052Y-49353673D01*
X88180472Y-49346042D01*
X88195123Y-49328174D01*
X95446496Y-49328174D01*
X95447915Y-49341414D01*
X95462550Y-49346000D01*
X96527885Y-49346000D01*
X96543124Y-49341525D01*
X96544329Y-49340135D01*
X96546000Y-49332452D01*
X96546000Y-48158808D01*
X96542027Y-48145277D01*
X96531420Y-48143752D01*
X96413579Y-48168477D01*
X96403383Y-48171537D01*
X96198971Y-48252263D01*
X96189439Y-48256994D01*
X96001538Y-48371016D01*
X95992948Y-48377280D01*
X95826948Y-48521327D01*
X95819528Y-48528958D01*
X95680174Y-48698911D01*
X95674150Y-48707678D01*
X95565424Y-48898682D01*
X95560959Y-48908346D01*
X95485969Y-49114941D01*
X95483198Y-49125208D01*
X95446496Y-49328174D01*
X88195123Y-49328174D01*
X88319826Y-49176089D01*
X88325850Y-49167322D01*
X88434576Y-48976318D01*
X88439041Y-48966654D01*
X88514031Y-48760059D01*
X88516802Y-48749792D01*
X88553504Y-48546826D01*
X88552085Y-48533586D01*
X88537450Y-48529000D01*
X87472115Y-48529000D01*
X87456876Y-48533475D01*
X87455671Y-48534865D01*
X87454000Y-48542548D01*
X87454000Y-49716192D01*
X86946000Y-49716192D01*
X86946000Y-48002885D01*
X87454000Y-48002885D01*
X87458475Y-48018124D01*
X87459865Y-48019329D01*
X87467548Y-48021000D01*
X88533849Y-48021000D01*
X88548527Y-48016690D01*
X88550590Y-48004807D01*
X88543876Y-47925675D01*
X88542086Y-47915203D01*
X88486870Y-47702465D01*
X88483335Y-47692425D01*
X88393063Y-47492030D01*
X88387894Y-47482744D01*
X88265150Y-47300425D01*
X88258481Y-47292130D01*
X88106772Y-47133100D01*
X88098814Y-47126059D01*
X87922475Y-46994859D01*
X87913438Y-46989255D01*
X87717516Y-46889643D01*
X87707665Y-46885643D01*
X87497760Y-46820466D01*
X87487376Y-46818183D01*
X87471957Y-46816139D01*
X87457793Y-46818335D01*
X87454000Y-46831522D01*
X87454000Y-48002885D01*
X86946000Y-48002885D01*
X86946000Y-46833808D01*
X86942027Y-46820277D01*
X86931420Y-46818752D01*
X86813579Y-46843477D01*
X86803383Y-46846537D01*
X86598971Y-46927263D01*
X86589439Y-46931994D01*
X86401538Y-47046016D01*
X86392948Y-47052280D01*
X86226948Y-47196327D01*
X86219528Y-47203958D01*
X86080174Y-47373911D01*
X86074152Y-47382674D01*
X86058762Y-47409711D01*
X86007680Y-47459018D01*
X85938049Y-47472880D01*
X85871978Y-47446897D01*
X85844739Y-47417747D01*
X85794922Y-47343752D01*
X85762559Y-47295681D01*
X85756816Y-47289660D01*
X85685425Y-47214824D01*
X85603424Y-47128865D01*
X85418458Y-46991246D01*
X85413707Y-46988830D01*
X85413703Y-46988828D01*
X85295254Y-46928606D01*
X85212949Y-46886760D01*
X85207855Y-46885178D01*
X85207852Y-46885177D01*
X84997871Y-46819976D01*
X84992773Y-46818393D01*
X84987484Y-46817692D01*
X84769511Y-46788802D01*
X84769506Y-46788802D01*
X84764226Y-46788102D01*
X84758897Y-46788302D01*
X84758895Y-46788302D01*
X84649034Y-46792427D01*
X84533842Y-46796751D01*
X84528623Y-46797846D01*
X84506566Y-46802474D01*
X84308209Y-46844093D01*
X84303250Y-46846051D01*
X84303248Y-46846052D01*
X84098744Y-46926815D01*
X84098742Y-46926816D01*
X84093779Y-46928776D01*
X84089220Y-46931543D01*
X84089217Y-46931544D01*
X83994113Y-46989255D01*
X83896683Y-47048377D01*
X83892653Y-47051874D01*
X83730887Y-47192247D01*
X83722555Y-47199477D01*
X83694077Y-47234209D01*
X83579760Y-47373627D01*
X83579756Y-47373633D01*
X83576376Y-47377755D01*
X83558448Y-47409250D01*
X83507368Y-47458555D01*
X83437738Y-47472417D01*
X83371667Y-47446434D01*
X83344427Y-47417284D01*
X83333802Y-47401502D01*
X83262559Y-47295681D01*
X83256816Y-47289660D01*
X83185425Y-47214824D01*
X83103424Y-47128865D01*
X82918458Y-46991246D01*
X82913707Y-46988830D01*
X82913703Y-46988828D01*
X82795254Y-46928606D01*
X82712949Y-46886760D01*
X82707855Y-46885178D01*
X82707852Y-46885177D01*
X82497871Y-46819976D01*
X82492773Y-46818393D01*
X82487484Y-46817692D01*
X82269511Y-46788802D01*
X82269506Y-46788802D01*
X82264226Y-46788102D01*
X82258897Y-46788302D01*
X82258895Y-46788302D01*
X82149034Y-46792427D01*
X82033842Y-46796751D01*
X82028623Y-46797846D01*
X82006566Y-46802474D01*
X81808209Y-46844093D01*
X81803250Y-46846051D01*
X81803248Y-46846052D01*
X81598744Y-46926815D01*
X81598742Y-46926816D01*
X81593779Y-46928776D01*
X81589220Y-46931543D01*
X81589217Y-46931544D01*
X81494113Y-46989255D01*
X81396683Y-47048377D01*
X81392653Y-47051874D01*
X81230887Y-47192247D01*
X81222555Y-47199477D01*
X81194077Y-47234209D01*
X81079760Y-47373627D01*
X81079756Y-47373633D01*
X81076376Y-47377755D01*
X81073738Y-47382390D01*
X81073733Y-47382398D01*
X81058171Y-47409735D01*
X81007088Y-47459041D01*
X80937458Y-47472902D01*
X80871387Y-47446918D01*
X80844149Y-47417768D01*
X80765148Y-47300422D01*
X80758481Y-47292130D01*
X80606772Y-47133100D01*
X80598814Y-47126059D01*
X80422475Y-46994859D01*
X80413438Y-46989255D01*
X80217516Y-46889643D01*
X80207665Y-46885643D01*
X79997760Y-46820466D01*
X79987376Y-46818183D01*
X79971957Y-46816139D01*
X79957793Y-46818335D01*
X79954000Y-46831522D01*
X79954000Y-49716192D01*
X79446000Y-49716192D01*
X79446000Y-46833808D01*
X79442027Y-46820277D01*
X79431420Y-46818752D01*
X79313579Y-46843477D01*
X79303383Y-46846537D01*
X79098971Y-46927263D01*
X79089439Y-46931994D01*
X78901538Y-47046016D01*
X78892948Y-47052280D01*
X78726948Y-47196327D01*
X78719530Y-47203956D01*
X78693609Y-47235569D01*
X78634949Y-47275564D01*
X78563979Y-47277496D01*
X78503230Y-47240752D01*
X78489030Y-47221982D01*
X78485137Y-47215690D01*
X78398478Y-47075652D01*
X78273303Y-46950695D01*
X78267072Y-46946854D01*
X78128968Y-46861725D01*
X78128966Y-46861724D01*
X78122738Y-46857885D01*
X78009353Y-46820277D01*
X77961389Y-46804368D01*
X77961387Y-46804368D01*
X77954861Y-46802203D01*
X77948025Y-46801503D01*
X77948022Y-46801502D01*
X77904969Y-46797091D01*
X77850400Y-46791500D01*
X76549600Y-46791500D01*
X76546354Y-46791837D01*
X76546350Y-46791837D01*
X76450692Y-46801762D01*
X76450688Y-46801763D01*
X76443834Y-46802474D01*
X76437298Y-46804655D01*
X76437296Y-46804655D01*
X76306180Y-46848399D01*
X76276054Y-46858450D01*
X76125652Y-46951522D01*
X76120479Y-46956704D01*
X76111896Y-46965302D01*
X76000695Y-47076697D01*
X75996855Y-47082927D01*
X75996854Y-47082928D01*
X75922389Y-47203733D01*
X75907885Y-47227262D01*
X75905581Y-47234209D01*
X75854471Y-47388302D01*
X75852203Y-47395139D01*
X75851503Y-47401975D01*
X75851502Y-47401978D01*
X75849884Y-47417768D01*
X75841500Y-47499600D01*
X75841500Y-49041005D01*
X75821498Y-49109126D01*
X75767842Y-49155619D01*
X75708761Y-49164774D01*
X75708663Y-49166772D01*
X75704643Y-49166575D01*
X75704626Y-49166575D01*
X75703101Y-49166500D01*
X75547154Y-49166500D01*
X75389434Y-49181548D01*
X75186466Y-49241092D01*
X75181139Y-49243836D01*
X75181138Y-49243836D01*
X75003751Y-49335196D01*
X75003748Y-49335198D01*
X74998420Y-49337942D01*
X74832080Y-49468604D01*
X74828148Y-49473135D01*
X74828145Y-49473138D01*
X74739407Y-49575400D01*
X74693448Y-49628363D01*
X74690448Y-49633549D01*
X74690445Y-49633553D01*
X74613490Y-49766575D01*
X74587527Y-49811454D01*
X74518139Y-50011271D01*
X74517278Y-50017206D01*
X74517278Y-50017208D01*
X74488850Y-50213275D01*
X74487787Y-50220604D01*
X57588114Y-50220604D01*
X57611352Y-50060336D01*
X57611352Y-50060333D01*
X57612213Y-50054396D01*
X57602433Y-49843101D01*
X57564980Y-49687694D01*
X57553250Y-49639021D01*
X57556735Y-49568110D01*
X57598005Y-49510340D01*
X57663955Y-49484053D01*
X57675743Y-49483500D01*
X58750400Y-49483500D01*
X58753646Y-49483163D01*
X58753650Y-49483163D01*
X58849308Y-49473238D01*
X58849312Y-49473237D01*
X58856166Y-49472526D01*
X58862702Y-49470345D01*
X58862704Y-49470345D01*
X59016998Y-49418868D01*
X59023946Y-49416550D01*
X59174348Y-49323478D01*
X59299305Y-49198303D01*
X59315368Y-49172245D01*
X59335080Y-49140265D01*
X59389081Y-49052660D01*
X59441852Y-49005168D01*
X59511924Y-48993744D01*
X59577048Y-49022018D01*
X59587510Y-49031805D01*
X59629215Y-49075523D01*
X59696576Y-49146135D01*
X59700854Y-49149318D01*
X59744173Y-49181548D01*
X59881542Y-49283754D01*
X59886293Y-49286170D01*
X59886297Y-49286172D01*
X59949481Y-49318296D01*
X60087051Y-49388240D01*
X60092145Y-49389822D01*
X60092148Y-49389823D01*
X60257583Y-49441192D01*
X60307227Y-49456607D01*
X60312516Y-49457308D01*
X60530489Y-49486198D01*
X60530494Y-49486198D01*
X60535774Y-49486898D01*
X60541103Y-49486698D01*
X60541105Y-49486698D01*
X60650966Y-49482574D01*
X60766158Y-49478249D01*
X60991791Y-49430907D01*
X60996750Y-49428949D01*
X60996752Y-49428948D01*
X61201256Y-49348185D01*
X61201258Y-49348184D01*
X61206221Y-49346224D01*
X61211525Y-49343006D01*
X61382251Y-49239406D01*
X61403317Y-49226623D01*
X61455262Y-49181548D01*
X61573412Y-49079023D01*
X61573414Y-49079021D01*
X61577445Y-49075523D01*
X61644500Y-48993744D01*
X61720240Y-48901373D01*
X61720244Y-48901367D01*
X61723624Y-48897245D01*
X61741552Y-48865750D01*
X61792632Y-48816445D01*
X61862262Y-48802583D01*
X61928333Y-48828566D01*
X61955573Y-48857716D01*
X61960983Y-48865752D01*
X62037441Y-48979319D01*
X62041120Y-48983176D01*
X62041122Y-48983178D01*
X62087510Y-49031805D01*
X62196576Y-49146135D01*
X62200854Y-49149318D01*
X62244173Y-49181548D01*
X62381542Y-49283754D01*
X62386293Y-49286170D01*
X62386297Y-49286172D01*
X62449481Y-49318296D01*
X62587051Y-49388240D01*
X62592145Y-49389822D01*
X62592148Y-49389823D01*
X62757583Y-49441192D01*
X62807227Y-49456607D01*
X62812516Y-49457308D01*
X63030489Y-49486198D01*
X63030494Y-49486198D01*
X63035774Y-49486898D01*
X63041103Y-49486698D01*
X63041105Y-49486698D01*
X63150966Y-49482574D01*
X63266158Y-49478249D01*
X63491791Y-49430907D01*
X63496750Y-49428949D01*
X63496752Y-49428948D01*
X63701256Y-49348185D01*
X63701258Y-49348184D01*
X63706221Y-49346224D01*
X63711525Y-49343006D01*
X63882251Y-49239406D01*
X63903317Y-49226623D01*
X63955262Y-49181548D01*
X64073412Y-49079023D01*
X64073414Y-49079021D01*
X64077445Y-49075523D01*
X64144500Y-48993744D01*
X64220240Y-48901373D01*
X64220244Y-48901367D01*
X64223624Y-48897245D01*
X64241552Y-48865750D01*
X64292632Y-48816445D01*
X64362262Y-48802583D01*
X64428333Y-48828566D01*
X64455573Y-48857716D01*
X64460983Y-48865752D01*
X64537441Y-48979319D01*
X64541120Y-48983176D01*
X64541122Y-48983178D01*
X64587510Y-49031805D01*
X64696576Y-49146135D01*
X64700854Y-49149318D01*
X64744173Y-49181548D01*
X64881542Y-49283754D01*
X64886293Y-49286170D01*
X64886297Y-49286172D01*
X64949481Y-49318296D01*
X65087051Y-49388240D01*
X65092145Y-49389822D01*
X65092148Y-49389823D01*
X65257583Y-49441192D01*
X65307227Y-49456607D01*
X65312516Y-49457308D01*
X65530489Y-49486198D01*
X65530494Y-49486198D01*
X65535774Y-49486898D01*
X65541103Y-49486698D01*
X65541105Y-49486698D01*
X65650966Y-49482574D01*
X65766158Y-49478249D01*
X65991791Y-49430907D01*
X65996750Y-49428949D01*
X65996752Y-49428948D01*
X66201256Y-49348185D01*
X66201258Y-49348184D01*
X66206221Y-49346224D01*
X66211525Y-49343006D01*
X66382251Y-49239406D01*
X66403317Y-49226623D01*
X66455262Y-49181548D01*
X66573412Y-49079023D01*
X66573414Y-49079021D01*
X66577445Y-49075523D01*
X66644500Y-48993744D01*
X66720240Y-48901373D01*
X66720244Y-48901367D01*
X66723624Y-48897245D01*
X66732777Y-48881166D01*
X66741829Y-48865265D01*
X66792912Y-48815959D01*
X66862542Y-48802098D01*
X66928613Y-48828082D01*
X66955851Y-48857232D01*
X67034852Y-48974578D01*
X67041519Y-48982870D01*
X67193228Y-49141900D01*
X67201186Y-49148941D01*
X67377525Y-49280141D01*
X67386562Y-49285745D01*
X67582484Y-49385357D01*
X67592335Y-49389357D01*
X67802240Y-49454534D01*
X67812624Y-49456817D01*
X67828043Y-49458861D01*
X67842207Y-49456665D01*
X67846000Y-49443478D01*
X67846000Y-49441192D01*
X68354000Y-49441192D01*
X68357973Y-49454723D01*
X68368580Y-49456248D01*
X68486421Y-49431523D01*
X68496617Y-49428463D01*
X68701029Y-49347737D01*
X68710561Y-49343006D01*
X68898462Y-49228984D01*
X68907052Y-49222720D01*
X69073052Y-49078673D01*
X69080472Y-49071042D01*
X69219826Y-48901089D01*
X69225848Y-48892326D01*
X69241238Y-48865289D01*
X69292320Y-48815982D01*
X69361951Y-48802120D01*
X69428022Y-48828103D01*
X69455261Y-48857253D01*
X69483153Y-48898682D01*
X69537441Y-48979319D01*
X69541120Y-48983176D01*
X69541122Y-48983178D01*
X69587510Y-49031805D01*
X69696576Y-49146135D01*
X69700854Y-49149318D01*
X69744173Y-49181548D01*
X69881542Y-49283754D01*
X69886293Y-49286170D01*
X69886297Y-49286172D01*
X69949481Y-49318296D01*
X70087051Y-49388240D01*
X70092145Y-49389822D01*
X70092148Y-49389823D01*
X70257583Y-49441192D01*
X70307227Y-49456607D01*
X70312516Y-49457308D01*
X70530489Y-49486198D01*
X70530494Y-49486198D01*
X70535774Y-49486898D01*
X70541103Y-49486698D01*
X70541105Y-49486698D01*
X70650966Y-49482574D01*
X70766158Y-49478249D01*
X70991791Y-49430907D01*
X70996750Y-49428949D01*
X70996752Y-49428948D01*
X71201256Y-49348185D01*
X71201258Y-49348184D01*
X71206221Y-49346224D01*
X71211525Y-49343006D01*
X71382251Y-49239406D01*
X71403317Y-49226623D01*
X71455262Y-49181548D01*
X71573412Y-49079023D01*
X71573414Y-49079021D01*
X71577445Y-49075523D01*
X71644500Y-48993744D01*
X71720240Y-48901373D01*
X71720244Y-48901367D01*
X71723624Y-48897245D01*
X71726740Y-48891772D01*
X71835032Y-48701529D01*
X71837675Y-48696886D01*
X71916337Y-48480175D01*
X71922647Y-48445280D01*
X71956623Y-48257392D01*
X71956624Y-48257385D01*
X71957361Y-48253308D01*
X71958500Y-48229156D01*
X71958500Y-47817110D01*
X71952525Y-47746692D01*
X71944371Y-47650591D01*
X71944370Y-47650587D01*
X71943920Y-47645280D01*
X71942582Y-47640125D01*
X71942581Y-47640119D01*
X71887343Y-47427297D01*
X71887342Y-47427293D01*
X71886001Y-47422128D01*
X71882630Y-47414643D01*
X71805445Y-47243299D01*
X71791312Y-47211925D01*
X71662559Y-47020681D01*
X71639429Y-46996434D01*
X71574725Y-46928608D01*
X71503424Y-46853865D01*
X71496078Y-46848399D01*
X71322740Y-46719432D01*
X71322741Y-46719432D01*
X71318458Y-46716246D01*
X71313707Y-46713830D01*
X71313703Y-46713828D01*
X71195588Y-46653776D01*
X71112949Y-46611760D01*
X71107855Y-46610178D01*
X71107852Y-46610177D01*
X70897871Y-46544976D01*
X70892773Y-46543393D01*
X70883832Y-46542208D01*
X70669511Y-46513802D01*
X70669506Y-46513802D01*
X70664226Y-46513102D01*
X70658897Y-46513302D01*
X70658895Y-46513302D01*
X70549034Y-46517427D01*
X70433842Y-46521751D01*
X70428623Y-46522846D01*
X70364639Y-46536271D01*
X70208209Y-46569093D01*
X70203250Y-46571051D01*
X70203248Y-46571052D01*
X69998744Y-46651815D01*
X69998742Y-46651816D01*
X69993779Y-46653776D01*
X69989220Y-46656543D01*
X69989217Y-46656544D01*
X69894113Y-46714255D01*
X69796683Y-46773377D01*
X69792653Y-46776874D01*
X69662698Y-46889643D01*
X69622555Y-46924477D01*
X69595971Y-46956899D01*
X69479760Y-47098627D01*
X69479756Y-47098633D01*
X69476376Y-47102755D01*
X69473738Y-47107390D01*
X69473733Y-47107398D01*
X69458171Y-47134735D01*
X69407088Y-47184041D01*
X69337458Y-47197902D01*
X69271387Y-47171918D01*
X69244149Y-47142768D01*
X69165148Y-47025422D01*
X69158481Y-47017130D01*
X69006772Y-46858100D01*
X68998814Y-46851059D01*
X68822475Y-46719859D01*
X68813438Y-46714255D01*
X68617516Y-46614643D01*
X68607665Y-46610643D01*
X68397760Y-46545466D01*
X68387376Y-46543183D01*
X68371957Y-46541139D01*
X68357793Y-46543335D01*
X68354000Y-46556522D01*
X68354000Y-49441192D01*
X67846000Y-49441192D01*
X67846000Y-46558808D01*
X67842027Y-46545277D01*
X67831420Y-46543752D01*
X67713579Y-46568477D01*
X67703383Y-46571537D01*
X67498971Y-46652263D01*
X67489439Y-46656994D01*
X67301538Y-46771016D01*
X67292948Y-46777280D01*
X67126948Y-46921327D01*
X67119528Y-46928958D01*
X66980174Y-47098911D01*
X66974152Y-47107674D01*
X66958762Y-47134711D01*
X66907680Y-47184018D01*
X66838049Y-47197880D01*
X66771978Y-47171897D01*
X66744739Y-47142747D01*
X66695354Y-47069393D01*
X66662559Y-47020681D01*
X66639429Y-46996434D01*
X66574725Y-46928608D01*
X66503424Y-46853865D01*
X66496078Y-46848399D01*
X66322740Y-46719432D01*
X66322741Y-46719432D01*
X66318458Y-46716246D01*
X66313707Y-46713830D01*
X66313703Y-46713828D01*
X66195588Y-46653776D01*
X66112949Y-46611760D01*
X66107855Y-46610178D01*
X66107852Y-46610177D01*
X65897871Y-46544976D01*
X65892773Y-46543393D01*
X65883832Y-46542208D01*
X65669511Y-46513802D01*
X65669506Y-46513802D01*
X65664226Y-46513102D01*
X65658897Y-46513302D01*
X65658895Y-46513302D01*
X65549034Y-46517427D01*
X65433842Y-46521751D01*
X65428623Y-46522846D01*
X65364639Y-46536271D01*
X65208209Y-46569093D01*
X65203250Y-46571051D01*
X65203248Y-46571052D01*
X64998744Y-46651815D01*
X64998742Y-46651816D01*
X64993779Y-46653776D01*
X64989220Y-46656543D01*
X64989217Y-46656544D01*
X64894113Y-46714255D01*
X64796683Y-46773377D01*
X64792653Y-46776874D01*
X64662698Y-46889643D01*
X64622555Y-46924477D01*
X64595971Y-46956899D01*
X64479760Y-47098627D01*
X64479756Y-47098633D01*
X64476376Y-47102755D01*
X64458448Y-47134250D01*
X64407368Y-47183555D01*
X64337738Y-47197417D01*
X64271667Y-47171434D01*
X64244427Y-47142284D01*
X64217814Y-47102755D01*
X64162559Y-47020681D01*
X64139429Y-46996434D01*
X64074725Y-46928608D01*
X64003424Y-46853865D01*
X63996078Y-46848399D01*
X63822740Y-46719432D01*
X63822741Y-46719432D01*
X63818458Y-46716246D01*
X63813707Y-46713830D01*
X63813703Y-46713828D01*
X63695588Y-46653776D01*
X63612949Y-46611760D01*
X63607855Y-46610178D01*
X63607852Y-46610177D01*
X63397871Y-46544976D01*
X63392773Y-46543393D01*
X63383832Y-46542208D01*
X63169511Y-46513802D01*
X63169506Y-46513802D01*
X63164226Y-46513102D01*
X63158897Y-46513302D01*
X63158895Y-46513302D01*
X63049034Y-46517427D01*
X62933842Y-46521751D01*
X62928623Y-46522846D01*
X62864639Y-46536271D01*
X62708209Y-46569093D01*
X62703250Y-46571051D01*
X62703248Y-46571052D01*
X62498744Y-46651815D01*
X62498742Y-46651816D01*
X62493779Y-46653776D01*
X62489220Y-46656543D01*
X62489217Y-46656544D01*
X62394113Y-46714255D01*
X62296683Y-46773377D01*
X62292653Y-46776874D01*
X62162698Y-46889643D01*
X62122555Y-46924477D01*
X62095971Y-46956899D01*
X61979760Y-47098627D01*
X61979756Y-47098633D01*
X61976376Y-47102755D01*
X61958448Y-47134250D01*
X61907368Y-47183555D01*
X61837738Y-47197417D01*
X61771667Y-47171434D01*
X61744427Y-47142284D01*
X61717814Y-47102755D01*
X61662559Y-47020681D01*
X61639429Y-46996434D01*
X61574725Y-46928608D01*
X61503424Y-46853865D01*
X61496078Y-46848399D01*
X61322740Y-46719432D01*
X61322741Y-46719432D01*
X61318458Y-46716246D01*
X61313707Y-46713830D01*
X61313703Y-46713828D01*
X61195588Y-46653776D01*
X61112949Y-46611760D01*
X61107855Y-46610178D01*
X61107852Y-46610177D01*
X60897871Y-46544976D01*
X60892773Y-46543393D01*
X60883832Y-46542208D01*
X60669511Y-46513802D01*
X60669506Y-46513802D01*
X60664226Y-46513102D01*
X60658897Y-46513302D01*
X60658895Y-46513302D01*
X60549034Y-46517427D01*
X60433842Y-46521751D01*
X60428623Y-46522846D01*
X60364639Y-46536271D01*
X60208209Y-46569093D01*
X60203250Y-46571051D01*
X60203248Y-46571052D01*
X59998744Y-46651815D01*
X59998742Y-46651816D01*
X59993779Y-46653776D01*
X59989220Y-46656543D01*
X59989217Y-46656544D01*
X59894113Y-46714255D01*
X59796683Y-46773377D01*
X59792653Y-46776874D01*
X59662698Y-46889643D01*
X59622555Y-46924477D01*
X59593330Y-46960120D01*
X59534671Y-47000114D01*
X59463701Y-47002046D01*
X59402952Y-46965302D01*
X59388752Y-46946532D01*
X59302332Y-46806880D01*
X59298478Y-46800652D01*
X59173303Y-46675695D01*
X59142965Y-46656994D01*
X59028968Y-46586725D01*
X59028966Y-46586724D01*
X59022738Y-46582885D01*
X58909353Y-46545277D01*
X58861389Y-46529368D01*
X58861387Y-46529368D01*
X58854861Y-46527203D01*
X58848025Y-46526503D01*
X58848022Y-46526502D01*
X58804969Y-46522091D01*
X58750400Y-46516500D01*
X57449600Y-46516500D01*
X57446354Y-46516837D01*
X57446350Y-46516837D01*
X57350692Y-46526762D01*
X57350688Y-46526763D01*
X57343834Y-46527474D01*
X57337298Y-46529655D01*
X57337296Y-46529655D01*
X57205194Y-46573728D01*
X57176054Y-46583450D01*
X57025652Y-46676522D01*
X56900695Y-46801697D01*
X56896855Y-46807927D01*
X56896854Y-46807928D01*
X56822466Y-46928608D01*
X56807885Y-46952262D01*
X56786472Y-47016822D01*
X56756432Y-47107390D01*
X56752203Y-47120139D01*
X56751503Y-47126975D01*
X56751502Y-47126978D01*
X56749884Y-47142768D01*
X56741500Y-47224600D01*
X56741500Y-48766005D01*
X56721498Y-48834126D01*
X56667842Y-48880619D01*
X56608761Y-48889774D01*
X56608663Y-48891772D01*
X56604643Y-48891575D01*
X56604626Y-48891575D01*
X56603101Y-48891500D01*
X56447154Y-48891500D01*
X56289434Y-48906548D01*
X56086466Y-48966092D01*
X56081139Y-48968836D01*
X56081138Y-48968836D01*
X55903751Y-49060196D01*
X55903748Y-49060198D01*
X55898420Y-49062942D01*
X55732080Y-49193604D01*
X55728148Y-49198135D01*
X55728145Y-49198138D01*
X55652124Y-49285745D01*
X55593448Y-49353363D01*
X55590448Y-49358549D01*
X55590445Y-49358553D01*
X55502634Y-49510340D01*
X55487527Y-49536454D01*
X55418139Y-49736271D01*
X55417278Y-49742206D01*
X55417278Y-49742208D01*
X55390389Y-49927661D01*
X55387787Y-49945604D01*
X53710238Y-49945604D01*
X53692920Y-49615167D01*
X53692234Y-49608629D01*
X53632465Y-49231266D01*
X53631094Y-49224816D01*
X53532212Y-48855784D01*
X53530171Y-48849502D01*
X53393260Y-48492836D01*
X53390578Y-48486811D01*
X53217128Y-48146397D01*
X53213831Y-48140687D01*
X53005747Y-47820265D01*
X53001877Y-47814939D01*
X52808522Y-47576165D01*
X52796267Y-47567700D01*
X52785176Y-47574034D01*
X50372022Y-49987188D01*
X50364408Y-50001132D01*
X49634356Y-50001132D01*
X49635592Y-49998868D01*
X49635461Y-49997035D01*
X49631210Y-49990420D01*
X47215690Y-47574900D01*
X47202614Y-47567759D01*
X47192247Y-47575216D01*
X46998123Y-47814939D01*
X46994253Y-47820265D01*
X46786169Y-48140687D01*
X46782872Y-48146397D01*
X46609422Y-48486811D01*
X46606740Y-48492836D01*
X46469829Y-48849502D01*
X46467788Y-48855784D01*
X46368906Y-49224816D01*
X46367535Y-49231266D01*
X46307766Y-49608629D01*
X46307080Y-49615167D01*
X46287084Y-49996699D01*
X46287084Y-50003301D01*
X44513689Y-50003301D01*
X44513729Y-50000000D01*
X44513039Y-49995185D01*
X44513039Y-49995178D01*
X44511316Y-49983148D01*
X44510151Y-49960077D01*
X44510402Y-49954023D01*
X44522024Y-49673022D01*
X44527041Y-49551722D01*
X44527901Y-49541344D01*
X44570661Y-49198303D01*
X44582753Y-49101298D01*
X44584466Y-49091030D01*
X44587718Y-49075523D01*
X44675467Y-48657024D01*
X44678023Y-48646928D01*
X44804561Y-48221899D01*
X44807938Y-48212062D01*
X44969147Y-47798919D01*
X44973318Y-47789411D01*
X44978906Y-47777982D01*
X45168082Y-47391015D01*
X45173037Y-47381859D01*
X45175483Y-47377755D01*
X45279177Y-47203733D01*
X47567700Y-47203733D01*
X47574034Y-47214824D01*
X49987188Y-49627978D01*
X50001132Y-49635592D01*
X50002965Y-49635461D01*
X50009580Y-49631210D01*
X52425100Y-47215690D01*
X52432241Y-47202614D01*
X52424784Y-47192247D01*
X52185065Y-46998126D01*
X52179728Y-46994249D01*
X51859315Y-46786170D01*
X51853606Y-46782873D01*
X51513189Y-46609422D01*
X51507164Y-46606740D01*
X51150498Y-46469829D01*
X51144216Y-46467788D01*
X50775184Y-46368906D01*
X50768734Y-46367535D01*
X50391371Y-46307766D01*
X50384833Y-46307080D01*
X50003301Y-46287084D01*
X49996699Y-46287084D01*
X49615167Y-46307080D01*
X49608629Y-46307766D01*
X49231266Y-46367535D01*
X49224816Y-46368906D01*
X48855784Y-46467788D01*
X48849502Y-46469829D01*
X48492836Y-46606740D01*
X48486811Y-46609422D01*
X48146397Y-46782872D01*
X48140687Y-46786169D01*
X47820265Y-46994253D01*
X47814939Y-46998123D01*
X47576165Y-47191478D01*
X47567700Y-47203733D01*
X45279177Y-47203733D01*
X45390368Y-47017130D01*
X45400030Y-47000915D01*
X45405726Y-46992196D01*
X45663405Y-46631295D01*
X45669801Y-46623077D01*
X45956413Y-46284674D01*
X45963467Y-46277013D01*
X46277013Y-45963467D01*
X46284674Y-45956413D01*
X46623077Y-45669801D01*
X46631295Y-45663405D01*
X46992196Y-45405726D01*
X47000915Y-45400030D01*
X47381859Y-45173037D01*
X47391017Y-45168081D01*
X47789419Y-44973314D01*
X47798919Y-44969147D01*
X48212062Y-44807938D01*
X48221899Y-44804561D01*
X48646928Y-44678023D01*
X48657024Y-44675467D01*
X48927946Y-44618661D01*
X49091033Y-44584465D01*
X49101298Y-44582753D01*
X49265326Y-44562307D01*
X49541344Y-44527901D01*
X49551722Y-44527041D01*
X49729324Y-44519695D01*
X49956339Y-44510306D01*
X49980920Y-44511698D01*
X49993724Y-44513691D01*
X50002626Y-44512527D01*
X50002628Y-44512527D01*
X50019610Y-44510306D01*
X50025286Y-44509564D01*
X50041621Y-44508500D01*
X149950633Y-44508500D01*
X149970018Y-44510000D01*
G37*
%TD.AperFunction*%
%TD*%
M02*
