M48
; DRILL file {KiCad (6.0.7-1)-1} date 2022 October 27, Thursday 13:07:51
; FORMAT={-:-/ absolute / inch / decimal}
; #@! TF.CreationDate,2022-10-27T13:07:51+02:00
; #@! TF.GenerationSoftware,Kicad,Pcbnew,(6.0.7-1)-1
; #@! TF.FileFunction,Plated,1,4,PTH
FMAT,2
INCH
; #@! TA.AperFunction,Plated,PTH,ViaDrill
T1C0.0157
; #@! TA.AperFunction,Plated,PTH,ComponentDrill
T2C0.0197
; #@! TA.AperFunction,Plated,PTH,ComponentDrill
T3C0.0315
; #@! TA.AperFunction,Plated,PTH,ComponentDrill
T4C0.0374
; #@! TA.AperFunction,Plated,PTH,ComponentDrill
T5C0.0394
; #@! TA.AperFunction,Plated,PTH,ComponentDrill
T6C0.1260
%
G90
G05
T1
X2.315Y-2.5039
X2.685Y-2.7795
X2.685Y-2.874
X3.5512Y-2.5276
X3.5748Y-2.4882
X3.6063Y-2.4488
X3.6299Y-2.4094
X3.685Y-2.3386
X3.7238Y-2.3797
X3.7717Y-2.6535
X3.811Y-2.6693
X3.8504Y-3.063
X3.9291Y-2.3228
X3.9291Y-3.2126
X3.9606Y-2.3543
X3.9606Y-3.1654
X3.9782Y-2.3895
X3.9921Y-3.1181
X4.0Y-2.4252
X4.0157Y-2.4646
X4.0325Y-3.0777
X4.1417Y-2.0787
X4.4173Y-3.0709
X4.5591Y-2.6299
X4.5591Y-2.6772
X4.748Y-3.5591
X4.7717Y-2.9764
X4.8031Y-3.252
X4.8976Y-3.0236
X5.1181Y-2.8425
X5.1654Y-2.8031
X5.3071Y-2.6063
X5.3659Y-3.1703
X5.9449Y-2.3543
T2
X1.874Y-1.9685
X1.874Y-3.5433
X1.9017Y-1.9017
X1.9017Y-2.0353
X1.9017Y-3.4765
X1.9017Y-3.6101
X1.9685Y-1.874
X1.9685Y-2.063
X1.9685Y-3.4488
X1.9685Y-3.6378
X2.0353Y-1.9017
X2.0353Y-2.0353
X2.0353Y-3.4765
X2.0353Y-3.6101
X2.063Y-1.9685
X2.063Y-3.5433
X5.811Y-1.9685
X5.811Y-3.5433
X5.8387Y-1.9017
X5.8387Y-2.0353
X5.8387Y-3.4765
X5.8387Y-3.6101
X5.9055Y-1.874
X5.9055Y-2.063
X5.9055Y-3.4488
X5.9055Y-3.6378
X5.9723Y-1.9017
X5.9723Y-2.0353
X5.9723Y-3.4765
X5.9723Y-3.6101
X6.0Y-1.9685
X6.0Y-3.5433
T3
X2.5057Y-2.5512
X2.5844Y-2.5512
X3.2992Y-2.5923
X3.2992Y-2.6711
X3.6378Y-2.1339
X3.6378Y-2.2126
X5.4937Y-2.6191
X5.5724Y-2.6191
T4
X2.1181Y-2.6102
X2.1181Y-2.7087
X2.1181Y-2.8071
X2.1181Y-2.9055
X2.1181Y-3.0039
X2.1181Y-3.1024
X2.2874Y-1.8898
X2.3858Y-1.8898
X2.4843Y-1.8898
X2.5827Y-1.8898
X2.6811Y-1.8898
X2.7795Y-1.8898
X2.9488Y-3.4833
X3.0394Y-1.9006
X3.0472Y-3.4833
X3.1378Y-1.9006
X3.1457Y-3.4833
X3.2362Y-1.9006
X3.3346Y-1.9006
X3.4134Y-3.4833
X3.4331Y-1.9006
X3.5118Y-3.4833
X3.6102Y-3.4833
X3.811Y-1.9528
X3.9094Y-1.9528
X4.0079Y-1.9528
X4.3228Y-1.9242
X4.4213Y-1.9242
X4.5197Y-1.9242
X4.6181Y-1.9242
X4.7165Y-1.9242
X5.0118Y-1.9213
X5.1102Y-1.9213
X5.2087Y-1.9213
X5.3071Y-1.9213
X5.4055Y-1.9213
X5.5039Y-1.9213
X5.8748Y-2.5778
X5.8748Y-2.6762
X5.8748Y-2.7746
X5.8748Y-2.873
X5.8748Y-2.9715
X5.8748Y-3.0699
T5
X3.9193Y-3.4754
X4.0177Y-3.4754
T6
X1.9685Y-1.9685
X1.9685Y-3.5433
X5.9055Y-1.9685
X5.9055Y-3.5433
T0
M30
